<?xml version="1.0" standalone="no"?>
<!DOCTYPE svg PUBLIC "-//W3C//DTD SVG 1.1//EN" "http://www.w3.org/Graphics/SVG/1.1/DTD/svg11.dtd" >
<svg xmlns="http://www.w3.org/2000/svg" xmlns:xlink="http://www.w3.org/1999/xlink" version="1.1">
<metadata>
Created by FontForge 20190801 at Tue Mar 26 21:49:28 2019
 By Jimmy Wärting
Copyright (c) 2018 ParaType Inc., ParaType Ltd. All rights reserved.
</metadata>
<defs>
<font id="SBSansInterface-Regular" horiz-adv-x="450" >
  <font-face 
    font-family="SB Sans Interface"
    font-weight="400"
    font-stretch="normal"
    units-per-em="1000"
    panose-1="2 11 5 3 4 5 4 2 2 4"
    ascent="815"
    descent="-185"
    x-height="526"
    cap-height="700"
    bbox="-323 -221 1244 939"
    underline-thickness="50"
    underline-position="-113"
    stemh="81"
    stemv="92"
    unicode-range="U+0020-FEFF"
  />
<missing-glyph horiz-adv-x="250" 
 />
    <glyph glyph-name="f_f" unicode="ff" horiz-adv-x="730" 
d="M459 0v447h-242v-447h-88v447h-94v79h94v73c0 112 46 160 154 160c32 0 58 -4 75 -10v-88c-15 9 -39 16 -67 16c-54 0 -74 -21 -74 -90v-61h242v73c0 112 46 160 154 160c35 0 63 -5 82 -11v-88c-16 9 -42 17 -74 17c-54 0 -74 -21 -74 -90v-61h148v-79h-148v-447h-88z
" />
    <glyph glyph-name="fi" unicode="fi" horiz-adv-x="635" 
d="M466 0v447h-249v-447h-88v447h-94v79h94v73c0 112 46 160 154 160c32 0 58 -4 75 -10v-88c-15 9 -39 16 -67 16c-54 0 -74 -21 -74 -90v-61h337v-526h-88zM510 632c-37 0 -56 19 -56 54s19 54 56 54c38 0 57 -19 57 -54s-19 -54 -57 -54z" />
    <glyph glyph-name="fl" unicode="fl" horiz-adv-x="685" 
d="M575 -6c-89 0 -129 42 -129 132v546c-54 2 -95 5 -142 5c-64 0 -87 -23 -87 -89v-62h114v-79h-114v-447h-88v447h-94v79h94v73c0 108 49 160 167 160c58 0 107 -4 194 -6h44v-610c0 -52 16 -66 57 -66c23 0 49 9 59 14v-82c-10 -4 -39 -15 -75 -15z" />
    <glyph glyph-name="f_f_i" unicode="ffi" horiz-adv-x="955" 
d="M456 0v447h-239v-447h-88v447h-94v79h94v73c0 112 46 160 154 160c32 0 58 -4 75 -10v-88c-15 9 -39 16 -67 16c-54 0 -74 -21 -74 -90v-61h239v73c0 112 45 160 154 160c32 0 58 -4 75 -10v-88c-15 9 -40 16 -68 16c-53 0 -73 -21 -73 -90v-61h330v-526h-88v447h-242
v-447h-88zM830 632c-37 0 -56 19 -56 54s19 54 56 54c38 0 57 -19 57 -54s-19 -54 -57 -54z" />
    <glyph glyph-name="f_f_l" unicode="ffl" horiz-adv-x="1015" 
d="M456 0v447h-239v-447h-88v447h-94v79h94v73c0 112 46 160 154 160c32 0 58 -4 75 -10v-88c-15 9 -39 16 -67 16c-54 0 -74 -21 -74 -90v-61h239v73c0 108 49 160 167 160c57 0 110 -4 197 -6h44v-610c0 -52 16 -66 57 -66c23 0 49 9 59 14v-82c-10 -4 -39 -15 -75 -15
c-89 0 -129 42 -129 132v546c-55 2 -98 5 -146 5c-63 0 -86 -23 -86 -89v-62h117v-79h-117v-447h-88z" />
    <glyph glyph-name=".notdef" horiz-adv-x="250" 
 />
    <glyph glyph-name="space" unicode=" " horiz-adv-x="250" 
 />
    <glyph glyph-name="exclam" unicode="!" horiz-adv-x="330" 
d="M165 -6c-41 0 -64 22 -64 64c0 41 23 64 64 64s64 -23 64 -64c0 -42 -23 -64 -64 -64zM123 229l-5 471h94l-5 -471h-84z" />
    <glyph glyph-name="quotedbl" unicode="&#x22;" horiz-adv-x="470" 
d="M93 420v280h78v-280h-78zM299 420v280h78v-280h-78z" />
    <glyph glyph-name="numbersign" unicode="#" horiz-adv-x="600" 
d="M305 0l34 195h-133l-34 -195h-80l34 195h-101l14 74h100l29 162h-101l13 74h101l34 195h80l-34 -195h133l34 195h80l-34 -195h101l-13 -74h-101l-29 -162h101l-13 -74h-101l-34 -195h-80zM248 431l-29 -162h133l29 162h-133z" />
    <glyph glyph-name="dollar" unicode="$" horiz-adv-x="600" 
d="M268 -120v110c-75 4 -141 26 -179 52v106c40 -35 111 -73 199 -73c101 0 141 40 141 110c0 178 -340 89 -340 337c0 107 54 173 179 186v92h74v-90c63 -3 117 -16 152 -34v-106c-39 33 -107 55 -172 55c-105 0 -137 -33 -137 -100c0 -171 339 -75 339 -337
c0 -113 -57 -183 -182 -196v-112h-74z" />
    <glyph glyph-name="percent" unicode="%" horiz-adv-x="860" 
d="M160 0l465 700h75l-465 -700h-75zM233 374c-103 0 -163 60 -163 166c0 105 61 166 163 166c104 0 164 -60 164 -166c0 -105 -61 -166 -164 -166zM233 438c61 0 94 32 94 102s-33 102 -94 102s-93 -32 -93 -102s32 -102 93 -102zM627 -6c-104 0 -164 60 -164 166
c0 105 61 166 164 166s163 -60 163 -166c0 -105 -61 -166 -163 -166zM627 58c60 0 93 32 93 102s-33 102 -93 102c-62 0 -94 -32 -94 -102s32 -102 94 -102z" />
    <glyph glyph-name="ampersand" unicode="&#x26;" horiz-adv-x="800" 
d="M304 -11c-150 0 -232 73 -232 207c0 97 53 166 152 214c-30 55 -47 109 -47 153c0 93 54 148 165 148c102 0 157 -51 157 -138c0 -99 -72 -148 -174 -189c49 -77 117 -151 195 -211c61 78 96 192 101 310h83c-6 -124 -47 -255 -120 -349c46 -28 91 -47 134 -55v-90
c-63 11 -130 41 -191 86c-62 -56 -139 -86 -223 -86zM312 68c55 0 107 18 151 55c-82 66 -153 147 -204 229c-64 -30 -102 -75 -102 -145c0 -86 46 -139 155 -139zM337 639c-50 0 -83 -24 -83 -82c0 -33 14 -75 38 -117c79 32 128 61 128 124c0 47 -24 75 -83 75z" />
    <glyph glyph-name="quotesingle" unicode="'" horiz-adv-x="270" 
d="M93 420v280h84v-280h-84z" />
    <glyph glyph-name="parenleft" unicode="(" horiz-adv-x="380" 
d="M88 287c0 218 92 365 198 477l53 -43c-83 -106 -161 -231 -161 -435c0 -203 78 -328 161 -434l-53 -43c-106 112 -198 259 -198 478z" />
    <glyph glyph-name="parenright" unicode=")" horiz-adv-x="380" 
d="M292 287c0 -219 -92 -366 -198 -478l-53 43c83 106 161 231 161 435c0 203 -78 328 -161 434l53 43c106 -112 198 -259 198 -477z" />
    <glyph glyph-name="asterisk" unicode="*" horiz-adv-x="500" 
d="M173 335l-63 45l97 116l-140 37l22 77l135 -62l-13 152h78l-13 -152l134 62l23 -77l-140 -38l97 -115l-64 -45l-77 128z" />
    <glyph glyph-name="plus" unicode="+" horiz-adv-x="600" 
d="M95 318v81h165v164h80v-164h165v-81h-165v-164h-80v164h-165z" />
    <glyph glyph-name="comma" unicode="," horiz-adv-x="320" 
d="M101 -164l-35 54c58 20 92 64 96 104c-43 0 -66 23 -66 64c0 42 23 64 64 64c49 0 70 -30 70 -89c0 -93 -57 -168 -129 -197z" />
    <glyph glyph-name="hyphen" unicode="-" horiz-adv-x="400" 
d="M45 235v80h310v-80h-310z" />
    <glyph glyph-name="period" unicode="." horiz-adv-x="320" 
d="M160 -6c-41 0 -64 23 -64 64c0 42 23 64 64 64s64 -22 64 -64c0 -41 -23 -64 -64 -64z" />
    <glyph glyph-name="slash" unicode="/" horiz-adv-x="400" 
d="M10 -180l296 933h84l-296 -933h-84z" />
    <glyph glyph-name="zero" unicode="0" horiz-adv-x="600" 
d="M300 -11c-148 0 -235 87 -235 361c0 275 86 361 235 361c156 0 235 -78 235 -361c0 -279 -83 -361 -235 -361zM300 75c93 0 139 46 139 275s-45 275 -139 275c-92 0 -139 -48 -139 -275c0 -222 53 -275 139 -275z" />
    <glyph glyph-name="one" unicode="1" horiz-adv-x="600" 
d="M116 0v80h191v514l-191 -123v89l218 140h65v-620h135v-80h-418z" />
    <glyph glyph-name="two" unicode="2" horiz-adv-x="600" 
d="M68 0v64c242 228 352 291 352 424c0 94 -48 137 -150 137c-72 0 -136 -30 -185 -68v108c54 28 127 46 201 46c161 0 228 -74 228 -205c0 -154 -97 -231 -313 -423h321v-83h-454z" />
    <glyph glyph-name="three" unicode="3" horiz-adv-x="600" 
d="M186 318v79h73c105 0 153 44 153 121c0 75 -36 108 -142 108c-84 0 -150 -31 -191 -57v98c49 24 131 43 212 43c161 0 215 -62 215 -175c0 -95 -47 -147 -136 -169c107 -11 160 -68 160 -171c0 -135 -79 -206 -246 -206c-84 0 -167 19 -214 44v108
c44 -33 116 -65 203 -65c132 0 162 50 162 128c0 74 -46 114 -171 114h-78z" />
    <glyph glyph-name="four" unicode="4" horiz-adv-x="600" 
d="M363 0v181h-326v58l307 461h112v-436h92v-83h-92v-181h-93zM143 264h220v333z" />
    <glyph glyph-name="five" unicode="5" horiz-adv-x="600" 
d="M94 343l25 357h381v-83h-310l-15 -188c24 4 71 6 122 6c163 0 228 -72 228 -208c0 -147 -66 -238 -258 -238c-63 0 -134 13 -182 33v100c44 -31 114 -49 176 -49c122 0 171 49 171 149c0 97 -43 134 -172 134c-63 0 -128 -6 -166 -13z" />
    <glyph glyph-name="six" unicode="6" horiz-adv-x="600" 
d="M313 -11c-180 0 -251 112 -251 333c0 272 104 389 298 389c53 0 100 -9 136 -23v-99c-31 20 -72 37 -143 37c-120 0 -209 -75 -209 -268c0 -7 1 -17 1 -29c35 78 98 122 197 122c135 0 203 -82 203 -216c0 -171 -100 -246 -232 -246zM314 71c81 0 139 48 139 154
c0 107 -46 150 -137 150c-100 0 -144 -62 -156 -121c1 -114 52 -183 154 -183z" />
    <glyph glyph-name="seven" unicode="7" horiz-adv-x="600" 
d="M157 0l268 617h-365v83h470v-60l-274 -640h-99z" />
    <glyph glyph-name="eight" unicode="8" horiz-adv-x="600" 
d="M302 -11c-168 0 -241 75 -241 203c0 85 26 154 136 179c-91 20 -120 72 -120 160c0 111 68 180 224 180c155 0 218 -61 218 -166c0 -87 -22 -147 -117 -172c107 -20 137 -82 137 -178c0 -121 -70 -206 -237 -206zM303 70c96 0 141 47 141 133c0 90 -48 133 -142 131
c-110 -2 -146 -53 -146 -129c0 -90 50 -135 147 -135zM303 399c98 2 124 51 124 120c0 78 -36 111 -127 111c-95 0 -130 -43 -130 -115s38 -118 133 -116z" />
    <glyph glyph-name="nine" unicode="9" horiz-adv-x="600" 
d="M243 -11c-54 0 -100 10 -136 25v99c31 -21 72 -39 143 -39c120 0 209 75 209 268c0 10 0 21 -1 30c-33 -77 -96 -122 -195 -122c-136 0 -204 82 -204 215c0 171 99 246 231 246c183 0 251 -111 251 -337c0 -267 -104 -385 -298 -385zM288 326c102 0 147 60 156 127
c-2 110 -49 176 -155 176c-81 0 -139 -48 -139 -154c0 -105 48 -149 138 -149z" />
    <glyph glyph-name="colon" unicode=":" horiz-adv-x="330" 
d="M165 -6c-41 0 -64 23 -64 64c0 42 23 64 64 64s64 -22 64 -64c0 -41 -23 -64 -64 -64zM165 384c-41 0 -64 23 -64 64c0 42 23 64 64 64s64 -22 64 -64c0 -41 -23 -64 -64 -64z" />
    <glyph glyph-name="semicolon" unicode=";" horiz-adv-x="330" 
d="M106 -164l-35 54c58 20 92 64 96 104c-43 0 -66 23 -66 64c0 42 23 64 64 64c49 0 70 -30 70 -89c0 -93 -57 -168 -129 -197zM165 384c-41 0 -64 23 -64 64c0 42 23 64 64 64s64 -22 64 -64c0 -41 -23 -64 -64 -64z" />
    <glyph glyph-name="less" unicode="&#x3c;" horiz-adv-x="600" 
d="M505 118l-410 200v78l410 199v-91l-310 -145l310 -145v-96z" />
    <glyph glyph-name="equal" unicode="=" horiz-adv-x="600" 
d="M95 214v80h410v-80h-410zM95 420v80h410v-80h-410z" />
    <glyph glyph-name="greater" unicode="&#x3e;" horiz-adv-x="600" 
d="M95 595l410 -199v-78l-410 -200v92l310 145l-310 145v95z" />
    <glyph glyph-name="question" unicode="?" horiz-adv-x="480" 
d="M195 -6c-41 0 -64 23 -64 64c0 42 23 64 64 64s64 -22 64 -64c0 -41 -23 -64 -64 -64zM152 219c0 183 185 159 185 304c0 65 -39 104 -130 104c-66 0 -116 -21 -157 -47v98c48 22 106 33 164 33c152 0 216 -63 216 -180c0 -195 -193 -173 -193 -312h-85z" />
    <glyph glyph-name="at" unicode="@" horiz-adv-x="900" 
d="M466 -131c-264 0 -398 166 -398 415c0 244 136 421 393 421c231 0 371 -141 371 -374c0 -184 -75 -268 -174 -268c-68 0 -98 27 -106 99c-16 -63 -60 -99 -135 -99c-114 0 -159 73 -159 225c0 157 67 226 169 226c78 0 106 -36 120 -81l8 72h63v-309c0 -48 12 -70 48 -70
c53 0 106 51 106 202c0 199 -107 318 -313 318c-218 0 -329 -137 -329 -363c0 -212 106 -355 335 -355c64 0 132 17 172 43v-68c-43 -18 -106 -34 -171 -34zM436 128c72 0 104 47 104 140v52c0 92 -35 129 -98 129c-70 0 -107 -40 -107 -159c0 -110 21 -162 101 -162z" />
    <glyph glyph-name="A" unicode="A" horiz-adv-x="640" 
d="M20 0l250 700h100l250 -700h-99l-63 185h-281l-63 -185h-94zM318 596l-113 -331h225z" />
    <glyph glyph-name="B" unicode="B" horiz-adv-x="625" 
d="M308 -6c-94 0 -207 11 -207 11v690s114 11 204 11c186 0 241 -56 241 -184c0 -84 -37 -136 -116 -158c93 -12 139 -67 139 -165c0 -135 -69 -205 -261 -205zM474 202c0 79 -39 118 -152 118h-129v-238s54 -4 122 -4c122 0 159 36 159 124zM450 513c0 79 -30 109 -142 109
c-64 0 -115 -3 -115 -3v-222h119c101 0 138 38 138 116z" />
    <glyph glyph-name="C" unicode="C" horiz-adv-x="575" 
d="M358 -11c-204 0 -308 103 -308 366c0 249 107 356 305 356c98 0 167 -28 167 -28v-96c-38 22 -93 38 -166 38c-137 0 -210 -73 -210 -270c0 -204 75 -280 214 -280c75 0 136 27 170 47v-97s-74 -36 -172 -36z" />
    <glyph glyph-name="D" unicode="D" horiz-adv-x="680" 
d="M290 -6c-90 0 -189 11 -189 11v690s99 11 192 11c241 0 337 -96 337 -348c0 -253 -111 -364 -340 -364zM534 358c0 199 -62 261 -239 261c-58 0 -102 -5 -102 -5v-528s42 -5 99 -5c168 0 242 74 242 277z" />
    <glyph glyph-name="E" unicode="E" horiz-adv-x="575" 
d="M101 0v700h419v-83h-327v-218h287v-81h-287v-235h327v-83h-419z" />
    <glyph glyph-name="F" unicode="F" horiz-adv-x="545" 
d="M101 0v701h399v-84h-307v-238h277v-84h-277v-295h-92z" />
    <glyph glyph-name="G" unicode="G" horiz-adv-x="650" 
d="M377 -11c-221 0 -327 105 -327 366c0 245 112 356 327 356c100 0 163 -28 163 -28v-96c-37 19 -95 38 -163 38c-154 0 -231 -77 -231 -270c0 -206 74 -280 231 -280c43 0 83 7 113 17v188h-133v80h223v-327c-37 -19 -111 -44 -203 -44z" />
    <glyph glyph-name="H" unicode="H" horiz-adv-x="720" 
d="M101 0v700h92v-299h334v299h92v-700h-92v317h-334v-317h-92z" />
    <glyph glyph-name="I" unicode="I" horiz-adv-x="330" 
d="M119 0v700h92v-700h-92z" />
    <glyph glyph-name="J" unicode="J" horiz-adv-x="420" 
d="M140 -11c-63 0 -105 18 -105 18v97s35 -29 96 -29s90 30 90 108v517h93v-517c0 -140 -54 -194 -174 -194z" />
    <glyph glyph-name="K" unicode="K" horiz-adv-x="655" 
d="M514 0l-248 317h-73v-317h-92v700h92v-300h73l231 300h113l-266 -340l286 -360h-116z" />
    <glyph glyph-name="L" unicode="L" horiz-adv-x="530" 
d="M101 0v700h92v-617h307v-83h-399z" />
    <glyph glyph-name="M" unicode="M" horiz-adv-x="850" 
d="M101 0v700h115l211 -430l211 430h111v-700h-90v459c0 47 0 67 4 114h-3c-17 -47 -26 -65 -51 -114l-145 -295h-78l-145 295c-25 49 -32 67 -51 114h-3c3 -47 4 -67 4 -114v-459h-90z" />
    <glyph glyph-name="N" unicode="N" horiz-adv-x="740" 
d="M101 0v700h103l286 -454c33 -53 58 -106 58 -106h2s-3 53 -3 106v454h92v-700h-103l-286 454c-37 60 -58 106 -58 106h-2s3 -46 3 -106v-454h-92z" />
    <glyph glyph-name="O" unicode="O" horiz-adv-x="710" 
d="M355 -11c-196 0 -305 108 -305 361s109 361 305 361c203 0 305 -102 305 -361c0 -253 -109 -361 -305 -361zM355 73c136 0 209 74 209 277c0 204 -73 277 -209 277c-134 0 -209 -75 -209 -277c0 -200 76 -277 209 -277z" />
    <glyph glyph-name="P" unicode="P" horiz-adv-x="620" 
d="M101 0v695s99 11 196 11c199 0 273 -74 273 -237c0 -162 -84 -246 -273 -246c-62 0 -104 5 -104 5v-228h-92zM474 469c0 108 -42 150 -177 150c-62 0 -104 -5 -104 -5v-299s42 -5 104 -5c129 0 177 47 177 159z" />
    <glyph glyph-name="Q" unicode="Q" horiz-adv-x="710" 
d="M476 -160l-123 149c-195 1 -303 108 -303 361s109 361 305 361c203 0 305 -102 305 -361c0 -206 -72 -315 -204 -349l133 -161h-113zM355 73c136 0 209 74 209 277c0 204 -73 277 -209 277c-134 0 -209 -75 -209 -277c0 -200 76 -277 209 -277z" />
    <glyph glyph-name="R" unicode="R" horiz-adv-x="640" 
d="M485 0l-152 269c-13 -1 -26 -1 -40 -1h-100v-268h-92v695s92 11 189 11c187 0 256 -69 256 -217c0 -103 -38 -171 -123 -202l166 -287h-104zM450 486c0 95 -38 133 -157 133c-51 0 -101 -3 -101 -3v-264h101c112 0 157 45 157 134z" />
    <glyph glyph-name="S" unicode="S" horiz-adv-x="580" 
d="M282 -11c-85 0 -161 24 -203 53v106c40 -35 111 -73 199 -73c101 0 141 40 141 110c0 178 -340 89 -340 337c0 121 68 189 229 189c73 0 137 -15 176 -35v-106c-39 33 -107 55 -172 55c-105 0 -137 -33 -137 -100c0 -171 339 -75 339 -337c0 -127 -72 -199 -232 -199z
" />
    <glyph glyph-name="T" unicode="T" horiz-adv-x="580" 
d="M244 0v617h-209v83h510v-83h-209v-617h-92z" />
    <glyph glyph-name="U" unicode="U" horiz-adv-x="670" 
d="M335 -11c-175 0 -255 79 -255 281v430h93v-426c0 -152 46 -199 162 -199c118 0 162 45 162 199v426h93v-430c0 -201 -81 -281 -255 -281z" />
    <glyph glyph-name="V" unicode="V" horiz-adv-x="620" 
d="M260 0l-240 700h101l196 -589l187 589h96l-230 -700h-110z" />
    <glyph glyph-name="W" unicode="W" horiz-adv-x="900" 
d="M188 0l-158 700h98l102 -456c10 -48 13 -67 21 -114h3c9 47 13 66 25 114l119 456h104l122 -456c13 -48 16 -67 26 -114h2c7 47 11 67 21 114l102 456h95l-158 -700h-110l-125 469c-16 57 -27 114 -27 114h-3s-11 -57 -26 -114l-123 -469h-110z" />
    <glyph glyph-name="X" unicode="X" horiz-adv-x="630" 
d="M25 0l232 359l-218 341h107l170 -266l170 266h105l-218 -339l232 -361h-109l-182 285l-183 -285h-106z" />
    <glyph glyph-name="Y" unicode="Y" horiz-adv-x="610" 
d="M264 0v271l-244 429h106l185 -332l178 332h101l-234 -429v-271h-92z" />
    <glyph glyph-name="Z" unicode="Z" horiz-adv-x="590" 
d="M50 0v61l361 556h-351v83h470v-61l-361 -556h371v-83h-490z" />
    <glyph glyph-name="bracketleft" unicode="[" horiz-adv-x="380" 
d="M108 -180v933h231v-77h-147v-779h147v-77h-231z" />
    <glyph glyph-name="backslash" unicode="\" horiz-adv-x="400" 
d="M302 -180l-292 933h88l292 -933h-88z" />
    <glyph glyph-name="bracketright" unicode="]" horiz-adv-x="380" 
d="M41 -180v77h147v779h-147v77h231v-933h-231z" />
    <glyph glyph-name="asciicircum" unicode="^" horiz-adv-x="600" 
d="M75 357l184 343h82l184 -343h-82l-144 274l-144 -274h-80z" />
    <glyph glyph-name="underscore" unicode="_" horiz-adv-x="420" 
d="M0 -180v68h420v-68h-420z" />
    <glyph glyph-name="grave" unicode="`" horiz-adv-x="300" 
d="M174 617l-123 139h118l80 -139h-75z" />
    <glyph glyph-name="a" unicode="a" horiz-adv-x="535" 
d="M215 -11c-108 0 -164 57 -164 158c0 106 53 159 210 159h110v47c0 75 -28 103 -122 103c-62 0 -120 -20 -157 -45v92c38 19 103 34 169 34c145 0 198 -53 198 -186v-351h-79l-5 90c-24 -55 -75 -101 -160 -101zM238 67c82 0 133 51 133 141v36h-104
c-96 0 -126 -30 -126 -93c0 -55 29 -84 97 -84z" />
    <glyph glyph-name="b" unicode="b" horiz-adv-x="590" 
d="M331 -11c-93 0 -139 47 -162 98l-6 -87h-82v753h88v-312c30 53 76 96 173 96c131 0 197 -72 197 -269c0 -202 -71 -279 -208 -279zM309 70c94 0 140 46 140 198c0 142 -46 188 -136 188c-93 0 -144 -52 -144 -160v-66c0 -104 55 -160 140 -160z" />
    <glyph glyph-name="c" unicode="c" horiz-adv-x="475" 
d="M300 -11c-168 0 -249 81 -249 279c0 184 85 269 242 269c71 0 120 -17 138 -25v-95c-30 21 -76 39 -131 39c-104 0 -159 -55 -159 -188c0 -141 57 -198 169 -198c49 0 102 19 130 42v-91c-19 -11 -67 -32 -140 -32z" />
    <glyph glyph-name="d" unicode="d" horiz-adv-x="590" 
d="M427 0l-6 89c-23 -52 -72 -100 -165 -100c-136 0 -205 75 -205 279c0 187 72 269 201 269c87 0 146 -38 169 -98v314h88v-753h-82zM141 268c0 -150 48 -198 140 -198c85 0 140 56 140 162v67c0 95 -45 157 -144 157c-90 0 -136 -49 -136 -188z" />
    <glyph glyph-name="e" unicode="e" horiz-adv-x="550" 
d="M297 -11c-169 0 -246 85 -246 277c0 185 86 271 229 271c152 0 219 -77 219 -256v-41h-360c2 -118 53 -173 164 -173c66 0 127 25 163 56v-88c-33 -22 -88 -46 -169 -46zM280 462c-90 0 -138 -47 -141 -158h272c0 100 -30 158 -131 158z" />
    <glyph glyph-name="f" unicode="f" horiz-adv-x="400" 
d="M129 0v447h-94v79h94v73c0 112 46 160 154 160c35 0 63 -5 82 -11v-88c-16 9 -42 17 -74 17c-54 0 -74 -21 -74 -90v-61h148v-79h-148v-447h-88z" />
    <glyph glyph-name="g" unicode="g" horiz-adv-x="590" 
d="M272 -191c-80 0 -144 18 -180 36v102c28 -25 94 -57 178 -57c107 0 151 45 151 139v76c-23 -52 -72 -100 -165 -100c-136 0 -205 76 -205 267c0 183 72 265 201 265c87 0 146 -38 169 -98l6 87h82v-491c0 -156 -75 -226 -237 -226zM281 86c85 0 140 59 140 161v57
c0 90 -45 152 -144 152c-90 0 -136 -49 -136 -180c0 -142 48 -190 140 -190z" />
    <glyph glyph-name="h" unicode="h" horiz-adv-x="585" 
d="M81 0v753h88v-316c29 64 79 100 163 100c118 0 177 -57 177 -198v-339h-88v308c0 113 -34 148 -119 148c-83 0 -133 -50 -133 -148v-308h-88z" />
    <glyph glyph-name="i" unicode="i" horiz-adv-x="290" 
d="M101 0v526h88v-526h-88zM145 632c-38 0 -56 19 -56 54s18 54 56 54s56 -19 56 -54s-18 -54 -56 -54z" />
    <glyph glyph-name="j" unicode="j" horiz-adv-x="290" 
d="M53 -186c-35 0 -65 7 -74 12v88c15 -10 36 -18 61 -18c42 0 61 19 61 80v550h88v-553c0 -113 -46 -159 -136 -159zM145 632c-38 0 -56 19 -56 54s18 54 56 54s56 -19 56 -54s-18 -54 -56 -54z" />
    <glyph glyph-name="k" unicode="k" horiz-adv-x="555" 
d="M81 0v753h88v-440h60l167 213h103l-199 -251l219 -275h-106l-184 234h-60v-234h-88z" />
    <glyph glyph-name="l" unicode="l" horiz-adv-x="315" 
d="M205 -6c-89 0 -129 42 -129 132v627h88v-610c0 -52 16 -66 57 -66c23 0 49 9 59 14v-82c-10 -4 -39 -15 -75 -15z" />
    <glyph glyph-name="m" unicode="m" horiz-adv-x="835" 
d="M81 0v526h82l6 -87c27 65 73 98 146 98c80 0 125 -41 138 -108c29 81 80 108 156 108c92 0 150 -58 150 -187v-350h-88v323c0 97 -35 133 -99 133c-65 0 -108 -43 -108 -133v-323h-88v323c0 97 -35 133 -97 133c-67 0 -110 -43 -110 -133v-323h-88z" />
    <glyph glyph-name="n" unicode="n" horiz-adv-x="585" 
d="M81 0v526h82l6 -89c29 63 79 100 163 100c118 0 177 -57 177 -198v-339h-88v310c0 111 -34 146 -119 146c-83 0 -133 -50 -133 -146v-310h-88z" />
    <glyph glyph-name="o" unicode="o" horiz-adv-x="570" 
d="M285 -11c-153 0 -234 82 -234 274c0 186 88 274 234 274c156 0 234 -78 234 -274c0 -192 -83 -274 -234 -274zM285 70c96 0 144 48 144 193s-48 193 -144 193c-92 0 -144 -52 -144 -193c0 -145 48 -193 144 -193z" />
    <glyph glyph-name="p" unicode="p" horiz-adv-x="590" 
d="M81 -180v706h82l6 -85c30 53 76 96 173 96c131 0 197 -72 197 -269c0 -202 -71 -279 -208 -279c-93 0 -139 47 -162 98v-267h-88zM449 268c0 142 -46 188 -136 188c-93 0 -144 -52 -144 -160v-66c0 -104 55 -160 141 -160c93 0 139 46 139 198z" />
    <glyph glyph-name="q" unicode="q" horiz-adv-x="590" 
d="M421 -180v269c-23 -52 -72 -100 -165 -100c-136 0 -205 75 -205 279c0 187 72 269 201 269c87 0 146 -38 169 -98l6 87h82v-706h-88zM141 268c0 -150 48 -198 140 -198c85 0 140 56 140 162v67c0 95 -45 157 -144 157c-90 0 -136 -49 -136 -188z" />
    <glyph glyph-name="r" unicode="r" horiz-adv-x="410" 
d="M81 0v526h77l6 -90c25 72 76 101 143 101c23 0 44 -4 52 -7v-95c-17 12 -41 21 -75 21c-72 0 -115 -44 -115 -152v-304h-88z" />
    <glyph glyph-name="s" unicode="s" horiz-adv-x="475" 
d="M227 -11c-59 0 -111 11 -156 31v98c38 -33 93 -51 154 -51c71 0 99 28 99 78c0 128 -258 43 -258 238c0 101 53 154 186 154c53 0 107 -12 137 -24v-95c-38 26 -83 41 -136 41c-72 0 -97 -25 -97 -69c0 -121 258 -35 258 -239c0 -108 -55 -162 -187 -162z" />
    <glyph glyph-name="t" unicode="t" horiz-adv-x="435" 
d="M277 -6c-103 0 -148 48 -148 162v291h-94v79h94v105l88 30v-135h168v-79h-168v-284c0 -64 21 -87 73 -87c41 0 71 14 95 31v-88c-19 -13 -61 -25 -108 -25z" />
    <glyph glyph-name="u" unicode="u" horiz-adv-x="580" 
d="M249 -11c-113 0 -173 57 -173 198v339h88v-310c0 -111 34 -146 115 -146c82 0 132 50 132 146v310h88v-526h-82l-6 89c-29 -60 -78 -100 -162 -100z" />
    <glyph glyph-name="v" unicode="v" horiz-adv-x="520" 
d="M211 0l-191 526h96l146 -422l146 422h92l-191 -526h-98z" />
    <glyph glyph-name="w" unicode="w" horiz-adv-x="760" 
d="M160 0l-124 526h91l79 -335c9 -40 16 -80 16 -80h2s8 40 18 80l94 335h92l95 -335c11 -40 18 -80 18 -80h2s5 40 14 80l79 335h88l-124 -526h-104l-96 339c-11 40 -19 80 -19 80h-2s-9 -40 -20 -80l-95 -339h-104z" />
    <glyph glyph-name="x" unicode="x" horiz-adv-x="540" 
d="M36 0l178 272l-165 254h100l122 -188l123 188h97l-165 -252l178 -274h-100l-135 210l-136 -210h-97z" />
    <glyph glyph-name="y" unicode="y" horiz-adv-x="520" 
d="M161 -191c-27 0 -52 7 -59 11v86c12 -9 27 -16 50 -16c31 0 52 14 81 110l-213 526h96l159 -409l133 409h92l-180 -529c-56 -164 -92 -188 -159 -188z" />
    <glyph glyph-name="z" unicode="z" horiz-adv-x="490" 
d="M45 0v55l279 392h-269v79h383v-55l-278 -392h285v-79h-400z" />
    <glyph glyph-name="braceleft" unicode="{" horiz-adv-x="380" 
d="M339 -180h-64c-118 0 -155 71 -155 159v171c0 64 -26 100 -77 102v69c51 2 77 41 77 103v174c0 87 37 155 155 155h64v-77h-52c-64 0 -82 -37 -82 -92v-161c0 -72 -13 -117 -83 -136c70 -16 83 -69 83 -139v-155c0 -56 18 -96 82 -96h52v-77z" />
    <glyph glyph-name="bar" unicode="|" horiz-adv-x="300" 
d="M108 -180v933h84v-933h-84z" />
    <glyph glyph-name="braceright" unicode="}" horiz-adv-x="380" 
d="M41 -180v77h52c64 0 82 37 82 92v161c0 72 13 117 83 137c-70 15 -83 68 -83 139v158c0 55 -18 92 -82 92h-52v77h64c118 0 155 -68 155 -155v-175c0 -64 26 -100 77 -102v-69c-51 -2 -77 -41 -77 -103v-174c0 -87 -37 -155 -155 -155h-64z" />
    <glyph glyph-name="asciitilde" unicode="~" horiz-adv-x="600" 
d="M95 302v87c25 29 57 49 103 49c89 0 137 -76 204 -76c45 0 79 30 103 56v-87c-25 -29 -57 -49 -103 -49c-89 0 -137 76 -204 76c-45 0 -79 -30 -103 -56z" />
    <glyph glyph-name="uni00A0" unicode="&#xa0;" horiz-adv-x="250" 
 />
    <glyph glyph-name="exclamdown" unicode="&#xa1;" horiz-adv-x="330" 
d="M165 532c41 0 64 -23 64 -64s-23 -64 -64 -64s-64 23 -64 64s23 64 64 64zM207 296l5 -476h-94l5 476h84z" />
    <glyph glyph-name="cent" unicode="&#xa2;" horiz-adv-x="600" 
d="M304 -120v114c-132 19 -193 102 -193 274c0 161 65 246 193 265v93h79v-90c73 -3 111 -20 128 -28v-94c-30 21 -72 42 -141 42c-114 0 -169 -55 -169 -188c0 -141 57 -198 179 -198c62 0 112 23 140 46v-92c-18 -11 -57 -33 -137 -35v-109h-79z" />
    <glyph glyph-name="sterling" unicode="&#xa3;" horiz-adv-x="600" 
d="M47 0v81h110v242h-110v71h110v84c0 93 37 233 229 233c64 0 114 -15 147 -25v-85c-39 15 -78 29 -139 29c-103 0 -144 -68 -144 -158v-78h183v-71h-183v-242h283v-81h-486z" />
    <glyph glyph-name="currency" unicode="&#xa4;" horiz-adv-x="600" 
d="M489 116l-66 65c-35 -25 -78 -40 -124 -40c-47 0 -90 14 -124 40l-65 -65l-44 45l64 64c-25 35 -40 78 -40 125c0 46 15 89 40 124l-64 65l45 45l64 -65c35 26 77 41 124 41s90 -15 125 -41l66 66l44 -44l-66 -67c25 -35 41 -78 41 -124c0 -47 -15 -89 -41 -124l66 -65z
M299 214c75 0 136 61 136 136s-61 136 -136 136c-74 0 -135 -61 -135 -136s61 -136 135 -136z" />
    <glyph glyph-name="yen" unicode="&#xa5;" horiz-adv-x="600" 
d="M86 265v72h133l-199 363h106l180 -338l173 338h101l-191 -363h135v-72h-173v-66h173v-72h-173v-127h-92v127h-173v72h173v66h-173z" />
    <glyph glyph-name="brokenbar" unicode="&#xa6;" horiz-adv-x="300" 
d="M108 -180v392h84v-392h-84zM108 362v391h84v-391h-84z" />
    <glyph glyph-name="section" unicode="&#xa7;" horiz-adv-x="530" 
d="M240 -111c-52 0 -113 9 -159 28v83c54 -27 100 -36 150 -36c93 0 119 27 119 69c0 44 -45 71 -119 104c-99 43 -170 80 -170 173c0 55 36 102 93 140c-45 28 -68 63 -68 112c0 94 74 149 201 149c64 0 115 -14 146 -25v-81c-56 22 -96 31 -143 31
c-65 0 -109 -18 -109 -70c0 -40 25 -60 102 -97c80 -38 186 -75 186 -174c0 -52 -36 -104 -89 -145c40 -29 65 -62 65 -112c0 -104 -81 -149 -205 -149zM321 181c29 27 59 59 59 101c0 44 -28 72 -89 102c-11 4 -61 27 -76 35c-40 -28 -65 -59 -65 -95c0 -48 24 -72 93 -106
c13 -7 66 -31 78 -37z" />
    <glyph glyph-name="dieresis" unicode="&#xa8;" horiz-adv-x="410" 
d="M110 634c-37 0 -55 18 -55 52c0 35 18 53 55 53s55 -18 55 -53c0 -34 -18 -52 -55 -52zM300 634c-37 0 -55 18 -55 52c0 35 18 53 55 53s55 -18 55 -53c0 -34 -18 -52 -55 -52z" />
    <glyph glyph-name="copyright" unicode="&#xa9;" horiz-adv-x="830" 
d="M429 153c-132 0 -189 77 -189 198c0 131 67 198 190 198c36 0 65 -5 86 -12v-57c-24 9 -54 12 -78 12c-87 0 -130 -45 -130 -140c0 -101 48 -141 131 -141c24 0 52 4 77 15v-58c-23 -9 -50 -15 -87 -15zM415 -11c-204 0 -361 157 -361 361s157 361 361 361
s361 -157 361 -361c0 -202 -157 -361 -361 -361zM415 49c169 0 299 131 299 301c0 171 -130 301 -299 301s-299 -130 -299 -301s130 -301 299 -301z" />
    <glyph glyph-name="ordfeminine" unicode="&#xaa;" horiz-adv-x="370" 
d="M150 374c-76 0 -110 33 -110 97c0 65 37 102 138 102h73v16c0 40 -18 59 -77 59c-36 0 -78 -12 -104 -25v64c28 11 68 19 113 19c101 0 137 -38 137 -122v-204h-60l-7 53c-16 -28 -46 -59 -103 -59zM173 430c47 0 78 33 78 75v21h-64c-58 0 -76 -15 -76 -50
c0 -31 18 -46 62 -46z" />
    <glyph glyph-name="guillemotleft" unicode="&#xab;" horiz-adv-x="550" 
d="M51 275l132 209h86l-131 -207l131 -209h-89zM261 275l132 209h86l-131 -207l131 -209h-89z" />
    <glyph glyph-name="logicalnot" unicode="&#xac;" horiz-adv-x="600" 
d="M95 318v81h410v-211h-81v130h-329z" />
    <glyph glyph-name="uni00AD" unicode="&#xad;" horiz-adv-x="400" 
d="M45 235v80h310v-80h-310z" />
    <glyph glyph-name="registered" unicode="&#xae;" horiz-adv-x="600" 
d="M50 517c0 147 101 247 250 247c150 0 250 -100 250 -247c0 -146 -100 -246 -250 -246c-149 0 -250 100 -250 246zM96 518c0 -120 84 -203 204 -203c121 0 204 83 204 203c0 121 -83 203 -204 203c-120 0 -204 -82 -204 -203zM203 390v269h105c40 0 94 -9 94 -84
c0 -40 -22 -68 -49 -76l68 -109h-59l-60 100h-46v-100h-53zM255 534h48c23 0 45 8 45 40c0 33 -20 39 -46 39h-47v-79z" />
    <glyph glyph-name="macron" unicode="&#xaf;" horiz-adv-x="320" 
d="M31 643v66h258v-66h-258z" />
    <glyph glyph-name="degree" unicode="&#xb0;" horiz-adv-x="400" 
d="M201 389c-90 0 -162 72 -162 161s72 161 162 161c88 0 160 -72 160 -161s-72 -161 -160 -161zM201 459c50 0 90 41 90 91s-40 91 -90 91s-91 -41 -91 -91s41 -91 91 -91z" />
    <glyph glyph-name="plusminus" unicode="&#xb1;" horiz-adv-x="600" 
d="M95 395v80h165v165h80v-165h165v-80h-165v-148h-80v148h-165zM95 80v81h410v-81h-410z" />
    <glyph glyph-name="twosuperior" unicode="&#xb2;" 
d="M55 380v68l123 84c85 59 123 94 123 140s-35 69 -98 69c-46 0 -95 -9 -129 -27v68c45 17 89 24 140 24c104 0 166 -40 166 -120c0 -70 -48 -121 -162 -193l-70 -47v-1h237v-65h-330z" />
    <glyph glyph-name="threesuperior" unicode="&#xb3;" 
d="M124 569v55h74c64 0 99 18 99 59c0 43 -33 59 -104 59c-47 0 -98 -6 -131 -20v64c42 16 102 20 153 20c112 0 159 -45 159 -108c0 -56 -40 -82 -104 -98v-2c90 -12 115 -55 115 -98c0 -87 -83 -126 -185 -126c-44 0 -99 3 -145 20v66c41 -17 89 -22 136 -22
c84 0 115 28 115 65c0 48 -34 66 -102 66h-80z" />
    <glyph glyph-name="acute" unicode="&#xb4;" horiz-adv-x="300" 
d="M51 617l82 139h116l-125 -139h-73z" />
    <glyph glyph-name="mu" unicode="&#xb5;" horiz-adv-x="585" 
d="M81 -180v706h88v-310c0 -111 34 -146 115 -146c82 0 132 50 132 146v310h88v-526h-82l-6 89c-29 -60 -78 -100 -162 -100c-34 0 -63 6 -85 18v-187h-88z" />
    <glyph glyph-name="mu" unicode="&#x3bc;" horiz-adv-x="585" 
d="M81 -180v706h88v-310c0 -111 34 -146 115 -146c82 0 132 50 132 146v310h88v-526h-82l-6 89c-29 -60 -78 -100 -162 -100c-34 0 -63 6 -85 18v-187h-88z" />
    <glyph glyph-name="paragraph" unicode="&#xb6;" horiz-adv-x="570" 
d="M219 -180v547c-111 0 -168 70 -168 163c0 146 125 170 197 170h227v-880h-75v812h-106v-812h-75z" />
    <glyph glyph-name="periodcentered" unicode="&#xb7;" horiz-adv-x="320" 
d="M160 289c-41 0 -64 23 -64 64c0 42 23 64 64 64s64 -22 64 -64c0 -41 -23 -64 -64 -64z" />
    <glyph glyph-name="cedilla" unicode="&#xb8;" horiz-adv-x="250" 
d="M107 -217c-34 0 -56 6 -76 15l7 49c20 -8 36 -12 60 -12c35 0 50 15 50 40c0 26 -15 41 -54 41c-10 0 -24 -1 -32 -2l18 93h53l-11 -51c63 0 97 -28 97 -81c0 -56 -39 -92 -112 -92z" />
    <glyph glyph-name="onesuperior" unicode="&#xb9;" 
d="M225 380v337l-121 -64l-30 58l167 89h61v-420h-77z" />
    <glyph glyph-name="ordmasculine" unicode="&#xba;" horiz-adv-x="370" 
d="M185 374c-109 0 -155 60 -155 166c0 105 47 166 155 166c109 0 155 -60 155 -166c0 -105 -47 -166 -155 -166zM185 432c56 0 86 29 86 108s-30 108 -86 108s-86 -29 -86 -108s30 -108 86 -108z" />
    <glyph glyph-name="guillemotright" unicode="&#xbb;" horiz-adv-x="550" 
d="M71 68l131 207l-131 209h89l129 -207l-132 -209h-86zM281 68l131 207l-131 209h89l129 -207l-132 -209h-86z" />
    <glyph glyph-name="onequarter" unicode="&#xbc;" horiz-adv-x="950" 
d="M200 0l465 700h75l-465 -700h-75zM203 280v337l-121 -64l-30 58l167 89h61v-420h-77zM492 93v59l249 267h89v-264h57v-62h-57v-94h-72v94h-266zM758 155v197h-1l-185 -197h186z" />
    <glyph glyph-name="onehalf" unicode="&#xbd;" horiz-adv-x="950" 
d="M173 0l465 700h75l-465 -700h-75zM198 280v337l-121 -64l-30 58l167 89h61v-420h-77zM560 -1v68l123 84c85 59 123 94 123 140s-35 69 -98 69c-46 0 -95 -9 -129 -27v68c45 17 89 24 140 24c104 0 166 -40 166 -120c0 -70 -48 -121 -162 -193l-70 -47v-1h237v-65h-330z
" />
    <glyph glyph-name="threequarters" unicode="&#xbe;" horiz-adv-x="950" 
d="M227 0l465 700h75l-465 -700h-75zM502 93v59l249 267h89v-264h57v-62h-57v-94h-72v94h-266zM768 155v197h-1l-185 -197h186zM118 469v55h74c64 0 99 18 99 59c0 43 -33 59 -104 59c-47 0 -98 -6 -131 -20v64c42 16 102 20 153 20c112 0 159 -45 159 -108
c0 -56 -40 -82 -104 -98v-2c90 -12 115 -55 115 -98c0 -87 -83 -126 -185 -126c-44 0 -99 3 -145 20v66c41 -17 89 -22 136 -22c84 0 115 28 115 65c0 48 -34 66 -102 66h-80z" />
    <glyph glyph-name="questiondown" unicode="&#xbf;" horiz-adv-x="480" 
d="M285 532c41 0 64 -23 64 -64s-23 -64 -64 -64s-64 23 -64 64s23 64 64 64zM328 307c0 -182 -185 -158 -185 -307c0 -68 39 -107 130 -107c66 0 116 21 157 47v-98c-48 -22 -106 -33 -164 -33c-152 0 -216 63 -216 183c0 198 193 176 193 315h85z" />
    <glyph glyph-name="Agrave" unicode="&#xc0;" horiz-adv-x="640" 
d="M20 0l250 700h100l250 -700h-99l-63 185h-281l-63 -185h-94zM318 596l-113 -331h225zM283 770l-131 140h120l88 -140h-77z" />
    <glyph glyph-name="Aacute" unicode="&#xc1;" horiz-adv-x="640" 
d="M20 0l250 700h100l250 -700h-99l-63 185h-281l-63 -185h-94zM318 596l-113 -331h225zM275 770l90 140h118l-133 -140h-75z" />
    <glyph glyph-name="Acircumflex" unicode="&#xc2;" horiz-adv-x="640" 
d="M20 0l250 700h100l250 -700h-99l-63 185h-281l-63 -185h-94zM318 596l-113 -331h225zM155 770l115 140h100l115 -140h-78l-87 87l-89 -87h-76z" />
    <glyph glyph-name="Atilde" unicode="&#xc3;" horiz-adv-x="640" 
d="M20 0l250 700h100l250 -700h-99l-63 185h-281l-63 -185h-94zM318 596l-113 -331h225zM211 777l-53 11c4 60 43 96 92 96c25 0 47 -8 76 -21c28 -12 45 -21 62 -21c19 0 35 9 41 41l53 -12c-6 -61 -46 -95 -90 -95c-24 0 -40 1 -79 20c-25 12 -41 23 -59 23
c-17 0 -36 -9 -43 -42z" />
    <glyph glyph-name="Adieresis" unicode="&#xc4;" horiz-adv-x="640" 
d="M20 0l250 700h100l250 -700h-99l-63 185h-281l-63 -185h-94zM318 596l-113 -331h225zM218 785c-38 0 -57 20 -57 55s19 55 57 55s57 -20 57 -55s-19 -55 -57 -55zM421 785c-38 0 -57 20 -57 55s19 55 57 55s57 -20 57 -55s-19 -55 -57 -55z" />
    <glyph glyph-name="Aring" unicode="&#xc5;" horiz-adv-x="640" 
d="M20 0l250 700h100l250 -700h-99l-63 185h-281l-63 -185h-94zM318 596l-113 -331h225zM220 840c0 57 42 99 100 99s100 -42 100 -99s-42 -99 -100 -99s-100 42 -100 99zM270 840c0 -31 20 -50 50 -50s50 19 50 50s-20 50 -50 50s-50 -19 -50 -50z" />
    <glyph glyph-name="AE" unicode="&#xc6;" horiz-adv-x="935" 
d="M461 0v185h-242l-102 -185h-97l391 700h469v-83h-327v-218h287v-81h-287v-235h327v-83h-419zM263 265h198v357z" />
    <glyph glyph-name="Ccedilla" unicode="&#xc7;" horiz-adv-x="575" 
d="M335 -217c-33 0 -60 6 -80 15l8 50c20 -8 39 -12 63 -12c38 0 52 14 52 39c0 26 -14 40 -56 40c-14 0 -25 -1 -32 -2l14 79c-168 17 -254 124 -254 363c0 249 107 356 305 356c98 0 167 -28 167 -28v-96c-38 22 -93 38 -166 38c-137 0 -210 -73 -210 -270
c0 -204 75 -280 214 -280c75 0 136 27 170 47v-97s-74 -36 -172 -36l-7 -33c65 0 100 -28 100 -81c0 -56 -39 -92 -116 -92z" />
    <glyph glyph-name="Egrave" unicode="&#xc8;" horiz-adv-x="575" 
d="M101 0v700h419v-83h-327v-218h287v-81h-287v-235h327v-83h-419zM278 770l-131 140h120l88 -140h-77z" />
    <glyph glyph-name="Eacute" unicode="&#xc9;" horiz-adv-x="575" 
d="M101 0v700h419v-83h-327v-218h287v-81h-287v-235h327v-83h-419zM265 770l90 140h118l-133 -140h-75z" />
    <glyph glyph-name="Ecircumflex" unicode="&#xca;" horiz-adv-x="575" 
d="M101 0v700h419v-83h-327v-218h287v-81h-287v-235h327v-83h-419zM145 770l115 140h100l115 -140h-78l-87 87l-89 -87h-76z" />
    <glyph glyph-name="Edieresis" unicode="&#xcb;" horiz-adv-x="575" 
d="M101 0v700h419v-83h-327v-218h287v-81h-287v-235h327v-83h-419zM208 785c-38 0 -57 20 -57 55s19 55 57 55s57 -20 57 -55s-19 -55 -57 -55zM411 785c-38 0 -57 20 -57 55s19 55 57 55s57 -20 57 -55s-19 -55 -57 -55z" />
    <glyph glyph-name="Igrave" unicode="&#xcc;" horiz-adv-x="330" 
d="M119 0v700h92v-700h-92zM127 770l-131 140h120l88 -140h-77z" />
    <glyph glyph-name="Iacute" unicode="&#xcd;" horiz-adv-x="330" 
d="M119 0v700h92v-700h-92zM127 770l90 140h118l-133 -140h-75z" />
    <glyph glyph-name="Icircumflex" unicode="&#xce;" horiz-adv-x="330" 
d="M119 0v700h92v-700h-92zM0 770l115 140h100l115 -140h-78l-87 87l-89 -87h-76z" />
    <glyph glyph-name="Idieresis" unicode="&#xcf;" horiz-adv-x="330" 
d="M119 0v700h92v-700h-92zM63 785c-38 0 -57 20 -57 55s19 55 57 55s57 -20 57 -55s-19 -55 -57 -55zM266 785c-38 0 -57 20 -57 55s19 55 57 55s57 -20 57 -55s-19 -55 -57 -55z" />
    <glyph glyph-name="Eth" unicode="&#xd0;" horiz-adv-x="690" 
d="M17 319v72h94v304s99 11 192 11c241 0 337 -96 337 -348c0 -253 -111 -364 -340 -364c-90 0 -189 11 -189 11v314h-94zM544 358c0 199 -62 261 -239 261c-58 0 -102 -5 -102 -5v-223h166v-72h-166v-233s42 -5 99 -5c168 0 242 74 242 277z" />
    <glyph glyph-name="Ntilde" unicode="&#xd1;" horiz-adv-x="740" 
d="M101 0v700h103l286 -454c33 -53 58 -106 58 -106h2s-3 53 -3 106v454h92v-700h-103l-286 454c-37 60 -58 106 -58 106h-2s3 -46 3 -106v-454h-92zM261 777l-53 11c4 60 43 96 92 96c25 0 47 -8 76 -21c28 -12 45 -21 62 -21c19 0 35 9 41 41l53 -12
c-6 -61 -46 -95 -90 -95c-24 0 -40 1 -79 20c-25 12 -41 23 -59 23c-17 0 -36 -9 -43 -42z" />
    <glyph glyph-name="Ograve" unicode="&#xd2;" horiz-adv-x="710" 
d="M355 -11c-196 0 -305 108 -305 361s109 361 305 361c203 0 305 -102 305 -361c0 -253 -109 -361 -305 -361zM355 73c136 0 209 74 209 277c0 204 -73 277 -209 277c-134 0 -209 -75 -209 -277c0 -200 76 -277 209 -277zM324 770l-131 140h120l88 -140h-77z" />
    <glyph glyph-name="Oacute" unicode="&#xd3;" horiz-adv-x="710" 
d="M355 -11c-196 0 -305 108 -305 361s109 361 305 361c203 0 305 -102 305 -361c0 -253 -109 -361 -305 -361zM355 73c136 0 209 74 209 277c0 204 -73 277 -209 277c-134 0 -209 -75 -209 -277c0 -200 76 -277 209 -277zM310 770l90 140h118l-133 -140h-75z" />
    <glyph glyph-name="Ocircumflex" unicode="&#xd4;" horiz-adv-x="710" 
d="M355 -11c-196 0 -305 108 -305 361s109 361 305 361c203 0 305 -102 305 -361c0 -253 -109 -361 -305 -361zM355 73c136 0 209 74 209 277c0 204 -73 277 -209 277c-134 0 -209 -75 -209 -277c0 -200 76 -277 209 -277zM190 770l115 140h100l115 -140h-78l-87 87l-89 -87
h-76z" />
    <glyph glyph-name="Otilde" unicode="&#xd5;" horiz-adv-x="710" 
d="M355 -11c-196 0 -305 108 -305 361s109 361 305 361c203 0 305 -102 305 -361c0 -253 -109 -361 -305 -361zM355 73c136 0 209 74 209 277c0 204 -73 277 -209 277c-134 0 -209 -75 -209 -277c0 -200 76 -277 209 -277zM246 777l-53 11c4 60 43 96 92 96
c25 0 47 -8 76 -21c28 -12 45 -21 62 -21c19 0 35 9 41 41l53 -12c-6 -61 -46 -95 -90 -95c-24 0 -40 1 -79 20c-25 12 -41 23 -59 23c-17 0 -36 -9 -43 -42z" />
    <glyph glyph-name="Odieresis" unicode="&#xd6;" horiz-adv-x="710" 
d="M355 -11c-196 0 -305 108 -305 361s109 361 305 361c203 0 305 -102 305 -361c0 -253 -109 -361 -305 -361zM355 73c136 0 209 74 209 277c0 204 -73 277 -209 277c-134 0 -209 -75 -209 -277c0 -200 76 -277 209 -277zM253 785c-38 0 -57 20 -57 55s19 55 57 55
s57 -20 57 -55s-19 -55 -57 -55zM456 785c-38 0 -57 20 -57 55s19 55 57 55s57 -20 57 -55s-19 -55 -57 -55z" />
    <glyph glyph-name="multiply" unicode="&#xd7;" horiz-adv-x="600" 
d="M168 174l-54 54l132 132l-132 132l54 54l132 -132l132 132l54 -54l-132 -132l132 -132l-54 -54l-132 132z" />
    <glyph glyph-name="Oslash" unicode="&#xd8;" horiz-adv-x="710" 
d="M355 -11c-74 0 -136 15 -184 48l-51 -73l-50 36l55 78c-49 59 -75 148 -75 272c0 253 109 361 305 361c76 0 137 -14 185 -46l50 71l50 -36l-54 -76c49 -58 74 -147 74 -274c0 -253 -109 -361 -305 -361zM355 73c136 0 209 74 209 277c0 84 -13 146 -37 190l-302 -428
c33 -27 77 -39 130 -39zM146 350c0 -83 13 -145 38 -189l302 428c-34 26 -78 38 -131 38c-134 0 -209 -75 -209 -277z" />
    <glyph glyph-name="Ugrave" unicode="&#xd9;" horiz-adv-x="670" 
d="M335 -11c-175 0 -255 79 -255 281v430h93v-426c0 -152 46 -199 162 -199c118 0 162 45 162 199v426h93v-430c0 -201 -81 -281 -255 -281zM304 770l-131 140h120l88 -140h-77z" />
    <glyph glyph-name="Uacute" unicode="&#xda;" horiz-adv-x="670" 
d="M335 -11c-175 0 -255 79 -255 281v430h93v-426c0 -152 46 -199 162 -199c118 0 162 45 162 199v426h93v-430c0 -201 -81 -281 -255 -281zM290 770l90 140h118l-133 -140h-75z" />
    <glyph glyph-name="Ucircumflex" unicode="&#xdb;" horiz-adv-x="670" 
d="M335 -11c-175 0 -255 79 -255 281v430h93v-426c0 -152 46 -199 162 -199c118 0 162 45 162 199v426h93v-430c0 -201 -81 -281 -255 -281zM170 770l115 140h100l115 -140h-78l-87 87l-89 -87h-76z" />
    <glyph glyph-name="Udieresis" unicode="&#xdc;" horiz-adv-x="670" 
d="M335 -11c-175 0 -255 79 -255 281v430h93v-426c0 -152 46 -199 162 -199c118 0 162 45 162 199v426h93v-430c0 -201 -81 -281 -255 -281zM233 785c-38 0 -57 20 -57 55s19 55 57 55s57 -20 57 -55s-19 -55 -57 -55zM436 785c-38 0 -57 20 -57 55s19 55 57 55
s57 -20 57 -55s-19 -55 -57 -55z" />
    <glyph glyph-name="Yacute" unicode="&#xdd;" horiz-adv-x="610" 
d="M264 0v271l-244 429h106l185 -332l178 332h101l-234 -429v-271h-92zM260 770l90 140h118l-133 -140h-75z" />
    <glyph glyph-name="Thorn" unicode="&#xde;" horiz-adv-x="620" 
d="M101 0v700h92v-105c31 2 66 3 104 3c199 0 273 -73 273 -236c0 -162 -84 -246 -273 -246c-59 0 -97 4 -104 5v-121h-92zM474 362c0 108 -42 150 -177 150c-59 0 -97 -4 -104 -5v-300c7 0 45 -4 104 -4c129 0 177 47 177 159z" />
    <glyph glyph-name="germandbls" unicode="&#xdf;" horiz-adv-x="615" 
d="M81 0v515c0 163 79 249 231 249c139 0 212 -73 212 -192c0 -81 -36 -139 -103 -165v-3c94 -12 138 -83 138 -190c0 -155 -70 -225 -220 -225c-43 0 -75 6 -99 13v81c21 -6 50 -12 92 -12c91 0 134 44 134 147c0 99 -43 143 -132 143h-64v75h54c65 0 107 43 107 127
c0 77 -42 119 -123 119c-94 0 -138 -50 -138 -167v-515h-89z" />
    <glyph glyph-name="agrave" unicode="&#xe0;" horiz-adv-x="535" 
d="M215 -11c-108 0 -164 57 -164 158c0 106 53 159 210 159h110v47c0 75 -28 103 -122 103c-62 0 -120 -20 -157 -45v92c38 19 103 34 169 34c145 0 198 -53 198 -186v-351h-79l-5 90c-24 -55 -75 -101 -160 -101zM238 67c82 0 133 51 133 141v36h-104
c-96 0 -126 -30 -126 -93c0 -55 29 -84 97 -84zM243 617l-123 139h118l80 -139h-75z" />
    <glyph glyph-name="aacute" unicode="&#xe1;" horiz-adv-x="535" 
d="M215 -11c-108 0 -164 57 -164 158c0 106 53 159 210 159h110v47c0 75 -28 103 -122 103c-62 0 -120 -20 -157 -45v92c38 19 103 34 169 34c145 0 198 -53 198 -186v-351h-79l-5 90c-24 -55 -75 -101 -160 -101zM238 67c82 0 133 51 133 141v36h-104
c-96 0 -126 -30 -126 -93c0 -55 29 -84 97 -84zM230 617l82 139h116l-125 -139h-73z" />
    <glyph glyph-name="acircumflex" unicode="&#xe2;" horiz-adv-x="535" 
d="M215 -11c-108 0 -164 57 -164 158c0 106 53 159 210 159h110v47c0 75 -28 103 -122 103c-62 0 -120 -20 -157 -45v92c38 19 103 34 169 34c145 0 198 -53 198 -186v-351h-79l-5 90c-24 -55 -75 -101 -160 -101zM238 67c82 0 133 51 133 141v36h-104
c-96 0 -126 -30 -126 -93c0 -55 29 -84 97 -84zM114 617l111 139h96l111 -139h-76l-83 88l-85 -88h-74z" />
    <glyph glyph-name="atilde" unicode="&#xe3;" horiz-adv-x="535" 
d="M215 -11c-108 0 -164 57 -164 158c0 106 53 159 210 159h110v47c0 75 -28 103 -122 103c-62 0 -120 -20 -157 -45v92c38 19 103 34 169 34c145 0 198 -53 198 -186v-351h-79l-5 90c-24 -55 -75 -101 -160 -101zM238 67c82 0 133 51 133 141v36h-104
c-96 0 -126 -30 -126 -93c0 -55 29 -84 97 -84zM166 623l-53 11c4 61 37 96 86 96c26 0 46 -8 75 -21c28 -12 43 -22 61 -22s30 10 36 42l52 -12c-6 -61 -41 -95 -85 -95c-24 0 -38 2 -77 21c-25 12 -38 22 -57 22c-17 0 -31 -9 -38 -42z" />
    <glyph glyph-name="adieresis" unicode="&#xe4;" horiz-adv-x="535" 
d="M215 -11c-108 0 -164 57 -164 158c0 106 53 159 210 159h110v47c0 75 -28 103 -122 103c-62 0 -120 -20 -157 -45v92c38 19 103 34 169 34c145 0 198 -53 198 -186v-351h-79l-5 90c-24 -55 -75 -101 -160 -101zM238 67c82 0 133 51 133 141v36h-104
c-96 0 -126 -30 -126 -93c0 -55 29 -84 97 -84zM178 634c-37 0 -55 18 -55 52c0 35 18 53 55 53s55 -18 55 -53c0 -34 -18 -52 -55 -52zM368 634c-37 0 -55 18 -55 52c0 35 18 53 55 53s55 -18 55 -53c0 -34 -18 -52 -55 -52z" />
    <glyph glyph-name="aring" unicode="&#xe5;" horiz-adv-x="535" 
d="M215 -11c-108 0 -164 57 -164 158c0 106 53 159 210 159h110v47c0 75 -28 103 -122 103c-62 0 -120 -20 -157 -45v92c38 19 103 34 169 34c145 0 198 -53 198 -186v-351h-79l-5 90c-24 -55 -75 -101 -160 -101zM238 67c82 0 133 51 133 141v36h-104
c-96 0 -126 -30 -126 -93c0 -55 29 -84 97 -84zM177 686c0 58 39 97 98 97s98 -39 98 -97c0 -57 -39 -97 -98 -97s-98 40 -98 97zM227 686c0 -30 18 -48 48 -48c29 0 48 19 48 48s-19 48 -48 48s-48 -19 -48 -48z" />
    <glyph glyph-name="ae" unicode="&#xe6;" horiz-adv-x="860" 
d="M614 -11c-96 0 -161 32 -198 100c-40 -67 -107 -100 -193 -100c-116 0 -172 57 -172 158c0 106 53 159 211 159h113v47c0 75 -29 103 -125 103c-63 0 -121 -20 -158 -45v92c38 19 103 34 170 34c90 0 145 -22 172 -73c38 49 94 73 163 73c145 0 212 -77 212 -256v-41
h-347c3 -118 54 -173 158 -173c63 0 120 19 156 49v-88c-31 -21 -84 -39 -162 -39zM240 67c84 0 135 51 135 141v36h-107c-97 0 -127 -30 -127 -93c0 -55 29 -84 99 -84zM597 462c-83 0 -131 -47 -135 -158h259c0 100 -30 158 -124 158z" />
    <glyph glyph-name="ccedilla" unicode="&#xe7;" horiz-adv-x="475" 
d="M275 -217c-34 0 -56 6 -76 15l7 49c20 -8 36 -12 60 -12c35 0 50 15 50 40c0 26 -15 41 -54 41c-10 0 -24 -1 -32 -2l15 79c-131 16 -194 100 -194 275c0 184 85 269 242 269c71 0 120 -17 138 -25v-95c-30 21 -76 39 -131 39c-104 0 -159 -55 -159 -188
c0 -141 57 -198 169 -198c49 0 102 19 130 42v-91c-19 -11 -67 -32 -140 -32h-3l-7 -33c63 0 97 -28 97 -81c0 -56 -39 -92 -112 -92z" />
    <glyph glyph-name="egrave" unicode="&#xe8;" horiz-adv-x="550" 
d="M297 -11c-169 0 -246 85 -246 277c0 185 86 271 229 271c152 0 219 -77 219 -256v-41h-360c2 -118 53 -173 164 -173c66 0 127 25 163 56v-88c-33 -22 -88 -46 -169 -46zM280 462c-90 0 -138 -47 -141 -158h272c0 100 -30 158 -131 158zM248 617l-123 139h118l80 -139
h-75z" />
    <glyph glyph-name="eacute" unicode="&#xe9;" horiz-adv-x="550" 
d="M297 -11c-169 0 -246 85 -246 277c0 185 86 271 229 271c152 0 219 -77 219 -256v-41h-360c2 -118 53 -173 164 -173c66 0 127 25 163 56v-88c-33 -22 -88 -46 -169 -46zM280 462c-90 0 -138 -47 -141 -158h272c0 100 -30 158 -131 158zM235 617l82 139h116l-125 -139
h-73z" />
    <glyph glyph-name="ecircumflex" unicode="&#xea;" horiz-adv-x="550" 
d="M297 -11c-169 0 -246 85 -246 277c0 185 86 271 229 271c152 0 219 -77 219 -256v-41h-360c2 -118 53 -173 164 -173c66 0 127 25 163 56v-88c-33 -22 -88 -46 -169 -46zM280 462c-90 0 -138 -47 -141 -158h272c0 100 -30 158 -131 158zM119 617l111 139h96l111 -139h-76
l-83 88l-85 -88h-74z" />
    <glyph glyph-name="edieresis" unicode="&#xeb;" horiz-adv-x="550" 
d="M297 -11c-169 0 -246 85 -246 277c0 185 86 271 229 271c152 0 219 -77 219 -256v-41h-360c2 -118 53 -173 164 -173c66 0 127 25 163 56v-88c-33 -22 -88 -46 -169 -46zM280 462c-90 0 -138 -47 -141 -158h272c0 100 -30 158 -131 158zM183 634c-37 0 -55 18 -55 52
c0 35 18 53 55 53s55 -18 55 -53c0 -34 -18 -52 -55 -52zM373 634c-37 0 -55 18 -55 52c0 35 18 53 55 53s55 -18 55 -53c0 -34 -18 -52 -55 -52z" />
    <glyph glyph-name="igrave" unicode="&#xec;" horiz-adv-x="290" 
d="M101 0v526h88v-526h-88zM108 617l-123 139h118l80 -139h-75z" />
    <glyph glyph-name="iacute" unicode="&#xed;" horiz-adv-x="290" 
d="M101 0v526h88v-526h-88zM108 617l82 139h116l-125 -139h-73z" />
    <glyph glyph-name="icircumflex" unicode="&#xee;" horiz-adv-x="290" 
d="M101 0v526h88v-526h-88zM-14 617l111 139h96l111 -139h-76l-83 88l-85 -88h-74z" />
    <glyph glyph-name="idieresis" unicode="&#xef;" horiz-adv-x="290" 
d="M101 0v526h88v-526h-88zM50 634c-37 0 -55 18 -55 52c0 35 18 53 55 53s55 -18 55 -53c0 -34 -18 -52 -55 -52zM240 634c-37 0 -55 18 -55 52c0 35 18 53 55 53s55 -18 55 -53c0 -34 -18 -52 -55 -52z" />
    <glyph glyph-name="eth" unicode="&#xf0;" horiz-adv-x="585" 
d="M179 570l-23 45l90 48c-40 22 -83 38 -128 48l31 58c65 -16 121 -39 168 -68l130 70l22 -45l-106 -57c118 -93 166 -232 166 -398c0 -194 -100 -282 -242 -282c-158 0 -236 99 -236 266c0 168 79 259 220 259c45 0 106 -9 149 -69l3 2c-20 75 -67 138 -129 185zM290 69
c93 0 149 52 149 186c0 128 -45 179 -149 179c-94 0 -149 -45 -149 -179c0 -136 59 -186 149 -186z" />
    <glyph glyph-name="ntilde" unicode="&#xf1;" horiz-adv-x="585" 
d="M81 0v526h82l6 -89c29 63 79 100 163 100c118 0 177 -57 177 -198v-339h-88v310c0 111 -34 146 -119 146c-83 0 -133 -50 -133 -146v-310h-88zM191 623l-53 11c4 61 37 96 86 96c26 0 46 -8 75 -21c28 -12 43 -22 61 -22s30 10 36 42l52 -12c-6 -61 -41 -95 -85 -95
c-24 0 -38 2 -77 21c-25 12 -38 22 -57 22c-17 0 -31 -9 -38 -42z" />
    <glyph glyph-name="ograve" unicode="&#xf2;" horiz-adv-x="570" 
d="M285 -11c-153 0 -234 82 -234 274c0 186 88 274 234 274c156 0 234 -78 234 -274c0 -192 -83 -274 -234 -274zM285 70c96 0 144 48 144 193s-48 193 -144 193c-92 0 -144 -52 -144 -193c0 -145 48 -193 144 -193zM255 617l-123 139h118l80 -139h-75z" />
    <glyph glyph-name="oacute" unicode="&#xf3;" horiz-adv-x="570" 
d="M285 -11c-153 0 -234 82 -234 274c0 186 88 274 234 274c156 0 234 -78 234 -274c0 -192 -83 -274 -234 -274zM285 70c96 0 144 48 144 193s-48 193 -144 193c-92 0 -144 -52 -144 -193c0 -145 48 -193 144 -193zM241 617l82 139h116l-125 -139h-73z" />
    <glyph glyph-name="ocircumflex" unicode="&#xf4;" horiz-adv-x="570" 
d="M285 -11c-153 0 -234 82 -234 274c0 186 88 274 234 274c156 0 234 -78 234 -274c0 -192 -83 -274 -234 -274zM285 70c96 0 144 48 144 193s-48 193 -144 193c-92 0 -144 -52 -144 -193c0 -145 48 -193 144 -193zM126 617l111 139h96l111 -139h-76l-83 88l-85 -88h-74z
" />
    <glyph glyph-name="otilde" unicode="&#xf5;" horiz-adv-x="570" 
d="M285 -11c-153 0 -234 82 -234 274c0 186 88 274 234 274c156 0 234 -78 234 -274c0 -192 -83 -274 -234 -274zM285 70c96 0 144 48 144 193s-48 193 -144 193c-92 0 -144 -52 -144 -193c0 -145 48 -193 144 -193zM183 623l-53 11c4 61 37 96 86 96c26 0 46 -8 75 -21
c28 -12 43 -22 61 -22s30 10 36 42l52 -12c-6 -61 -41 -95 -85 -95c-24 0 -38 2 -77 21c-25 12 -38 22 -57 22c-17 0 -31 -9 -38 -42z" />
    <glyph glyph-name="odieresis" unicode="&#xf6;" horiz-adv-x="570" 
d="M285 -11c-153 0 -234 82 -234 274c0 186 88 274 234 274c156 0 234 -78 234 -274c0 -192 -83 -274 -234 -274zM285 70c96 0 144 48 144 193s-48 193 -144 193c-92 0 -144 -52 -144 -193c0 -145 48 -193 144 -193zM190 634c-37 0 -55 18 -55 52c0 35 18 53 55 53
s55 -18 55 -53c0 -34 -18 -52 -55 -52zM380 634c-37 0 -55 18 -55 52c0 35 18 53 55 53s55 -18 55 -53c0 -34 -18 -52 -55 -52z" />
    <glyph glyph-name="divide" unicode="&#xf7;" horiz-adv-x="600" 
d="M95 318v81h410v-81h-410zM300 115c-41 0 -64 23 -64 64s23 64 64 64s64 -23 64 -64s-23 -64 -64 -64zM300 474c-41 0 -64 22 -64 64c0 41 23 64 64 64s64 -23 64 -64c0 -42 -23 -64 -64 -64z" />
    <glyph glyph-name="oslash" unicode="&#xf8;" horiz-adv-x="570" 
d="M285 -11c-54 0 -100 11 -135 32l-37 -53l-46 32l40 58c-37 44 -56 111 -56 205c0 186 88 274 234 274c55 0 100 -10 135 -31l37 52l46 -32l-40 -57c37 -44 56 -111 56 -206c0 -192 -83 -274 -234 -274zM285 70c96 0 144 48 144 193c0 55 -7 97 -21 127l-209 -299
c22 -15 51 -21 86 -21zM141 263c0 -56 7 -97 21 -127l208 298c-22 15 -50 22 -85 22c-92 0 -144 -52 -144 -193z" />
    <glyph glyph-name="ugrave" unicode="&#xf9;" horiz-adv-x="580" 
d="M249 -11c-113 0 -173 57 -173 198v339h88v-310c0 -111 34 -146 115 -146c82 0 132 50 132 146v310h88v-526h-82l-6 89c-29 -60 -78 -100 -162 -100zM257 617l-123 139h118l80 -139h-75z" />
    <glyph glyph-name="uacute" unicode="&#xfa;" horiz-adv-x="580" 
d="M249 -11c-113 0 -173 57 -173 198v339h88v-310c0 -111 34 -146 115 -146c82 0 132 50 132 146v310h88v-526h-82l-6 89c-29 -60 -78 -100 -162 -100zM243 617l82 139h116l-125 -139h-73z" />
    <glyph glyph-name="ucircumflex" unicode="&#xfb;" horiz-adv-x="580" 
d="M249 -11c-113 0 -173 57 -173 198v339h88v-310c0 -111 34 -146 115 -146c82 0 132 50 132 146v310h88v-526h-82l-6 89c-29 -60 -78 -100 -162 -100zM128 617l111 139h96l111 -139h-76l-83 88l-85 -88h-74z" />
    <glyph glyph-name="udieresis" unicode="&#xfc;" horiz-adv-x="580" 
d="M249 -11c-113 0 -173 57 -173 198v339h88v-310c0 -111 34 -146 115 -146c82 0 132 50 132 146v310h88v-526h-82l-6 89c-29 -60 -78 -100 -162 -100zM192 634c-37 0 -55 18 -55 52c0 35 18 53 55 53s55 -18 55 -53c0 -34 -18 -52 -55 -52zM382 634c-37 0 -55 18 -55 52
c0 35 18 53 55 53s55 -18 55 -53c0 -34 -18 -52 -55 -52z" />
    <glyph glyph-name="yacute" unicode="&#xfd;" horiz-adv-x="520" 
d="M161 -191c-27 0 -52 7 -59 11v86c12 -9 27 -16 50 -16c31 0 52 14 81 110l-213 526h96l159 -409l133 409h92l-180 -529c-56 -164 -92 -188 -159 -188zM216 617l82 139h116l-125 -139h-73z" />
    <glyph glyph-name="thorn" unicode="&#xfe;" horiz-adv-x="590" 
d="M81 -180v933h88v-312c30 53 76 96 173 96c131 0 197 -72 197 -269c0 -202 -71 -279 -208 -279c-93 0 -139 47 -162 98v-267h-88zM449 268c0 142 -46 188 -136 188c-93 0 -144 -52 -144 -160v-66c0 -104 55 -160 141 -160c93 0 139 46 139 198z" />
    <glyph glyph-name="ydieresis" unicode="&#xff;" horiz-adv-x="520" 
d="M161 -191c-27 0 -52 7 -59 11v86c12 -9 27 -16 50 -16c31 0 52 14 81 110l-213 526h96l159 -409l133 409h92l-180 -529c-56 -164 -92 -188 -159 -188zM165 634c-37 0 -55 18 -55 52c0 35 18 53 55 53s55 -18 55 -53c0 -34 -18 -52 -55 -52zM355 634c-37 0 -55 18 -55 52
c0 35 18 53 55 53s55 -18 55 -53c0 -34 -18 -52 -55 -52z" />
    <glyph glyph-name="Amacron" unicode="&#x100;" horiz-adv-x="640" 
d="M20 0l250 700h100l250 -700h-99l-63 185h-281l-63 -185h-94zM318 596l-113 -331h225zM178 795v70h284v-70h-284z" />
    <glyph glyph-name="amacron" unicode="&#x101;" horiz-adv-x="535" 
d="M215 -11c-108 0 -164 57 -164 158c0 106 53 159 210 159h110v47c0 75 -28 103 -122 103c-62 0 -120 -20 -157 -45v92c38 19 103 34 169 34c145 0 198 -53 198 -186v-351h-79l-5 90c-24 -55 -75 -101 -160 -101zM238 67c82 0 133 51 133 141v36h-104
c-96 0 -126 -30 -126 -93c0 -55 29 -84 97 -84zM146 643v66h258v-66h-258z" />
    <glyph glyph-name="Abreve" unicode="&#x102;" horiz-adv-x="640" 
d="M20 0l250 700h100l250 -700h-99l-63 185h-281l-63 -185h-94zM318 596l-113 -331h225zM320 769c-84 0 -141 43 -159 125l62 17c14 -50 42 -75 97 -75s85 25 98 75l61 -17c-18 -82 -74 -125 -159 -125z" />
    <glyph glyph-name="abreve" unicode="&#x103;" horiz-adv-x="535" 
d="M215 -11c-108 0 -164 57 -164 158c0 106 53 159 210 159h110v47c0 75 -28 103 -122 103c-62 0 -120 -20 -157 -45v92c38 19 103 34 169 34c145 0 198 -53 198 -186v-351h-79l-5 90c-24 -55 -75 -101 -160 -101zM238 67c82 0 133 51 133 141v36h-104
c-96 0 -126 -30 -126 -93c0 -55 29 -84 97 -84zM273 615c-80 0 -138 44 -154 126l60 16c12 -50 43 -77 94 -77s84 27 96 77l58 -16c-16 -83 -73 -126 -154 -126z" />
    <glyph glyph-name="Aogonek" unicode="&#x104;" horiz-adv-x="640" 
d="M542 -196c-66 0 -94 28 -94 77c0 44 29 83 88 119h-15l-63 185h-281l-63 -185h-94l250 700h100l250 -700c-67 -35 -95 -74 -95 -105c0 -21 12 -33 38 -33c20 0 38 5 57 16v-57c-20 -10 -45 -17 -78 -17zM318 596l-113 -331h225z" />
    <glyph glyph-name="aogonek" unicode="&#x105;" horiz-adv-x="535" 
d="M381 -196c-66 0 -94 28 -94 77c0 45 31 84 93 122l-5 87c-24 -55 -75 -101 -160 -101c-108 0 -164 57 -164 158c0 106 53 159 210 159h110v47c0 75 -28 103 -122 103c-62 0 -120 -20 -157 -45v92c38 19 103 34 169 34c145 0 198 -53 198 -186v-351
c-67 -35 -96 -74 -96 -105c0 -21 13 -35 39 -35c20 0 38 6 57 16v-55c-20 -10 -45 -17 -78 -17zM238 67c82 0 133 51 133 141v36h-104c-96 0 -126 -30 -126 -93c0 -55 29 -84 97 -84z" />
    <glyph glyph-name="Cacute" unicode="&#x106;" horiz-adv-x="575" 
d="M358 -11c-204 0 -308 103 -308 366c0 249 107 356 305 356c98 0 167 -28 167 -28v-96c-38 22 -93 38 -166 38c-137 0 -210 -73 -210 -270c0 -204 75 -280 214 -280c75 0 136 27 170 47v-97s-74 -36 -172 -36zM289 770l90 140h118l-133 -140h-75z" />
    <glyph glyph-name="cacute" unicode="&#x107;" horiz-adv-x="475" 
d="M300 -11c-168 0 -249 81 -249 279c0 184 85 269 242 269c71 0 120 -17 138 -25v-95c-30 21 -76 39 -131 39c-104 0 -159 -55 -159 -188c0 -141 57 -198 169 -198c49 0 102 19 130 42v-91c-19 -11 -67 -32 -140 -32zM230 617l82 139h116l-125 -139h-73z" />
    <glyph glyph-name="Ccircumflex" unicode="&#x108;" horiz-adv-x="575" 
d="M358 -11c-204 0 -308 103 -308 366c0 249 107 356 305 356c98 0 167 -28 167 -28v-96c-38 22 -93 38 -166 38c-137 0 -210 -73 -210 -270c0 -204 75 -280 214 -280c75 0 136 27 170 47v-97s-74 -36 -172 -36zM168 770l115 140h100l115 -140h-78l-87 87l-89 -87h-76z" />
    <glyph glyph-name="ccircumflex" unicode="&#x109;" horiz-adv-x="475" 
d="M300 -11c-168 0 -249 81 -249 279c0 184 85 269 242 269c71 0 120 -17 138 -25v-95c-30 21 -76 39 -131 39c-104 0 -159 -55 -159 -188c0 -141 57 -198 169 -198c49 0 102 19 130 42v-91c-19 -11 -67 -32 -140 -32zM114 617l111 139h96l111 -139h-76l-83 88l-85 -88h-74z
" />
    <glyph glyph-name="Cdotaccent" unicode="&#x10a;" horiz-adv-x="575" 
d="M358 -11c-204 0 -308 103 -308 366c0 249 107 356 305 356c98 0 167 -28 167 -28v-96c-38 22 -93 38 -166 38c-137 0 -210 -73 -210 -270c0 -204 75 -280 214 -280c75 0 136 27 170 47v-97s-74 -36 -172 -36zM333 784c-39 0 -58 20 -58 56s19 56 58 56s58 -20 58 -56
s-19 -56 -58 -56z" />
    <glyph glyph-name="cdotaccent" unicode="&#x10b;" horiz-adv-x="475" 
d="M300 -11c-168 0 -249 81 -249 279c0 184 85 269 242 269c71 0 120 -17 138 -25v-95c-30 21 -76 39 -131 39c-104 0 -159 -55 -159 -188c0 -141 57 -198 169 -198c49 0 102 19 130 42v-91c-19 -11 -67 -32 -140 -32zM273 632c-38 0 -56 19 -56 54s18 54 56 54
s56 -19 56 -54s-18 -54 -56 -54z" />
    <glyph glyph-name="Ccaron" unicode="&#x10c;" horiz-adv-x="575" 
d="M358 -11c-204 0 -308 103 -308 366c0 249 107 356 305 356c98 0 167 -28 167 -28v-96c-38 22 -93 38 -166 38c-137 0 -210 -73 -210 -270c0 -204 75 -280 214 -280c75 0 136 27 170 47v-97s-74 -36 -172 -36zM283 770l-115 140h78l88 -87l88 87h76l-115 -140h-100z" />
    <glyph glyph-name="ccaron" unicode="&#x10d;" horiz-adv-x="475" 
d="M300 -11c-168 0 -249 81 -249 279c0 184 85 269 242 269c71 0 120 -17 138 -25v-95c-30 21 -76 39 -131 39c-104 0 -159 -55 -159 -188c0 -141 57 -198 169 -198c49 0 102 19 130 42v-91c-19 -11 -67 -32 -140 -32zM225 617l-111 139h76l83 -89l85 89h74l-111 -139h-96z
" />
    <glyph glyph-name="Dcaron" unicode="&#x10e;" horiz-adv-x="680" 
d="M290 -6c-90 0 -189 11 -189 11v690s99 11 192 11c241 0 337 -96 337 -348c0 -253 -111 -364 -340 -364zM534 358c0 199 -62 261 -239 261c-58 0 -102 -5 -102 -5v-528s42 -5 99 -5c168 0 242 74 242 277zM274 770l-115 140h78l88 -87l88 87h76l-115 -140h-100z" />
    <glyph glyph-name="dcaron" unicode="&#x10f;" horiz-adv-x="660" 
d="M601 574l30 179h84l-56 -179h-58zM427 0l-6 89c-23 -52 -72 -100 -165 -100c-136 0 -205 75 -205 279c0 187 72 269 201 269c87 0 146 -38 169 -98v314h88v-753h-82zM141 268c0 -150 48 -198 140 -198c85 0 140 56 140 162v67c0 95 -45 157 -144 157
c-90 0 -136 -49 -136 -188z" />
    <glyph glyph-name="Dcroat" unicode="&#x110;" horiz-adv-x="690" 
d="M17 319v72h94v304s99 11 192 11c241 0 337 -96 337 -348c0 -253 -111 -364 -340 -364c-90 0 -189 11 -189 11v314h-94zM544 358c0 199 -62 261 -239 261c-58 0 -102 -5 -102 -5v-223h166v-72h-166v-233s42 -5 99 -5c168 0 242 74 242 277z" />
    <glyph glyph-name="dcroat" unicode="&#x111;" horiz-adv-x="590" 
d="M228 601v64h193v88h88v-88h94v-64h-94v-601h-82l-6 89c-23 -52 -72 -100 -165 -100c-136 0 -205 75 -205 279c0 187 72 269 201 269c87 0 146 -38 169 -98v162h-193zM141 268c0 -150 48 -198 140 -198c85 0 140 56 140 162v67c0 95 -45 157 -144 157
c-90 0 -136 -49 -136 -188z" />
    <glyph glyph-name="Emacron" unicode="&#x112;" horiz-adv-x="575" 
d="M101 0v700h419v-83h-327v-218h287v-81h-287v-235h327v-83h-419zM168 795v70h284v-70h-284z" />
    <glyph glyph-name="emacron" unicode="&#x113;" horiz-adv-x="550" 
d="M297 -11c-169 0 -246 85 -246 277c0 185 86 271 229 271c152 0 219 -77 219 -256v-41h-360c2 -118 53 -173 164 -173c66 0 127 25 163 56v-88c-33 -22 -88 -46 -169 -46zM280 462c-90 0 -138 -47 -141 -158h272c0 100 -30 158 -131 158zM151 643v66h258v-66h-258z" />
    <glyph glyph-name="Edotaccent" unicode="&#x116;" horiz-adv-x="575" 
d="M101 0v700h419v-83h-327v-218h287v-81h-287v-235h327v-83h-419zM310 784c-39 0 -58 20 -58 56s19 56 58 56s58 -20 58 -56s-19 -56 -58 -56z" />
    <glyph glyph-name="edotaccent" unicode="&#x117;" horiz-adv-x="550" 
d="M297 -11c-169 0 -246 85 -246 277c0 185 86 271 229 271c152 0 219 -77 219 -256v-41h-360c2 -118 53 -173 164 -173c66 0 127 25 163 56v-88c-33 -22 -88 -46 -169 -46zM280 462c-90 0 -138 -47 -141 -158h272c0 100 -30 158 -131 158zM278 632c-38 0 -56 19 -56 54
s18 54 56 54s56 -19 56 -54s-18 -54 -56 -54z" />
    <glyph glyph-name="Eogonek" unicode="&#x118;" horiz-adv-x="575" 
d="M101 0v700h419v-83h-327v-218h287v-81h-287v-235h327v-83c-67 -35 -95 -74 -95 -105c0 -21 12 -33 38 -33c20 0 38 5 57 16v-57c-20 -10 -45 -17 -78 -17c-66 0 -94 28 -94 77c0 44 29 83 88 119h-335z" />
    <glyph glyph-name="eogonek" unicode="&#x119;" horiz-adv-x="550" 
d="M297 -11c-169 0 -246 85 -246 277c0 185 86 271 229 271c152 0 219 -77 219 -256v-41h-360c2 -118 53 -173 164 -173c66 0 127 25 163 56v-88l-5 -4c-90 -62 -118 -97 -118 -136c0 -21 14 -35 40 -35c20 0 38 6 56 16v-55c-20 -10 -44 -17 -77 -17c-66 0 -94 28 -94 77
c0 43 26 79 67 110c-12 -1 -25 -2 -38 -2zM280 462c-90 0 -138 -47 -141 -158h272c0 100 -30 158 -131 158z" />
    <glyph glyph-name="Ecaron" unicode="&#x11a;" horiz-adv-x="575" 
d="M101 0v700h419v-83h-327v-218h287v-81h-287v-235h327v-83h-419zM260 770l-115 140h78l88 -87l88 87h76l-115 -140h-100z" />
    <glyph glyph-name="ecaron" unicode="&#x11b;" horiz-adv-x="550" 
d="M297 -11c-169 0 -246 85 -246 277c0 185 86 271 229 271c152 0 219 -77 219 -256v-41h-360c2 -118 53 -173 164 -173c66 0 127 25 163 56v-88c-33 -22 -88 -46 -169 -46zM280 462c-90 0 -138 -47 -141 -158h272c0 100 -30 158 -131 158zM230 617l-111 139h76l83 -89
l85 89h74l-111 -139h-96z" />
    <glyph glyph-name="Gcircumflex" unicode="&#x11c;" horiz-adv-x="650" 
d="M377 -11c-221 0 -327 105 -327 366c0 245 112 356 327 356c100 0 163 -28 163 -28v-96c-37 19 -95 38 -163 38c-154 0 -231 -77 -231 -270c0 -206 74 -280 231 -280c43 0 83 7 113 17v188h-133v80h223v-327c-37 -19 -111 -44 -203 -44zM192 770l115 140h100l115 -140h-78
l-87 87l-89 -87h-76z" />
    <glyph glyph-name="gcircumflex" unicode="&#x11d;" horiz-adv-x="590" 
d="M272 -191c-80 0 -144 18 -180 36v102c28 -25 94 -57 178 -57c107 0 151 45 151 139v76c-23 -52 -72 -100 -165 -100c-136 0 -205 76 -205 267c0 183 72 265 201 265c87 0 146 -38 169 -98l6 87h82v-491c0 -156 -75 -226 -237 -226zM281 86c85 0 140 59 140 161v57
c0 90 -45 152 -144 152c-90 0 -136 -49 -136 -180c0 -142 48 -190 140 -190zM121 617l111 139h96l111 -139h-76l-83 88l-85 -88h-74z" />
    <glyph glyph-name="Gbreve" unicode="&#x11e;" horiz-adv-x="650" 
d="M377 -11c-221 0 -327 105 -327 366c0 245 112 356 327 356c100 0 163 -28 163 -28v-96c-37 19 -95 38 -163 38c-154 0 -231 -77 -231 -270c0 -206 74 -280 231 -280c43 0 83 7 113 17v188h-133v80h223v-327c-37 -19 -111 -44 -203 -44zM357 769c-84 0 -141 43 -159 125
l62 17c14 -50 42 -75 97 -75s85 25 98 75l61 -17c-18 -82 -74 -125 -159 -125z" />
    <glyph glyph-name="gbreve" unicode="&#x11f;" horiz-adv-x="590" 
d="M272 -191c-80 0 -144 18 -180 36v102c28 -25 94 -57 178 -57c107 0 151 45 151 139v76c-23 -52 -72 -100 -165 -100c-136 0 -205 76 -205 267c0 183 72 265 201 265c87 0 146 -38 169 -98l6 87h82v-491c0 -156 -75 -226 -237 -226zM281 86c85 0 140 59 140 161v57
c0 90 -45 152 -144 152c-90 0 -136 -49 -136 -180c0 -142 48 -190 140 -190zM280 615c-80 0 -138 44 -154 126l60 16c12 -50 43 -77 94 -77s84 27 96 77l58 -16c-16 -83 -73 -126 -154 -126z" />
    <glyph glyph-name="Gdotaccent" unicode="&#x120;" horiz-adv-x="650" 
d="M377 -11c-221 0 -327 105 -327 366c0 245 112 356 327 356c100 0 163 -28 163 -28v-96c-37 19 -95 38 -163 38c-154 0 -231 -77 -231 -270c0 -206 74 -280 231 -280c43 0 83 7 113 17v188h-133v80h223v-327c-37 -19 -111 -44 -203 -44zM357 784c-39 0 -58 20 -58 56
s19 56 58 56s58 -20 58 -56s-19 -56 -58 -56z" />
    <glyph glyph-name="gdotaccent" unicode="&#x121;" horiz-adv-x="590" 
d="M272 -191c-80 0 -144 18 -180 36v102c28 -25 94 -57 178 -57c107 0 151 45 151 139v76c-23 -52 -72 -100 -165 -100c-136 0 -205 76 -205 267c0 183 72 265 201 265c87 0 146 -38 169 -98l6 87h82v-491c0 -156 -75 -226 -237 -226zM281 86c85 0 140 59 140 161v57
c0 90 -45 152 -144 152c-90 0 -136 -49 -136 -180c0 -142 48 -190 140 -190zM280 632c-38 0 -56 19 -56 54s18 54 56 54s56 -19 56 -54s-18 -54 -56 -54z" />
    <glyph glyph-name="Gcommaaccent" unicode="&#x122;" horiz-adv-x="650" 
d="M377 -11c-221 0 -327 105 -327 366c0 245 112 356 327 356c100 0 163 -28 163 -28v-96c-37 19 -95 38 -163 38c-154 0 -231 -77 -231 -270c0 -206 74 -280 231 -280c43 0 83 7 113 17v188h-133v80h223v-327c-37 -19 -111 -44 -203 -44zM301 -221l-7 48c32 3 63 10 68 37
c-60 0 -74 16 -74 43c0 25 19 44 69 44c47 0 69 -22 69 -58c0 -57 -43 -107 -125 -114z" />
    <glyph glyph-name="gcommaaccent" unicode="&#x123;" horiz-adv-x="590" 
d="M272 -191c-80 0 -144 18 -180 36v102c28 -25 94 -57 178 -57c107 0 151 45 151 139v76c-23 -52 -72 -100 -165 -100c-136 0 -205 76 -205 267c0 183 72 265 201 265c87 0 146 -38 169 -98l6 87h82v-491c0 -156 -75 -226 -237 -226zM281 86c85 0 140 59 140 161v57
c0 90 -45 152 -144 152c-90 0 -136 -49 -136 -180c0 -142 48 -190 140 -190zM333 791l7 -48c-38 -3 -63 -13 -67 -38c57 0 73 -16 73 -42c0 -25 -19 -44 -66 -44c-44 0 -66 22 -66 62c0 48 36 103 119 110z" />
    <glyph glyph-name="Hcircumflex" unicode="&#x124;" horiz-adv-x="720" 
d="M101 0v700h92v-299h334v299h92v-700h-92v317h-334v-317h-92zM195 770l115 140h100l115 -140h-78l-87 87l-89 -87h-76z" />
    <glyph glyph-name="hcircumflex" unicode="&#x125;" horiz-adv-x="585" 
d="M81 0v753h88v-316c29 64 79 100 163 100c118 0 177 -57 177 -198v-339h-88v308c0 113 -34 148 -119 148c-83 0 -133 -50 -133 -148v-308h-88zM-34 796l111 139h96l111 -139h-76l-83 88l-85 -88h-74z" />
    <glyph glyph-name="Hbar" unicode="&#x126;" horiz-adv-x="740" 
d="M17 514v72h94v114h92v-114h334v114h92v-114h94v-72h-94v-514h-92v317h-334v-317h-92v514h-94zM203 401h334v113h-334v-113z" />
    <glyph glyph-name="hbar" unicode="&#x127;" horiz-adv-x="605" 
d="M7 599v68h94v86h88v-86h200v-68h-200v-162c29 64 79 100 163 100c118 0 177 -57 177 -198v-339h-88v308c0 113 -34 148 -119 148c-83 0 -133 -50 -133 -148v-308h-88v599h-94z" />
    <glyph glyph-name="Imacron" unicode="&#x12a;" horiz-adv-x="330" 
d="M119 0v700h92v-700h-92zM23 795v70h284v-70h-284z" />
    <glyph glyph-name="imacron" unicode="&#x12b;" horiz-adv-x="290" 
d="M101 0v526h88v-526h-88zM18 643v66h258v-66h-258z" />
    <glyph glyph-name="Iogonek" unicode="&#x12e;" horiz-adv-x="330" 
d="M119 0v700h92v-699l3 -1c-67 -35 -96 -74 -96 -105c0 -21 13 -35 39 -35c20 0 38 6 57 16v-55c-20 -10 -45 -17 -78 -17c-66 0 -94 28 -94 77c0 43 29 82 87 119h-10z" />
    <glyph glyph-name="iogonek" unicode="&#x12f;" horiz-adv-x="290" 
d="M101 0v526h88v-524l5 -2c-67 -35 -96 -74 -96 -105c0 -21 13 -35 39 -35c20 0 38 6 57 16v-55c-20 -10 -45 -17 -78 -17c-66 0 -94 28 -94 77c0 43 29 82 87 119h-8zM145 632c-38 0 -56 19 -56 54s18 54 56 54s56 -19 56 -54s-18 -54 -56 -54z" />
    <glyph glyph-name="Idotaccent" unicode="&#x130;" horiz-adv-x="330" 
d="M119 0v700h92v-700h-92zM165 784c-39 0 -58 20 -58 56s19 56 58 56s58 -20 58 -56s-19 -56 -58 -56z" />
    <glyph glyph-name="dotlessi" unicode="&#x131;" horiz-adv-x="290" 
d="M101 0v526h88v-526h-88z" />
    <glyph glyph-name="Jcircumflex" unicode="&#x134;" horiz-adv-x="420" 
d="M140 -11c-63 0 -105 18 -105 18v97s35 -29 96 -29s90 30 90 108v517h93v-517c0 -140 -54 -194 -174 -194zM103 770l115 140h100l115 -140h-78l-87 87l-89 -87h-76z" />
    <glyph glyph-name="jcircumflex" unicode="&#x135;" horiz-adv-x="290" 
d="M53 -186c-35 0 -65 7 -74 12v88c15 -10 36 -18 61 -18c42 0 61 19 61 80v550h88v-553c0 -113 -46 -159 -136 -159zM-14 617l111 139h96l111 -139h-76l-83 88l-85 -88h-74z" />
    <glyph glyph-name="Kcommaaccent" unicode="&#x136;" horiz-adv-x="655" 
d="M514 0l-248 317h-73v-317h-92v700h92v-300h73l231 300h113l-266 -340l286 -360h-116zM309 -221l-7 48c32 3 63 10 68 37c-60 0 -74 16 -74 43c0 25 19 44 69 44c47 0 69 -22 69 -58c0 -57 -43 -107 -125 -114z" />
    <glyph glyph-name="kcommaaccent" unicode="&#x137;" horiz-adv-x="555" 
d="M81 0v753h88v-440h60l167 213h103l-199 -251l219 -275h-106l-184 234h-60v-234h-88zM247 -221l-7 48c38 3 63 13 67 38c-57 0 -73 16 -73 42c0 25 19 44 66 44c44 0 66 -22 66 -62c0 -48 -36 -103 -119 -110z" />
    <glyph glyph-name="Lacute" unicode="&#x139;" horiz-adv-x="530" 
d="M101 0v700h92v-617h307v-83h-399zM106 770l90 140h118l-133 -140h-75z" />
    <glyph glyph-name="lacute" unicode="&#x13a;" horiz-adv-x="315" 
d="M205 -6c-89 0 -129 42 -129 132v627h88v-610c0 -52 16 -66 57 -66c23 0 49 9 59 14v-82c-10 -4 -39 -15 -75 -15zM84 782l77 121h109l-117 -121h-69z" />
    <glyph glyph-name="Lcommaaccent" unicode="&#x13b;" horiz-adv-x="530" 
d="M101 0v700h92v-617h307v-83h-399zM244 -221l-7 48c32 3 63 10 68 37c-60 0 -74 16 -74 43c0 25 19 44 69 44c47 0 69 -22 69 -58c0 -57 -43 -107 -125 -114z" />
    <glyph glyph-name="lcommaaccent" unicode="&#x13c;" horiz-adv-x="315" 
d="M205 -6c-89 0 -129 42 -129 132v627h88v-610c0 -52 16 -66 57 -66c23 0 49 9 59 14v-82c-10 -4 -39 -15 -75 -15zM130 -221l-7 48c38 3 63 13 67 38c-57 0 -73 16 -73 42c0 25 19 44 66 44c44 0 66 -22 66 -62c0 -48 -36 -103 -119 -110z" />
    <glyph glyph-name="Lcaron" unicode="&#x13d;" horiz-adv-x="530" 
d="M329 514l36 186h89l-62 -186h-63zM101 0v700h92v-617h307v-83h-399z" />
    <glyph glyph-name="lcaron" unicode="&#x13e;" horiz-adv-x="375" 
d="M255 574l37 179h85l-63 -179h-59zM205 -6c-89 0 -129 42 -129 132v627h88v-610c0 -52 16 -66 57 -66c23 0 49 9 59 14v-82c-10 -4 -39 -15 -75 -15z" />
    <glyph glyph-name="Ldot" unicode="&#x13f;" horiz-adv-x="530" 
d="M101 0v700h92v-617h307v-83h-399zM412 316c-41 0 -64 23 -64 64c0 42 23 64 64 64s64 -22 64 -64c0 -41 -23 -64 -64 -64z" />
    <glyph glyph-name="ldot" unicode="&#x140;" horiz-adv-x="415" 
d="M205 -6c-89 0 -129 42 -129 132v627h88v-610c0 -52 16 -66 57 -66c23 0 49 9 59 14v-82c-10 -4 -39 -15 -75 -15zM325 316c-41 0 -64 23 -64 64c0 42 23 64 64 64s64 -22 64 -64c0 -41 -23 -64 -64 -64z" />
    <glyph glyph-name="Lslash" unicode="&#x141;" horiz-adv-x="540" 
d="M17 260v81l94 54v305h92v-252l153 89v-81l-153 -89v-284h307v-83h-399v314z" />
    <glyph glyph-name="lslash" unicode="&#x142;" horiz-adv-x="370" 
d="M17 289v78l100 57v329h88v-278l107 62v-78l-107 -62v-254c0 -52 17 -66 57 -66c23 0 49 9 59 14v-82c-10 -4 -39 -15 -75 -15c-89 0 -129 42 -129 132v220z" />
    <glyph glyph-name="Nacute" unicode="&#x143;" horiz-adv-x="740" 
d="M101 0v700h103l286 -454c33 -53 58 -106 58 -106h2s-3 53 -3 106v454h92v-700h-103l-286 454c-37 60 -58 106 -58 106h-2s3 -46 3 -106v-454h-92zM325 770l90 140h118l-133 -140h-75z" />
    <glyph glyph-name="nacute" unicode="&#x144;" horiz-adv-x="585" 
d="M81 0v526h82l6 -89c29 63 79 100 163 100c118 0 177 -57 177 -198v-339h-88v310c0 111 -34 146 -119 146c-83 0 -133 -50 -133 -146v-310h-88zM251 617l82 139h116l-125 -139h-73z" />
    <glyph glyph-name="Ncommaaccent" unicode="&#x145;" horiz-adv-x="740" 
d="M101 0v700h103l286 -454c33 -53 58 -106 58 -106h2s-3 53 -3 106v454h92v-700h-103l-286 454c-37 60 -58 106 -58 106h-2s3 -46 3 -106v-454h-92zM314 -221l-7 48c32 3 63 10 68 37c-60 0 -74 16 -74 43c0 25 19 44 69 44c47 0 69 -22 69 -58c0 -57 -43 -107 -125 -114z
" />
    <glyph glyph-name="ncommaaccent" unicode="&#x146;" horiz-adv-x="585" 
d="M81 0v526h82l6 -89c29 63 79 100 163 100c118 0 177 -57 177 -198v-339h-88v310c0 111 -34 146 -119 146c-83 0 -133 -50 -133 -146v-310h-88zM242 -221l-7 48c38 3 63 13 67 38c-57 0 -73 16 -73 42c0 25 19 44 66 44c44 0 66 -22 66 -62c0 -48 -36 -103 -119 -110z" />
    <glyph glyph-name="Ncaron" unicode="&#x147;" horiz-adv-x="740" 
d="M101 0v700h103l286 -454c33 -53 58 -106 58 -106h2s-3 53 -3 106v454h92v-700h-103l-286 454c-37 60 -58 106 -58 106h-2s3 -46 3 -106v-454h-92zM320 770l-115 140h78l88 -87l88 87h76l-115 -140h-100z" />
    <glyph glyph-name="ncaron" unicode="&#x148;" horiz-adv-x="585" 
d="M81 0v526h82l6 -89c29 63 79 100 163 100c118 0 177 -57 177 -198v-339h-88v310c0 111 -34 146 -119 146c-83 0 -133 -50 -133 -146v-310h-88zM247 617l-111 139h76l83 -89l85 89h74l-111 -139h-96z" />
    <glyph glyph-name="Omacron" unicode="&#x14c;" horiz-adv-x="710" 
d="M355 -11c-196 0 -305 108 -305 361s109 361 305 361c203 0 305 -102 305 -361c0 -253 -109 -361 -305 -361zM355 73c136 0 209 74 209 277c0 204 -73 277 -209 277c-134 0 -209 -75 -209 -277c0 -200 76 -277 209 -277zM213 795v70h284v-70h-284z" />
    <glyph glyph-name="omacron" unicode="&#x14d;" horiz-adv-x="570" 
d="M285 -11c-153 0 -234 82 -234 274c0 186 88 274 234 274c156 0 234 -78 234 -274c0 -192 -83 -274 -234 -274zM285 70c96 0 144 48 144 193s-48 193 -144 193c-92 0 -144 -52 -144 -193c0 -145 48 -193 144 -193zM158 643v66h258v-66h-258z" />
    <glyph glyph-name="Ohungarumlaut" unicode="&#x150;" horiz-adv-x="710" 
d="M355 -11c-196 0 -305 108 -305 361s109 361 305 361c203 0 305 -102 305 -361c0 -253 -109 -361 -305 -361zM355 73c136 0 209 74 209 277c0 204 -73 277 -209 277c-134 0 -209 -75 -209 -277c0 -200 76 -277 209 -277zM238 770l59 140h100l-93 -140h-66zM384 770
l103 140h115l-144 -140h-74z" />
    <glyph glyph-name="ohungarumlaut" unicode="&#x151;" horiz-adv-x="570" 
d="M285 -11c-153 0 -234 82 -234 274c0 186 88 274 234 274c156 0 234 -78 234 -274c0 -192 -83 -274 -234 -274zM285 70c96 0 144 48 144 193s-48 193 -144 193c-92 0 -144 -52 -144 -193c0 -145 48 -193 144 -193zM173 617l49 139h100l-83 -139h-66zM310 617l93 139h114
l-134 -139h-73z" />
    <glyph glyph-name="OE" unicode="&#x152;" horiz-adv-x="935" 
d="M355 -11c-201 0 -305 103 -305 366c0 249 107 356 305 356c50 0 95 -6 123 -11h402v-83h-324v-218h284v-81h-284v-235h324v-83h-395c-30 -5 -76 -11 -130 -11zM357 75c40 0 78 3 107 7v534c-28 5 -65 9 -107 9c-138 0 -211 -73 -211 -270c0 -204 75 -280 211 -280z" />
    <glyph glyph-name="oe" unicode="&#x153;" horiz-adv-x="920" 
d="M670 -11c-97 0 -164 32 -200 102c-37 -70 -102 -102 -188 -102c-150 0 -231 82 -231 274c0 186 88 274 231 274c90 0 154 -31 189 -101c37 68 101 101 182 101c149 0 216 -77 216 -256v-41h-355c2 -118 53 -173 162 -173c63 0 124 25 160 56v-88
c-32 -22 -88 -46 -166 -46zM282 70c93 0 141 48 141 193s-47 193 -141 193c-89 0 -141 -52 -141 -193c0 -145 48 -193 141 -193zM653 462c-88 0 -135 -47 -139 -155h267c0 97 -30 155 -128 155z" />
    <glyph glyph-name="Racute" unicode="&#x154;" horiz-adv-x="640" 
d="M485 0l-152 269c-13 -1 -26 -1 -40 -1h-100v-268h-92v695s92 11 189 11c187 0 256 -69 256 -217c0 -103 -38 -171 -123 -202l166 -287h-104zM450 486c0 95 -38 133 -157 133c-51 0 -101 -3 -101 -3v-264h101c112 0 157 45 157 134zM259 770l90 140h118l-133 -140h-75z
" />
    <glyph glyph-name="racute" unicode="&#x155;" horiz-adv-x="410" 
d="M81 0v526h77l6 -90c25 72 76 101 143 101c23 0 44 -4 52 -7v-95c-17 12 -41 21 -75 21c-72 0 -115 -44 -115 -152v-304h-88zM176 617l82 139h116l-125 -139h-73z" />
    <glyph glyph-name="Rcommaaccent" unicode="&#x156;" horiz-adv-x="640" 
d="M485 0l-152 269c-13 -1 -26 -1 -40 -1h-100v-268h-92v695s92 11 189 11c187 0 256 -69 256 -217c0 -103 -38 -171 -123 -202l166 -287h-104zM450 486c0 95 -38 133 -157 133c-51 0 -101 -3 -101 -3v-264h101c112 0 157 45 157 134zM289 -221l-7 48c32 3 63 10 68 37
c-60 0 -74 16 -74 43c0 25 19 44 69 44c47 0 69 -22 69 -58c0 -57 -43 -107 -125 -114z" />
    <glyph glyph-name="rcommaaccent" unicode="&#x157;" horiz-adv-x="410" 
d="M81 0v526h77l6 -90c25 72 76 101 143 101c23 0 44 -4 52 -7v-95c-17 12 -41 21 -75 21c-72 0 -115 -44 -115 -152v-304h-88zM72 -221l-7 48c38 3 63 13 67 38c-57 0 -73 16 -73 42c0 25 19 44 66 44c44 0 66 -22 66 -62c0 -48 -36 -103 -119 -110z" />
    <glyph glyph-name="Rcaron" unicode="&#x158;" horiz-adv-x="640" 
d="M485 0l-152 269c-13 -1 -26 -1 -40 -1h-100v-268h-92v695s92 11 189 11c187 0 256 -69 256 -217c0 -103 -38 -171 -123 -202l166 -287h-104zM450 486c0 95 -38 133 -157 133c-51 0 -101 -3 -101 -3v-264h101c112 0 157 45 157 134zM253 770l-115 140h78l88 -87l88 87h76
l-115 -140h-100z" />
    <glyph glyph-name="rcaron" unicode="&#x159;" horiz-adv-x="410" 
d="M81 0v526h77l6 -90c25 72 76 101 143 101c23 0 44 -4 52 -7v-95c-17 12 -41 21 -75 21c-72 0 -115 -44 -115 -152v-304h-88zM172 617l-111 139h76l83 -89l85 89h74l-111 -139h-96z" />
    <glyph glyph-name="Sacute" unicode="&#x15a;" horiz-adv-x="580" 
d="M282 -11c-85 0 -161 24 -203 53v106c40 -35 111 -73 199 -73c101 0 141 40 141 110c0 178 -340 89 -340 337c0 121 68 189 229 189c73 0 137 -15 176 -35v-106c-39 33 -107 55 -172 55c-105 0 -137 -33 -137 -100c0 -171 339 -75 339 -337c0 -127 -72 -199 -232 -199z
M250 770l90 140h118l-133 -140h-75z" />
    <glyph glyph-name="sacute" unicode="&#x15b;" horiz-adv-x="475" 
d="M227 -11c-59 0 -111 11 -156 31v98c38 -33 93 -51 154 -51c71 0 99 28 99 78c0 128 -258 43 -258 238c0 101 53 154 186 154c53 0 107 -12 137 -24v-95c-38 26 -83 41 -136 41c-72 0 -97 -25 -97 -69c0 -121 258 -35 258 -239c0 -108 -55 -162 -187 -162zM196 617l82 139
h116l-125 -139h-73z" />
    <glyph glyph-name="Scircumflex" unicode="&#x15c;" horiz-adv-x="580" 
d="M282 -11c-85 0 -161 24 -203 53v106c40 -35 111 -73 199 -73c101 0 141 40 141 110c0 178 -340 89 -340 337c0 121 68 189 229 189c73 0 137 -15 176 -35v-106c-39 33 -107 55 -172 55c-105 0 -137 -33 -137 -100c0 -171 339 -75 339 -337c0 -127 -72 -199 -232 -199z
M130 770l115 140h100l115 -140h-78l-87 87l-89 -87h-76z" />
    <glyph glyph-name="scircumflex" unicode="&#x15d;" horiz-adv-x="475" 
d="M227 -11c-59 0 -111 11 -156 31v98c38 -33 93 -51 154 -51c71 0 99 28 99 78c0 128 -258 43 -258 238c0 101 53 154 186 154c53 0 107 -12 137 -24v-95c-38 26 -83 41 -136 41c-72 0 -97 -25 -97 -69c0 -121 258 -35 258 -239c0 -108 -55 -162 -187 -162zM81 617l111 139
h96l111 -139h-76l-83 88l-85 -88h-74z" />
    <glyph glyph-name="Scedilla" unicode="&#x15e;" horiz-adv-x="580" 
d="M291 -217c-34 0 -56 6 -76 15l7 49c20 -8 36 -12 60 -12c35 0 50 15 50 40c0 26 -15 41 -54 41c-10 0 -24 -1 -32 -2l14 76c-76 3 -143 25 -181 52v106c40 -35 111 -73 199 -73c101 0 141 40 141 110c0 178 -340 89 -340 337c0 121 68 189 229 189c73 0 137 -15 176 -35
v-106c-39 33 -107 55 -172 55c-105 0 -137 -33 -137 -100c0 -171 339 -75 339 -337c0 -119 -63 -189 -201 -198l-7 -34c63 0 97 -28 97 -81c0 -56 -39 -92 -112 -92z" />
    <glyph glyph-name="scedilla" unicode="&#x15f;" horiz-adv-x="475" 
d="M236 -217c-34 0 -56 6 -76 15l7 49c20 -8 36 -12 60 -12c35 0 50 15 50 40c0 26 -15 41 -54 41c-10 0 -24 -1 -32 -2l14 76c-50 2 -95 12 -134 30v98c38 -33 93 -51 154 -51c71 0 99 28 99 78c0 128 -258 43 -258 238c0 101 53 154 186 154c53 0 107 -12 137 -24v-95
c-38 26 -83 41 -136 41c-72 0 -97 -25 -97 -69c0 -121 258 -35 258 -239c0 -99 -46 -153 -156 -161l-7 -34c63 0 97 -28 97 -81c0 -56 -39 -92 -112 -92z" />
    <glyph glyph-name="Scaron" unicode="&#x160;" horiz-adv-x="580" 
d="M282 -11c-85 0 -161 24 -203 53v106c40 -35 111 -73 199 -73c101 0 141 40 141 110c0 178 -340 89 -340 337c0 121 68 189 229 189c73 0 137 -15 176 -35v-106c-39 33 -107 55 -172 55c-105 0 -137 -33 -137 -100c0 -171 339 -75 339 -337c0 -127 -72 -199 -232 -199z
M245 770l-115 140h78l88 -87l88 87h76l-115 -140h-100z" />
    <glyph glyph-name="scaron" unicode="&#x161;" horiz-adv-x="475" 
d="M227 -11c-59 0 -111 11 -156 31v98c38 -33 93 -51 154 -51c71 0 99 28 99 78c0 128 -258 43 -258 238c0 101 53 154 186 154c53 0 107 -12 137 -24v-95c-38 26 -83 41 -136 41c-72 0 -97 -25 -97 -69c0 -121 258 -35 258 -239c0 -108 -55 -162 -187 -162zM192 617
l-111 139h76l83 -89l85 89h74l-111 -139h-96z" />
    <glyph glyph-name="Tcedilla" unicode="&#x162;" horiz-adv-x="580" 
d="M244 0v617h-209v83h510v-83h-209v-617h-18l-8 -44c66 0 100 -28 100 -81c0 -56 -39 -92 -118 -92c-32 0 -60 6 -80 15l8 51c20 -8 40 -12 63 -12c40 0 54 14 54 38c0 25 -14 39 -57 39c-13 0 -25 -1 -33 -2l16 88h-19z" />
    <glyph glyph-name="tcedilla" unicode="&#x163;" horiz-adv-x="435" 
d="M255 -217c-34 0 -56 6 -76 15l7 49c20 -8 36 -12 60 -12c35 0 50 15 50 40c0 26 -15 41 -54 41c-10 0 -24 -1 -32 -2l16 85c-67 14 -97 63 -97 157v291h-94v79h94v105l88 30v-135h168v-79h-168v-284c0 -64 21 -87 73 -87c41 0 71 14 95 31v-88c-19 -13 -61 -25 -107 -25
l-8 -38c63 0 97 -28 97 -81c0 -56 -39 -92 -112 -92z" />
    <glyph glyph-name="Tcaron" unicode="&#x164;" horiz-adv-x="580" 
d="M244 0v617h-209v83h510v-83h-209v-617h-92zM240 770l-115 140h78l88 -87l88 87h76l-115 -140h-100z" />
    <glyph glyph-name="tcaron" unicode="&#x165;" horiz-adv-x="435" 
d="M296 607l36 179h85l-63 -179h-58zM277 -6c-103 0 -148 48 -148 162v291h-94v79h94v105l88 30v-135h168v-79h-168v-284c0 -64 21 -87 73 -87c41 0 71 14 95 31v-88c-19 -13 -61 -25 -108 -25z" />
    <glyph glyph-name="Umacron" unicode="&#x16a;" horiz-adv-x="670" 
d="M335 -11c-175 0 -255 79 -255 281v430h93v-426c0 -152 46 -199 162 -199c118 0 162 45 162 199v426h93v-430c0 -201 -81 -281 -255 -281zM193 795v70h284v-70h-284z" />
    <glyph glyph-name="umacron" unicode="&#x16b;" horiz-adv-x="580" 
d="M249 -11c-113 0 -173 57 -173 198v339h88v-310c0 -111 34 -146 115 -146c82 0 132 50 132 146v310h88v-526h-82l-6 89c-29 -60 -78 -100 -162 -100zM160 643v66h258v-66h-258z" />
    <glyph glyph-name="Ubreve" unicode="&#x16c;" horiz-adv-x="670" 
d="M335 -11c-175 0 -255 79 -255 281v430h93v-426c0 -152 46 -199 162 -199c118 0 162 45 162 199v426h93v-430c0 -201 -81 -281 -255 -281zM335 769c-84 0 -141 43 -159 125l62 17c14 -50 42 -75 97 -75s85 25 98 75l61 -17c-18 -82 -74 -125 -159 -125z" />
    <glyph glyph-name="ubreve" unicode="&#x16d;" horiz-adv-x="580" 
d="M249 -11c-113 0 -173 57 -173 198v339h88v-310c0 -111 34 -146 115 -146c82 0 132 50 132 146v310h88v-526h-82l-6 89c-29 -60 -78 -100 -162 -100zM287 615c-80 0 -138 44 -154 126l60 16c12 -50 43 -77 94 -77s84 27 96 77l58 -16c-16 -83 -73 -126 -154 -126z" />
    <glyph glyph-name="Uring" unicode="&#x16e;" horiz-adv-x="670" 
d="M335 -11c-175 0 -255 79 -255 281v430h93v-426c0 -152 46 -199 162 -199c118 0 162 45 162 199v426h93v-430c0 -201 -81 -281 -255 -281zM235 840c0 57 42 99 100 99s100 -42 100 -99s-42 -99 -100 -99s-100 42 -100 99zM285 840c0 -31 20 -50 50 -50s50 19 50 50
s-20 50 -50 50s-50 -19 -50 -50z" />
    <glyph glyph-name="uring" unicode="&#x16f;" horiz-adv-x="580" 
d="M249 -11c-113 0 -173 57 -173 198v339h88v-310c0 -111 34 -146 115 -146c82 0 132 50 132 146v310h88v-526h-82l-6 89c-29 -60 -78 -100 -162 -100zM190 686c0 58 39 97 98 97s98 -39 98 -97c0 -57 -39 -97 -98 -97s-98 40 -98 97zM240 686c0 -30 18 -48 48 -48
c29 0 48 19 48 48s-19 48 -48 48s-48 -19 -48 -48z" />
    <glyph glyph-name="Uhungarumlaut" unicode="&#x170;" horiz-adv-x="670" 
d="M335 -11c-175 0 -255 79 -255 281v430h93v-426c0 -152 46 -199 162 -199c118 0 162 45 162 199v426h93v-430c0 -201 -81 -281 -255 -281zM218 770l59 140h100l-93 -140h-66zM364 770l103 140h115l-144 -140h-74z" />
    <glyph glyph-name="uhungarumlaut" unicode="&#x171;" horiz-adv-x="580" 
d="M249 -11c-113 0 -173 57 -173 198v339h88v-310c0 -111 34 -146 115 -146c82 0 132 50 132 146v310h88v-526h-82l-6 89c-29 -60 -78 -100 -162 -100zM175 617l49 139h100l-83 -139h-66zM312 617l93 139h114l-134 -139h-73z" />
    <glyph glyph-name="Uogonek" unicode="&#x172;" horiz-adv-x="670" 
d="M335 -11c-175 0 -255 79 -255 281v430h93v-426c0 -152 46 -199 162 -199c118 0 162 45 162 199v426h93v-430c0 -127 -33 -205 -100 -246h1c-70 -43 -116 -82 -116 -129c0 -21 12 -33 39 -33c20 0 39 6 58 16v-57c-20 -10 -46 -17 -79 -17c-68 0 -96 28 -96 77
c0 42 24 77 72 110c-11 -1 -22 -2 -34 -2z" />
    <glyph glyph-name="uogonek" unicode="&#x173;" horiz-adv-x="580" 
d="M421 -196c-66 0 -94 28 -94 77c0 44 30 83 90 121l-6 87c-29 -60 -78 -100 -162 -100c-113 0 -173 57 -173 198v339h88v-310c0 -111 34 -146 115 -146c82 0 132 50 132 146v310h88v-526c-67 -35 -96 -74 -96 -105c0 -21 13 -35 39 -35c20 0 38 6 57 16v-55
c-20 -10 -45 -17 -78 -17z" />
    <glyph glyph-name="Ydieresis" unicode="&#x178;" horiz-adv-x="610" 
d="M264 0v271l-244 429h106l185 -332l178 332h101l-234 -429v-271h-92zM203 785c-38 0 -57 20 -57 55s19 55 57 55s57 -20 57 -55s-19 -55 -57 -55zM406 785c-38 0 -57 20 -57 55s19 55 57 55s57 -20 57 -55s-19 -55 -57 -55z" />
    <glyph glyph-name="Zacute" unicode="&#x179;" horiz-adv-x="590" 
d="M50 0v61l361 556h-351v83h470v-61l-361 -556h371v-83h-490zM250 770l90 140h118l-133 -140h-75z" />
    <glyph glyph-name="zacute" unicode="&#x17a;" horiz-adv-x="490" 
d="M45 0v55l279 392h-269v79h383v-55l-278 -392h285v-79h-400zM203 617l82 139h116l-125 -139h-73z" />
    <glyph glyph-name="Zdotaccent" unicode="&#x17b;" horiz-adv-x="590" 
d="M50 0v61l361 556h-351v83h470v-61l-361 -556h371v-83h-490zM295 784c-39 0 -58 20 -58 56s19 56 58 56s58 -20 58 -56s-19 -56 -58 -56z" />
    <glyph glyph-name="zdotaccent" unicode="&#x17c;" horiz-adv-x="490" 
d="M45 0v55l279 392h-269v79h383v-55l-278 -392h285v-79h-400zM247 632c-38 0 -56 19 -56 54s18 54 56 54s56 -19 56 -54s-18 -54 -56 -54z" />
    <glyph glyph-name="Zcaron" unicode="&#x17d;" horiz-adv-x="590" 
d="M50 0v61l361 556h-351v83h470v-61l-361 -556h371v-83h-490zM245 770l-115 140h78l88 -87l88 87h76l-115 -140h-100z" />
    <glyph glyph-name="zcaron" unicode="&#x17e;" horiz-adv-x="490" 
d="M45 0v55l279 392h-269v79h383v-55l-278 -392h285v-79h-400zM199 617l-111 139h76l83 -89l85 89h74l-111 -139h-96z" />
    <glyph glyph-name="uni018F" unicode="&#x18f;" horiz-adv-x="690" 
d="M342 -11c-184 0 -292 107 -292 345v46h490c-2 121 -37 248 -235 248c-69 0 -136 -11 -186 -32v87c58 17 122 28 198 28c244 0 323 -143 323 -357c0 -191 -76 -365 -298 -365zM342 72c108 0 192 66 198 232h-394c0 -157 60 -232 196 -232z" />
    <glyph glyph-name="florin" unicode="&#x192;" horiz-adv-x="600" 
d="M146 447l16 79h111l10 51c25 125 86 182 196 182c23 0 42 -3 67 -7l-17 -80c-9 3 -24 7 -46 7c-67 0 -93 -28 -110 -112l-8 -41h136l-16 -79h-136l-87 -436c-24 -123 -69 -197 -193 -197c-17 0 -35 2 -48 5l16 79c10 -3 21 -4 32 -4c49 0 82 26 100 116l88 437h-111z" />
    <glyph glyph-name="uni01DD" unicode="&#x1dd;" horiz-adv-x="550" 
d="M270 -11c-152 0 -219 77 -219 256v41h360c-2 119 -53 173 -164 173c-66 0 -127 -25 -163 -56v88c26 21 88 46 169 46c169 0 246 -85 246 -277c0 -185 -86 -271 -229 -271zM270 64c90 0 138 48 141 155h-272c0 -97 30 -155 131 -155z" />
    <glyph glyph-name="Gcaron" unicode="&#x1e6;" horiz-adv-x="650" 
d="M377 -11c-221 0 -327 105 -327 366c0 245 112 356 327 356c100 0 163 -28 163 -28v-96c-37 19 -95 38 -163 38c-154 0 -231 -77 -231 -270c0 -206 74 -280 231 -280c43 0 83 7 113 17v188h-133v80h223v-327c-37 -19 -111 -44 -203 -44zM307 770l-115 140h78l88 -87l88 87
h76l-115 -140h-100z" />
    <glyph glyph-name="gcaron" unicode="&#x1e7;" horiz-adv-x="590" 
d="M272 -191c-80 0 -144 18 -180 36v102c28 -25 94 -57 178 -57c107 0 151 45 151 139v76c-23 -52 -72 -100 -165 -100c-136 0 -205 76 -205 267c0 183 72 265 201 265c87 0 146 -38 169 -98l6 87h82v-491c0 -156 -75 -226 -237 -226zM281 86c85 0 140 59 140 161v57
c0 90 -45 152 -144 152c-90 0 -136 -49 -136 -180c0 -142 48 -190 140 -190zM212 617l-111 139h76l83 -89l85 89h74l-111 -139h-96z" />
    <glyph glyph-name="Scommaaccent" unicode="&#x218;" horiz-adv-x="580" 
d="M282 -11c-85 0 -161 24 -203 53v106c40 -35 111 -73 199 -73c101 0 141 40 141 110c0 178 -340 89 -340 337c0 121 68 189 229 189c73 0 137 -15 176 -35v-106c-39 33 -107 55 -172 55c-105 0 -137 -33 -137 -100c0 -171 339 -75 339 -337c0 -127 -72 -199 -232 -199z
M239 -221l-7 48c32 3 63 10 68 37c-60 0 -74 16 -74 43c0 25 19 44 69 44c47 0 69 -22 69 -58c0 -57 -43 -107 -125 -114z" />
    <glyph glyph-name="scommaaccent" unicode="&#x219;" horiz-adv-x="475" 
d="M227 -11c-59 0 -111 11 -156 31v98c38 -33 93 -51 154 -51c71 0 99 28 99 78c0 128 -258 43 -258 238c0 101 53 154 186 154c53 0 107 -12 137 -24v-95c-38 26 -83 41 -136 41c-72 0 -97 -25 -97 -69c0 -121 258 -35 258 -239c0 -108 -55 -162 -187 -162zM187 -221l-7 48
c38 3 63 13 67 38c-57 0 -73 16 -73 42c0 25 19 44 66 44c44 0 66 -22 66 -62c0 -48 -36 -103 -119 -110z" />
    <glyph glyph-name="Tcommaaccent" unicode="&#x21a;" horiz-adv-x="580" 
d="M244 0v617h-209v83h510v-83h-209v-617h-92zM234 -221l-7 48c32 3 63 10 68 37c-60 0 -74 16 -74 43c0 25 19 44 69 44c47 0 69 -22 69 -58c0 -57 -43 -107 -125 -114z" />
    <glyph glyph-name="tcommaaccent" unicode="&#x21b;" horiz-adv-x="435" 
d="M277 -6c-103 0 -148 48 -148 162v291h-94v79h94v105l88 30v-135h168v-79h-168v-284c0 -64 21 -87 73 -87c41 0 71 14 95 31v-88c-19 -13 -61 -25 -108 -25zM200 -221l-7 48c38 3 63 13 67 38c-57 0 -73 16 -73 42c0 25 19 44 66 44c44 0 66 -22 66 -62
c0 -48 -36 -103 -119 -110z" />
    <glyph glyph-name="uni0237" unicode="&#x237;" horiz-adv-x="290" 
d="M53 -186c-35 0 -65 7 -74 12v88c15 -10 36 -18 61 -18c42 0 61 19 61 80v550h88v-553c0 -113 -46 -159 -136 -159z" />
    <glyph glyph-name="uni0259" unicode="&#x259;" horiz-adv-x="550" 
d="M270 -11c-152 0 -219 77 -219 256v41h360c-2 119 -53 173 -164 173c-66 0 -127 -25 -163 -56v88c26 21 88 46 169 46c169 0 246 -85 246 -277c0 -185 -86 -271 -229 -271zM270 64c90 0 138 48 141 155h-272c0 -97 30 -155 131 -155z" />
    <glyph glyph-name="afii57929" unicode="&#x2bc;" horiz-adv-x="240" 
d="M58 494l51 206h93l-78 -206h-66z" />
    <glyph glyph-name="circumflex" unicode="&#x2c6;" horiz-adv-x="400" 
d="M41 617l111 139h96l111 -139h-76l-83 88l-85 -88h-74z" />
    <glyph glyph-name="caron" unicode="&#x2c7;" horiz-adv-x="400" 
d="M152 617l-111 139h76l83 -89l85 89h74l-111 -139h-96z" />
    <glyph glyph-name="breve" unicode="&#x2d8;" horiz-adv-x="370" 
d="M185 615c-80 0 -138 44 -154 126l60 16c12 -50 43 -77 94 -77s84 27 96 77l58 -16c-16 -83 -73 -126 -154 -126z" />
    <glyph glyph-name="dotaccent" unicode="&#x2d9;" horiz-adv-x="210" 
d="M105 632c-38 0 -56 19 -56 54s18 54 56 54s56 -19 56 -54s-18 -54 -56 -54z" />
    <glyph glyph-name="ring" unicode="&#x2da;" horiz-adv-x="260" 
d="M32 686c0 58 39 97 98 97s98 -39 98 -97c0 -57 -39 -97 -98 -97s-98 40 -98 97zM82 686c0 -30 18 -48 48 -48c29 0 48 19 48 48s-19 48 -48 48s-48 -19 -48 -48z" />
    <glyph glyph-name="ogonek" unicode="&#x2db;" horiz-adv-x="240" 
d="M128 -196c-66 0 -94 28 -94 77c0 52 42 97 126 142l46 -23c-67 -35 -96 -74 -96 -105c0 -21 13 -35 39 -35c20 0 38 6 57 16v-55c-20 -10 -45 -17 -78 -17z" />
    <glyph glyph-name="tilde" unicode="&#x2dc;" horiz-adv-x="400" 
d="M98 623l-53 11c4 61 37 96 86 96c26 0 46 -8 75 -21c28 -12 43 -22 61 -22s30 10 36 42l52 -12c-6 -61 -41 -95 -85 -95c-24 0 -38 2 -77 21c-25 12 -38 22 -57 22c-17 0 -31 -9 -38 -42z" />
    <glyph glyph-name="hungarumlaut" unicode="&#x2dd;" horiz-adv-x="460" 
d="M58 617l49 139h100l-83 -139h-66zM195 617l93 139h114l-134 -139h-73z" />
    <glyph glyph-name="acutecomb" unicode="&#x301;" horiz-adv-x="0" 
d="M-323 617l82 139h116l-125 -139h-73z" />
    <glyph glyph-name="uni0394" unicode="&#x394;" horiz-adv-x="640" 
d="M20 0l250 700h100l250 -700h-600zM142 85h352l-175 507h-2z" />
    <glyph glyph-name="uni0394" unicode="&#x2206;" horiz-adv-x="640" 
d="M20 0l250 700h100l250 -700h-600zM142 85h352l-175 507h-2z" />
    <glyph glyph-name="uni03A9" unicode="&#x3a9;" horiz-adv-x="740" 
d="M62 0v81h175v60c-100 34 -187 115 -187 269c0 181 123 301 320 301s320 -120 320 -301c0 -154 -90 -234 -186 -269v-60h174v-81h-260v195c122 21 176 116 176 209c0 134 -90 224 -224 224s-224 -90 -224 -224c0 -93 55 -188 177 -209v-195h-261z" />
    <glyph glyph-name="uni03A9" unicode="&#x2126;" horiz-adv-x="740" 
d="M62 0v81h175v60c-100 34 -187 115 -187 269c0 181 123 301 320 301s320 -120 320 -301c0 -154 -90 -234 -186 -269v-60h174v-81h-260v195c122 21 176 116 176 209c0 134 -90 224 -224 224s-224 -90 -224 -224c0 -93 55 -188 177 -209v-195h-261z" />
    <glyph glyph-name="pi" unicode="&#x3c0;" horiz-adv-x="710" 
d="M583 -6c-74 0 -110 41 -110 122v330h-231v-446h-88v445c-33 0 -70 -14 -92 -32l-31 74c41 26 82 39 165 39h453v-80h-88v-310c0 -46 13 -59 44 -59c22 0 39 5 44 6v-81c-9 -3 -34 -8 -66 -8z" />
    <glyph glyph-name="afii10023" unicode="&#x401;" horiz-adv-x="575" 
d="M101 0v700h419v-83h-327v-218h287v-81h-287v-235h327v-83h-419zM208 785c-38 0 -57 20 -57 55s19 55 57 55s57 -20 57 -55s-19 -55 -57 -55zM411 785c-38 0 -57 20 -57 55s19 55 57 55s57 -20 57 -55s-19 -55 -57 -55z" />
    <glyph glyph-name="afii10051" unicode="&#x402;" horiz-adv-x="770" 
d="M244 0v617h-209v83h510v-83h-209v-212c40 19 94 36 160 36c154 0 224 -70 224 -207v-37c0 -138 -70 -208 -197 -208c-28 0 -60 4 -79 10v88c15 -9 38 -14 65 -14c73 0 116 44 116 124v36c0 79 -44 123 -151 123c-53 0 -100 -14 -138 -34v-322h-92z" />
    <glyph glyph-name="afii10052" unicode="&#x403;" horiz-adv-x="535" 
d="M101 0v700h399v-83h-307v-617h-92zM255 770l90 140h118l-133 -140h-75z" />
    <glyph glyph-name="afii10053" unicode="&#x404;" horiz-adv-x="590" 
d="M365 -11c-206 0 -315 109 -315 366c0 251 105 356 315 356c102 0 168 -29 168 -29v-97c-39 25 -94 40 -166 40c-139 0 -210 -62 -220 -227h298v-80h-298c9 -173 87 -243 220 -243c78 0 134 26 173 49v-101s-70 -34 -175 -34z" />
    <glyph glyph-name="afii10054" unicode="&#x405;" horiz-adv-x="580" 
d="M282 -11c-85 0 -161 24 -203 53v106c40 -35 111 -73 199 -73c101 0 141 40 141 110c0 178 -340 89 -340 337c0 121 68 189 229 189c73 0 137 -15 176 -35v-106c-39 33 -107 55 -172 55c-105 0 -137 -33 -137 -100c0 -171 339 -75 339 -337c0 -127 -72 -199 -232 -199z
" />
    <glyph glyph-name="afii10055" unicode="&#x406;" horiz-adv-x="330" 
d="M119 0v700h92v-700h-92z" />
    <glyph glyph-name="afii10056" unicode="&#x407;" horiz-adv-x="330" 
d="M119 0v700h92v-700h-92zM63 785c-38 0 -57 20 -57 55s19 55 57 55s57 -20 57 -55s-19 -55 -57 -55zM266 785c-38 0 -57 20 -57 55s19 55 57 55s57 -20 57 -55s-19 -55 -57 -55z" />
    <glyph glyph-name="afii10057" unicode="&#x408;" horiz-adv-x="420" 
d="M140 -11c-63 0 -105 18 -105 18v97s35 -29 96 -29s90 30 90 108v517h93v-517c0 -140 -54 -194 -174 -194z" />
    <glyph glyph-name="afii10058" unicode="&#x409;" horiz-adv-x="985" 
d="M667 -6c-75 0 -181 12 -181 12v611h-224l-3 -64c-25 -492 -73 -564 -186 -564c-13 0 -26 2 -38 5v88c9 -2 16 -4 27 -4c62 0 94 78 109 481l5 141h403v-252s59 5 113 5c173 0 243 -70 243 -223c0 -163 -73 -236 -268 -236zM839 227c0 103 -36 139 -164 139
c-50 0 -96 -4 -96 -4v-274s46 -7 96 -7c120 0 164 43 164 146z" />
    <glyph glyph-name="afii10059" unicode="&#x40a;" horiz-adv-x="1010" 
d="M692 -6c-75 0 -181 12 -181 12v311h-318v-317h-92v700h92v-299h318v299h93v-252s59 5 113 5c173 0 243 -70 243 -223c0 -163 -73 -236 -268 -236zM864 227c0 103 -36 139 -164 139c-50 0 -96 -4 -96 -4v-274s46 -7 96 -7c120 0 164 43 164 146z" />
    <glyph glyph-name="afii10060" unicode="&#x40b;" horiz-adv-x="795" 
d="M244 0v617h-209v83h510v-83h-209v-212c36 19 90 39 162 39c162 0 227 -65 227 -212v-232h-93v229c0 88 -42 131 -147 131c-64 0 -115 -19 -149 -37v-323h-92z" />
    <glyph glyph-name="afii10061" unicode="&#x40c;" horiz-adv-x="655" 
d="M514 0l-248 317h-73v-317h-92v700h92v-300h73l231 300h113l-266 -340l286 -360h-116zM310 770l90 140h118l-133 -140h-75z" />
    <glyph glyph-name="afii10062" unicode="&#x40e;" horiz-adv-x="630" 
d="M216 -11c-27 0 -52 3 -73 13v95c15 -12 35 -22 62 -22c38 0 59 24 82 83l-267 542h107l208 -437l172 437h103l-231 -562c-46 -111 -90 -149 -163 -149zM315 770c-95 0 -158 37 -162 140h76c4 -60 30 -80 86 -80s84 20 88 80h74c-5 -103 -67 -140 -162 -140z" />
    <glyph glyph-name="afii10145" unicode="&#x40f;" horiz-adv-x="690" 
d="M101 0v700h92v-617h304v617h92v-700h-202v-130h-84v130h-202z" />
    <glyph glyph-name="afii10017" unicode="&#x410;" horiz-adv-x="640" 
d="M20 0l250 700h100l250 -700h-99l-63 185h-281l-63 -185h-94zM318 596l-113 -331h225z" />
    <glyph glyph-name="afii10018" unicode="&#x411;" horiz-adv-x="630" 
d="M300 -6c-87 0 -199 12 -199 12v694h425v-83h-333v-193s54 5 118 5c195 0 259 -64 259 -213c0 -147 -75 -222 -270 -222zM474 217c0 92 -37 130 -173 130c-60 0 -108 -5 -108 -5v-254s48 -7 108 -7c129 0 173 44 173 136z" />
    <glyph glyph-name="afii10019" unicode="&#x412;" horiz-adv-x="625" 
d="M308 -6c-94 0 -207 11 -207 11v690s114 11 204 11c186 0 241 -56 241 -184c0 -84 -37 -136 -116 -158c93 -12 139 -67 139 -165c0 -135 -69 -205 -261 -205zM474 202c0 79 -39 118 -152 118h-129v-238s54 -4 122 -4c122 0 159 36 159 124zM450 513c0 79 -30 109 -142 109
c-64 0 -115 -3 -115 -3v-222h119c101 0 138 38 138 116z" />
    <glyph glyph-name="afii10020" unicode="&#x413;" horiz-adv-x="535" 
d="M101 0v700h399v-83h-307v-617h-92z" />
    <glyph glyph-name="afii10021" unicode="&#x414;" horiz-adv-x="695" 
d="M25 -130v213h66c54 112 79 306 83 512l2 106h398v-618h81v-213h-85v130h-460v-130h-85zM183 83h300v534h-222c0 -187 -24 -408 -78 -534z" />
    <glyph glyph-name="afii10022" unicode="&#x415;" horiz-adv-x="575" 
d="M101 0v700h419v-83h-327v-218h287v-81h-287v-235h327v-83h-419z" />
    <glyph glyph-name="afii10024" unicode="&#x416;" horiz-adv-x="900" 
d="M36 0l218 357l-198 343h107l170 -300h70v300h93v-300h71l174 300h103l-199 -337l219 -363h-109l-188 317h-71v-317h-93v317h-70l-190 -317h-107z" />
    <glyph glyph-name="afii10025" unicode="&#x417;" horiz-adv-x="545" 
d="M244 -11c-83 0 -148 18 -194 39v107c40 -36 109 -62 190 -62c110 0 152 42 152 129c0 78 -40 118 -152 118h-92v77h89c91 0 131 40 131 118c0 76 -36 112 -130 112c-64 0 -123 -21 -174 -55v104c47 20 107 35 182 35c159 0 219 -65 219 -181c0 -86 -43 -144 -121 -166
c95 -9 145 -72 145 -171c0 -129 -70 -204 -245 -204z" />
    <glyph glyph-name="afii10026" unicode="&#x418;" horiz-adv-x="740" 
d="M101 0v700h92v-457c0 -53 -3 -106 -3 -106h2s29 53 61 106l287 457h99v-700h-92v457c0 60 3 106 3 106h-2s-24 -46 -61 -106l-287 -457h-99z" />
    <glyph glyph-name="afii10027" unicode="&#x419;" horiz-adv-x="740" 
d="M101 0v700h92v-457c0 -53 -3 -106 -3 -106h2s29 53 61 106l287 457h99v-700h-92v457c0 60 3 106 3 106h-2s-24 -46 -61 -106l-287 -457h-99zM367 770c-95 0 -158 37 -162 140h76c4 -60 30 -80 86 -80s84 20 88 80h74c-5 -103 -67 -140 -162 -140z" />
    <glyph glyph-name="afii10028" unicode="&#x41a;" horiz-adv-x="655" 
d="M514 0l-248 317h-73v-317h-92v700h92v-300h73l231 300h113l-266 -340l286 -360h-116z" />
    <glyph glyph-name="afii10029" unicode="&#x41b;" horiz-adv-x="695" 
d="M73 -11c-13 0 -26 2 -38 5v88c9 -2 16 -4 27 -4c62 0 94 78 109 481l5 141h418v-700h-92v617h-240l-3 -64c-25 -492 -73 -564 -186 -564z" />
    <glyph glyph-name="afii10030" unicode="&#x41c;" horiz-adv-x="850" 
d="M101 0v700h115l211 -430l211 430h111v-700h-90v459c0 47 0 67 4 114h-3c-17 -47 -26 -65 -51 -114l-145 -295h-78l-145 295c-25 49 -32 67 -51 114h-3c3 -47 4 -67 4 -114v-459h-90z" />
    <glyph glyph-name="afii10031" unicode="&#x41d;" horiz-adv-x="720" 
d="M101 0v700h92v-299h334v299h92v-700h-92v317h-334v-317h-92z" />
    <glyph glyph-name="afii10032" unicode="&#x41e;" horiz-adv-x="710" 
d="M355 -11c-196 0 -305 108 -305 361s109 361 305 361c203 0 305 -102 305 -361c0 -253 -109 -361 -305 -361zM355 73c136 0 209 74 209 277c0 204 -73 277 -209 277c-134 0 -209 -75 -209 -277c0 -200 76 -277 209 -277z" />
    <glyph glyph-name="afii10033" unicode="&#x41f;" horiz-adv-x="700" 
d="M101 0v700h498v-700h-92v617h-314v-617h-92z" />
    <glyph glyph-name="afii10034" unicode="&#x420;" horiz-adv-x="620" 
d="M101 0v695s99 11 196 11c199 0 273 -74 273 -237c0 -162 -84 -246 -273 -246c-62 0 -104 5 -104 5v-228h-92zM474 469c0 108 -42 150 -177 150c-62 0 -104 -5 -104 -5v-299s42 -5 104 -5c129 0 177 47 177 159z" />
    <glyph glyph-name="afii10035" unicode="&#x421;" horiz-adv-x="575" 
d="M358 -11c-204 0 -308 103 -308 366c0 249 107 356 305 356c98 0 167 -28 167 -28v-96c-38 22 -93 38 -166 38c-137 0 -210 -73 -210 -270c0 -204 75 -280 214 -280c75 0 136 27 170 47v-97s-74 -36 -172 -36z" />
    <glyph glyph-name="afii10036" unicode="&#x422;" horiz-adv-x="580" 
d="M244 0v617h-209v83h510v-83h-209v-617h-92z" />
    <glyph glyph-name="afii10037" unicode="&#x423;" horiz-adv-x="630" 
d="M216 -11c-27 0 -52 3 -73 13v95c15 -12 35 -22 62 -22c38 0 59 24 82 83l-267 542h107l208 -437l172 437h103l-231 -562c-46 -111 -90 -149 -163 -149z" />
    <glyph glyph-name="afii10038" unicode="&#x424;" horiz-adv-x="830" 
d="M369 -20v80h-22c-207 0 -302 95 -302 295c0 203 93 295 302 295h22v70h92v-70h22c211 0 302 -91 302 -295c0 -200 -95 -295 -302 -295h-22v-80h-92zM141 355c0 -157 58 -215 207 -215h22v430h-22c-151 0 -207 -55 -207 -215zM689 355c0 160 -55 215 -207 215h-22v-430h22
c149 0 207 59 207 215z" />
    <glyph glyph-name="afii10039" unicode="&#x425;" horiz-adv-x="630" 
d="M25 0l232 359l-218 341h107l170 -266l170 266h105l-218 -339l232 -361h-109l-182 285l-183 -285h-106z" />
    <glyph glyph-name="afii10040" unicode="&#x426;" horiz-adv-x="730" 
d="M605 -130v130h-504v700h92v-617h324v617h93v-617h80v-213h-85z" />
    <glyph glyph-name="afii10041" unicode="&#x427;" horiz-adv-x="650" 
d="M457 0v290s-59 -39 -166 -39c-156 0 -221 65 -221 212v237h93v-233c0 -89 42 -132 140 -132c105 0 154 37 154 37v328h92v-700h-92z" />
    <glyph glyph-name="afii10042" unicode="&#x428;" horiz-adv-x="930" 
d="M101 0v700h92v-617h226v617h92v-617h226v617h92v-700h-728z" />
    <glyph glyph-name="afii10043" unicode="&#x429;" horiz-adv-x="950" 
d="M101 0v700h92v-617h226v617h92v-617h226v617h92v-617h81v-213h-85v130h-724z" />
    <glyph glyph-name="afii10044" unicode="&#x42a;" horiz-adv-x="690" 
d="M362 -6c-75 0 -181 12 -181 12v611h-146v83h237v-252s60 5 114 5c184 0 254 -70 254 -223c0 -163 -73 -236 -278 -236zM544 227c0 103 -36 139 -174 139c-51 0 -98 -4 -98 -4v-274s47 -7 98 -7c130 0 174 43 174 146z" />
    <glyph glyph-name="afii10045" unicode="&#x42b;" horiz-adv-x="850" 
d="M282 -6c-75 0 -181 12 -181 12v694h91v-252s60 5 114 5c181 0 251 -70 251 -223c0 -163 -73 -236 -275 -236zM461 227c0 103 -36 139 -171 139c-51 0 -98 -4 -98 -4v-274s47 -7 98 -7c127 0 171 43 171 146zM657 0v700h92v-700h-92z" />
    <glyph glyph-name="afii10046" unicode="&#x42c;" horiz-adv-x="610" 
d="M282 -6c-75 0 -181 12 -181 12v694h92v-252s59 5 113 5c184 0 254 -70 254 -223c0 -163 -73 -236 -278 -236zM464 227c0 103 -36 139 -174 139c-51 0 -97 -4 -97 -4v-274s46 -7 97 -7c130 0 174 43 174 146z" />
    <glyph glyph-name="afii10047" unicode="&#x42d;" horiz-adv-x="590" 
d="M145 318v80h298c-10 165 -82 227 -220 227c-72 0 -127 -15 -166 -40v97s66 29 168 29c210 0 315 -105 315 -356c0 -257 -109 -366 -315 -366c-105 0 -175 34 -175 34v101c39 -23 95 -49 173 -49c133 0 210 70 220 243h-298z" />
    <glyph glyph-name="afii10048" unicode="&#x42e;" horiz-adv-x="960" 
d="M615 -11c-181 0 -282 91 -292 324h-130v-313h-92v700h92v-303h131c13 222 116 314 291 314c195 0 295 -100 295 -361c0 -256 -105 -361 -295 -361zM615 74c127 0 198 71 198 276s-71 276 -198 276s-198 -71 -198 -276s71 -276 198 -276z" />
    <glyph glyph-name="afii10049" unicode="&#x42f;" horiz-adv-x="640" 
d="M51 0l168 276c-89 30 -128 100 -128 208c0 150 72 222 259 222c97 0 189 -11 189 -11v-695h-92v258h-100c-14 0 -27 0 -39 1l-153 -259h-104zM187 481c0 -94 45 -139 160 -139h101v274s-50 3 -101 3c-122 0 -160 -38 -160 -138z" />
    <glyph glyph-name="afii10065" unicode="&#x430;" horiz-adv-x="535" 
d="M215 -11c-108 0 -164 57 -164 158c0 106 53 159 210 159h110v47c0 75 -28 103 -122 103c-62 0 -120 -20 -157 -45v92c38 19 103 34 169 34c145 0 198 -53 198 -186v-351h-79l-5 90c-24 -55 -75 -101 -160 -101zM238 67c82 0 133 51 133 141v36h-104
c-96 0 -126 -30 -126 -93c0 -55 29 -84 97 -84z" />
    <glyph glyph-name="afii10066" unicode="&#x431;" horiz-adv-x="590" 
d="M302 -11c-152 0 -241 80 -241 324c0 328 77 399 254 423c72 9 143 16 181 32v-92c-24 -11 -63 -17 -158 -27c-133 -14 -198 -43 -204 -243h3c35 68 95 115 196 115c142 0 206 -71 206 -257c0 -192 -89 -275 -237 -275zM302 70c95 0 147 57 147 191s-43 179 -141 179
c-101 0 -155 -62 -155 -175c0 -138 50 -195 149 -195z" />
    <glyph glyph-name="afii10067" unicode="&#x432;" horiz-adv-x="540" 
d="M270 -6c-103 0 -189 6 -189 6v527s83 5 182 5c159 0 206 -52 206 -142c0 -56 -28 -94 -92 -112c75 -8 112 -54 112 -129c0 -99 -56 -155 -219 -155zM399 155c0 56 -28 83 -121 83h-110v-163c0 -1 48 -3 104 -3c104 0 127 22 127 83zM381 380c0 51 -23 75 -118 75
c-56 0 -95 -3 -95 -3v-147h110c76 0 103 27 103 75z" />
    <glyph glyph-name="afii10068" unicode="&#x433;" horiz-adv-x="435" 
d="M81 0v526h324v-80h-236v-446h-88z" />
    <glyph glyph-name="afii10069" unicode="&#x434;" horiz-adv-x="595" 
d="M30 -130v210h59c40 84 60 238 60 446h339v-446h72v-210h-80v130h-370v-130h-80zM175 80h225v366h-171c0 -131 -17 -275 -54 -366z" />
    <glyph glyph-name="afii10070" unicode="&#x435;" horiz-adv-x="550" 
d="M297 -11c-169 0 -246 85 -246 277c0 185 86 271 229 271c152 0 219 -77 219 -256v-41h-360c2 -118 53 -173 164 -173c66 0 127 25 163 56v-88c-33 -22 -88 -46 -169 -46zM280 462c-90 0 -138 -47 -141 -158h272c0 100 -30 158 -131 158z" />
    <glyph glyph-name="afii10072" unicode="&#x436;" horiz-adv-x="770" 
d="M36 0l175 268l-160 258h98l130 -213h64v213h85v-213h63l133 213h95l-159 -248l174 -278h-99l-144 234h-63v-234h-85v234h-62l-149 -234h-96z" />
    <glyph glyph-name="afii10073" unicode="&#x437;" horiz-adv-x="475" 
d="M215 -11c-59 0 -132 13 -175 35v99c36 -29 94 -56 170 -56c93 0 125 32 125 87c0 53 -26 79 -125 79h-73v70h73c75 0 105 30 105 78c0 53 -24 78 -108 78c-60 0 -115 -20 -157 -52v98c44 19 95 32 168 32c140 0 186 -46 186 -147c0 -54 -31 -101 -92 -116
c75 -9 112 -51 112 -128c0 -96 -61 -157 -209 -157z" />
    <glyph glyph-name="afii10074" unicode="&#x438;" horiz-adv-x="590" 
d="M81 0v526h88v-327c0 -39 -3 -79 -3 -79h2s20 40 46 80l208 326h87v-526h-88v325c0 41 3 81 3 81h-2s-20 -40 -46 -80l-208 -326h-87z" />
    <glyph glyph-name="afii10075" unicode="&#x439;" horiz-adv-x="590" 
d="M81 0v526h88v-327c0 -39 -3 -79 -3 -79h2s20 40 46 80l208 326h87v-526h-88v325c0 41 3 81 3 81h-2s-20 -40 -46 -80l-208 -326h-87zM295 617c-93 0 -150 36 -156 139h76c5 -60 30 -82 80 -82s77 22 83 82h73c-7 -103 -63 -139 -156 -139z" />
    <glyph glyph-name="afii10076" unicode="&#x43a;" horiz-adv-x="555" 
d="M81 0v526h88v-213h63l164 213h103l-196 -251l216 -275h-106l-181 234h-63v-234h-88z" />
    <glyph glyph-name="afii10077" unicode="&#x43b;" horiz-adv-x="575" 
d="M30 -6v93c8 -3 15 -4 24 -4c52 0 79 59 85 378l1 65h354v-526h-88v444h-184l-1 -33c-10 -330 -55 -422 -153 -422c-14 0 -26 1 -38 5z" />
    <glyph glyph-name="afii10078" unicode="&#x43c;" horiz-adv-x="680" 
d="M81 0v526h116l144 -306l146 306h112v-526h-84v331c0 39 4 100 4 100h-3s-29 -68 -44 -100l-101 -209h-63l-99 209c-14 33 -44 100 -44 100h-3s3 -60 3 -100v-331h-84z" />
    <glyph glyph-name="afii10079" unicode="&#x43d;" horiz-adv-x="580" 
d="M81 0v526h88v-218h242v218h88v-526h-88v228h-242v-228h-88z" />
    <glyph glyph-name="afii10080" unicode="&#x43e;" horiz-adv-x="570" 
d="M285 -11c-153 0 -234 82 -234 274c0 186 88 274 234 274c156 0 234 -78 234 -274c0 -192 -83 -274 -234 -274zM285 70c96 0 144 48 144 193s-48 193 -144 193c-92 0 -144 -52 -144 -193c0 -145 48 -193 144 -193z" />
    <glyph glyph-name="afii10081" unicode="&#x43f;" horiz-adv-x="570" 
d="M81 0v526h408v-526h-88v446h-232v-446h-88z" />
    <glyph glyph-name="afii10082" unicode="&#x440;" horiz-adv-x="590" 
d="M81 -180v706h82l6 -85c30 53 76 96 173 96c131 0 197 -72 197 -269c0 -202 -71 -279 -208 -279c-93 0 -139 47 -162 98v-267h-88zM449 268c0 142 -46 188 -136 188c-93 0 -144 -52 -144 -160v-66c0 -104 55 -160 141 -160c93 0 139 46 139 198z" />
    <glyph glyph-name="afii10083" unicode="&#x441;" horiz-adv-x="475" 
d="M300 -11c-168 0 -249 81 -249 279c0 184 85 269 242 269c71 0 120 -17 138 -25v-95c-30 21 -76 39 -131 39c-104 0 -159 -55 -159 -188c0 -141 57 -198 169 -198c49 0 102 19 130 42v-91c-19 -11 -67 -32 -140 -32z" />
    <glyph glyph-name="afii10084" unicode="&#x442;" horiz-adv-x="480" 
d="M196 0v446h-166v80h420v-80h-166v-446h-88z" />
    <glyph glyph-name="afii10085" unicode="&#x443;" horiz-adv-x="520" 
d="M161 -191c-27 0 -52 7 -59 11v86c12 -9 27 -16 50 -16c31 0 52 14 81 110l-213 526h96l159 -409l133 409h92l-180 -529c-56 -164 -92 -188 -159 -188z" />
    <glyph glyph-name="afii10086" unicode="&#x444;" horiz-adv-x="720" 
d="M316 -180v172s-21 -3 -46 -3c-148 0 -219 71 -219 274c0 198 76 274 219 274c25 0 46 -4 46 -4v217h88v-217s21 4 46 4c153 0 219 -66 219 -274c0 -198 -76 -274 -219 -274c-25 0 -46 3 -46 3v-172h-88zM141 263c0 -149 44 -193 145 -193c16 0 30 2 30 2v381s-17 2 -30 2
c-100 0 -145 -45 -145 -192zM579 263c0 148 -44 192 -145 192c-15 0 -30 -2 -30 -2v-381s14 -2 30 -2c98 0 145 48 145 193z" />
    <glyph glyph-name="afii10087" unicode="&#x445;" horiz-adv-x="540" 
d="M36 0l178 272l-165 254h100l122 -188l123 188h97l-165 -252l178 -274h-100l-135 210l-136 -210h-97z" />
    <glyph glyph-name="afii10088" unicode="&#x446;" horiz-adv-x="590" 
d="M475 -130v130h-394v526h88v-446h222v446h88v-446h76v-210h-80z" />
    <glyph glyph-name="afii10089" unicode="&#x447;" horiz-adv-x="530" 
d="M361 0v204s-55 -24 -130 -24c-123 0 -181 58 -181 163v183h88v-170c0 -67 30 -96 107 -96c74 0 116 21 116 21v245h88v-526h-88z" />
    <glyph glyph-name="afii10090" unicode="&#x448;" horiz-adv-x="780" 
d="M81 0v526h88v-446h177v446h88v-446h177v446h88v-526h-618z" />
    <glyph glyph-name="afii10091" unicode="&#x449;" horiz-adv-x="810" 
d="M695 -130v130h-614v526h88v-446h177v446h88v-446h177v446h88v-446h76v-210h-80z" />
    <glyph glyph-name="afii10092" unicode="&#x44a;" horiz-adv-x="600" 
d="M334 -6c-80 0 -173 9 -173 9v443h-131v80h219v-174s46 5 97 5c157 0 214 -56 214 -178s-63 -185 -226 -185zM469 179c0 71 -25 97 -129 97c-48 0 -91 -5 -91 -5v-191s43 -4 91 -4c102 0 129 28 129 103z" />
    <glyph glyph-name="afii10093" unicode="&#x44b;" horiz-adv-x="730" 
d="M251 -6c-80 0 -170 9 -170 9v523h88v-174s43 5 94 5c154 0 210 -56 210 -178s-62 -185 -222 -185zM383 179c0 71 -26 97 -126 97c-48 0 -88 -5 -88 -5v-191s40 -4 88 -4c98 0 126 28 126 103zM561 0v526h88v-526h-88z" />
    <glyph glyph-name="afii10094" unicode="&#x44c;" horiz-adv-x="520" 
d="M254 -6c-80 0 -173 9 -173 9v523h88v-174s46 5 97 5c157 0 214 -56 214 -178s-63 -185 -226 -185zM389 179c0 71 -25 97 -129 97c-48 0 -91 -5 -91 -5v-191s43 -4 91 -4c102 0 129 28 129 103z" />
    <glyph glyph-name="afii10095" unicode="&#x44d;" horiz-adv-x="495" 
d="M129 239v65h226c-7 116 -56 155 -162 155c-70 0 -115 -21 -148 -42v91c27 13 74 29 148 29c175 0 251 -76 251 -269c0 -194 -85 -279 -259 -279c-76 0 -118 16 -145 31v91c29 -21 84 -44 145 -44c112 0 164 45 171 172h-227z" />
    <glyph glyph-name="afii10096" unicode="&#x44e;" horiz-adv-x="770" 
d="M490 -11c-141 0 -218 68 -227 239h-94v-228h-88v526h88v-218h94c12 163 89 229 227 229c151 0 229 -78 229 -274s-78 -274 -229 -274zM490 70c92 0 138 47 138 193s-46 193 -138 193s-139 -47 -139 -193s47 -193 139 -193z" />
    <glyph glyph-name="afii10097" unicode="&#x44f;" horiz-adv-x="550" 
d="M51 0l120 191c-72 24 -100 77 -100 163c0 113 67 178 229 178c93 0 169 -9 169 -9v-523h-88v176h-97c-10 0 -20 0 -29 1l-107 -177h-97zM161 354c0 -71 29 -100 129 -100h91v193s-43 3 -91 3c-98 0 -129 -31 -129 -96z" />
    <glyph glyph-name="afii10071" unicode="&#x451;" horiz-adv-x="550" 
d="M297 -11c-169 0 -246 85 -246 277c0 185 86 271 229 271c152 0 219 -77 219 -256v-41h-360c2 -118 53 -173 164 -173c66 0 127 25 163 56v-88c-33 -22 -88 -46 -169 -46zM280 462c-90 0 -138 -47 -141 -158h272c0 100 -30 158 -131 158zM183 634c-37 0 -55 18 -55 52
c0 35 18 53 55 53s55 -18 55 -53c0 -34 -18 -52 -55 -52zM373 634c-37 0 -55 18 -55 52c0 35 18 53 55 53s55 -18 55 -53c0 -34 -18 -52 -55 -52z" />
    <glyph glyph-name="afii10099" unicode="&#x452;" horiz-adv-x="605" 
d="M7 458v68h94v227h88v-227h193v-68h-193v-187c29 63 79 100 163 100c118 0 177 -57 177 -198v-54c0 -150 -71 -248 -193 -310l-40 54c111 67 145 129 145 252v27c0 113 -34 148 -119 148c-83 0 -133 -50 -133 -148v-142h-88v458h-94z" />
    <glyph glyph-name="afii10100" unicode="&#x453;" horiz-adv-x="435" 
d="M81 0v526h324v-80h-236v-446h-88zM199 617l82 139h116l-125 -139h-73z" />
    <glyph glyph-name="afii10101" unicode="&#x454;" horiz-adv-x="495" 
d="M310 -11c-174 0 -259 85 -259 279c0 193 76 269 251 269c74 0 121 -16 148 -29v-91c-33 21 -78 42 -148 42c-107 0 -155 -39 -163 -155h227v-65h-227c6 -127 59 -172 171 -172c61 0 116 23 145 44v-91c-27 -15 -69 -31 -145 -31z" />
    <glyph glyph-name="afii10102" unicode="&#x455;" horiz-adv-x="475" 
d="M227 -11c-59 0 -111 11 -156 31v98c38 -33 93 -51 154 -51c71 0 99 28 99 78c0 128 -258 43 -258 238c0 101 53 154 186 154c53 0 107 -12 137 -24v-95c-38 26 -83 41 -136 41c-72 0 -97 -25 -97 -69c0 -121 258 -35 258 -239c0 -108 -55 -162 -187 -162z" />
    <glyph glyph-name="afii10103" unicode="&#x456;" horiz-adv-x="290" 
d="M101 0v526h88v-526h-88zM145 632c-38 0 -56 19 -56 54s18 54 56 54s56 -19 56 -54s-18 -54 -56 -54z" />
    <glyph glyph-name="afii10104" unicode="&#x457;" horiz-adv-x="290" 
d="M101 0v526h88v-526h-88zM53 634c-37 0 -55 18 -55 52c0 35 18 53 55 53s55 -18 55 -53c0 -34 -18 -52 -55 -52zM243 634c-37 0 -55 18 -55 52c0 35 18 53 55 53s55 -18 55 -53c0 -34 -18 -52 -55 -52z" />
    <glyph glyph-name="afii10105" unicode="&#x458;" horiz-adv-x="290" 
d="M53 -186c-35 0 -65 7 -74 12v88c15 -10 36 -18 61 -18c42 0 61 19 61 80v550h88v-553c0 -113 -46 -159 -136 -159zM145 632c-38 0 -56 19 -56 54s18 54 56 54s56 -19 56 -54s-18 -54 -56 -54z" />
    <glyph glyph-name="afii10106" unicode="&#x459;" horiz-adv-x="820" 
d="M564 -6c-76 0 -169 9 -169 9v441h-173l-1 -33c-10 -330 -55 -422 -153 -422c-14 0 -26 1 -38 5v93c8 -3 15 -4 24 -4c52 0 79 59 85 378l1 65h342v-174s47 5 95 5c146 0 203 -56 203 -178s-63 -185 -216 -185zM689 179c0 71 -25 97 -119 97c-44 0 -88 -5 -88 -5v-191
s44 -4 88 -4c92 0 119 28 119 103z" />
    <glyph glyph-name="afii10107" unicode="&#x45a;" horiz-adv-x="830" 
d="M574 -6c-76 0 -169 9 -169 9v225h-236v-228h-88v526h88v-218h236v218h87v-174s47 5 95 5c146 0 203 -56 203 -178s-63 -185 -216 -185zM699 179c0 71 -25 97 -119 97c-44 0 -88 -5 -88 -5v-191s44 -4 88 -4c92 0 119 28 119 103z" />
    <glyph glyph-name="afii10108" unicode="&#x45b;" horiz-adv-x="605" 
d="M7 458v68h94v227h88v-227h193v-68h-193v-187c29 63 79 100 163 100c118 0 177 -57 177 -198v-173h-88v142c0 113 -34 148 -119 148c-83 0 -133 -50 -133 -148v-142h-88v458h-94z" />
    <glyph glyph-name="afii10109" unicode="&#x45c;" horiz-adv-x="555" 
d="M81 0v526h88v-213h63l164 213h103l-196 -251l216 -275h-106l-181 234h-63v-234h-88zM246 617l82 139h116l-125 -139h-73z" />
    <glyph glyph-name="afii10110" unicode="&#x45e;" horiz-adv-x="520" 
d="M161 -191c-27 0 -52 7 -59 11v86c12 -9 27 -16 50 -16c31 0 52 14 81 110l-213 526h96l159 -409l133 409h92l-180 -529c-56 -164 -92 -188 -159 -188zM260 617c-93 0 -150 36 -156 139h76c5 -60 30 -82 80 -82s77 22 83 82h73c-7 -103 -63 -139 -156 -139z" />
    <glyph glyph-name="afii10193" unicode="&#x45f;" horiz-adv-x="560" 
d="M81 0v526h88v-446h222v446h88v-526h-159v-130h-80v130h-159z" />
    <glyph glyph-name="afii10050" unicode="&#x490;" horiz-adv-x="535" 
d="M101 0v700h314v110h85v-193h-307v-617h-92z" />
    <glyph glyph-name="afii10098" unicode="&#x491;" horiz-adv-x="435" 
d="M81 0v526h244v110h80v-190h-236v-446h-88z" />
    <glyph glyph-name="uni0492" unicode="&#x492;" horiz-adv-x="545" 
d="M17 314v72h94v314h399v-83h-307v-231h206v-72h-206v-314h-92v314h-94z" />
    <glyph glyph-name="uni0493" unicode="&#x493;" horiz-adv-x="465" 
d="M17 229v68h94v229h324v-80h-236v-149h160v-68h-160v-229h-88v229h-94z" />
    <glyph glyph-name="uni049A" unicode="&#x49a;" horiz-adv-x="655" 
d="M514 0l-248 317h-73v-317h-92v700h92v-300h73l231 300h113l-266 -340l220 -277h79v-213h-85v130h-44z" />
    <glyph glyph-name="uni049B" unicode="&#x49b;" horiz-adv-x="555" 
d="M456 -130v130h-43l-181 234h-63v-234h-88v526h88v-213h63l164 213h103l-196 -251l153 -195h80v-210h-80z" />
    <glyph glyph-name="uni04A2" unicode="&#x4a2;" horiz-adv-x="745" 
d="M620 -130v130h-88v317h-339v-317h-92v700h92v-299h339v299h93v-617h80v-213h-85z" />
    <glyph glyph-name="uni04A3" unicode="&#x4a3;" horiz-adv-x="610" 
d="M495 -130v130h-84v228h-242v-228h-88v526h88v-218h242v218h88v-446h76v-210h-80z" />
    <glyph glyph-name="uni04AE" unicode="&#x4ae;" horiz-adv-x="610" 
d="M264 0v271l-244 429h106l185 -332l178 332h101l-234 -429v-271h-92z" />
    <glyph glyph-name="uni04AF" unicode="&#x4af;" horiz-adv-x="520" 
d="M216 -180v180l-196 526h96l146 -415l146 415h92l-196 -526v-180h-88z" />
    <glyph glyph-name="uni04B0" unicode="&#x4b0;" horiz-adv-x="610" 
d="M105 232v72h140l-225 396h106l185 -332l178 332h101l-216 -396h141v-72h-159v-232h-92v232h-159z" />
    <glyph glyph-name="uni04B1" unicode="&#x4b1;" horiz-adv-x="520" 
d="M89 -47v68h119l-188 505h96l146 -415l146 415h92l-188 -505h119v-68h-127v-133h-88v133h-127z" />
    <glyph glyph-name="uni04BA" unicode="&#x4ba;" horiz-adv-x="650" 
d="M193 700v-290s59 39 166 39c156 0 221 -65 221 -212v-237h-93v233c0 89 -42 132 -140 132c-105 0 -154 -37 -154 -37v-328h-92v700h92z" />
    <glyph glyph-name="uni04BB" unicode="&#x4bb;" horiz-adv-x="585" 
d="M81 0v753h88v-316c29 64 79 100 163 100c118 0 177 -57 177 -198v-339h-88v308c0 113 -34 148 -119 148c-83 0 -133 -50 -133 -148v-308h-88z" />
    <glyph glyph-name="uni04C0" unicode="&#x4c0;" horiz-adv-x="330" 
d="M119 0v700h92v-700h-92z" />
    <glyph glyph-name="uni04CF" unicode="&#x4cf;" horiz-adv-x="290" 
d="M101 0v753h88v-753h-88z" />
    <glyph glyph-name="uni04D8" unicode="&#x4d8;" horiz-adv-x="690" 
d="M342 -11c-184 0 -292 107 -292 345v46h490c-2 121 -37 248 -235 248c-69 0 -136 -11 -186 -32v87c58 17 122 28 198 28c244 0 323 -143 323 -357c0 -191 -76 -365 -298 -365zM342 72c108 0 192 66 198 232h-394c0 -157 60 -232 196 -232z" />
    <glyph glyph-name="afii10846" unicode="&#x4d9;" horiz-adv-x="550" 
d="M270 -11c-152 0 -219 77 -219 256v41h360c-2 119 -53 173 -164 173c-66 0 -127 -25 -163 -56v88c26 21 88 46 169 46c169 0 246 -85 246 -277c0 -185 -86 -271 -229 -271zM270 64c90 0 138 48 141 155h-272c0 -97 30 -155 131 -155z" />
    <glyph glyph-name="uni04E8" unicode="&#x4e8;" horiz-adv-x="710" 
d="M355 -11c-196 0 -305 108 -305 361s109 361 305 361c203 0 305 -102 305 -361c0 -253 -109 -361 -305 -361zM355 627c-125 0 -199 -66 -208 -238h416c-9 174 -81 238 -208 238zM355 73c127 0 199 64 208 238h-416c9 -171 84 -238 208 -238z" />
    <glyph glyph-name="uni04E9" unicode="&#x4e9;" horiz-adv-x="570" 
d="M285 -11c-153 0 -234 82 -234 274c0 186 88 274 234 274c156 0 234 -78 234 -274c0 -192 -83 -274 -234 -274zM285 70c89 0 136 41 143 162h-286c6 -121 54 -162 143 -162zM285 456c-83 0 -134 -43 -143 -155h285c-8 115 -55 155 -142 155z" />
    <glyph glyph-name="uni1E9E" unicode="&#x1e9e;" horiz-adv-x="675" 
d="M91 0v471c0 153 87 240 243 240c88 0 176 -33 239 -115l-151 -185v-1c158 -17 197 -122 197 -202c0 -133 -86 -219 -240 -219c-43 0 -71 6 -96 12v84c25 -7 51 -13 84 -13c108 0 157 49 157 136c0 83 -52 135 -171 135h-29v52l144 183c-32 33 -76 50 -133 50
c-99 0 -152 -56 -152 -163v-465h-92z" />
    <glyph glyph-name="figuredash" unicode="&#x2012;" horiz-adv-x="650" 
d="M85 317v77h480v-77h-480z" />
    <glyph glyph-name="endash" unicode="&#x2013;" horiz-adv-x="650" 
d="M85 237v77h480v-77h-480z" />
    <glyph glyph-name="emdash" unicode="&#x2014;" horiz-adv-x="830" 
d="M85 237v77h660v-77h-660z" />
    <glyph glyph-name="quoteleft" unicode="&#x2018;" horiz-adv-x="320" 
d="M211 712l35 -54c-58 -20 -92 -64 -96 -104c43 0 66 -23 66 -64c0 -42 -23 -64 -64 -64c-49 0 -70 30 -70 89c0 93 57 168 129 197z" />
    <glyph glyph-name="quoteright" unicode="&#x2019;" horiz-adv-x="320" 
d="M109 419l-35 54c58 20 92 64 96 104c-43 0 -66 23 -66 64c0 42 23 64 64 64c49 0 70 -30 70 -89c0 -93 -57 -168 -129 -197z" />
    <glyph glyph-name="quotesinglbase" unicode="&#x201a;" horiz-adv-x="330" 
d="M106 -164l-35 54c58 20 92 64 96 104c-43 0 -66 23 -66 64c0 42 23 64 64 64c49 0 70 -30 70 -89c0 -93 -57 -168 -129 -197z" />
    <glyph glyph-name="quotedblleft" unicode="&#x201c;" horiz-adv-x="560" 
d="M217 712l35 -54c-58 -20 -92 -64 -96 -104c43 0 66 -23 66 -64c0 -42 -23 -64 -64 -64c-49 0 -70 30 -70 89c0 93 57 168 129 197zM444 712l35 -54c-58 -20 -92 -64 -96 -104c43 0 66 -23 66 -64c0 -42 -23 -64 -64 -64c-49 0 -70 30 -70 89c0 93 57 168 129 197z" />
    <glyph glyph-name="quotedblright" unicode="&#x201d;" horiz-adv-x="560" 
d="M116 420l-35 54c58 20 92 64 96 104c-43 0 -66 23 -66 64c0 42 23 64 64 64c49 0 70 -30 70 -89c0 -93 -57 -168 -129 -197zM343 419l-35 54c58 20 92 64 96 104c-43 0 -66 23 -66 64c0 42 23 64 64 64c49 0 70 -30 70 -89c0 -93 -57 -168 -129 -197z" />
    <glyph glyph-name="quotedblbase" unicode="&#x201e;" horiz-adv-x="570" 
d="M113 -164l-35 54c58 20 92 64 96 104c-43 0 -66 23 -66 64c0 42 23 64 64 64c49 0 70 -30 70 -89c0 -93 -57 -168 -129 -197zM339 -164l-35 54c58 20 92 64 96 104c-43 0 -66 23 -66 64c0 42 23 64 64 64c49 0 70 -30 70 -89c0 -93 -57 -168 -129 -197z" />
    <glyph glyph-name="dagger" unicode="&#x2020;" horiz-adv-x="500" 
d="M206 0v446h-171v80h171v174h88v-174h171v-80h-171v-446h-88z" />
    <glyph glyph-name="daggerdbl" unicode="&#x2021;" horiz-adv-x="500" 
d="M206 0v174h-171v80h171v192h-171v80h171v174h88v-174h171v-80h-171v-192h171v-80h-171v-174h-88z" />
    <glyph glyph-name="bullet" unicode="&#x2022;" horiz-adv-x="400" 
d="M200 243c-65 0 -107 42 -107 107s42 107 107 107s107 -42 107 -107s-42 -107 -107 -107z" />
    <glyph glyph-name="ellipsis" unicode="&#x2026;" horiz-adv-x="990" 
d="M165 -6c-41 0 -64 23 -64 64c0 42 23 64 64 64s64 -22 64 -64c0 -41 -23 -64 -64 -64zM495 -6c-41 0 -64 23 -64 64c0 42 23 64 64 64s64 -22 64 -64c0 -41 -23 -64 -64 -64zM825 -6c-41 0 -64 23 -64 64c0 42 23 64 64 64s64 -22 64 -64c0 -41 -23 -64 -64 -64z" />
    <glyph glyph-name="perthousand" unicode="&#x2030;" horiz-adv-x="1260" 
d="M160 0l465 700h75l-465 -700h-75zM233 374c-103 0 -163 60 -163 166c0 105 61 166 163 166c104 0 164 -60 164 -166c0 -105 -61 -166 -164 -166zM233 438c61 0 94 32 94 102s-33 102 -94 102s-93 -32 -93 -102s32 -102 93 -102zM627 -6c-104 0 -164 60 -164 166
c0 105 61 166 164 166s163 -60 163 -166c0 -105 -61 -166 -163 -166zM627 58c60 0 93 32 93 102s-33 102 -93 102c-62 0 -94 -32 -94 -102s32 -102 94 -102zM1027 -6c-104 0 -164 60 -164 166c0 105 61 166 164 166s163 -60 163 -166c0 -105 -61 -166 -163 -166zM1027 58
c60 0 93 32 93 102s-33 102 -93 102c-62 0 -94 -32 -94 -102s32 -102 94 -102z" />
    <glyph glyph-name="guilsinglleft" unicode="&#x2039;" horiz-adv-x="340" 
d="M51 275l132 209h86l-131 -207l131 -209h-89z" />
    <glyph glyph-name="guilsinglright" unicode="&#x203a;" horiz-adv-x="340" 
d="M71 68l131 207l-131 209h89l129 -207l-132 -209h-86z" />
    <glyph glyph-name="fraction" unicode="&#x2044;" horiz-adv-x="180" 
d="M-180 0l465 700h75l-465 -700h-75z" />
    <glyph glyph-name="uni2070" unicode="&#x2070;" 
d="M35 590c0 156 72 216 189 216c129 0 191 -61 191 -216c0 -158 -71 -216 -190 -216c-122 0 -190 63 -190 216zM113 590c0 -113 41 -154 115 -154c70 0 108 41 108 154c0 114 -37 154 -112 154c-70 0 -111 -41 -111 -154z" />
    <glyph glyph-name="uni2074" unicode="&#x2074;" 
d="M25 474v59l249 267h89v-264h57v-62h-57v-94h-72v94h-266zM291 536v197h-1l-185 -197h186z" />
    <glyph glyph-name="uni2075" unicode="&#x2075;" 
d="M74 587l12 213h293v-63h-237l-5 -92c28 2 57 4 100 4c107 0 161 -46 161 -129c0 -86 -58 -146 -181 -146c-45 0 -100 5 -145 18v65c53 -17 89 -19 140 -19c69 0 108 27 108 79c0 49 -31 75 -112 75c-51 0 -90 -2 -134 -5z" />
    <glyph glyph-name="uni2076" unicode="&#x2076;" 
d="M229 374c-137 0 -185 83 -185 202c0 128 52 230 208 230c36 0 75 -4 114 -13v-64c-38 12 -78 14 -113 14c-76 0 -137 -39 -141 -141c33 27 81 50 138 50c91 0 156 -36 156 -131c0 -94 -71 -147 -177 -147zM115 549c1 -68 39 -117 114 -117c56 0 101 27 101 88
c0 54 -42 75 -95 75c-45 0 -89 -18 -120 -46z" />
    <glyph glyph-name="uni2077" unicode="&#x2077;" 
d="M123 380l191 357h-269v63h353v-50l-194 -370h-81z" />
    <glyph glyph-name="uni2078" unicode="&#x2078;" 
d="M225 374c-120 0 -186 40 -186 121c0 55 37 94 100 104c-55 12 -88 48 -88 95c0 71 58 112 174 112s174 -41 174 -112c0 -47 -33 -83 -88 -95c63 -10 100 -49 100 -104c0 -81 -66 -121 -186 -121zM225 434c87 0 112 33 112 70c0 39 -30 67 -112 67s-112 -28 -112 -67
c0 -37 25 -70 112 -70zM225 746c-78 0 -103 -25 -103 -61c0 -38 34 -61 103 -61s103 23 103 61c0 36 -25 61 -103 61z" />
    <glyph glyph-name="uni2079" unicode="&#x2079;" 
d="M216 806c141 0 190 -79 190 -196c0 -130 -52 -236 -195 -236c-56 0 -92 6 -138 16v65c45 -13 82 -18 132 -18c71 0 130 43 133 147c-31 -32 -82 -57 -140 -57c-83 0 -154 39 -154 135c0 91 69 144 172 144zM336 638c-3 60 -40 109 -121 109c-51 0 -96 -25 -96 -82
c0 -59 42 -82 94 -82c51 0 94 26 123 55z" />
    <glyph glyph-name="uni2080" unicode="&#x2080;" 
d="M35 110c0 156 72 216 189 216c129 0 191 -61 191 -216c0 -158 -71 -216 -190 -216c-122 0 -190 63 -190 216zM113 110c0 -113 41 -154 115 -154c70 0 108 41 108 154c0 114 -37 154 -112 154c-70 0 -111 -41 -111 -154z" />
    <glyph glyph-name="uni2081" unicode="&#x2081;" 
d="M230 -100v337l-121 -64l-30 58l167 89h61v-420h-77z" />
    <glyph glyph-name="uni2082" unicode="&#x2082;" 
d="M52 -100v68l123 84c85 59 123 94 123 140s-35 69 -98 69c-46 0 -95 -9 -129 -27v68c45 17 89 24 140 24c104 0 166 -40 166 -120c0 -70 -48 -121 -162 -193l-70 -47v-1h237v-65h-330z" />
    <glyph glyph-name="uni2083" unicode="&#x2083;" 
d="M134 89v55h74c64 0 99 18 99 59c0 43 -33 59 -104 59c-47 0 -98 -6 -131 -20v64c42 16 102 20 153 20c112 0 159 -45 159 -108c0 -56 -40 -82 -104 -98v-2c90 -12 115 -55 115 -98c0 -87 -83 -126 -185 -126c-44 0 -99 3 -145 20v66c41 -17 89 -22 136 -22
c84 0 115 28 115 65c0 48 -34 66 -102 66h-80z" />
    <glyph glyph-name="uni2084" unicode="&#x2084;" 
d="M27 -6v59l249 267h89v-264h57v-62h-57v-94h-72v94h-266zM293 56v197h-1l-185 -197h186z" />
    <glyph glyph-name="uni2085" unicode="&#x2085;" 
d="M73 107l12 213h293v-63h-237l-5 -92c28 2 57 4 100 4c107 0 161 -46 161 -129c0 -86 -58 -146 -181 -146c-45 0 -100 5 -145 18v65c53 -17 89 -19 140 -19c69 0 108 27 108 79c0 49 -31 75 -112 75c-51 0 -90 -2 -134 -5z" />
    <glyph glyph-name="uni2086" unicode="&#x2086;" 
d="M231 -106c-137 0 -185 83 -185 202c0 128 52 230 208 230c36 0 75 -4 114 -13v-64c-38 12 -78 14 -113 14c-76 0 -137 -39 -141 -141c33 27 81 50 138 50c91 0 156 -36 156 -131c0 -94 -71 -147 -177 -147zM117 69c1 -68 39 -117 114 -117c56 0 101 27 101 88
c0 54 -42 75 -95 75c-45 0 -89 -18 -120 -46z" />
    <glyph glyph-name="uni2087" unicode="&#x2087;" 
d="M127 -100l191 357h-269v63h353v-50l-194 -370h-81z" />
    <glyph glyph-name="uni2088" unicode="&#x2088;" 
d="M225 -106c-120 0 -186 40 -186 121c0 55 37 94 100 104c-55 12 -88 48 -88 95c0 71 58 112 174 112s174 -41 174 -112c0 -47 -33 -83 -88 -95c63 -10 100 -49 100 -104c0 -81 -66 -121 -186 -121zM225 -46c87 0 112 33 112 70c0 39 -30 67 -112 67s-112 -28 -112 -67
c0 -37 25 -70 112 -70zM225 266c-78 0 -103 -25 -103 -61c0 -38 34 -61 103 -61s103 23 103 61c0 36 -25 61 -103 61z" />
    <glyph glyph-name="uni2089" unicode="&#x2089;" 
d="M217 326c141 0 190 -79 190 -196c0 -130 -52 -236 -195 -236c-56 0 -92 6 -138 16v65c45 -13 82 -18 132 -18c71 0 130 43 133 147c-31 -32 -82 -57 -140 -57c-83 0 -154 39 -154 135c0 91 69 144 172 144zM337 158c-3 60 -40 109 -121 109c-51 0 -96 -25 -96 -82
c0 -59 42 -82 94 -82c51 0 94 26 123 55z" />
    <glyph glyph-name="Euro" unicode="&#x20ac;" horiz-adv-x="600" 
d="M35 394l18 72h68c29 171 129 245 287 245c102 0 149 -27 149 -27l-23 -89c-34 19 -70 30 -124 30c-103 0 -169 -43 -192 -159h284l-19 -72h-273c-1 -13 -1 -26 -1 -39c0 -18 0 -34 1 -49h251l-18 -72h-223c25 -116 91 -159 193 -159c73 0 116 20 147 43v-96
s-50 -33 -148 -33c-165 0 -262 69 -290 245h-87l18 72h61c-1 16 -1 32 -1 49c0 13 0 26 1 39h-79z" />
    <glyph glyph-name="uni20B4" unicode="&#x20b4;" horiz-adv-x="600" 
d="M84 387v71h273c39 36 57 60 57 99c0 60 -54 74 -101 74c-62 0 -96 -6 -156 -26v82c60 17 130 24 167 24c160 0 190 -78 190 -140c0 -42 -18 -78 -47 -113h65v-71h-135c-15 -14 -31 -27 -47 -41l-30 -26h212v-71h-285c-21 -27 -35 -54 -35 -86c0 -54 41 -94 140 -94
c39 0 99 5 148 27v-82c-60 -19 -123 -25 -168 -25c-170 0 -220 89 -220 162c0 38 11 69 29 98h-57v71h119c21 20 46 41 71 64l3 3h-193z" />
    <glyph glyph-name="uni20B8" unicode="&#x20b8;" horiz-adv-x="600" 
d="M254 0v491h-209v71h510v-71h-209v-491h-92zM45 629v71h510v-71h-510z" />
    <glyph glyph-name="uni20BD" unicode="&#x20bd;" horiz-adv-x="600" 
d="M133 0v127h-91v71h91v64h-91v71h91v365c13 1 113 8 194 8c159 0 228 -70 228 -229c0 -140 -76 -216 -238 -216c-38 0 -92 1 -92 1v-64h196v-71h-196v-127h-92zM462 477c0 104 -40 145 -137 145c-47 0 -100 -3 -100 -3v-286h90c100 0 147 47 147 144z" />
    <glyph glyph-name="afii61352" unicode="&#x2116;" horiz-adv-x="1080" 
d="M742 240v60h287v-60h-287zM101 0v700h103l286 -454c33 -53 58 -106 58 -106h2s-3 53 -3 106v454h92v-700h-103l-286 454c-37 60 -58 106 -58 106h-2s3 -46 3 -106v-454h-92zM885 374c-109 0 -155 60 -155 166c0 105 47 166 155 166s154 -60 154 -166
c0 -105 -47 -166 -154 -166zM885 432c55 0 86 29 86 108s-31 108 -86 108c-56 0 -87 -29 -87 -108s31 -108 87 -108z" />
    <glyph glyph-name="uni2120" unicode="&#x2120;" horiz-adv-x="780" 
d="M384 380v320h73l100 -178h1l98 178h73v-320h-65v225l-88 -152h-39l-87 152h-1v-225h-65zM166 374c-37 0 -82 6 -113 20v69c24 -19 68 -31 113 -31c59 0 76 10 76 42c0 68 -191 16 -191 141c0 55 30 91 143 91c38 0 77 -8 98 -16v-64c-24 15 -62 24 -98 24
c-60 0 -72 -10 -72 -33c0 -68 191 -16 191 -140c0 -69 -40 -103 -147 -103z" />
    <glyph glyph-name="trademark" unicode="&#x2122;" horiz-adv-x="780" 
d="M384 380v320h73l100 -178h1l98 178h73v-320h-65v225l-88 -152h-39l-87 152h-1v-225h-65zM158 380v262h-107v58h283v-58h-108v-262h-68z" />
    <glyph glyph-name="onethird" unicode="&#x2153;" horiz-adv-x="950" 
d="M156 0l465 700h75l-465 -700h-75zM195 280v337l-121 -64l-30 58l167 89h61v-420h-77zM633 188v55h74c64 0 99 18 99 59c0 43 -33 59 -104 59c-47 0 -98 -6 -131 -20v64c42 16 102 20 153 20c112 0 159 -45 159 -108c0 -56 -40 -82 -104 -98v-2c90 -12 115 -55 115 -98
c0 -87 -83 -126 -185 -126c-44 0 -99 3 -145 20v66c41 -17 89 -22 136 -22c84 0 115 28 115 65c0 48 -34 66 -102 66h-80z" />
    <glyph glyph-name="twothirds" unicode="&#x2154;" horiz-adv-x="950" 
d="M217 0l465 700h75l-465 -700h-75zM30 280v68l123 84c85 59 123 94 123 140s-35 69 -98 69c-46 0 -95 -9 -129 -27v68c45 17 89 24 140 24c104 0 166 -40 166 -120c0 -70 -48 -121 -162 -193l-70 -47v-1h237v-65h-330zM653 188v55h74c64 0 99 18 99 59
c0 43 -33 59 -104 59c-47 0 -98 -6 -131 -20v64c42 16 102 20 153 20c112 0 159 -45 159 -108c0 -56 -40 -82 -104 -98v-2c90 -12 115 -55 115 -98c0 -87 -83 -126 -185 -126c-44 0 -99 3 -145 20v66c41 -17 89 -22 136 -22c84 0 115 28 115 65c0 48 -34 66 -102 66h-80z
" />
    <glyph glyph-name="oneeighth" unicode="&#x215b;" horiz-adv-x="950" 
d="M170 0l465 700h75l-465 -700h-75zM193 280v337l-121 -64l-30 58l167 89h61v-420h-77zM727 -7c-120 0 -186 40 -186 121c0 55 37 94 100 104c-55 12 -88 48 -88 95c0 71 58 112 174 112s174 -41 174 -112c0 -47 -33 -83 -88 -95c63 -10 100 -49 100 -104
c0 -81 -66 -121 -186 -121zM727 53c87 0 112 33 112 70c0 39 -30 67 -112 67s-112 -28 -112 -67c0 -37 25 -70 112 -70zM727 365c-78 0 -103 -25 -103 -61c0 -38 34 -61 103 -61s103 23 103 61c0 36 -25 61 -103 61z" />
    <glyph glyph-name="threeeighths" unicode="&#x215c;" horiz-adv-x="950" 
d="M190 0l465 700h75l-465 -700h-75zM734 -7c-120 0 -186 40 -186 121c0 55 37 94 100 104c-55 12 -88 48 -88 95c0 71 58 112 174 112s174 -41 174 -112c0 -47 -33 -83 -88 -95c63 -10 100 -49 100 -104c0 -81 -66 -121 -186 -121zM734 53c87 0 112 33 112 70
c0 39 -30 67 -112 67s-112 -28 -112 -67c0 -37 25 -70 112 -70zM734 365c-78 0 -103 -25 -103 -61c0 -38 34 -61 103 -61s103 23 103 61c0 36 -25 61 -103 61zM102 469v55h74c64 0 99 18 99 59c0 43 -33 59 -104 59c-47 0 -98 -6 -131 -20v64c42 16 102 20 153 20
c112 0 159 -45 159 -108c0 -56 -40 -82 -104 -98v-2c90 -12 115 -55 115 -98c0 -87 -83 -126 -185 -126c-44 0 -99 3 -145 20v66c41 -17 89 -22 136 -22c84 0 115 28 115 65c0 48 -34 66 -102 66h-80z" />
    <glyph glyph-name="fiveeighths" unicode="&#x215d;" horiz-adv-x="950" 
d="M197 0l465 700h75l-465 -700h-75zM56 487l12 213h293v-63h-237l-5 -92c28 2 57 4 100 4c107 0 161 -46 161 -129c0 -86 -58 -146 -181 -146c-45 0 -100 5 -145 18v65c53 -17 89 -19 140 -19c69 0 108 27 108 79c0 49 -31 75 -112 75c-51 0 -90 -2 -134 -5zM737 -7
c-120 0 -186 40 -186 121c0 55 37 94 100 104c-55 12 -88 48 -88 95c0 71 58 112 174 112s174 -41 174 -112c0 -47 -33 -83 -88 -95c63 -10 100 -49 100 -104c0 -81 -66 -121 -186 -121zM737 53c87 0 112 33 112 70c0 39 -30 67 -112 67s-112 -28 -112 -67
c0 -37 25 -70 112 -70zM737 365c-78 0 -103 -25 -103 -61c0 -38 34 -61 103 -61s103 23 103 61c0 36 -25 61 -103 61z" />
    <glyph glyph-name="seveneighths" unicode="&#x215e;" horiz-adv-x="950" 
d="M160 0l465 700h75l-465 -700h-75zM728 -7c-120 0 -186 40 -186 121c0 55 37 94 100 104c-55 12 -88 48 -88 95c0 71 58 112 174 112s174 -41 174 -112c0 -47 -33 -83 -88 -95c63 -10 100 -49 100 -104c0 -81 -66 -121 -186 -121zM728 53c87 0 112 33 112 70
c0 39 -30 67 -112 67s-112 -28 -112 -67c0 -37 25 -70 112 -70zM728 365c-78 0 -103 -25 -103 -61c0 -38 34 -61 103 -61s103 23 103 61c0 36 -25 61 -103 61zM129 280l191 357h-269v63h353v-50l-194 -370h-81z" />
    <glyph glyph-name="minus" unicode="&#x2212;" horiz-adv-x="600" 
d="M95 318v81h410v-81h-410z" />
    <glyph glyph-name="infinity" unicode="&#x221e;" horiz-adv-x="720" 
d="M414 249l-54 54l-54 -55c-37 -38 -78 -49 -115 -49c-100 0 -140 81 -140 150c0 68 40 152 140 152c34 0 77 -10 115 -49l54 -55l56 58c34 35 75 46 114 46c95 0 139 -75 139 -152c0 -66 -40 -150 -139 -150c-37 0 -78 11 -116 50zM401 349l49 -49c22 -21 45 -33 74 -33
c53 0 78 39 78 82c0 49 -30 84 -77 84c-29 0 -56 -10 -82 -38zM320 349l-52 52c-21 21 -42 32 -72 32c-55 0 -76 -44 -76 -84c0 -48 29 -81 74 -81c29 0 55 11 82 37z" />
    <glyph glyph-name="approxequal" unicode="&#x2248;" horiz-adv-x="600" 
d="M95 199v87c25 29 57 49 103 49c89 0 137 -76 204 -76c45 0 79 30 103 56v-87c-25 -29 -57 -49 -103 -49c-89 0 -137 76 -204 76c-45 0 -79 -30 -103 -56zM95 405v87c25 29 57 49 103 49c89 0 137 -76 204 -76c45 0 79 30 103 56v-87c-25 -29 -57 -49 -103 -49
c-89 0 -137 76 -204 76c-45 0 -79 -30 -103 -56z" />
    <glyph glyph-name="notequal" unicode="&#x2260;" horiz-adv-x="600" 
d="M95 420v80h242l53 101h72l-53 -101h96v-80h-137l-66 -126h203v-80h-244l-51 -98h-72l51 98h-94v80h135l66 126h-201z" />
    <glyph glyph-name="lessequal" unicode="&#x2264;" horiz-adv-x="600" 
d="M505 187l-410 189v78l410 191v-89l-303 -139l303 -136v-94zM95 58v81h410v-81h-410z" />
    <glyph glyph-name="greaterequal" unicode="&#x2265;" horiz-adv-x="600" 
d="M95 187v90l303 138l-303 136v94l410 -188v-78zM95 58v81h410v-81h-410z" />
    <glyph glyph-name="lozenge" unicode="&#x25ca;" horiz-adv-x="600" 
d="M300 -11l-253 361l253 361l253 -361zM300 123l159 227l-159 226l-159 -226z" />
    <glyph glyph-name="uniF406" unicode="&#xf406;" horiz-adv-x="380" 
d="M190 769c-84 0 -141 43 -159 125l62 17c14 -50 42 -75 97 -75s85 25 98 75l61 -17c-18 -82 -74 -125 -159 -125z" />
    <glyph glyph-name="uniF407" unicode="&#xf407;" horiz-adv-x="260" 
d="M111 -217c-32 0 -60 6 -80 15l8 51c20 -8 40 -12 63 -12c40 0 54 14 54 38c0 25 -14 39 -57 39c-13 0 -25 -1 -33 -2l18 95h55l-10 -51c66 0 100 -28 100 -81c0 -56 -39 -92 -118 -92z" />
    <glyph glyph-name="uniF408" unicode="&#xf408;" horiz-adv-x="420" 
d="M45 770l115 140h100l115 -140h-78l-87 87l-89 -87h-76z" />
    <glyph glyph-name="uniF409" unicode="&#xf409;" horiz-adv-x="210" 
d="M49 -221l-7 48c32 3 63 10 68 37c-60 0 -74 16 -74 43c0 25 19 44 69 44c47 0 69 -22 69 -58c0 -57 -43 -107 -125 -114z" />
    <glyph glyph-name="uniF40A" unicode="&#xf40a;" horiz-adv-x="240" 
d="M58 494l51 206h93l-78 -206h-66z" />
    <glyph glyph-name="uniF40B" unicode="&#xf40b;" horiz-adv-x="200" 
d="M100 784c-39 0 -58 20 -58 56s19 56 58 56s58 -20 58 -56s-19 -56 -58 -56z" />
    <glyph glyph-name="uniF40C" unicode="&#xf40c;" horiz-adv-x="260" 
d="M30 840c0 57 42 99 100 99s100 -42 100 -99s-42 -99 -100 -99s-100 42 -100 99zM80 840c0 -31 20 -50 50 -50s50 19 50 50s-20 50 -50 50s-50 -19 -50 -50z" />
    <glyph glyph-name="uniF40D" unicode="&#xf40d;" horiz-adv-x="420" 
d="M101 777l-53 11c4 60 43 96 92 96c25 0 47 -8 76 -21c28 -12 45 -21 62 -21c19 0 35 9 41 41l53 -12c-6 -61 -46 -95 -90 -95c-24 0 -40 1 -79 20c-25 12 -41 23 -59 23c-17 0 -36 -9 -43 -42z" />
    <glyph glyph-name="uniF40E" unicode="&#xf40e;" horiz-adv-x="250" 
d="M133 -196c-67 0 -95 28 -95 77c0 52 42 99 127 140l47 -21c-68 -35 -97 -74 -97 -105c0 -21 12 -33 39 -33c20 0 40 6 58 16v-57c-20 -10 -46 -17 -79 -17z" />
    <glyph glyph-name="zero.tab" unicode="&#xf4e0;" horiz-adv-x="650" 
d="M325 -11c-148 0 -235 87 -235 361c0 275 86 361 235 361c156 0 235 -78 235 -361c0 -279 -83 -361 -235 -361zM325 75c93 0 139 46 139 275s-45 275 -139 275c-92 0 -139 -48 -139 -275c0 -222 53 -275 139 -275z" />
    <glyph glyph-name="one.tab" unicode="&#xf4e1;" horiz-adv-x="650" 
d="M141 0v80h191v514l-191 -123v89l218 140h65v-620h135v-80h-418z" />
    <glyph glyph-name="two.tab" unicode="&#xf4e2;" horiz-adv-x="650" 
d="M93 0v64c242 228 352 291 352 424c0 94 -48 137 -150 137c-72 0 -136 -30 -185 -68v108c54 28 127 46 201 46c161 0 228 -74 228 -205c0 -154 -97 -231 -313 -423h321v-83h-454z" />
    <glyph glyph-name="three.tab" unicode="&#xf4e3;" horiz-adv-x="650" 
d="M211 318v79h73c105 0 153 44 153 121c0 75 -36 108 -142 108c-84 0 -150 -31 -191 -57v98c49 24 131 43 212 43c161 0 215 -62 215 -175c0 -95 -47 -147 -136 -169c107 -11 160 -68 160 -171c0 -135 -79 -206 -246 -206c-84 0 -167 19 -214 44v108
c44 -33 116 -65 203 -65c132 0 162 50 162 128c0 74 -46 114 -171 114h-78z" />
    <glyph glyph-name="four.tab" unicode="&#xf4e4;" horiz-adv-x="650" 
d="M388 0v181h-326v58l307 461h112v-436h92v-83h-92v-181h-93zM168 264h220v333z" />
    <glyph glyph-name="five.tab" unicode="&#xf4e5;" horiz-adv-x="650" 
d="M119 343l25 357h381v-83h-310l-15 -188c24 4 71 6 122 6c163 0 228 -72 228 -208c0 -147 -66 -238 -258 -238c-63 0 -134 13 -182 33v100c44 -31 114 -49 176 -49c122 0 171 49 171 149c0 97 -43 134 -172 134c-63 0 -128 -6 -166 -13z" />
    <glyph glyph-name="six.tab" unicode="&#xf4e6;" horiz-adv-x="650" 
d="M338 -11c-180 0 -251 112 -251 333c0 272 104 389 298 389c53 0 100 -9 136 -23v-99c-31 20 -72 37 -143 37c-120 0 -209 -75 -209 -268c0 -7 1 -17 1 -29c35 78 98 122 197 122c135 0 203 -82 203 -216c0 -171 -100 -246 -232 -246zM339 71c81 0 139 48 139 154
c0 107 -46 150 -137 150c-100 0 -144 -62 -156 -121c1 -114 52 -183 154 -183z" />
    <glyph glyph-name="seven.tab" unicode="&#xf4e7;" horiz-adv-x="650" 
d="M182 0l268 617h-365v83h470v-60l-274 -640h-99z" />
    <glyph glyph-name="eight.tab" unicode="&#xf4e8;" horiz-adv-x="650" 
d="M327 -11c-168 0 -241 75 -241 203c0 85 26 154 136 179c-91 20 -120 72 -120 160c0 111 68 180 224 180c155 0 218 -61 218 -166c0 -87 -22 -147 -117 -172c107 -20 137 -82 137 -178c0 -121 -70 -206 -237 -206zM328 70c96 0 141 47 141 133c0 90 -48 133 -142 131
c-110 -2 -146 -53 -146 -129c0 -90 50 -135 147 -135zM328 399c98 2 124 51 124 120c0 78 -36 111 -127 111c-95 0 -130 -43 -130 -115s38 -118 133 -116z" />
    <glyph glyph-name="nine.tab" unicode="&#xf4e9;" horiz-adv-x="650" 
d="M268 -11c-54 0 -100 10 -136 25v99c31 -21 72 -39 143 -39c120 0 209 75 209 268c0 10 0 21 -1 30c-33 -77 -96 -122 -195 -122c-136 0 -204 82 -204 215c0 171 99 246 231 246c183 0 251 -111 251 -337c0 -267 -104 -385 -298 -385zM313 326c102 0 147 60 156 127
c-2 110 -49 176 -155 176c-81 0 -139 -48 -139 -154c0 -105 48 -149 138 -149z" />
    <glyph glyph-name="dollar.tab" unicode="&#xf4ec;" horiz-adv-x="650" 
d="M293 -120v110c-75 4 -141 26 -179 52v106c40 -35 111 -73 199 -73c101 0 141 40 141 110c0 178 -340 89 -340 337c0 107 54 173 179 186v92h74v-90c63 -3 117 -16 152 -34v-106c-39 33 -107 55 -172 55c-105 0 -137 -33 -137 -100c0 -171 339 -75 339 -337
c0 -113 -57 -183 -182 -196v-112h-74z" />
    <glyph glyph-name="Euro.tab" unicode="&#xf4ed;" horiz-adv-x="650" 
d="M60 394l18 72h68c29 171 129 245 287 245c102 0 149 -27 149 -27l-23 -89c-34 19 -70 30 -124 30c-103 0 -169 -43 -192 -159h284l-19 -72h-273c-1 -13 -1 -26 -1 -39c0 -18 0 -34 1 -49h251l-18 -72h-223c25 -116 91 -159 193 -159c73 0 116 20 147 43v-96
s-50 -33 -148 -33c-165 0 -262 69 -290 245h-87l18 72h61c-1 16 -1 32 -1 49c0 13 0 26 1 39h-79z" />
    <glyph glyph-name="cent.tab" unicode="&#xf4ee;" horiz-adv-x="650" 
d="M329 -120v114c-132 19 -193 102 -193 274c0 161 65 246 193 265v93h79v-90c73 -3 111 -20 128 -28v-94c-30 21 -72 42 -141 42c-114 0 -169 -55 -169 -188c0 -141 57 -198 179 -198c62 0 112 23 140 46v-92c-18 -11 -57 -33 -137 -35v-109h-79z" />
    <glyph glyph-name="sterling.tab" unicode="&#xf4ef;" horiz-adv-x="650" 
d="M72 0v81h110v242h-110v71h110v84c0 93 37 233 229 233c64 0 114 -15 147 -25v-85c-39 15 -78 29 -139 29c-103 0 -144 -68 -144 -158v-78h183v-71h-183v-242h283v-81h-486z" />
    <glyph glyph-name="yen.tab" unicode="&#xf4fa;" horiz-adv-x="650" 
d="M111 265v72h133l-199 363h106l180 -338l173 338h101l-191 -363h135v-72h-173v-66h173v-72h-173v-127h-92v127h-173v72h173v66h-173z" />
    <glyph glyph-name="florin.tab" unicode="&#xf4fb;" horiz-adv-x="650" 
d="M171 447l16 79h111l10 51c25 125 86 182 196 182c23 0 42 -3 67 -7l-17 -80c-9 3 -24 7 -46 7c-67 0 -93 -28 -110 -112l-8 -41h136l-16 -79h-136l-87 -436c-24 -123 -69 -197 -193 -197c-17 0 -35 2 -48 5l16 79c10 -3 21 -4 32 -4c49 0 82 26 100 116l88 437h-111z" />
    <glyph glyph-name="uni20B4.tab" unicode="&#xf4fc;" horiz-adv-x="650" 
d="M109 387v71h273c39 36 57 60 57 99c0 60 -54 74 -101 74c-62 0 -96 -6 -156 -26v82c60 17 130 24 167 24c160 0 190 -78 190 -140c0 -42 -18 -78 -47 -113h65v-71h-135c-15 -14 -31 -27 -47 -41l-30 -26h212v-71h-285c-21 -27 -35 -54 -35 -86c0 -54 41 -94 140 -94
c39 0 99 5 148 27v-82c-60 -19 -123 -25 -168 -25c-170 0 -220 89 -220 162c0 38 11 69 29 98h-57v71h119c21 20 46 41 71 64l3 3h-193z" />
    <glyph glyph-name="uni20BD.tab" unicode="&#xf4fd;" horiz-adv-x="650" 
d="M158 0v127h-91v71h91v64h-91v71h91v365c13 1 113 8 194 8c159 0 228 -70 228 -229c0 -140 -76 -216 -238 -216c-38 0 -92 1 -92 1v-64h196v-71h-196v-127h-92zM487 477c0 104 -40 145 -137 145c-47 0 -100 -3 -100 -3v-286h90c100 0 147 47 147 144z" />
    <glyph glyph-name="uni20B8.tab" unicode="&#xf5f3;" horiz-adv-x="650" 
d="M279 0v491h-209v71h510v-71h-209v-491h-92zM70 629v71h510v-71h-510z" />
    <glyph glyph-name="zero.denominator" unicode="&#xf655;" 
d="M35 210c0 156 72 216 189 216c129 0 191 -61 191 -216c0 -158 -71 -216 -190 -216c-122 0 -190 63 -190 216zM113 210c0 -113 41 -154 115 -154c70 0 108 41 108 154c0 114 -37 154 -112 154c-70 0 -111 -41 -111 -154z" />
    <glyph glyph-name="one.denominator" unicode="&#xf656;" 
d="M230 0v337l-121 -64l-30 58l167 89h61v-420h-77z" />
    <glyph glyph-name="two.denominator" unicode="&#xf657;" 
d="M52 0v68l123 84c85 59 123 94 123 140s-35 69 -98 69c-46 0 -95 -9 -129 -27v68c45 17 89 24 140 24c104 0 166 -40 166 -120c0 -70 -48 -121 -162 -193l-70 -47v-1h237v-65h-330z" />
    <glyph glyph-name="three.denominator" unicode="&#xf658;" 
d="M134 189v55h74c64 0 99 18 99 59c0 43 -33 59 -104 59c-47 0 -98 -6 -131 -20v64c42 16 102 20 153 20c112 0 159 -45 159 -108c0 -56 -40 -82 -104 -98v-2c90 -12 115 -55 115 -98c0 -87 -83 -126 -185 -126c-44 0 -99 3 -145 20v66c41 -17 89 -22 136 -22
c84 0 115 28 115 65c0 48 -34 66 -102 66h-80z" />
    <glyph glyph-name="four.denominator" unicode="&#xf659;" 
d="M27 94v59l249 267h89v-264h57v-62h-57v-94h-72v94h-266zM293 156v197h-1l-185 -197h186z" />
    <glyph glyph-name="five.denominator" unicode="&#xf65a;" 
d="M73 207l12 213h293v-63h-237l-5 -92c28 2 57 4 100 4c107 0 161 -46 161 -129c0 -86 -58 -146 -181 -146c-45 0 -100 5 -145 18v65c53 -17 89 -19 140 -19c69 0 108 27 108 79c0 49 -31 75 -112 75c-51 0 -90 -2 -134 -5z" />
    <glyph glyph-name="six.denominator" unicode="&#xf65b;" 
d="M231 -6c-137 0 -185 83 -185 202c0 128 52 230 208 230c36 0 75 -4 114 -13v-64c-38 12 -78 14 -113 14c-76 0 -137 -39 -141 -141c33 27 81 50 138 50c91 0 156 -36 156 -131c0 -94 -71 -147 -177 -147zM117 169c1 -68 39 -117 114 -117c56 0 101 27 101 88
c0 54 -42 75 -95 75c-45 0 -89 -18 -120 -46z" />
    <glyph glyph-name="seven.denominator" unicode="&#xf65c;" 
d="M127 0l191 357h-269v63h353v-50l-194 -370h-81z" />
    <glyph glyph-name="eight.denominator" unicode="&#xf65d;" 
d="M225 -6c-120 0 -186 40 -186 121c0 55 37 94 100 104c-55 12 -88 48 -88 95c0 71 58 112 174 112s174 -41 174 -112c0 -47 -33 -83 -88 -95c63 -10 100 -49 100 -104c0 -81 -66 -121 -186 -121zM225 54c87 0 112 33 112 70c0 39 -30 67 -112 67s-112 -28 -112 -67
c0 -37 25 -70 112 -70zM225 366c-78 0 -103 -25 -103 -61c0 -38 34 -61 103 -61s103 23 103 61c0 36 -25 61 -103 61z" />
    <glyph glyph-name="nine.denominator" unicode="&#xf65e;" 
d="M217 426c141 0 190 -79 190 -196c0 -130 -52 -236 -195 -236c-56 0 -92 6 -138 16v65c45 -13 82 -18 132 -18c71 0 130 43 133 147c-31 -32 -82 -57 -140 -57c-83 0 -154 39 -154 135c0 91 69 144 172 144zM337 258c-3 60 -40 109 -121 109c-51 0 -96 -25 -96 -82
c0 -59 42 -82 94 -82c51 0 94 26 123 55z" />
    <glyph glyph-name="zero.numerator" unicode="&#xf661;" 
d="M35 490c0 156 72 216 189 216c129 0 191 -61 191 -216c0 -158 -71 -216 -190 -216c-122 0 -190 63 -190 216zM113 490c0 -113 41 -154 115 -154c70 0 108 41 108 154c0 114 -37 154 -112 154c-70 0 -111 -41 -111 -154z" />
    <glyph glyph-name="one.numerator" unicode="&#xf662;" 
d="M230 280v337l-121 -64l-30 58l167 89h61v-420h-77z" />
    <glyph glyph-name="two.numerator" unicode="&#xf663;" 
d="M52 280v68l123 84c85 59 123 94 123 140s-35 69 -98 69c-46 0 -95 -9 -129 -27v68c45 17 89 24 140 24c104 0 166 -40 166 -120c0 -70 -48 -121 -162 -193l-70 -47v-1h237v-65h-330z" />
    <glyph glyph-name="three.numerator" unicode="&#xf664;" 
d="M134 469v55h74c64 0 99 18 99 59c0 43 -33 59 -104 59c-47 0 -98 -6 -131 -20v64c42 16 102 20 153 20c112 0 159 -45 159 -108c0 -56 -40 -82 -104 -98v-2c90 -12 115 -55 115 -98c0 -87 -83 -126 -185 -126c-44 0 -99 3 -145 20v66c41 -17 89 -22 136 -22
c84 0 115 28 115 65c0 48 -34 66 -102 66h-80z" />
    <glyph glyph-name="four.numerator" unicode="&#xf665;" 
d="M27 374v59l249 267h89v-264h57v-62h-57v-94h-72v94h-266zM293 436v197h-1l-185 -197h186z" />
    <glyph glyph-name="five.numerator" unicode="&#xf666;" 
d="M73 487l12 213h293v-63h-237l-5 -92c28 2 57 4 100 4c107 0 161 -46 161 -129c0 -86 -58 -146 -181 -146c-45 0 -100 5 -145 18v65c53 -17 89 -19 140 -19c69 0 108 27 108 79c0 49 -31 75 -112 75c-51 0 -90 -2 -134 -5z" />
    <glyph glyph-name="six.numerator" unicode="&#xf667;" 
d="M231 274c-137 0 -185 83 -185 202c0 128 52 230 208 230c36 0 75 -4 114 -13v-64c-38 12 -78 14 -113 14c-76 0 -137 -39 -141 -141c33 27 81 50 138 50c91 0 156 -36 156 -131c0 -94 -71 -147 -177 -147zM117 449c1 -68 39 -117 114 -117c56 0 101 27 101 88
c0 54 -42 75 -95 75c-45 0 -89 -18 -120 -46z" />
    <glyph glyph-name="seven.numerator" unicode="&#xf668;" 
d="M127 280l191 357h-269v63h353v-50l-194 -370h-81z" />
    <glyph glyph-name="eight.numerator" unicode="&#xf669;" 
d="M225 274c-120 0 -186 40 -186 121c0 55 37 94 100 104c-55 12 -88 48 -88 95c0 71 58 112 174 112s174 -41 174 -112c0 -47 -33 -83 -88 -95c63 -10 100 -49 100 -104c0 -81 -66 -121 -186 -121zM225 334c87 0 112 33 112 70c0 39 -30 67 -112 67s-112 -28 -112 -67
c0 -37 25 -70 112 -70zM225 646c-78 0 -103 -25 -103 -61c0 -38 34 -61 103 -61s103 23 103 61c0 36 -25 61 -103 61z" />
    <glyph glyph-name="nine.numerator" unicode="&#xf66a;" 
d="M217 706c141 0 190 -79 190 -196c0 -130 -52 -236 -195 -236c-56 0 -92 6 -138 16v65c45 -13 82 -18 132 -18c71 0 130 43 133 147c-31 -32 -82 -57 -140 -57c-83 0 -154 39 -154 135c0 91 69 144 172 144zM337 538c-3 60 -40 109 -121 109c-51 0 -96 -25 -96 -82
c0 -59 42 -82 94 -82c51 0 94 26 123 55z" />
    <glyph glyph-name="uniF6BA" unicode="&#xf6ba;" horiz-adv-x="400" 
d="M45 315v80h310v-80h-310z" />
    <glyph glyph-name="uniF6BB" unicode="&#xf6bb;" horiz-adv-x="650" 
d="M85 317v77h480v-77h-480z" />
    <glyph glyph-name="uniF6BC" unicode="&#xf6bc;" horiz-adv-x="830" 
d="M85 317v77h660v-77h-660z" />
    <glyph glyph-name="uniF6C3" unicode="&#xf6c3;" horiz-adv-x="200" 
d="M47 -221l-7 48c38 3 63 13 67 38c-57 0 -73 16 -73 42c0 25 19 44 66 44c44 0 66 -22 66 -62c0 -48 -36 -103 -119 -110z" />
    <glyph glyph-name="uniF6C9" unicode="&#xf6c9;" horiz-adv-x="310" 
d="M51 770l90 140h118l-133 -140h-75z" />
    <glyph glyph-name="uniF6CA" unicode="&#xf6ca;" horiz-adv-x="420" 
d="M160 770l-115 140h78l88 -87l88 87h76l-115 -140h-100z" />
    <glyph glyph-name="uniF6CB" unicode="&#xf6cb;" horiz-adv-x="420" 
d="M109 785c-38 0 -57 20 -57 55s19 55 57 55s57 -20 57 -55s-19 -55 -57 -55zM312 785c-38 0 -57 20 -57 55s19 55 57 55s57 -20 57 -55s-19 -55 -57 -55z" />
    <glyph glyph-name="uniF6CE" unicode="&#xf6ce;" horiz-adv-x="310" 
d="M182 770l-131 140h120l88 -140h-77z" />
    <glyph glyph-name="uniF6CF" unicode="&#xf6cf;" horiz-adv-x="480" 
d="M58 770l59 140h100l-93 -140h-66zM204 770l103 140h115l-144 -140h-74z" />
    <glyph glyph-name="uniF6D0" unicode="&#xf6d0;" horiz-adv-x="360" 
d="M38 795v70h284v-70h-284z" />
    <glyph glyph-name="uniF6D1" unicode="&#xf6d1;" horiz-adv-x="400" 
d="M200 770c-95 0 -158 37 -162 140h76c4 -60 30 -80 86 -80s84 20 88 80h74c-5 -103 -67 -140 -162 -140z" />
    <glyph glyph-name="uniF6D4" unicode="&#xf6d4;" horiz-adv-x="380" 
d="M190 617c-93 0 -150 36 -156 139h76c5 -60 30 -82 80 -82s77 22 83 82h73c-7 -103 -63 -139 -156 -139z" />
    <glyph glyph-name="uniFEFF" unicode="&#xfeff;" horiz-adv-x="0" 
 />
    <glyph glyph-name="percent.tab" horiz-adv-x="650" 
d="M45 0l486 700h74l-486 -700h-74zM163 374c-84 0 -133 49 -133 166c0 115 51 166 133 166c85 0 134 -49 134 -166c0 -115 -51 -166 -134 -166zM163 437c41 0 65 22 65 103c0 82 -23 103 -65 103c-40 0 -64 -22 -64 -103c0 -82 22 -103 64 -103zM487 -6
c-85 0 -134 49 -134 166c0 115 51 166 134 166c84 0 133 -49 133 -166c0 -115 -51 -166 -133 -166zM487 57c40 0 64 22 64 103c0 82 -23 103 -64 103s-65 -22 -65 -103c0 -82 22 -103 65 -103z" />
    <glyph glyph-name="plus.tab" horiz-adv-x="650" 
d="M120 318v81h165v164h80v-164h165v-81h-165v-164h-80v164h-165z" />
    <glyph glyph-name="less.tab" horiz-adv-x="650" 
d="M530 118l-410 200v78l410 199v-91l-310 -145l310 -145v-96z" />
    <glyph glyph-name="equal.tab" horiz-adv-x="650" 
d="M120 214v80h410v-80h-410zM120 420v80h410v-80h-410z" />
    <glyph glyph-name="greater.tab" horiz-adv-x="650" 
d="M120 595l410 -199v-78l-410 -200v92l310 145l-310 145v95z" />
    <glyph glyph-name="multiply.tab" horiz-adv-x="650" 
d="M193 174l-54 54l132 132l-132 132l54 54l132 -132l132 132l54 -54l-132 -132l132 -132l-54 -54l-132 132z" />
    <glyph glyph-name="divide.tab" horiz-adv-x="650" 
d="M120 318v81h410v-81h-410zM325 115c-41 0 -64 23 -64 64s23 64 64 64s64 -23 64 -64s-23 -64 -64 -64zM325 474c-41 0 -64 22 -64 64c0 41 23 64 64 64s64 -23 64 -64c0 -42 -23 -64 -64 -64z" />
    <glyph glyph-name="perthousand.tab" horiz-adv-x="650" 
d="M515 477l-463 -219l-23 47l464 219zM20 566c0 96 42 143 117 143c76 0 122 -43 122 -143s-44 -144 -117 -144c-79 0 -122 44 -122 144zM84 566c0 -60 19 -81 57 -81c36 0 54 18 55 81c0 58 -17 80 -56 80c-38 0 -56 -22 -56 -80zM120 135c0 96 43 143 118 143
s121 -43 121 -143s-44 -144 -118 -144c-78 0 -121 44 -121 144zM184 135c0 -60 19 -81 57 -81c36 0 54 18 54 81c0 58 -17 80 -55 80c-39 0 -56 -22 -56 -80zM391 135c0 96 42 143 117 143c76 0 122 -43 122 -143s-44 -144 -118 -144c-78 0 -121 44 -121 144zM455 135
c0 -60 19 -81 56 -81s55 18 55 81c0 58 -17 80 -56 80c-38 0 -55 -22 -55 -80z" />
    <glyph glyph-name="minus.tab" horiz-adv-x="650" 
d="M120 318v81h410v-81h-410z" />
    <glyph glyph-name="f_b" horiz-adv-x="965" 
d="M706 -11c-93 0 -139 47 -162 98l-6 -87h-82v672c-57 2 -104 5 -152 5c-64 0 -87 -23 -87 -89v-62h119v-79h-119v-447h-88v447h-94v79h94v73c0 108 49 160 167 160c58 0 117 -4 204 -6h44v-312c30 53 76 96 173 96c131 0 197 -72 197 -269c0 -202 -71 -279 -208 -279z
M687 70c94 0 140 46 140 198c0 142 -46 188 -136 188c-92 0 -144 -52 -144 -160v-66c0 -104 55 -160 140 -160z" />
    <glyph glyph-name="f_f_b" horiz-adv-x="1295" 
d="M459 0v447h-242v-447h-88v447h-94v79h94v73c0 112 46 160 154 160c32 0 58 -4 75 -10v-88c-15 9 -39 16 -67 16c-54 0 -74 -21 -74 -90v-61h242v73c0 108 49 160 167 160c58 0 117 -4 204 -6h44v-312c30 53 76 96 173 96c131 0 197 -72 197 -269
c0 -202 -71 -279 -208 -279c-93 0 -139 47 -162 98l-6 -87h-82v672c-57 2 -104 5 -152 5c-64 0 -87 -23 -87 -89v-62h119v-79h-119v-447h-88zM1017 70c94 0 140 46 140 198c0 142 -46 188 -136 188c-92 0 -144 -52 -144 -160v-66c0 -104 55 -160 140 -160z" />
    <glyph glyph-name="f_f_h" horiz-adv-x="1290" 
d="M459 0v447h-242v-447h-88v447h-94v79h94v73c0 112 46 160 154 160c32 0 58 -4 75 -10v-88c-15 9 -39 16 -67 16c-54 0 -74 -21 -74 -90v-61h242v73c0 108 49 160 167 160c58 0 117 -4 204 -6h44v-316c29 64 79 100 163 100c118 0 177 -57 177 -198v-339h-88v308
c0 113 -34 148 -119 148c-83 0 -133 -50 -133 -148v-308h-88v672c-57 2 -104 5 -152 5c-64 0 -87 -23 -87 -89v-62h119v-79h-119v-447h-88z" />
    <glyph glyph-name="f_f_j" horiz-adv-x="955" 
d="M456 0v447h-239v-447h-88v447h-94v79h94v73c0 112 46 160 154 160c32 0 58 -4 75 -10v-88c-15 9 -39 16 -67 16c-54 0 -74 -21 -74 -90v-61h239v73c0 112 45 160 154 160c32 0 58 -4 75 -10v-88c-15 9 -40 16 -68 16c-53 0 -73 -21 -73 -90v-61h330v-553
c0 -113 -45 -159 -135 -159c-36 0 -66 7 -75 12v88c16 -10 37 -18 62 -18c41 0 60 19 60 80v471h-242v-447h-88zM830 632c-37 0 -56 19 -56 54s19 54 56 54c38 0 57 -19 57 -54s-19 -54 -57 -54z" />
    <glyph glyph-name="f_f_k" horiz-adv-x="1250" 
d="M447 0v447h-230v-447h-88v447h-94v79h94v73c0 112 46 160 154 160c32 0 58 -4 75 -10v-88c-15 9 -39 16 -67 16c-54 0 -74 -21 -74 -90v-61h230v73c0 108 49 160 167 160c56 0 116 -4 199 -6h51v-440h60l167 213h103l-199 -251l219 -275h-106l-184 234h-60v-234h-88v672
c-58 2 -106 5 -154 5c-63 0 -87 -23 -87 -89v-62h119v-79h-119v-447h-88z" />
    <glyph glyph-name="f_h" horiz-adv-x="960" 
d="M456 0v672c-57 2 -104 5 -152 5c-64 0 -87 -23 -87 -89v-62h119v-79h-119v-447h-88v447h-94v79h94v73c0 108 49 160 167 160c58 0 117 -4 204 -6h44v-316c29 64 79 100 163 100c118 0 177 -57 177 -198v-339h-88v308c0 113 -34 148 -119 148c-83 0 -133 -50 -133 -148
v-308h-88z" />
    <glyph glyph-name="f_j" horiz-adv-x="635" 
d="M419 -186c-36 0 -66 7 -75 12v88c16 -10 37 -18 62 -18c41 0 60 19 60 80v471h-249v-447h-88v447h-94v79h94v73c0 112 46 160 154 160c32 0 58 -4 75 -10v-88c-15 9 -39 16 -67 16c-54 0 -74 -21 -74 -90v-61h337v-553c0 -113 -45 -159 -135 -159zM510 632
c-37 0 -56 19 -56 54s19 54 56 54c38 0 57 -19 57 -54s-19 -54 -57 -54z" />
    <glyph glyph-name="f_k" horiz-adv-x="930" 
d="M456 0v672c-57 2 -104 5 -152 5c-64 0 -87 -23 -87 -89v-62h119v-79h-119v-447h-88v447h-94v79h94v73c0 108 49 160 167 160c56 0 114 -4 197 -6h51v-440h60l167 213h103l-199 -251l219 -275h-106l-184 234h-60v-234h-88z" />
    </font>
</defs>
</svg>
