<?xml version="1.0" standalone="no"?>
<!DOCTYPE svg PUBLIC "-//W3C//DTD SVG 1.1//EN" "http://www.w3.org/Graphics/SVG/1.1/DTD/svg11.dtd" >
<svg xmlns="http://www.w3.org/2000/svg" xmlns:xlink="http://www.w3.org/1999/xlink" version="1.1">
<metadata>
Created by FontForge 20190801 at Tue Mar 26 21:49:27 2019
 By Jimmy Wärting
Copyright (c) 2018 ParaType Inc., ParaType Ltd. All rights reserved.
</metadata>
<defs>
<font id="SBSansInterface-Light" horiz-adv-x="450" >
  <font-face 
    font-family="SB Sans Interface Light"
    font-weight="300"
    font-stretch="expanded"
    units-per-em="1000"
    panose-1="2 11 3 3 4 5 4 2 2 4"
    ascent="815"
    descent="-185"
    x-height="520"
    cap-height="700"
    bbox="-310 -210 1235 932"
    underline-thickness="50"
    underline-position="-113"
    stemh="58"
    stemv="60"
    unicode-range="U+0020-FEFF"
  />
<missing-glyph horiz-adv-x="250" 
 />
    <glyph glyph-name="f_f" unicode="ff" horiz-adv-x="730" 
d="M470 0v464h-270v-464h-60v464h-100v56h100v85c0 104 46 150 145 150c32 0 59 -5 75 -11v-68c-18 12 -47 21 -80 21c-60 0 -80 -20 -80 -102v-75h270v85c0 104 46 150 145 150c32 0 59 -5 75 -11v-68c-18 12 -47 21 -80 21c-60 0 -80 -20 -80 -102v-75h160v-56h-160v-464
h-60z" />
    <glyph glyph-name="fi" unicode="fi" horiz-adv-x="635" 
d="M485 0v464h-285v-464h-60v464h-100v56h100v85c0 104 46 150 145 150c32 0 59 -5 75 -11v-68c-18 12 -47 21 -80 21c-60 0 -80 -20 -80 -102v-75h345v-520h-60zM515 638c-27 0 -42 15 -42 42s15 42 42 42s42 -15 42 -42s-15 -42 -42 -42z" />
    <glyph glyph-name="fl" unicode="fl" horiz-adv-x="685" 
d="M575 -5c-82 0 -120 40 -120 120v578c-65 0 -109 4 -165 4c-65 0 -90 -25 -90 -102v-75h127v-56h-127v-464h-60v464h-100v56h100v85c0 99 51 150 155 150c61 0 101 -4 203 -5h17v-625c0 -57 19 -72 65 -72c25 0 51 8 65 15v-58c-14 -7 -40 -15 -70 -15z" />
    <glyph glyph-name="f_f_i" unicode="ffi" horiz-adv-x="955" 
d="M470 0v464h-270v-464h-60v464h-100v56h100v85c0 104 46 150 145 150c32 0 59 -5 75 -11v-68c-18 12 -47 21 -80 21c-60 0 -80 -20 -80 -102v-75h270v85c0 104 46 150 145 150c32 0 59 -5 75 -11v-68c-18 12 -47 21 -80 21c-60 0 -80 -20 -80 -102v-75h335v-520h-60v464
h-275v-464h-60zM835 638c-27 0 -42 15 -42 42s15 42 42 42s42 -15 42 -42s-15 -42 -42 -42z" />
    <glyph glyph-name="f_f_l" unicode="ffl" horiz-adv-x="1015" 
d="M465 0v464h-265v-464h-60v464h-100v56h100v85c0 104 46 150 145 150c32 0 59 -5 75 -11v-68c-18 12 -47 21 -80 21c-60 0 -80 -20 -80 -102v-75h265v85c0 99 51 150 155 150c65 0 110 -4 225 -5v-625c0 -57 19 -72 65 -72c25 0 51 8 65 15v-58c-14 -7 -40 -15 -70 -15
c-82 0 -120 40 -120 120v578c-66 0 -114 4 -170 4c-65 0 -90 -25 -90 -102v-75h132v-56h-132v-464h-60z" />
    <glyph glyph-name=".notdef" horiz-adv-x="250" 
 />
    <glyph glyph-name="space" unicode=" " horiz-adv-x="250" 
 />
    <glyph glyph-name="exclam" unicode="!" horiz-adv-x="330" 
d="M165 -5c-32 0 -50 18 -50 50s18 50 50 50s50 -18 50 -50s-18 -50 -50 -50zM133 220v480h64v-480h-64z" />
    <glyph glyph-name="quotedbl" unicode="&#x22;" horiz-adv-x="470" 
d="M103 420v280h60v-280h-60zM307 420v280h60v-280h-60z" />
    <glyph glyph-name="numbersign" unicode="#" horiz-adv-x="600" 
d="M313 0l35 201h-149l-35 -201h-64l35 201h-105l11 58h104l32 182h-104l10 58h104l36 201h64l-36 -201h149l36 201h64l-36 -201h106l-10 -58h-106l-32 -182h106l-11 -58h-105l-35 -201h-64zM241 441l-32 -182h149l32 182h-149z" />
    <glyph glyph-name="dollar" unicode="$" horiz-adv-x="600" 
d="M278 -120v110c-77 3 -146 27 -183 55v80c44 -39 113 -75 195 -75c113 0 159 46 159 130c0 200 -349 100 -349 350c0 104 53 167 178 178v92h54v-90c64 -2 118 -17 153 -35v-80c-36 32 -102 55 -165 55c-116 0 -154 -38 -154 -120c0 -195 349 -85 349 -350
c0 -109 -58 -176 -183 -188v-112h-54z" />
    <glyph glyph-name="percent" unicode="%" horiz-adv-x="860" 
d="M160 0l476 700h64l-476 -700h-64zM235 375c-99 0 -160 61 -160 165s61 165 160 165s160 -61 160 -165s-61 -165 -160 -165zM235 427c67 0 104 37 104 113s-37 113 -104 113s-104 -37 -104 -113s37 -113 104 -113zM625 -5c-99 0 -160 61 -160 165s61 165 160 165
s160 -61 160 -165s-61 -165 -160 -165zM625 47c67 0 104 37 104 113s-37 113 -104 113s-104 -37 -104 -113s37 -113 104 -113z" />
    <glyph glyph-name="ampersand" unicode="&#x26;" horiz-adv-x="800" 
d="M301 -10c-146 0 -226 68 -226 204c0 99 54 166 160 214c-33 59 -52 115 -52 159c0 87 48 143 161 143c85 0 148 -43 148 -133c0 -100 -70 -148 -178 -189c54 -82 131 -164 215 -229c68 81 106 202 113 321h62c-8 -127 -51 -260 -127 -354c49 -33 93 -55 138 -66v-70
c-59 16 -118 47 -180 91c-64 -58 -144 -91 -234 -91zM308 51c64 0 126 21 179 66c-89 72 -169 159 -226 248c-77 -35 -123 -82 -123 -164c0 -92 48 -150 170 -150zM337 654c-56 0 -94 -26 -94 -90c0 -38 18 -85 46 -135c87 35 142 66 142 139c0 54 -27 86 -94 86z" />
    <glyph glyph-name="quotesingle" unicode="'" horiz-adv-x="270" 
d="M103 420v280h64v-280h-64z" />
    <glyph glyph-name="parenleft" unicode="(" horiz-adv-x="380" 
d="M100 285c0 225 95 370 191 475l39 -30c-73 -95 -164 -220 -164 -446c0 -224 91 -349 164 -444l-40 -30c-95 105 -190 250 -190 475z" />
    <glyph glyph-name="parenright" unicode=")" horiz-adv-x="380" 
d="M280 285c0 -225 -95 -370 -191 -475l-39 30c73 95 164 220 164 446c0 224 -91 349 -164 444l40 30c95 -105 190 -250 190 -475z" />
    <glyph glyph-name="asterisk" unicode="*" horiz-adv-x="500" 
d="M169 355l-51 36l97 117l-143 41l19 60l138 -61l-11 152h63l-10 -152l137 61l20 -60l-144 -42l98 -116l-52 -36l-81 127z" />
    <glyph glyph-name="plus" unicode="+" horiz-adv-x="600" 
d="M271 160v171h-171v58h171v171h58v-171h171v-58h-171v-171h-58z" />
    <glyph glyph-name="comma" unicode="," horiz-adv-x="320" 
d="M103 -150l-28 40c56 23 86 66 89 105c-36 0 -54 18 -54 50s18 50 50 50c37 0 55 -22 55 -70c0 -78 -46 -147 -112 -175z" />
    <glyph glyph-name="hyphen" unicode="-" horiz-adv-x="400" 
d="M50 241v58h300v-58h-300z" />
    <glyph glyph-name="period" unicode="." horiz-adv-x="320" 
d="M160 -5c-32 0 -50 18 -50 50s18 50 50 50s50 -18 50 -50s-18 -50 -50 -50z" />
    <glyph glyph-name="slash" unicode="/" horiz-adv-x="400" 
d="M15 -180l310 930h60l-310 -930h-60z" />
    <glyph glyph-name="zero" unicode="0" horiz-adv-x="600" 
d="M300 -10c-146 0 -230 84 -230 360c0 275 85 360 230 360c154 0 230 -76 230 -360c0 -280 -80 -360 -230 -360zM300 50c110 0 164 54 164 300c0 248 -52 300 -164 300c-109 0 -164 -55 -164 -300c0 -239 61 -300 164 -300z" />
    <glyph glyph-name="one" unicode="1" horiz-adv-x="600" 
d="M125 0v58h199v566l-199 -125v64l218 137h45v-642h137v-58h-400z" />
    <glyph glyph-name="two" unicode="2" horiz-adv-x="600" 
d="M70 0v47c291 273 376 320 376 454c0 103 -55 149 -170 149c-72 0 -137 -30 -186 -65v79c55 29 127 46 197 46c150 0 223 -67 223 -202c0 -152 -92 -223 -347 -450h357v-58h-450z" />
    <glyph glyph-name="three" unicode="3" horiz-adv-x="600" 
d="M288 -10c-88 0 -170 19 -213 44v82c41 -31 112 -64 207 -64c146 0 181 59 181 148c0 85 -59 130 -199 130h-78v58h76c117 0 176 52 176 137c0 89 -43 126 -159 126c-93 0 -158 -34 -196 -57v73c44 23 123 43 208 43c150 0 209 -59 209 -173c0 -99 -51 -150 -141 -170
c109 -9 166 -65 166 -174c0 -137 -85 -203 -237 -203z" />
    <glyph glyph-name="four" unicode="4" horiz-adv-x="600" 
d="M381 0v192h-341v45l331 463h74v-450h100v-58h-100v-192h-64zM118 250h263v373z" />
    <glyph glyph-name="five" unicode="5" horiz-adv-x="600" 
d="M90 23v74c48 -34 116 -47 174 -47c137 0 194 54 194 168c0 110 -51 150 -192 150c-66 0 -128 -5 -167 -12l26 344h373v-58h-322l-18 -219c24 3 74 5 132 5c163 0 230 -67 230 -203c0 -145 -66 -235 -251 -235c-67 0 -136 13 -179 33z" />
    <glyph glyph-name="six" unicode="6" horiz-adv-x="600" 
d="M315 -10c-172 0 -245 108 -245 329c0 280 109 391 291 391c50 0 94 -8 126 -22v-73c-30 19 -68 34 -134 34c-132 0 -226 -81 -226 -301c0 -5 1 -18 1 -33c34 85 102 133 209 133c134 0 203 -81 203 -215c0 -170 -105 -243 -225 -243zM141 265c1 -138 60 -214 178 -214
c92 0 159 54 159 172c0 119 -54 167 -158 167c-115 0 -162 -73 -179 -125z" />
    <glyph glyph-name="seven" unicode="7" horiz-adv-x="600" 
d="M168 0l284 642h-387v58h460v-46l-289 -654h-68z" />
    <glyph glyph-name="eight" unicode="8" horiz-adv-x="600" 
d="M303 -10c-158 0 -233 75 -233 201c0 84 25 156 142 180c-96 17 -125 73 -125 162c0 109 68 177 215 177c148 0 206 -61 206 -162c0 -89 -21 -152 -122 -175c112 -18 144 -82 144 -179c0 -119 -67 -204 -227 -204zM304 50c112 0 160 53 160 147c0 101 -55 148 -161 146
c-130 -3 -167 -60 -167 -144c0 -97 56 -149 168 -149zM300 650c-109 0 -147 -50 -147 -128c0 -79 41 -133 151 -130c113 3 138 60 138 134c0 86 -39 124 -142 124z" />
    <glyph glyph-name="nine" unicode="9" horiz-adv-x="600" 
d="M244 -10c-52 0 -95 9 -127 23v74c31 -20 69 -36 135 -36c132 0 225 81 226 302c0 9 -1 22 -2 33c-31 -83 -99 -133 -206 -133c-134 0 -205 81 -205 214c0 170 105 243 225 243c177 0 245 -107 245 -335c0 -273 -109 -385 -291 -385zM286 311c119 0 167 73 179 135
c-3 124 -55 203 -179 203c-93 0 -160 -54 -160 -172s57 -166 160 -166z" />
    <glyph glyph-name="colon" unicode=":" horiz-adv-x="330" 
d="M165 -5c-32 0 -50 18 -50 50s18 50 50 50s50 -18 50 -50s-18 -50 -50 -50zM165 405c-32 0 -50 18 -50 50s18 50 50 50s50 -18 50 -50s-18 -50 -50 -50z" />
    <glyph glyph-name="semicolon" unicode=";" horiz-adv-x="330" 
d="M108 -150l-28 40c56 23 86 66 89 105c-36 0 -54 18 -54 50s18 50 50 50c37 0 55 -22 55 -70c0 -78 -46 -147 -112 -175zM165 405c-32 0 -50 18 -50 50s18 50 50 50s50 -18 50 -50s-18 -50 -50 -50z" />
    <glyph glyph-name="less" unicode="&#x3c;" horiz-adv-x="600" 
d="M500 140l-400 197v46l400 197v-66l-320 -153l320 -153v-68z" />
    <glyph glyph-name="equal" unicode="=" horiz-adv-x="600" 
d="M100 231v58h400v-58h-400zM100 431v58h400v-58h-400z" />
    <glyph glyph-name="greater" unicode="&#x3e;" horiz-adv-x="600" 
d="M100 580l400 -197v-46l-400 -197v66l320 153l-320 153v68z" />
    <glyph glyph-name="question" unicode="?" horiz-adv-x="480" 
d="M195 -5c-32 0 -50 18 -50 50s18 50 50 50s50 -18 50 -50s-18 -50 -50 -50zM165 210c0 187 198 157 198 320c0 76 -44 120 -151 120c-67 0 -115 -18 -157 -42v70c51 23 110 32 157 32c151 0 213 -62 213 -180c0 -194 -200 -170 -200 -320h-60z" />
    <glyph glyph-name="at" unicode="@" horiz-adv-x="900" 
d="M466 -130c-263 0 -401 159 -401 414c0 247 138 417 395 417c236 0 375 -140 375 -367c0 -194 -78 -271 -167 -271c-66 0 -96 26 -102 104c-16 -66 -60 -104 -145 -104c-122 0 -165 77 -165 225c0 158 75 225 177 225c87 0 117 -37 131 -90l8 81h45v-316
c0 -50 12 -74 54 -74c57 0 116 54 116 218c0 202 -114 322 -330 322c-221 0 -343 -133 -343 -371c0 -232 123 -366 351 -366c67 0 134 17 172 42v-54c-37 -18 -104 -35 -171 -35zM434 114c86 0 125 52 125 156v51c0 98 -43 140 -117 140c-82 0 -128 -42 -128 -172
c0 -116 26 -175 120 -175z" />
    <glyph glyph-name="A" unicode="A" horiz-adv-x="640" 
d="M25 0l263 700h64l263 -700h-70l-73 201h-308l-73 -201h-66zM318 625l-133 -366h266z" />
    <glyph glyph-name="B" unicode="B" horiz-adv-x="625" 
d="M310 -5c-90 0 -200 10 -200 10v690s112 10 195 10c177 0 230 -53 230 -183c0 -83 -36 -136 -118 -158c98 -14 143 -69 143 -166c0 -132 -71 -203 -250 -203zM494 198c0 88 -45 133 -174 133h-146v-271s56 -5 136 -5c142 0 184 42 184 143zM469 522c0 90 -33 123 -164 123
c-75 0 -131 -3 -131 -3v-253h136c115 0 159 44 159 133z" />
    <glyph glyph-name="C" unicode="C" horiz-adv-x="575" 
d="M355 -10c-195 0 -300 105 -300 365c0 247 108 355 295 355c100 0 164 -25 164 -25v-70c-38 22 -94 35 -164 35c-148 0 -229 -81 -229 -295c0 -220 85 -305 234 -305c74 0 136 27 170 45v-70s-75 -35 -170 -35z" />
    <glyph glyph-name="D" unicode="D" horiz-adv-x="680" 
d="M290 -5c-90 0 -180 10 -180 10v690s90 10 180 10c244 0 335 -91 335 -345c0 -259 -106 -365 -335 -365zM559 360c0 220 -65 285 -269 285c-70 0 -116 -6 -116 -6v-578s46 -6 116 -6c189 0 269 80 269 305z" />
    <glyph glyph-name="E" unicode="E" horiz-adv-x="575" 
d="M110 0v700h405v-58h-341v-253h301v-58h-301v-273h341v-58h-405z" />
    <glyph glyph-name="F" unicode="F" horiz-adv-x="545" 
d="M110 0v701h385v-58h-321v-274h291v-58h-291v-311h-64z" />
    <glyph glyph-name="G" unicode="G" horiz-adv-x="650" 
d="M380 -10c-217 0 -325 108 -325 365c0 241 114 355 325 355c95 0 155 -25 155 -25v-70c-35 18 -90 35 -155 35c-172 0 -259 -87 -259 -295c0 -222 83 -305 259 -305c46 0 96 7 131 20v216h-151v58h215v-314c-35 -17 -109 -40 -195 -40z" />
    <glyph glyph-name="H" unicode="H" horiz-adv-x="720" 
d="M110 0v700h64v-311h372v311h64v-700h-64v331h-372v-331h-64z" />
    <glyph glyph-name="I" unicode="I" horiz-adv-x="330" 
d="M133 0v700h64v-700h-64z" />
    <glyph glyph-name="J" unicode="J" horiz-adv-x="420" 
d="M140 -10c-60 0 -100 20 -100 20v70s35 -30 100 -30c63 0 96 33 96 110v540h64v-540c0 -117 -53 -170 -160 -170z" />
    <glyph glyph-name="K" unicode="K" horiz-adv-x="655" 
d="M541 0l-287 331h-80v-331h-64v700h64v-311h80l269 311h82l-295 -339l315 -361h-84z" />
    <glyph glyph-name="L" unicode="L" horiz-adv-x="530" 
d="M110 0v700h64v-642h321v-58h-385z" />
    <glyph glyph-name="M" unicode="M" horiz-adv-x="850" 
d="M110 0v700h78l239 -450l239 450h74v-700h-64v490c0 50 0 70 4 120h-2c-19 -50 -30 -68 -58 -120l-168 -315h-54l-168 315c-28 52 -36 70 -58 120h-2c3 -50 4 -70 4 -120v-490h-64z" />
    <glyph glyph-name="N" unicode="N" horiz-adv-x="740" 
d="M110 0v700h66l331 -500c33 -50 60 -100 60 -100h2s-3 50 -3 100v500h64v-700h-66l-331 500c-39 60 -60 100 -60 100h-2s3 -40 3 -100v-500h-64z" />
    <glyph glyph-name="O" unicode="O" horiz-adv-x="710" 
d="M355 -10c-190 0 -300 110 -300 360c0 252 108 360 300 360c197 0 300 -103 300 -360c0 -252 -108 -360 -300 -360zM355 50c151 0 234 83 234 300c0 218 -82 300 -234 300c-149 0 -234 -85 -234 -300c0 -213 87 -300 234 -300z" />
    <glyph glyph-name="P" unicode="P" horiz-adv-x="620" 
d="M110 0v695s90 10 185 10c197 0 270 -73 270 -230s-83 -240 -270 -240c-75 0 -121 6 -121 6v-241h-64zM499 475c0 122 -48 170 -204 170c-75 0 -121 -5 -121 -5v-339s46 -6 121 -6c148 0 204 56 204 180z" />
    <glyph glyph-name="Q" unicode="Q" horiz-adv-x="710" 
d="M355 -10c-190 0 -300 110 -300 360c0 252 108 360 300 360c197 0 300 -103 300 -360c0 -215 -79 -326 -221 -353l139 -157h-80l-131 150h-7zM355 50c151 0 234 83 234 300c0 218 -82 300 -234 300c-149 0 -234 -85 -234 -300c0 -213 87 -300 234 -300z" />
    <glyph glyph-name="R" unicode="R" horiz-adv-x="640" 
d="M506 0l-166 289c-17 -2 -36 -3 -55 -3h-111v-286h-64v695s80 10 175 10c182 0 250 -68 250 -210c0 -96 -41 -163 -130 -193l175 -302h-74zM469 495c0 107 -43 150 -184 150c-55 0 -111 -3 -111 -3v-298h111c131 0 184 53 184 151z" />
    <glyph glyph-name="S" unicode="S" horiz-adv-x="580" 
d="M280 -10c-81 0 -156 26 -195 55v80c44 -39 113 -75 195 -75c113 0 159 46 159 130c0 200 -349 100 -349 350c0 115 65 180 220 180c69 0 128 -16 165 -35v-80c-36 32 -102 55 -165 55c-116 0 -154 -38 -154 -120c0 -195 349 -85 349 -350c0 -120 -70 -190 -225 -190z" />
    <glyph glyph-name="T" unicode="T" horiz-adv-x="580" 
d="M258 0v642h-218v58h500v-58h-218v-642h-64z" />
    <glyph glyph-name="U" unicode="U" horiz-adv-x="670" 
d="M335 -10c-171 0 -250 79 -250 275v435h64v-435c0 -162 53 -215 186 -215c135 0 186 51 186 215v435h64v-435c0 -196 -79 -275 -250 -275z" />
    <glyph glyph-name="V" unicode="V" horiz-adv-x="620" 
d="M280 0l-255 700h70l222 -620l212 620h66l-245 -700h-70z" />
    <glyph glyph-name="W" unicode="W" horiz-adv-x="900" 
d="M205 0l-170 700h66l119 -490c12 -51 15 -70 25 -120h2c10 50 15 69 29 120l139 490h70l142 -490c15 -51 18 -70 29 -120h2c8 50 12 70 24 120l119 490h64l-170 -700h-70l-145 500c-18 60 -31 120 -31 120h-2s-12 -60 -30 -120l-142 -500h-70z" />
    <glyph glyph-name="X" unicode="X" horiz-adv-x="630" 
d="M102 0h-72l248 360l-233 340h74l197 -287l197 287h72l-233 -338l248 -362h-74l-212 308z" />
    <glyph glyph-name="Y" unicode="Y" horiz-adv-x="610" 
d="M278 0v280l-253 420h72l214 -360l206 360h68l-243 -420v-280h-64z" />
    <glyph glyph-name="Z" unicode="Z" horiz-adv-x="590" 
d="M55 0v48l390 594h-380v58h460v-48l-390 -594h400v-58h-480z" />
    <glyph glyph-name="bracketleft" unicode="[" horiz-adv-x="380" 
d="M120 -180v930h210v-56h-150v-818h150v-56h-210z" />
    <glyph glyph-name="backslash" unicode="\" horiz-adv-x="400" 
d="M321 -180l-306 930h64l306 -930h-64z" />
    <glyph glyph-name="bracketright" unicode="]" horiz-adv-x="380" 
d="M50 -180v56h150v818h-150v56h210v-930h-210z" />
    <glyph glyph-name="asciicircum" unicode="^" horiz-adv-x="600" 
d="M80 360l188 340h64l188 -340h-66l-155 285l-155 -285h-64z" />
    <glyph glyph-name="underscore" unicode="_" horiz-adv-x="420" 
d="M0 -180v58h420v-58h-420z" />
    <glyph glyph-name="grave" unicode="`" horiz-adv-x="300" 
d="M176 615l-106 130h84l76 -130h-54z" />
    <glyph glyph-name="a" unicode="a" horiz-adv-x="535" 
d="M230 -10c-112 0 -170 58 -170 155c0 102 53 155 210 155h120v55c0 85 -32 117 -135 117c-62 0 -117 -21 -155 -47v68c35 20 100 37 160 37c136 0 190 -54 190 -180v-350h-54l-6 95c-27 -58 -77 -105 -160 -105zM235 48c96 0 155 59 155 162v40h-120
c-114 0 -148 -34 -148 -105c0 -64 33 -97 113 -97z" />
    <glyph glyph-name="b" unicode="b" horiz-adv-x="590" 
d="M320 -10c-97 0 -145 48 -170 105l-6 -95h-54v750h60v-320c32 54 78 100 180 100c129 0 200 -71 200 -265c0 -201 -74 -275 -210 -275zM310 48c106 0 158 52 158 217c0 155 -52 207 -153 207c-106 0 -165 -59 -165 -174v-76c0 -110 64 -174 160 -174z" />
    <glyph glyph-name="c" unicode="c" horiz-adv-x="475" 
d="M305 -10c-162 0 -245 83 -245 275c0 180 85 265 235 265c59 0 104 -12 130 -24v-68c-29 19 -77 34 -130 34c-110 0 -173 -63 -173 -207c0 -153 64 -217 183 -217c48 0 101 18 130 40v-68c-27 -16 -68 -30 -130 -30z" />
    <glyph glyph-name="d" unicode="d" horiz-adv-x="590" 
d="M446 0l-6 95c-25 -57 -73 -105 -170 -105c-136 0 -210 74 -210 275c0 182 77 265 200 265c93 0 158 -40 180 -105v325h60v-750h-54zM122 265c0 -163 54 -217 159 -217c95 0 159 64 159 178v75c0 98 -50 171 -165 171c-102 0 -153 -56 -153 -207z" />
    <glyph glyph-name="e" unicode="e" horiz-adv-x="550" 
d="M300 -10c-159 0 -240 81 -240 270c0 186 84 270 220 270c140 0 210 -68 210 -258v-27h-370c1 -134 58 -197 180 -197c65 0 119 24 155 55v-68c-27 -19 -82 -45 -155 -45zM280 472c-101 0 -157 -53 -160 -175h310c0 108 -34 175 -150 175z" />
    <glyph glyph-name="f" unicode="f" horiz-adv-x="400" 
d="M140 0v464h-100v56h100v85c0 104 46 150 145 150c32 0 59 -5 75 -11v-68c-18 12 -47 21 -80 21c-60 0 -80 -20 -80 -102v-75h160v-56h-160v-464h-60z" />
    <glyph glyph-name="g" unicode="g" horiz-adv-x="590" 
d="M280 -190c-83 0 -144 19 -180 39v78c27 -27 96 -59 175 -59c117 0 165 48 165 147v90c-25 -57 -73 -105 -170 -105c-136 0 -210 74 -210 270c0 177 77 260 200 260c93 0 158 -40 180 -105l6 95h54v-500c0 -140 -70 -210 -220 -210zM281 58c95 0 159 69 159 178v71
c0 92 -50 165 -165 165c-102 0 -153 -56 -153 -202c0 -158 54 -212 159 -212z" />
    <glyph glyph-name="h" unicode="h" horiz-adv-x="585" 
d="M90 0v750h60v-325c30 63 77 105 170 105c122 0 180 -58 180 -200v-330h-60v310c0 123 -39 162 -135 162s-155 -59 -155 -162v-310h-60z" />
    <glyph glyph-name="i" unicode="i" horiz-adv-x="290" 
d="M115 0v520h60v-520h-60zM145 638c-27 0 -42 15 -42 42s15 42 42 42s42 -15 42 -42s-15 -42 -42 -42z" />
    <glyph glyph-name="j" unicode="j" horiz-adv-x="290" 
d="M46 -185c-31 0 -57 4 -70 10v68c17 -11 41 -20 70 -20c47 0 69 22 69 92v555h60v-555c0 -106 -44 -150 -129 -150zM145 638c-27 0 -42 15 -42 42s15 42 42 42s42 -15 42 -42s-15 -42 -42 -42z" />
    <glyph glyph-name="k" unicode="k" horiz-adv-x="555" 
d="M90 0v750h60v-452h70l192 222h76l-217 -249l239 -271h-78l-212 242h-70v-242h-60z" />
    <glyph glyph-name="l" unicode="l" horiz-adv-x="315" 
d="M205 -5c-82 0 -120 40 -120 120v635h60v-625c0 -57 19 -72 65 -72c25 0 51 8 65 15v-58c-14 -7 -40 -15 -70 -15z" />
    <glyph glyph-name="m" unicode="m" horiz-adv-x="835" 
d="M90 0v520h54l6 -90c27 65 73 100 150 100c84 0 129 -43 139 -110c31 84 82 110 159 110c91 0 152 -61 152 -190v-340h-60v320c0 110 -42 152 -114 152c-75 0 -126 -51 -126 -152v-320h-60v320c0 110 -42 152 -110 152c-79 0 -130 -51 -130 -152v-320h-60z" />
    <glyph glyph-name="n" unicode="n" horiz-adv-x="585" 
d="M90 0v520h54l6 -95c30 62 77 105 170 105c122 0 180 -58 180 -200v-330h-60v310c0 123 -39 162 -135 162s-155 -59 -155 -162v-310h-60z" />
    <glyph glyph-name="o" unicode="o" horiz-adv-x="570" 
d="M285 -10c-145 0 -225 81 -225 270c0 182 88 270 225 270c148 0 225 -77 225 -270c0 -189 -82 -270 -225 -270zM285 472c-104 0 -163 -59 -163 -212c0 -158 54 -212 163 -212s163 54 163 212s-54 212 -163 212z" />
    <glyph glyph-name="p" unicode="p" horiz-adv-x="590" 
d="M90 -180v700h54l6 -90c32 54 78 100 180 100c129 0 200 -71 200 -265c0 -201 -74 -275 -210 -275c-97 0 -145 48 -170 105v-275h-60zM468 265c0 155 -52 207 -153 207c-106 0 -165 -59 -165 -174v-76c0 -110 64 -174 160 -174c106 0 158 52 158 217z" />
    <glyph glyph-name="q" unicode="q" horiz-adv-x="590" 
d="M440 -180v275c-25 -57 -73 -105 -170 -105c-136 0 -210 74 -210 275c0 182 77 265 200 265c93 0 158 -40 180 -105l6 95h54v-700h-60zM122 265c0 -163 54 -217 159 -217c95 0 159 64 159 178v75c0 98 -50 171 -165 171c-102 0 -153 -56 -153 -207z" />
    <glyph glyph-name="r" unicode="r" horiz-adv-x="410" 
d="M90 0v520h49l6 -95c26 75 80 105 151 105c20 0 42 -3 54 -8v-68c-18 11 -40 18 -73 18c-78 0 -127 -49 -127 -162v-310h-60z" />
    <glyph glyph-name="s" unicode="s" horiz-adv-x="475" 
d="M230 -10c-65 0 -110 12 -150 30v78c40 -33 90 -50 150 -50c80 0 113 33 113 92c0 145 -268 50 -268 245c0 92 53 145 175 145c55 0 106 -14 130 -24v-73c-35 24 -80 39 -130 39c-83 0 -113 -30 -113 -82c0 -140 268 -40 268 -245c0 -103 -53 -155 -175 -155z" />
    <glyph glyph-name="t" unicode="t" horiz-adv-x="435" 
d="M280 -5c-95 0 -140 45 -140 150v319h-100v56h100v110l60 20v-130h180v-56h-180v-319c0 -69 23 -92 80 -92c47 0 76 15 100 33v-68c-18 -13 -58 -23 -100 -23z" />
    <glyph glyph-name="u" unicode="u" horiz-adv-x="580" 
d="M490 520v-520h-54l-6 95c-30 -58 -77 -105 -170 -105c-117 0 -175 58 -175 200v330h60v-310c0 -123 39 -162 130 -162c96 0 155 59 155 162v310h60z" />
    <glyph glyph-name="v" unicode="v" horiz-adv-x="520" 
d="M230 0l-205 520h66l170 -445l170 445h64l-205 -520h-60z" />
    <glyph glyph-name="w" unicode="w" horiz-adv-x="760" 
d="M175 0l-130 520h62l90 -360c10 -40 18 -80 18 -80h2s9 40 21 80l110 360h70l110 -360c12 -40 20 -80 20 -80h2s5 40 15 80l90 360h60l-130 -520h-70l-113 370c-12 40 -21 80 -21 80h-2s-9 -40 -21 -80l-113 -370h-70z" />
    <glyph glyph-name="x" unicode="x" horiz-adv-x="540" 
d="M45 0l191 270l-176 250h70l141 -201l141 201h68l-176 -249l191 -271h-70l-156 223l-156 -223h-68z" />
    <glyph glyph-name="y" unicode="y" horiz-adv-x="520" 
d="M150 -190c-21 0 -39 4 -50 10v64c12 -9 27 -16 50 -16c34 0 55 15 94 132l-219 520h66l183 -445l157 445h64l-194 -530c-58 -158 -91 -180 -151 -180z" />
    <glyph glyph-name="z" unicode="z" horiz-adv-x="490" 
d="M50 0v40l302 424h-292v56h370v-40l-302 -424h312v-56h-390z" />
    <glyph glyph-name="braceleft" unicode="{" horiz-adv-x="380" 
d="M125 -31v176c0 71 -25 110 -80 113v54c55 3 80 47 80 114v175c0 77 26 149 139 149h61v-56h-57c-68 0 -83 -43 -83 -98v-172c0 -70 -10 -118 -80 -139c70 -16 80 -75 80 -143v-168c0 -55 15 -98 83 -98h57v-56h-61c-113 0 -139 71 -139 149z" />
    <glyph glyph-name="bar" unicode="|" horiz-adv-x="300" 
d="M120 -180v930h60v-930h-60z" />
    <glyph glyph-name="braceright" unicode="}" horiz-adv-x="380" 
d="M255 601v-176c0 -71 25 -110 80 -113v-54c-55 -3 -80 -47 -80 -114v-175c0 -77 -26 -149 -139 -149h-61v56h57c68 0 83 43 83 98v172c0 70 10 118 80 139c-70 16 -80 75 -80 143v168c0 55 -15 98 -83 98h-57v56h61c113 0 139 -71 139 -149z" />
    <glyph glyph-name="asciitilde" unicode="~" horiz-adv-x="600" 
d="M100 312v72c25 28 55 47 100 47c85 0 135 -80 200 -80c45 0 75 30 100 57v-72c-25 -28 -55 -47 -100 -47c-85 0 -135 80 -200 80c-45 0 -75 -30 -100 -57z" />
    <glyph glyph-name="uni00A0" unicode="&#xa0;" horiz-adv-x="250" 
 />
    <glyph glyph-name="exclamdown" unicode="&#xa1;" horiz-adv-x="330" 
d="M165 525c32 0 50 -18 50 -50s-18 -50 -50 -50s-50 18 -50 50s18 50 50 50zM197 300v-480h-64v480h64z" />
    <glyph glyph-name="cent" unicode="&#xa2;" horiz-adv-x="600" 
d="M315 -120v114c-132 18 -195 103 -195 271c0 160 67 245 195 262v93h60v-90c72 -2 105 -18 130 -29v-68c-29 19 -67 39 -140 39c-120 0 -183 -63 -183 -207c0 -153 64 -217 193 -217c68 0 111 23 140 45v-68c-27 -16 -58 -35 -140 -35v-110h-60z" />
    <glyph glyph-name="sterling" unicode="&#xa3;" horiz-adv-x="600" 
d="M45 0v58h120v275h-120v54h120v90c0 80 22 233 219 233c68 0 116 -18 141 -27v-63c-34 15 -74 32 -143 32c-112 0 -153 -78 -153 -176v-89h191v-54h-191v-275h296v-58h-480z" />
    <glyph glyph-name="currency" unicode="&#xa4;" horiz-adv-x="600" 
d="M488 125l-67 67c-34 -26 -76 -42 -122 -42s-88 16 -122 42l-66 -66l-36 36l66 66c-26 34 -42 76 -42 122s16 88 42 122l-66 66l37 37l66 -66c33 25 75 41 121 41s88 -16 122 -42l68 68l36 -36l-68 -68c26 -34 42 -76 42 -122s-16 -88 -41 -121l67 -67zM299 206
c79 0 144 65 144 144s-65 144 -144 144s-144 -65 -144 -144s65 -144 144 -144z" />
    <glyph glyph-name="yen" unicode="&#xa5;" horiz-adv-x="600" 
d="M95 272v54h146l-216 374h72l209 -368l201 368h68l-208 -374h148v-54h-178v-74h178v-54h-178v-144h-64v144h-178v54h178v74h-178z" />
    <glyph glyph-name="brokenbar" unicode="&#xa6;" horiz-adv-x="300" 
d="M120 -180v390h60v-390h-60zM120 360v390h60v-390h-60z" />
    <glyph glyph-name="section" unicode="&#xa7;" horiz-adv-x="530" 
d="M243 -110c-49 0 -113 10 -153 29v66c49 -27 98 -37 149 -37c104 0 130 31 130 78c0 45 -52 78 -128 113c-109 50 -171 82 -171 171c0 56 39 103 100 145c-47 28 -75 63 -75 112c0 98 78 143 192 143c61 0 111 -14 138 -24v-66c-48 22 -90 32 -142 32
c-78 0 -122 -23 -122 -79c0 -42 30 -66 111 -107c70 -35 188 -72 188 -172c0 -50 -37 -105 -95 -151c44 -31 70 -64 70 -112c0 -108 -86 -141 -192 -141zM321 168c34 31 73 68 73 116c0 45 -28 75 -91 106c-13 6 -67 30 -86 41c-48 -32 -81 -66 -81 -109
c0 -49 20 -73 92 -110c13 -7 78 -36 93 -44z" />
    <glyph glyph-name="dieresis" unicode="&#xa8;" horiz-adv-x="410" 
d="M117 638c-27 0 -42 15 -42 42s15 42 42 42s42 -15 42 -42s-15 -42 -42 -42zM293 638c-27 0 -42 15 -42 42s15 42 42 42s42 -15 42 -42s-15 -42 -42 -42z" />
    <glyph glyph-name="copyright" unicode="&#xa9;" horiz-adv-x="830" 
d="M428 150c-130 0 -188 77 -188 200c0 134 68 200 188 200c34 0 61 -4 82 -11v-44c-24 9 -53 11 -77 11c-94 0 -139 -52 -139 -156c0 -111 51 -156 139 -156c24 0 52 3 77 14v-45c-23 -8 -49 -13 -82 -13zM415 -10c-203 0 -360 157 -360 360s157 360 360 360
s360 -157 360 -360s-157 -360 -360 -360zM415 42c173 0 306 133 306 308s-133 308 -306 308s-306 -133 -306 -308s133 -308 306 -308z" />
    <glyph glyph-name="ordfeminine" unicode="&#xaa;" horiz-adv-x="370" 
d="M157 375c-75 0 -112 33 -112 97c0 63 39 102 135 102h81v17c0 45 -21 66 -86 66c-32 0 -72 -12 -100 -26v55c28 11 65 19 107 19c100 0 133 -41 133 -123v-202h-46l-8 55c-17 -28 -47 -60 -104 -60zM171 423c55 0 90 39 90 83v24h-73c-66 0 -87 -17 -87 -55
c0 -36 22 -52 70 -52z" />
    <glyph glyph-name="guillemotleft" unicode="&#xab;" horiz-adv-x="550" 
d="M60 269l136 206h64l-135 -204l135 -206h-66zM270 269l136 206h64l-135 -204l135 -206h-66z" />
    <glyph glyph-name="logicalnot" unicode="&#xac;" horiz-adv-x="600" 
d="M442 200v131h-342v58h400v-189h-58z" />
    <glyph glyph-name="uni00AD" unicode="&#xad;" horiz-adv-x="400" 
d="M50 241v58h300v-58h-300z" />
    <glyph glyph-name="registered" unicode="&#xae;" horiz-adv-x="600" 
d="M50 515c0 148 101 245 250 245s250 -97 250 -245s-101 -245 -250 -245s-250 97 -250 245zM90 516c0 -125 87 -209 210 -209s210 84 210 209s-87 208 -210 208s-210 -83 -210 -208zM205 387v271h103c35 0 91 -5 91 -82c0 -41 -23 -69 -50 -76l70 -113h-51l-64 106h-54
v-106h-45zM250 531h54c25 0 50 9 50 45c0 37 -23 43 -50 43h-54v-88z" />
    <glyph glyph-name="macron" unicode="&#xaf;" horiz-adv-x="320" 
d="M40 645v50h240v-50h-240z" />
    <glyph glyph-name="degree" unicode="&#xb0;" horiz-adv-x="400" 
d="M201 390c-89 0 -161 72 -161 160s72 160 161 160c87 0 159 -72 159 -160s-72 -160 -159 -160zM201 450c55 0 100 45 100 100s-45 100 -100 100s-100 -45 -100 -100s45 -100 100 -100z" />
    <glyph glyph-name="plusminus" unicode="&#xb1;" horiz-adv-x="600" 
d="M271 235v171h-171v58h171v171h58v-171h171v-58h-171v-171h-58zM100 85v58h400v-58h-400z" />
    <glyph glyph-name="twosuperior" unicode="&#xb2;" 
d="M60 380v54l118 85c91 66 136 105 136 159c0 55 -43 77 -105 77c-48 0 -96 -10 -129 -27v53c43 17 87 24 136 24c91 0 159 -32 159 -116c0 -72 -52 -127 -163 -202l-80 -55v-1h248v-51h-320z" />
    <glyph glyph-name="threesuperior" unicode="&#xb3;" 
d="M129 576v43h73c71 0 109 23 109 68c0 51 -38 68 -112 68c-47 0 -99 -6 -132 -21v51c39 16 98 20 149 20c101 0 153 -40 153 -106c0 -58 -42 -84 -105 -98v-2c90 -12 116 -56 116 -99c0 -93 -92 -125 -178 -125c-47 0 -99 3 -142 20v52c36 -17 86 -22 136 -22
c90 0 124 33 124 75c0 55 -40 76 -114 76h-77z" />
    <glyph glyph-name="acute" unicode="&#xb4;" horiz-adv-x="300" 
d="M70 615l78 130h82l-108 -130h-52z" />
    <glyph glyph-name="mu" unicode="&#xb5;" horiz-adv-x="585" 
d="M90 -180v700h60v-310c0 -123 39 -162 130 -162c96 0 155 59 155 162v310h60v-520h-54l-6 95c-30 -58 -77 -105 -170 -105c-51 0 -89 12 -115 39v-209h-60z" />
    <glyph glyph-name="mu" unicode="&#x3bc;" horiz-adv-x="585" 
d="M90 -180v700h60v-310c0 -123 39 -162 130 -162c96 0 155 59 155 162v310h60v-520h-54l-6 95c-30 -58 -77 -105 -170 -105c-51 0 -89 12 -115 39v-209h-60z" />
    <glyph glyph-name="paragraph" unicode="&#xb6;" horiz-adv-x="570" 
d="M223 -180v564c-110 0 -163 68 -163 155c0 136 114 161 187 161h213v-880h-60v824h-117v-824h-60z" />
    <glyph glyph-name="periodcentered" unicode="&#xb7;" horiz-adv-x="320" 
d="M160 305c-32 0 -50 18 -50 50s18 50 50 50s50 -18 50 -50s-18 -50 -50 -50z" />
    <glyph glyph-name="cedilla" unicode="&#xb8;" horiz-adv-x="250" 
d="M110 -210c-31 0 -52 7 -70 15l6 42c20 -9 35 -13 59 -13c34 0 51 17 51 43s-17 43 -56 43c-10 0 -24 -1 -31 -2l18 92h40l-12 -55c65 0 95 -30 95 -78c0 -52 -35 -87 -100 -87z" />
    <glyph glyph-name="onesuperior" unicode="&#xb9;" 
d="M230 380v354l-126 -66l-24 45l164 87h46v-420h-60z" />
    <glyph glyph-name="ordmasculine" unicode="&#xba;" horiz-adv-x="370" 
d="M185 375c-109 0 -150 61 -150 165s41 165 150 165s150 -61 150 -165s-41 -165 -150 -165zM185 423c62 0 94 32 94 117s-32 117 -94 117s-94 -32 -94 -117s32 -117 94 -117z" />
    <glyph glyph-name="guillemotright" unicode="&#xbb;" horiz-adv-x="550" 
d="M80 65l135 204l-135 206h66l134 -204l-136 -206h-64zM290 65l135 204l-135 206h66l134 -204l-136 -206h-64z" />
    <glyph glyph-name="onequarter" unicode="&#xbc;" horiz-adv-x="950" 
d="M200 0l476 700h64l-476 -700h-64zM211 280v354l-126 -66l-24 45l164 87h46v-420h-60zM496 99v46l259 274h71v-271h55v-49h-55v-100h-55v100h-275zM771 148v216h-1l-205 -216h206z" />
    <glyph glyph-name="onehalf" unicode="&#xbd;" horiz-adv-x="950" 
d="M170 0l476 700h64l-476 -700h-64zM207 280v354l-126 -66l-24 45l164 87h46v-420h-60zM561 -1v54l118 85c91 66 136 105 136 159c0 55 -43 77 -105 77c-48 0 -96 -10 -129 -27v53c43 17 87 24 136 24c91 0 159 -32 159 -116c0 -72 -52 -127 -163 -202l-80 -55v-1h248v-51
h-320z" />
    <glyph glyph-name="threequarters" unicode="&#xbe;" horiz-adv-x="950" 
d="M230 0l476 700h64l-476 -700h-64zM502 99v46l259 274h71v-271h55v-49h-55v-100h-55v100h-275zM777 148v216h-1l-205 -216h206zM128 476v43h73c71 0 109 23 109 68c0 51 -38 68 -112 68c-47 0 -99 -6 -132 -21v51c39 16 98 20 149 20c101 0 153 -40 153 -106
c0 -58 -42 -84 -105 -98v-2c90 -12 116 -56 116 -99c0 -93 -92 -125 -178 -125c-47 0 -99 3 -142 20v52c36 -17 86 -22 136 -22c90 0 124 33 124 75c0 55 -40 76 -114 76h-77z" />
    <glyph glyph-name="questiondown" unicode="&#xbf;" horiz-adv-x="480" 
d="M285 525c32 0 50 -18 50 -50s-18 -50 -50 -50s-50 18 -50 50s18 50 50 50zM315 310c0 -187 -198 -157 -198 -320c0 -76 44 -120 151 -120c67 0 115 18 157 42v-70c-51 -23 -110 -32 -157 -32c-151 0 -213 62 -213 180c0 194 200 170 200 320h60z" />
    <glyph glyph-name="Agrave" unicode="&#xc0;" horiz-adv-x="640" 
d="M25 0l263 700h64l263 -700h-70l-73 201h-308l-73 -201h-66zM318 625l-133 -366h266zM289 775l-114 130h86l84 -130h-56z" />
    <glyph glyph-name="Aacute" unicode="&#xc1;" horiz-adv-x="640" 
d="M25 0l263 700h64l263 -700h-70l-73 201h-308l-73 -201h-66zM318 625l-133 -366h266zM288 775l86 130h84l-116 -130h-54z" />
    <glyph glyph-name="Acircumflex" unicode="&#xc2;" horiz-adv-x="640" 
d="M25 0l263 700h64l263 -700h-70l-73 201h-308l-73 -201h-66zM318 625l-133 -366h266zM170 775l113 130h74l113 -130h-58l-93 88l-93 -88h-56z" />
    <glyph glyph-name="Atilde" unicode="&#xc3;" horiz-adv-x="640" 
d="M25 0l263 700h64l263 -700h-70l-73 201h-308l-73 -201h-66zM318 625l-133 -366h266zM216 785l-41 11c5 49 38 80 81 80c24 0 43 -7 70 -19c24 -11 42 -22 59 -22s33 7 40 39l40 -11c-7 -52 -43 -79 -79 -79c-20 0 -33 0 -72 19c-23 11 -39 22 -56 22s-34 -6 -42 -40z" />
    <glyph glyph-name="Adieresis" unicode="&#xc4;" horiz-adv-x="640" 
d="M25 0l263 700h64l263 -700h-70l-73 201h-308l-73 -201h-66zM318 625l-133 -366h266zM224 796c-28 0 -44 16 -44 44s16 44 44 44s44 -16 44 -44s-16 -44 -44 -44zM416 796c-28 0 -44 16 -44 44s16 44 44 44s44 -16 44 -44s-16 -44 -44 -44z" />
    <glyph glyph-name="Aring" unicode="&#xc5;" horiz-adv-x="640" 
d="M25 0l263 700h64l263 -700h-70l-73 201h-308l-73 -201h-66zM318 625l-133 -366h266zM228 840c0 53 39 92 92 92s92 -39 92 -92s-39 -92 -92 -92s-92 39 -92 92zM268 840c0 -32 20 -52 52 -52s52 20 52 52s-20 52 -52 52s-52 -20 -52 -52z" />
    <glyph glyph-name="AE" unicode="&#xc6;" horiz-adv-x="935" 
d="M470 0v200h-260l-116 -200h-69l409 700h441v-58h-341v-253h301v-58h-301v-273h341v-58h-405zM244 258h226v387z" />
    <glyph glyph-name="Ccedilla" unicode="&#xc7;" horiz-adv-x="575" 
d="M335 -210c-31 0 -58 7 -75 15l6 44c20 -9 40 -13 64 -13c39 0 54 15 54 41s-15 41 -59 41c-15 0 -25 -1 -32 -2l14 77c-164 16 -252 124 -252 362c0 247 108 355 295 355c100 0 164 -25 164 -25v-70c-38 22 -94 35 -164 35c-148 0 -229 -81 -229 -295
c0 -220 85 -305 234 -305c74 0 136 27 170 45v-70s-75 -35 -170 -35h-7l-7 -35c69 0 99 -30 99 -78c0 -52 -35 -87 -105 -87z" />
    <glyph glyph-name="Egrave" unicode="&#xc8;" horiz-adv-x="575" 
d="M110 0v700h405v-58h-341v-253h301v-58h-301v-273h341v-58h-405zM289 775l-114 130h86l84 -130h-56z" />
    <glyph glyph-name="Eacute" unicode="&#xc9;" horiz-adv-x="575" 
d="M110 0v700h405v-58h-341v-253h301v-58h-301v-273h341v-58h-405zM280 775l86 130h84l-116 -130h-54z" />
    <glyph glyph-name="Ecircumflex" unicode="&#xca;" horiz-adv-x="575" 
d="M110 0v700h405v-58h-341v-253h301v-58h-301v-273h341v-58h-405zM162 775l113 130h74l113 -130h-58l-93 88l-93 -88h-56z" />
    <glyph glyph-name="Edieresis" unicode="&#xcb;" horiz-adv-x="575" 
d="M110 0v700h405v-58h-341v-253h301v-58h-301v-273h341v-58h-405zM216 796c-28 0 -44 16 -44 44s16 44 44 44s44 -16 44 -44s-16 -44 -44 -44zM408 796c-28 0 -44 16 -44 44s16 44 44 44s44 -16 44 -44s-16 -44 -44 -44z" />
    <glyph glyph-name="Igrave" unicode="&#xcc;" horiz-adv-x="330" 
d="M133 0v700h64v-700h-64zM137 775l-114 130h86l84 -130h-56z" />
    <glyph glyph-name="Iacute" unicode="&#xcd;" horiz-adv-x="330" 
d="M133 0v700h64v-700h-64zM138 775l86 130h84l-116 -130h-54z" />
    <glyph glyph-name="Icircumflex" unicode="&#xce;" horiz-adv-x="330" 
d="M133 0v700h64v-700h-64zM15 775l113 130h74l113 -130h-58l-93 88l-93 -88h-56z" />
    <glyph glyph-name="Idieresis" unicode="&#xcf;" horiz-adv-x="330" 
d="M133 0v700h64v-700h-64zM69 796c-28 0 -44 16 -44 44s16 44 44 44s44 -16 44 -44s-16 -44 -44 -44zM261 796c-28 0 -44 16 -44 44s16 44 44 44s44 -16 44 -44s-16 -44 -44 -44z" />
    <glyph glyph-name="Eth" unicode="&#xd0;" horiz-adv-x="690" 
d="M20 328v54h100v313s90 10 180 10c244 0 335 -91 335 -345c0 -259 -106 -365 -335 -365c-90 0 -180 10 -180 10v323h-100zM569 360c0 220 -65 285 -269 285c-70 0 -116 -6 -116 -6v-257h186v-54h-186v-267s46 -6 116 -6c189 0 269 80 269 305z" />
    <glyph glyph-name="Ntilde" unicode="&#xd1;" horiz-adv-x="740" 
d="M110 0v700h66l331 -500c33 -50 60 -100 60 -100h2s-3 50 -3 100v500h64v-700h-66l-331 500c-39 60 -60 100 -60 100h-2s3 -40 3 -100v-500h-64zM266 785l-41 11c5 49 38 80 81 80c24 0 43 -7 70 -19c24 -11 42 -22 59 -22s33 7 40 39l40 -11c-7 -52 -43 -79 -79 -79
c-20 0 -33 0 -72 19c-23 11 -39 22 -56 22s-34 -6 -42 -40z" />
    <glyph glyph-name="Ograve" unicode="&#xd2;" horiz-adv-x="710" 
d="M355 -10c-190 0 -300 110 -300 360c0 252 108 360 300 360c197 0 300 -103 300 -360c0 -252 -108 -360 -300 -360zM355 50c151 0 234 83 234 300c0 218 -82 300 -234 300c-149 0 -234 -85 -234 -300c0 -213 87 -300 234 -300zM332 775l-114 130h86l84 -130h-56z" />
    <glyph glyph-name="Oacute" unicode="&#xd3;" horiz-adv-x="710" 
d="M355 -10c-190 0 -300 110 -300 360c0 252 108 360 300 360c197 0 300 -103 300 -360c0 -252 -108 -360 -300 -360zM355 50c151 0 234 83 234 300c0 218 -82 300 -234 300c-149 0 -234 -85 -234 -300c0 -213 87 -300 234 -300zM323 775l86 130h84l-116 -130h-54z" />
    <glyph glyph-name="Ocircumflex" unicode="&#xd4;" horiz-adv-x="710" 
d="M355 -10c-190 0 -300 110 -300 360c0 252 108 360 300 360c197 0 300 -103 300 -360c0 -252 -108 -360 -300 -360zM355 50c151 0 234 83 234 300c0 218 -82 300 -234 300c-149 0 -234 -85 -234 -300c0 -213 87 -300 234 -300zM205 775l113 130h74l113 -130h-58l-93 88
l-93 -88h-56z" />
    <glyph glyph-name="Otilde" unicode="&#xd5;" horiz-adv-x="710" 
d="M355 -10c-190 0 -300 110 -300 360c0 252 108 360 300 360c197 0 300 -103 300 -360c0 -252 -108 -360 -300 -360zM355 50c151 0 234 83 234 300c0 218 -82 300 -234 300c-149 0 -234 -85 -234 -300c0 -213 87 -300 234 -300zM251 785l-41 11c5 49 38 80 81 80
c24 0 43 -7 70 -19c24 -11 42 -22 59 -22s33 7 40 39l40 -11c-7 -52 -43 -79 -79 -79c-20 0 -33 0 -72 19c-23 11 -39 22 -56 22s-34 -6 -42 -40z" />
    <glyph glyph-name="Odieresis" unicode="&#xd6;" horiz-adv-x="710" 
d="M355 -10c-190 0 -300 110 -300 360c0 252 108 360 300 360c197 0 300 -103 300 -360c0 -252 -108 -360 -300 -360zM355 50c151 0 234 83 234 300c0 218 -82 300 -234 300c-149 0 -234 -85 -234 -300c0 -213 87 -300 234 -300zM259 796c-28 0 -44 16 -44 44s16 44 44 44
s44 -16 44 -44s-16 -44 -44 -44zM451 796c-28 0 -44 16 -44 44s16 44 44 44s44 -16 44 -44s-16 -44 -44 -44z" />
    <glyph glyph-name="multiply" unicode="&#xd7;" horiz-adv-x="600" 
d="M165 185l-40 40l135 135l-135 135l40 40l135 -135l135 135l40 -40l-135 -135l135 -135l-40 -40l-135 135z" />
    <glyph glyph-name="Oslash" unicode="&#xd8;" horiz-adv-x="710" 
d="M355 -10c-79 0 -143 19 -192 58l-58 -78l-40 30l62 84c-47 59 -72 146 -72 266c0 252 108 360 300 360c81 0 145 -18 194 -56l56 76l40 -30l-60 -81c46 -58 70 -146 70 -269c0 -252 -108 -360 -300 -360zM355 50c151 0 234 83 234 300c0 95 -16 164 -46 212l-342 -462
c39 -34 91 -50 154 -50zM121 350c0 -93 16 -162 47 -210l342 461c-39 34 -91 49 -155 49c-149 0 -234 -85 -234 -300z" />
    <glyph glyph-name="Ugrave" unicode="&#xd9;" horiz-adv-x="670" 
d="M335 -10c-171 0 -250 79 -250 275v435h64v-435c0 -162 53 -215 186 -215c135 0 186 51 186 215v435h64v-435c0 -196 -79 -275 -250 -275zM312 775l-114 130h86l84 -130h-56z" />
    <glyph glyph-name="Uacute" unicode="&#xda;" horiz-adv-x="670" 
d="M335 -10c-171 0 -250 79 -250 275v435h64v-435c0 -162 53 -215 186 -215c135 0 186 51 186 215v435h64v-435c0 -196 -79 -275 -250 -275zM303 775l86 130h84l-116 -130h-54z" />
    <glyph glyph-name="Ucircumflex" unicode="&#xdb;" horiz-adv-x="670" 
d="M335 -10c-171 0 -250 79 -250 275v435h64v-435c0 -162 53 -215 186 -215c135 0 186 51 186 215v435h64v-435c0 -196 -79 -275 -250 -275zM185 775l113 130h74l113 -130h-58l-93 88l-93 -88h-56z" />
    <glyph glyph-name="Udieresis" unicode="&#xdc;" horiz-adv-x="670" 
d="M335 -10c-171 0 -250 79 -250 275v435h64v-435c0 -162 53 -215 186 -215c135 0 186 51 186 215v435h64v-435c0 -196 -79 -275 -250 -275zM239 796c-28 0 -44 16 -44 44s16 44 44 44s44 -16 44 -44s-16 -44 -44 -44zM431 796c-28 0 -44 16 -44 44s16 44 44 44
s44 -16 44 -44s-16 -44 -44 -44z" />
    <glyph glyph-name="Yacute" unicode="&#xdd;" horiz-adv-x="610" 
d="M278 0v280l-253 420h72l214 -360l206 360h68l-243 -420v-280h-64zM273 775l86 130h84l-116 -130h-54z" />
    <glyph glyph-name="Thorn" unicode="&#xde;" horiz-adv-x="620" 
d="M110 0v700h64v-114c34 2 77 4 121 4c197 0 270 -73 270 -230s-83 -240 -270 -240c-75 0 -121 6 -121 6v-126h-64zM499 360c0 122 -48 170 -204 170c-75 0 -121 -5 -121 -5v-339s46 -6 121 -6c148 0 204 56 204 180z" />
    <glyph glyph-name="germandbls" unicode="&#xdf;" horiz-adv-x="615" 
d="M90 0v520c0 155 75 240 220 240c135 0 205 -70 205 -189c0 -79 -35 -137 -105 -164v-3c101 -11 140 -87 140 -190c0 -154 -70 -224 -220 -224c-45 0 -80 8 -101 14v56c21 -6 52 -14 101 -14c108 0 158 50 158 168c0 108 -50 158 -148 158h-75v56h65c73 0 123 50 123 143
c0 83 -50 133 -143 133c-110 0 -160 -60 -160 -184v-520h-60z" />
    <glyph glyph-name="agrave" unicode="&#xe0;" horiz-adv-x="535" 
d="M230 -10c-112 0 -170 58 -170 155c0 102 53 155 210 155h120v55c0 85 -32 117 -135 117c-62 0 -117 -21 -155 -47v68c35 20 100 37 160 37c136 0 190 -54 190 -180v-350h-54l-6 95c-27 -58 -77 -105 -160 -105zM235 48c96 0 155 59 155 162v40h-120
c-114 0 -148 -34 -148 -105c0 -64 33 -97 113 -97zM253 615l-106 130h84l76 -130h-54z" />
    <glyph glyph-name="aacute" unicode="&#xe1;" horiz-adv-x="535" 
d="M230 -10c-112 0 -170 58 -170 155c0 102 53 155 210 155h120v55c0 85 -32 117 -135 117c-62 0 -117 -21 -155 -47v68c35 20 100 37 160 37c136 0 190 -54 190 -180v-350h-54l-6 95c-27 -58 -77 -105 -160 -105zM235 48c96 0 155 59 155 162v40h-120
c-114 0 -148 -34 -148 -105c0 -64 33 -97 113 -97zM244 615l78 130h82l-108 -130h-52z" />
    <glyph glyph-name="acircumflex" unicode="&#xe2;" horiz-adv-x="535" 
d="M230 -10c-112 0 -170 58 -170 155c0 102 53 155 210 155h120v55c0 85 -32 117 -135 117c-62 0 -117 -21 -155 -47v68c35 20 100 37 160 37c136 0 190 -54 190 -180v-350h-54l-6 95c-27 -58 -77 -105 -160 -105zM235 48c96 0 155 59 155 162v40h-120
c-114 0 -148 -34 -148 -105c0 -64 33 -97 113 -97zM130 615l110 130h70l110 -130h-56l-89 90l-91 -90h-54z" />
    <glyph glyph-name="atilde" unicode="&#xe3;" horiz-adv-x="535" 
d="M230 -10c-112 0 -170 58 -170 155c0 102 53 155 210 155h120v55c0 85 -32 117 -135 117c-62 0 -117 -21 -155 -47v68c35 20 100 37 160 37c136 0 190 -54 190 -180v-350h-54l-6 95c-27 -58 -77 -105 -160 -105zM235 48c96 0 155 59 155 162v40h-120
c-114 0 -148 -34 -148 -105c0 -64 33 -97 113 -97zM168 625l-41 11c5 49 33 80 76 80c24 0 43 -7 70 -19c24 -11 41 -22 59 -22c17 0 28 7 35 39l40 -11c-7 -52 -38 -79 -74 -79c-20 0 -33 0 -72 19c-23 11 -37 22 -56 22c-17 0 -29 -6 -37 -40z" />
    <glyph glyph-name="adieresis" unicode="&#xe4;" horiz-adv-x="535" 
d="M230 -10c-112 0 -170 58 -170 155c0 102 53 155 210 155h120v55c0 85 -32 117 -135 117c-62 0 -117 -21 -155 -47v68c35 20 100 37 160 37c136 0 190 -54 190 -180v-350h-54l-6 95c-27 -58 -77 -105 -160 -105zM235 48c96 0 155 59 155 162v40h-120
c-114 0 -148 -34 -148 -105c0 -64 33 -97 113 -97zM187 638c-27 0 -42 15 -42 42s15 42 42 42s42 -15 42 -42s-15 -42 -42 -42zM363 638c-27 0 -42 15 -42 42s15 42 42 42s42 -15 42 -42s-15 -42 -42 -42z" />
    <glyph glyph-name="aring" unicode="&#xe5;" horiz-adv-x="535" 
d="M230 -10c-112 0 -170 58 -170 155c0 102 53 155 210 155h120v55c0 85 -32 117 -135 117c-62 0 -117 -21 -155 -47v68c35 20 100 37 160 37c136 0 190 -54 190 -180v-350h-54l-6 95c-27 -58 -77 -105 -160 -105zM235 48c96 0 155 59 155 162v40h-120
c-114 0 -148 -34 -148 -105c0 -64 33 -97 113 -97zM185 680c0 53 37 90 90 90s90 -37 90 -90s-37 -90 -90 -90s-90 37 -90 90zM225 680c0 -31 19 -50 50 -50c30 0 50 20 50 50s-20 50 -50 50s-50 -20 -50 -50z" />
    <glyph glyph-name="ae" unicode="&#xe6;" horiz-adv-x="860" 
d="M620 -10c-98 0 -167 37 -201 121c-35 -82 -103 -121 -189 -121c-112 0 -170 58 -170 155c0 102 53 155 210 155h120v55c0 85 -32 117 -135 117c-62 0 -117 -21 -155 -47v68c35 20 100 37 160 37c95 0 150 -29 173 -94c36 64 95 94 167 94c130 0 200 -68 200 -258v-27
h-350c1 -134 58 -197 170 -197c60 0 109 16 145 45v-68c-26 -18 -77 -35 -145 -35zM235 48c96 0 155 59 155 162v40h-120c-114 0 -148 -34 -148 -105c0 -64 33 -97 113 -97zM600 472c-91 0 -147 -53 -150 -175h290c0 108 -34 175 -140 175z" />
    <glyph glyph-name="ccedilla" unicode="&#xe7;" horiz-adv-x="475" 
d="M280 -210c-31 0 -52 7 -70 15l6 42c20 -9 35 -13 59 -13c34 0 51 17 51 43s-17 43 -56 43c-10 0 -24 -1 -31 -2l14 75c-128 17 -193 101 -193 272c0 180 85 265 235 265c59 0 104 -12 130 -24v-68c-29 19 -77 34 -130 34c-110 0 -173 -63 -173 -207
c0 -153 64 -217 183 -217c48 0 101 18 130 40v-68c-27 -16 -68 -30 -130 -30h-13l-7 -35c65 0 95 -30 95 -78c0 -52 -35 -87 -100 -87z" />
    <glyph glyph-name="egrave" unicode="&#xe8;" horiz-adv-x="550" 
d="M300 -10c-159 0 -240 81 -240 270c0 186 84 270 220 270c140 0 210 -68 210 -258v-27h-370c1 -134 58 -197 180 -197c65 0 119 24 155 55v-68c-27 -19 -82 -45 -155 -45zM280 472c-101 0 -157 -53 -160 -175h310c0 108 -34 175 -150 175zM258 615l-106 130h84l76 -130
h-54z" />
    <glyph glyph-name="eacute" unicode="&#xe9;" horiz-adv-x="550" 
d="M300 -10c-159 0 -240 81 -240 270c0 186 84 270 220 270c140 0 210 -68 210 -258v-27h-370c1 -134 58 -197 180 -197c65 0 119 24 155 55v-68c-27 -19 -82 -45 -155 -45zM280 472c-101 0 -157 -53 -160 -175h310c0 108 -34 175 -150 175zM249 615l78 130h82l-108 -130
h-52z" />
    <glyph glyph-name="ecircumflex" unicode="&#xea;" horiz-adv-x="550" 
d="M300 -10c-159 0 -240 81 -240 270c0 186 84 270 220 270c140 0 210 -68 210 -258v-27h-370c1 -134 58 -197 180 -197c65 0 119 24 155 55v-68c-27 -19 -82 -45 -155 -45zM280 472c-101 0 -157 -53 -160 -175h310c0 108 -34 175 -150 175zM135 615l110 130h70l110 -130
h-56l-89 90l-91 -90h-54z" />
    <glyph glyph-name="edieresis" unicode="&#xeb;" horiz-adv-x="550" 
d="M300 -10c-159 0 -240 81 -240 270c0 186 84 270 220 270c140 0 210 -68 210 -258v-27h-370c1 -134 58 -197 180 -197c65 0 119 24 155 55v-68c-27 -19 -82 -45 -155 -45zM280 472c-101 0 -157 -53 -160 -175h310c0 108 -34 175 -150 175zM192 638c-27 0 -42 15 -42 42
s15 42 42 42s42 -15 42 -42s-15 -42 -42 -42zM368 638c-27 0 -42 15 -42 42s15 42 42 42s42 -15 42 -42s-15 -42 -42 -42z" />
    <glyph glyph-name="igrave" unicode="&#xec;" horiz-adv-x="290" 
d="M115 0v520h60v-520h-60zM118 615l-106 130h84l76 -130h-54z" />
    <glyph glyph-name="iacute" unicode="&#xed;" horiz-adv-x="290" 
d="M115 0v520h60v-520h-60zM119 615l78 130h82l-108 -130h-52z" />
    <glyph glyph-name="icircumflex" unicode="&#xee;" horiz-adv-x="290" 
d="M115 0v520h60v-520h-60zM0 615l110 130h70l110 -130h-56l-89 90l-91 -90h-54z" />
    <glyph glyph-name="idieresis" unicode="&#xef;" horiz-adv-x="290" 
d="M115 0v520h60v-520h-60zM57 638c-27 0 -42 15 -42 42s15 42 42 42s42 -15 42 -42s-15 -42 -42 -42zM233 638c-27 0 -42 15 -42 42s15 42 42 42s42 -15 42 -42s-15 -42 -42 -42z" />
    <glyph glyph-name="eth" unicode="&#xf0;" horiz-adv-x="585" 
d="M193 577l-19 37l89 48c-38 23 -82 40 -128 50l24 46c61 -16 113 -39 157 -67l130 70l19 -37l-111 -60c120 -97 166 -242 166 -401c0 -171 -85 -273 -230 -273c-147 0 -230 93 -230 263c0 168 86 257 219 257c47 0 112 -10 153 -76l3 2c-23 82 -70 151 -133 200zM290 46
c98 0 168 58 168 206c0 144 -55 202 -168 202c-101 0 -168 -54 -168 -202c0 -150 71 -206 168 -206z" />
    <glyph glyph-name="ntilde" unicode="&#xf1;" horiz-adv-x="585" 
d="M90 0v520h54l6 -95c30 62 77 105 170 105c122 0 180 -58 180 -200v-330h-60v310c0 123 -39 162 -135 162s-155 -59 -155 -162v-310h-60zM193 625l-41 11c5 49 33 80 76 80c24 0 43 -7 70 -19c24 -11 41 -22 59 -22c17 0 28 7 35 39l40 -11c-7 -52 -38 -79 -74 -79
c-20 0 -33 0 -72 19c-23 11 -37 22 -56 22c-17 0 -29 -6 -37 -40z" />
    <glyph glyph-name="ograve" unicode="&#xf2;" horiz-adv-x="570" 
d="M285 -10c-145 0 -225 81 -225 270c0 182 88 270 225 270c148 0 225 -77 225 -270c0 -189 -82 -270 -225 -270zM285 472c-104 0 -163 -59 -163 -212c0 -158 54 -212 163 -212s163 54 163 212s-54 212 -163 212zM263 615l-106 130h84l76 -130h-54z" />
    <glyph glyph-name="oacute" unicode="&#xf3;" horiz-adv-x="570" 
d="M285 -10c-145 0 -225 81 -225 270c0 182 88 270 225 270c148 0 225 -77 225 -270c0 -189 -82 -270 -225 -270zM285 472c-104 0 -163 -59 -163 -212c0 -158 54 -212 163 -212s163 54 163 212s-54 212 -163 212zM254 615l78 130h82l-108 -130h-52z" />
    <glyph glyph-name="ocircumflex" unicode="&#xf4;" horiz-adv-x="570" 
d="M285 -10c-145 0 -225 81 -225 270c0 182 88 270 225 270c148 0 225 -77 225 -270c0 -189 -82 -270 -225 -270zM285 472c-104 0 -163 -59 -163 -212c0 -158 54 -212 163 -212s163 54 163 212s-54 212 -163 212zM140 615l110 130h70l110 -130h-56l-89 90l-91 -90h-54z" />
    <glyph glyph-name="otilde" unicode="&#xf5;" horiz-adv-x="570" 
d="M285 -10c-145 0 -225 81 -225 270c0 182 88 270 225 270c148 0 225 -77 225 -270c0 -189 -82 -270 -225 -270zM285 472c-104 0 -163 -59 -163 -212c0 -158 54 -212 163 -212s163 54 163 212s-54 212 -163 212zM186 625l-41 11c5 49 33 80 76 80c24 0 43 -7 70 -19
c24 -11 41 -22 59 -22c17 0 28 7 35 39l40 -11c-7 -52 -38 -79 -74 -79c-20 0 -33 0 -72 19c-23 11 -37 22 -56 22c-17 0 -29 -6 -37 -40z" />
    <glyph glyph-name="odieresis" unicode="&#xf6;" horiz-adv-x="570" 
d="M285 -10c-145 0 -225 81 -225 270c0 182 88 270 225 270c148 0 225 -77 225 -270c0 -189 -82 -270 -225 -270zM285 472c-104 0 -163 -59 -163 -212c0 -158 54 -212 163 -212s163 54 163 212s-54 212 -163 212zM197 638c-27 0 -42 15 -42 42s15 42 42 42s42 -15 42 -42
s-15 -42 -42 -42zM373 638c-27 0 -42 15 -42 42s15 42 42 42s42 -15 42 -42s-15 -42 -42 -42z" />
    <glyph glyph-name="divide" unicode="&#xf7;" horiz-adv-x="600" 
d="M100 331v58h400v-58h-400zM300 140c-32 0 -50 18 -50 50s18 50 50 50s50 -18 50 -50s-18 -50 -50 -50zM300 480c-32 0 -50 18 -50 50s18 50 50 50s50 -18 50 -50s-18 -50 -50 -50z" />
    <glyph glyph-name="oslash" unicode="&#xf8;" horiz-adv-x="570" 
d="M285 -10c-57 0 -105 12 -141 39l-39 -54l-35 25l43 60c-35 44 -53 109 -53 200c0 182 88 270 225 270c58 0 105 -12 141 -39l39 54l35 -25l-43 -59c35 -43 53 -109 53 -201c0 -189 -82 -270 -225 -270zM448 260c0 66 -10 114 -29 148l-240 -330c26 -21 62 -30 106 -30
c109 0 163 54 163 212zM285 472c-104 0 -163 -59 -163 -212c0 -67 10 -115 29 -148l239 330c-26 21 -61 30 -105 30z" />
    <glyph glyph-name="ugrave" unicode="&#xf9;" horiz-adv-x="580" 
d="M490 520v-520h-54l-6 95c-30 -58 -77 -105 -170 -105c-117 0 -175 58 -175 200v330h60v-310c0 -123 39 -162 130 -162c96 0 155 59 155 162v310h60zM265 615l-106 130h84l76 -130h-54z" />
    <glyph glyph-name="uacute" unicode="&#xfa;" horiz-adv-x="580" 
d="M490 520v-520h-54l-6 95c-30 -58 -77 -105 -170 -105c-117 0 -175 58 -175 200v330h60v-310c0 -123 39 -162 130 -162c96 0 155 59 155 162v310h60zM256 615l78 130h82l-108 -130h-52z" />
    <glyph glyph-name="ucircumflex" unicode="&#xfb;" horiz-adv-x="580" 
d="M490 520v-520h-54l-6 95c-30 -58 -77 -105 -170 -105c-117 0 -175 58 -175 200v330h60v-310c0 -123 39 -162 130 -162c96 0 155 59 155 162v310h60zM142 615l110 130h70l110 -130h-56l-89 90l-91 -90h-54z" />
    <glyph glyph-name="udieresis" unicode="&#xfc;" horiz-adv-x="580" 
d="M490 520v-520h-54l-6 95c-30 -58 -77 -105 -170 -105c-117 0 -175 58 -175 200v330h60v-310c0 -123 39 -162 130 -162c96 0 155 59 155 162v310h60zM199 638c-27 0 -42 15 -42 42s15 42 42 42s42 -15 42 -42s-15 -42 -42 -42zM375 638c-27 0 -42 15 -42 42s15 42 42 42
s42 -15 42 -42s-15 -42 -42 -42z" />
    <glyph glyph-name="yacute" unicode="&#xfd;" horiz-adv-x="520" 
d="M150 -190c-21 0 -39 4 -50 10v64c12 -9 27 -16 50 -16c34 0 55 15 94 132l-219 520h66l183 -445l157 445h64l-194 -530c-58 -158 -91 -180 -151 -180zM229 615l78 130h82l-108 -130h-52z" />
    <glyph glyph-name="thorn" unicode="&#xfe;" horiz-adv-x="590" 
d="M90 -180v930h60v-320c32 54 78 100 180 100c129 0 200 -71 200 -265c0 -201 -74 -275 -210 -275c-97 0 -145 48 -170 105v-275h-60zM468 265c0 155 -52 207 -153 207c-106 0 -165 -59 -165 -174v-76c0 -110 64 -174 160 -174c106 0 158 52 158 217z" />
    <glyph glyph-name="ydieresis" unicode="&#xff;" horiz-adv-x="520" 
d="M150 -190c-21 0 -39 4 -50 10v64c12 -9 27 -16 50 -16c34 0 55 15 94 132l-219 520h66l183 -445l157 445h64l-194 -530c-58 -158 -91 -180 -151 -180zM172 638c-27 0 -42 15 -42 42s15 42 42 42s42 -15 42 -42s-15 -42 -42 -42zM348 638c-27 0 -42 15 -42 42s15 42 42 42
s42 -15 42 -42s-15 -42 -42 -42z" />
    <glyph glyph-name="Amacron" unicode="&#x100;" horiz-adv-x="640" 
d="M25 0l263 700h64l263 -700h-70l-73 201h-308l-73 -201h-66zM318 625l-133 -366h266zM190 803v54h260v-54h-260z" />
    <glyph glyph-name="amacron" unicode="&#x101;" horiz-adv-x="535" 
d="M230 -10c-112 0 -170 58 -170 155c0 102 53 155 210 155h120v55c0 85 -32 117 -135 117c-62 0 -117 -21 -155 -47v68c35 20 100 37 160 37c136 0 190 -54 190 -180v-350h-54l-6 95c-27 -58 -77 -105 -160 -105zM235 48c96 0 155 59 155 162v40h-120
c-114 0 -148 -34 -148 -105c0 -64 33 -97 113 -97zM155 645v50h240v-50h-240z" />
    <glyph glyph-name="Abreve" unicode="&#x102;" horiz-adv-x="640" 
d="M25 0l263 700h64l263 -700h-70l-73 201h-308l-73 -201h-66zM318 625l-133 -366h266zM170 892l48 13c13 -50 41 -78 102 -78s91 28 104 78l46 -13c-15 -76 -70 -117 -150 -117c-79 0 -135 42 -150 117z" />
    <glyph glyph-name="abreve" unicode="&#x103;" horiz-adv-x="535" 
d="M230 -10c-112 0 -170 58 -170 155c0 102 53 155 210 155h120v55c0 85 -32 117 -135 117c-62 0 -117 -21 -155 -47v68c35 20 100 37 160 37c136 0 190 -54 190 -180v-350h-54l-6 95c-27 -58 -77 -105 -160 -105zM235 48c96 0 155 59 155 162v40h-120
c-114 0 -148 -34 -148 -105c0 -64 33 -97 113 -97zM130 733l46 12c13 -50 43 -80 99 -80s88 30 101 80l44 -13c-15 -76 -70 -117 -145 -117c-74 0 -130 42 -145 118z" />
    <glyph glyph-name="Aogonek" unicode="&#x104;" horiz-adv-x="640" 
d="M545 -190c-55 0 -80 25 -80 70c0 40 27 82 87 120h-7l-73 201h-308l-73 -201h-66l263 700h64l263 -700c-65 -38 -92 -79 -92 -110c0 -22 12 -34 37 -34c19 0 36 5 55 16v-46c-19 -10 -41 -16 -70 -16zM318 625l-133 -366h266z" />
    <glyph glyph-name="aogonek" unicode="&#x105;" horiz-adv-x="535" 
d="M380 -190c-55 0 -80 25 -80 70c0 42 29 84 95 127l-5 88c-27 -58 -77 -105 -160 -105c-112 0 -170 58 -170 155c0 102 53 155 210 155h120v55c0 85 -32 117 -135 117c-62 0 -117 -21 -155 -47v68c35 20 100 37 160 37c136 0 190 -54 190 -180v-350
c-66 -38 -94 -79 -94 -110c0 -22 14 -36 39 -36c19 0 36 5 55 16v-44c-19 -10 -41 -16 -70 -16zM235 48c96 0 155 59 155 162v40h-120c-114 0 -148 -34 -148 -105c0 -64 33 -97 113 -97z" />
    <glyph glyph-name="Cacute" unicode="&#x106;" horiz-adv-x="575" 
d="M355 -10c-195 0 -300 105 -300 365c0 247 108 355 295 355c100 0 164 -25 164 -25v-70c-38 22 -94 35 -164 35c-148 0 -229 -81 -229 -295c0 -220 85 -305 234 -305c74 0 136 27 170 45v-70s-75 -35 -170 -35zM298 775l86 130h84l-116 -130h-54z" />
    <glyph glyph-name="cacute" unicode="&#x107;" horiz-adv-x="475" 
d="M305 -10c-162 0 -245 83 -245 275c0 180 85 265 235 265c59 0 104 -12 130 -24v-68c-29 19 -77 34 -130 34c-110 0 -173 -63 -173 -207c0 -153 64 -217 183 -217c48 0 101 18 130 40v-68c-27 -16 -68 -30 -130 -30zM244 615l78 130h82l-108 -130h-52z" />
    <glyph glyph-name="Ccircumflex" unicode="&#x108;" horiz-adv-x="575" 
d="M355 -10c-195 0 -300 105 -300 365c0 247 108 355 295 355c100 0 164 -25 164 -25v-70c-38 22 -94 35 -164 35c-148 0 -229 -81 -229 -295c0 -220 85 -305 234 -305c74 0 136 27 170 45v-70s-75 -35 -170 -35zM180 775l113 130h74l113 -130h-58l-93 88l-93 -88h-56z" />
    <glyph glyph-name="ccircumflex" unicode="&#x109;" horiz-adv-x="475" 
d="M305 -10c-162 0 -245 83 -245 275c0 180 85 265 235 265c59 0 104 -12 130 -24v-68c-29 19 -77 34 -130 34c-110 0 -173 -63 -173 -207c0 -153 64 -217 183 -217c48 0 101 18 130 40v-68c-27 -16 -68 -30 -130 -30zM130 615l110 130h70l110 -130h-56l-89 90l-91 -90h-54z
" />
    <glyph glyph-name="Cdotaccent" unicode="&#x10a;" horiz-adv-x="575" 
d="M355 -10c-195 0 -300 105 -300 365c0 247 108 355 295 355c100 0 164 -25 164 -25v-70c-38 22 -94 35 -164 35c-148 0 -229 -81 -229 -295c0 -220 85 -305 234 -305c74 0 136 27 170 45v-70s-75 -35 -170 -35zM330 796c-28 0 -44 16 -44 44s16 44 44 44s44 -16 44 -44
s-16 -44 -44 -44z" />
    <glyph glyph-name="cdotaccent" unicode="&#x10b;" horiz-adv-x="475" 
d="M305 -10c-162 0 -245 83 -245 275c0 180 85 265 235 265c59 0 104 -12 130 -24v-68c-29 19 -77 34 -130 34c-110 0 -173 -63 -173 -207c0 -153 64 -217 183 -217c48 0 101 18 130 40v-68c-27 -16 -68 -30 -130 -30zM275 638c-27 0 -42 15 -42 42s15 42 42 42
s42 -15 42 -42s-15 -42 -42 -42z" />
    <glyph glyph-name="Ccaron" unicode="&#x10c;" horiz-adv-x="575" 
d="M355 -10c-195 0 -300 105 -300 365c0 247 108 355 295 355c100 0 164 -25 164 -25v-70c-38 22 -94 35 -164 35c-148 0 -229 -81 -229 -295c0 -220 85 -305 234 -305c74 0 136 27 170 45v-70s-75 -35 -170 -35zM293 775l-113 130h58l93 -88l93 88h56l-113 -130h-74z" />
    <glyph glyph-name="ccaron" unicode="&#x10d;" horiz-adv-x="475" 
d="M305 -10c-162 0 -245 83 -245 275c0 180 85 265 235 265c59 0 104 -12 130 -24v-68c-29 19 -77 34 -130 34c-110 0 -173 -63 -173 -207c0 -153 64 -217 183 -217c48 0 101 18 130 40v-68c-27 -16 -68 -30 -130 -30zM240 615l-110 130h56l89 -90l91 90h54l-110 -130h-70z
" />
    <glyph glyph-name="Dcaron" unicode="&#x10e;" horiz-adv-x="680" 
d="M290 -5c-90 0 -180 10 -180 10v690s90 10 180 10c244 0 335 -91 335 -345c0 -259 -106 -365 -335 -365zM559 360c0 220 -65 285 -269 285c-70 0 -116 -6 -116 -6v-578s46 -6 116 -6c189 0 269 80 269 305zM293 775l-113 130h58l93 -88l93 88h56l-113 -130h-74z" />
    <glyph glyph-name="dcaron" unicode="&#x10f;" horiz-adv-x="660" 
d="M610 580l30 170h60l-50 -170h-40zM446 0l-6 95c-25 -57 -73 -105 -170 -105c-136 0 -210 74 -210 275c0 182 77 265 200 265c93 0 158 -40 180 -105v325h60v-750h-54zM122 265c0 -163 54 -217 159 -217c95 0 159 64 159 178v75c0 98 -50 171 -165 171
c-102 0 -153 -56 -153 -207z" />
    <glyph glyph-name="Dcroat" unicode="&#x110;" horiz-adv-x="690" 
d="M20 328v54h100v313s90 10 180 10c244 0 335 -91 335 -345c0 -259 -106 -365 -335 -365c-90 0 -180 10 -180 10v323h-100zM569 360c0 220 -65 285 -269 285c-70 0 -116 -6 -116 -6v-257h186v-54h-186v-267s46 -6 116 -6c189 0 269 80 269 305z" />
    <glyph glyph-name="dcroat" unicode="&#x111;" horiz-adv-x="590" 
d="M240 607v46h200v97h60v-97h100v-46h-100v-607h-54l-6 95c-25 -57 -73 -105 -170 -105c-136 0 -210 74 -210 275c0 182 77 265 200 265c93 0 158 -40 180 -105v182h-200zM122 265c0 -163 54 -217 159 -217c95 0 159 64 159 178v75c0 98 -50 171 -165 171
c-102 0 -153 -56 -153 -207z" />
    <glyph glyph-name="Emacron" unicode="&#x112;" horiz-adv-x="575" 
d="M110 0v700h405v-58h-341v-253h301v-58h-301v-273h341v-58h-405zM182 803v54h260v-54h-260z" />
    <glyph glyph-name="emacron" unicode="&#x113;" horiz-adv-x="550" 
d="M300 -10c-159 0 -240 81 -240 270c0 186 84 270 220 270c140 0 210 -68 210 -258v-27h-370c1 -134 58 -197 180 -197c65 0 119 24 155 55v-68c-27 -19 -82 -45 -155 -45zM280 472c-101 0 -157 -53 -160 -175h310c0 108 -34 175 -150 175zM160 645v50h240v-50h-240z" />
    <glyph glyph-name="Edotaccent" unicode="&#x116;" horiz-adv-x="575" 
d="M110 0v700h405v-58h-341v-253h301v-58h-301v-273h341v-58h-405zM312 796c-28 0 -44 16 -44 44s16 44 44 44s44 -16 44 -44s-16 -44 -44 -44z" />
    <glyph glyph-name="edotaccent" unicode="&#x117;" horiz-adv-x="550" 
d="M300 -10c-159 0 -240 81 -240 270c0 186 84 270 220 270c140 0 210 -68 210 -258v-27h-370c1 -134 58 -197 180 -197c65 0 119 24 155 55v-68c-27 -19 -82 -45 -155 -45zM280 472c-101 0 -157 -53 -160 -175h310c0 108 -34 175 -150 175zM280 638c-27 0 -42 15 -42 42
s15 42 42 42s42 -15 42 -42s-15 -42 -42 -42z" />
    <glyph glyph-name="Eogonek" unicode="&#x118;" horiz-adv-x="575" 
d="M110 0v700h405v-58h-341v-253h301v-58h-301v-273h341v-58c-65 -38 -92 -79 -92 -110c0 -22 12 -34 37 -34c19 0 36 5 55 16v-46c-19 -10 -41 -16 -70 -16c-55 0 -80 25 -80 70c0 40 27 82 87 120h-342z" />
    <glyph glyph-name="eogonek" unicode="&#x119;" horiz-adv-x="550" 
d="M300 -10c-159 0 -240 81 -240 270c0 186 84 270 220 270c140 0 210 -68 210 -258v-27h-370c1 -134 58 -197 180 -197c65 0 119 24 155 55v-68l-7 -5c-80 -60 -112 -97 -112 -140c0 -22 14 -36 39 -36c19 0 36 5 55 16v-44c-19 -10 -41 -16 -70 -16c-55 0 -80 25 -80 70
c0 43 27 81 66 114c-14 -3 -30 -4 -46 -4zM280 472c-101 0 -157 -53 -160 -175h310c0 108 -34 175 -150 175z" />
    <glyph glyph-name="Ecaron" unicode="&#x11a;" horiz-adv-x="575" 
d="M110 0v700h405v-58h-341v-253h301v-58h-301v-273h341v-58h-405zM275 775l-113 130h58l93 -88l93 88h56l-113 -130h-74z" />
    <glyph glyph-name="ecaron" unicode="&#x11b;" horiz-adv-x="550" 
d="M300 -10c-159 0 -240 81 -240 270c0 186 84 270 220 270c140 0 210 -68 210 -258v-27h-370c1 -134 58 -197 180 -197c65 0 119 24 155 55v-68c-27 -19 -82 -45 -155 -45zM280 472c-101 0 -157 -53 -160 -175h310c0 108 -34 175 -150 175zM245 615l-110 130h56l89 -90
l91 90h54l-110 -130h-70z" />
    <glyph glyph-name="Gcircumflex" unicode="&#x11c;" horiz-adv-x="650" 
d="M380 -10c-217 0 -325 108 -325 365c0 241 114 355 325 355c95 0 155 -25 155 -25v-70c-35 18 -90 35 -155 35c-172 0 -259 -87 -259 -295c0 -222 83 -305 259 -305c46 0 96 7 131 20v216h-151v58h215v-314c-35 -17 -109 -40 -195 -40zM210 775l113 130h74l113 -130h-58
l-93 88l-93 -88h-56z" />
    <glyph glyph-name="gcircumflex" unicode="&#x11d;" horiz-adv-x="590" 
d="M280 -190c-83 0 -144 19 -180 39v78c27 -27 96 -59 175 -59c117 0 165 48 165 147v90c-25 -57 -73 -105 -170 -105c-136 0 -210 74 -210 270c0 177 77 260 200 260c93 0 158 -40 180 -105l6 95h54v-500c0 -140 -70 -210 -220 -210zM281 58c95 0 159 69 159 178v71
c0 92 -50 165 -165 165c-102 0 -153 -56 -153 -202c0 -158 54 -212 159 -212zM135 615l110 130h70l110 -130h-56l-89 90l-91 -90h-54z" />
    <glyph glyph-name="Gbreve" unicode="&#x11e;" horiz-adv-x="650" 
d="M380 -10c-217 0 -325 108 -325 365c0 241 114 355 325 355c95 0 155 -25 155 -25v-70c-35 18 -90 35 -155 35c-172 0 -259 -87 -259 -295c0 -222 83 -305 259 -305c46 0 96 7 131 20v216h-151v58h215v-314c-35 -17 -109 -40 -195 -40zM210 892l48 13
c13 -50 41 -78 102 -78s91 28 104 78l46 -13c-15 -76 -70 -117 -150 -117c-79 0 -135 42 -150 117z" />
    <glyph glyph-name="gbreve" unicode="&#x11f;" horiz-adv-x="590" 
d="M280 -190c-83 0 -144 19 -180 39v78c27 -27 96 -59 175 -59c117 0 165 48 165 147v90c-25 -57 -73 -105 -170 -105c-136 0 -210 74 -210 270c0 177 77 260 200 260c93 0 158 -40 180 -105l6 95h54v-500c0 -140 -70 -210 -220 -210zM281 58c95 0 159 69 159 178v71
c0 92 -50 165 -165 165c-102 0 -153 -56 -153 -202c0 -158 54 -212 159 -212zM135 733l46 12c13 -50 43 -80 99 -80s88 30 101 80l44 -13c-15 -76 -70 -117 -145 -117c-74 0 -130 42 -145 118z" />
    <glyph glyph-name="Gdotaccent" unicode="&#x120;" horiz-adv-x="650" 
d="M380 -10c-217 0 -325 108 -325 365c0 241 114 355 325 355c95 0 155 -25 155 -25v-70c-35 18 -90 35 -155 35c-172 0 -259 -87 -259 -295c0 -222 83 -305 259 -305c46 0 96 7 131 20v216h-151v58h215v-314c-35 -17 -109 -40 -195 -40zM360 796c-28 0 -44 16 -44 44
s16 44 44 44s44 -16 44 -44s-16 -44 -44 -44z" />
    <glyph glyph-name="gdotaccent" unicode="&#x121;" horiz-adv-x="590" 
d="M280 -190c-83 0 -144 19 -180 39v78c27 -27 96 -59 175 -59c117 0 165 48 165 147v90c-25 -57 -73 -105 -170 -105c-136 0 -210 74 -210 270c0 177 77 260 200 260c93 0 158 -40 180 -105l6 95h54v-500c0 -140 -70 -210 -220 -210zM281 58c95 0 159 69 159 178v71
c0 92 -50 165 -165 165c-102 0 -153 -56 -153 -202c0 -158 54 -212 159 -212zM280 638c-27 0 -42 15 -42 42s15 42 42 42s42 -15 42 -42s-15 -42 -42 -42z" />
    <glyph glyph-name="Gcommaaccent" unicode="&#x122;" horiz-adv-x="650" 
d="M380 -10c-217 0 -325 108 -325 365c0 241 114 355 325 355c95 0 155 -25 155 -25v-70c-35 18 -90 35 -155 35c-172 0 -259 -87 -259 -295c0 -222 83 -305 259 -305c46 0 96 7 131 20v216h-151v58h215v-314c-35 -17 -109 -40 -195 -40zM313 -210l-10 42c26 4 56 13 60 36
c-47 0 -60 17 -60 42c0 24 16 40 57 40c39 0 57 -19 57 -50c0 -54 -34 -100 -104 -110z" />
    <glyph glyph-name="gcommaaccent" unicode="&#x123;" horiz-adv-x="590" 
d="M280 -190c-83 0 -144 19 -180 39v78c27 -27 96 -59 175 -59c117 0 165 48 165 147v90c-25 -57 -73 -105 -170 -105c-136 0 -210 74 -210 270c0 177 77 260 200 260c93 0 158 -40 180 -105l6 95h54v-500c0 -140 -70 -210 -220 -210zM281 58c95 0 159 69 159 178v71
c0 92 -50 165 -165 165c-102 0 -153 -56 -153 -202c0 -158 54 -212 159 -212zM325 780l10 -41c-33 -5 -57 -16 -61 -39c45 0 61 -15 61 -40c0 -24 -16 -40 -55 -40c-37 0 -55 19 -55 55c0 43 29 95 100 105z" />
    <glyph glyph-name="Hcircumflex" unicode="&#x124;" horiz-adv-x="720" 
d="M110 0v700h64v-311h372v311h64v-700h-64v331h-372v-331h-64zM210 775l113 130h74l113 -130h-58l-93 88l-93 -88h-56z" />
    <glyph glyph-name="hcircumflex" unicode="&#x125;" horiz-adv-x="585" 
d="M90 0v750h60v-325c30 63 77 105 170 105c122 0 180 -58 180 -200v-330h-60v310c0 123 -39 162 -135 162s-155 -59 -155 -162v-310h-60zM-25 775l110 130h70l110 -130h-56l-89 90l-91 -90h-54z" />
    <glyph glyph-name="Hbar" unicode="&#x126;" horiz-adv-x="740" 
d="M20 523v54h100v123h64v-123h372v123h64v-123h100v-54h-100v-523h-64v331h-372v-331h-64v523h-100zM184 389h372v134h-372v-134z" />
    <glyph glyph-name="hbar" unicode="&#x127;" horiz-adv-x="605" 
d="M10 604v52h100v94h60v-94h200v-52h-200v-179c30 63 77 105 170 105c122 0 180 -58 180 -200v-330h-60v310c0 123 -39 162 -135 162s-155 -59 -155 -162v-310h-60v604h-100z" />
    <glyph glyph-name="Imacron" unicode="&#x12a;" horiz-adv-x="330" 
d="M133 0v700h64v-700h-64zM35 803v54h260v-54h-260z" />
    <glyph glyph-name="imacron" unicode="&#x12b;" horiz-adv-x="290" 
d="M115 0v520h60v-520h-60zM25 645v50h240v-50h-240z" />
    <glyph glyph-name="Iogonek" unicode="&#x12e;" horiz-adv-x="330" 
d="M127 -190c-55 0 -80 25 -80 70c0 40 26 80 86 121v699h64v-700c-66 -38 -94 -79 -94 -110c0 -22 14 -36 39 -36c19 0 36 5 55 16v-44c-19 -10 -41 -16 -70 -16z" />
    <glyph glyph-name="iogonek" unicode="&#x12f;" horiz-adv-x="290" 
d="M105 -190c-55 0 -80 25 -80 70c0 40 27 81 90 123v517h60v-520c-66 -38 -94 -79 -94 -110c0 -22 14 -36 39 -36c19 0 36 5 55 16v-44c-19 -10 -41 -16 -70 -16zM145 638c-27 0 -42 15 -42 42s15 42 42 42s42 -15 42 -42s-15 -42 -42 -42z" />
    <glyph glyph-name="Idotaccent" unicode="&#x130;" horiz-adv-x="330" 
d="M133 0v700h64v-700h-64zM165 796c-28 0 -44 16 -44 44s16 44 44 44s44 -16 44 -44s-16 -44 -44 -44z" />
    <glyph glyph-name="dotlessi" unicode="&#x131;" horiz-adv-x="290" 
d="M115 0v520h60v-520h-60z" />
    <glyph glyph-name="Jcircumflex" unicode="&#x134;" horiz-adv-x="420" 
d="M140 -10c-60 0 -100 20 -100 20v70s35 -30 100 -30c63 0 96 33 96 110v540h64v-540c0 -117 -53 -170 -160 -170zM123 775l110 130h70l110 -130h-56l-89 90l-91 -90h-54z" />
    <glyph glyph-name="jcircumflex" unicode="&#x135;" horiz-adv-x="290" 
d="M46 -185c-31 0 -57 4 -70 10v68c17 -11 41 -20 70 -20c47 0 69 22 69 92v555h60v-555c0 -106 -44 -150 -129 -150zM0 615l110 130h70l110 -130h-56l-89 90l-91 -90h-54z" />
    <glyph glyph-name="Kcommaaccent" unicode="&#x136;" horiz-adv-x="655" 
d="M541 0l-287 331h-80v-331h-64v700h64v-311h80l269 311h82l-295 -339l315 -361h-84zM320 -210l-10 42c26 4 56 13 60 36c-47 0 -60 17 -60 42c0 24 16 40 57 40c39 0 57 -19 57 -50c0 -54 -34 -100 -104 -110z" />
    <glyph glyph-name="kcommaaccent" unicode="&#x137;" horiz-adv-x="555" 
d="M90 0v750h60v-452h70l192 222h76l-217 -249l239 -271h-78l-212 242h-70v-242h-60zM255 -210l-10 41c33 5 57 16 61 39c-45 0 -61 15 -61 40c0 24 16 40 55 40c37 0 55 -19 55 -55c0 -43 -29 -95 -100 -105z" />
    <glyph glyph-name="Lacute" unicode="&#x139;" horiz-adv-x="530" 
d="M110 0v700h64v-642h321v-58h-385zM110 775l86 130h84l-116 -130h-54z" />
    <glyph glyph-name="lacute" unicode="&#x13a;" horiz-adv-x="315" 
d="M205 -5c-82 0 -120 40 -120 120v635h60v-625c0 -57 19 -72 65 -72c25 0 51 8 65 15v-58c-14 -7 -40 -15 -70 -15zM89 775l78 130h82l-108 -130h-52z" />
    <glyph glyph-name="Lcommaaccent" unicode="&#x13b;" horiz-adv-x="530" 
d="M110 0v700h64v-642h321v-58h-385zM255 -210l-10 42c26 4 56 13 60 36c-47 0 -60 17 -60 42c0 24 16 40 57 40c39 0 57 -19 57 -50c0 -54 -34 -100 -104 -110z" />
    <glyph glyph-name="lcommaaccent" unicode="&#x13c;" horiz-adv-x="315" 
d="M205 -5c-82 0 -120 40 -120 120v635h60v-625c0 -57 19 -72 65 -72c25 0 51 8 65 15v-58c-14 -7 -40 -15 -70 -15zM140 -210l-10 41c33 5 57 16 61 39c-45 0 -61 15 -61 40c0 24 16 40 55 40c37 0 55 -19 55 -55c0 -43 -29 -95 -100 -105z" />
    <glyph glyph-name="Lcaron" unicode="&#x13d;" horiz-adv-x="530" 
d="M335 520l36 180h64l-56 -180h-44zM110 0v700h64v-642h321v-58h-385z" />
    <glyph glyph-name="lcaron" unicode="&#x13e;" horiz-adv-x="375" 
d="M255 580l40 170h60l-60 -170h-40zM205 -5c-82 0 -120 40 -120 120v635h60v-625c0 -57 19 -72 65 -72c25 0 51 8 65 15v-58c-14 -7 -40 -15 -70 -15z" />
    <glyph glyph-name="Ldot" unicode="&#x13f;" horiz-adv-x="530" 
d="M110 0v700h64v-642h321v-58h-385zM407 330c-32 0 -50 18 -50 50s18 50 50 50s50 -18 50 -50s-18 -50 -50 -50z" />
    <glyph glyph-name="ldot" unicode="&#x140;" horiz-adv-x="415" 
d="M205 -5c-82 0 -120 40 -120 120v635h60v-625c0 -57 19 -72 65 -72c25 0 51 8 65 15v-58c-14 -7 -40 -15 -70 -15zM317 330c-32 0 -50 18 -50 50s18 50 50 50s50 -18 50 -50s-18 -50 -50 -50z" />
    <glyph glyph-name="Lslash" unicode="&#x141;" horiz-adv-x="540" 
d="M20 278v64l100 58v300h64v-263l160 93v-64l-160 -93v-315h321v-58h-385v336z" />
    <glyph glyph-name="lslash" unicode="&#x142;" horiz-adv-x="370" 
d="M20 312v62l100 58v318h60v-284l110 64v-62l-110 -64v-279c0 -57 19 -72 65 -72c25 0 51 8 65 15v-58c-14 -7 -40 -15 -70 -15c-82 0 -120 40 -120 120v255z" />
    <glyph glyph-name="Nacute" unicode="&#x143;" horiz-adv-x="740" 
d="M110 0v700h66l331 -500c33 -50 60 -100 60 -100h2s-3 50 -3 100v500h64v-700h-66l-331 500c-39 60 -60 100 -60 100h-2s3 -40 3 -100v-500h-64zM338 775l86 130h84l-116 -130h-54z" />
    <glyph glyph-name="nacute" unicode="&#x144;" horiz-adv-x="585" 
d="M90 0v520h54l6 -95c30 62 77 105 170 105c122 0 180 -58 180 -200v-330h-60v310c0 123 -39 162 -135 162s-155 -59 -155 -162v-310h-60zM264 615l78 130h82l-108 -130h-52z" />
    <glyph glyph-name="Ncommaaccent" unicode="&#x145;" horiz-adv-x="740" 
d="M110 0v700h66l331 -500c33 -50 60 -100 60 -100h2s-3 50 -3 100v500h64v-700h-66l-331 500c-39 60 -60 100 -60 100h-2s3 -40 3 -100v-500h-64zM323 -210l-10 42c26 4 56 13 60 36c-47 0 -60 17 -60 42c0 24 16 40 57 40c39 0 57 -19 57 -50c0 -54 -34 -100 -104 -110z
" />
    <glyph glyph-name="ncommaaccent" unicode="&#x146;" horiz-adv-x="585" 
d="M90 0v520h54l6 -95c30 62 77 105 170 105c122 0 180 -58 180 -200v-330h-60v310c0 123 -39 162 -135 162s-155 -59 -155 -162v-310h-60zM250 -210l-10 41c33 5 57 16 61 39c-45 0 -61 15 -61 40c0 24 16 40 55 40c37 0 55 -19 55 -55c0 -43 -29 -95 -100 -105z" />
    <glyph glyph-name="Ncaron" unicode="&#x147;" horiz-adv-x="740" 
d="M110 0v700h66l331 -500c33 -50 60 -100 60 -100h2s-3 50 -3 100v500h64v-700h-66l-331 500c-39 60 -60 100 -60 100h-2s3 -40 3 -100v-500h-64zM333 775l-113 130h58l93 -88l93 88h56l-113 -130h-74z" />
    <glyph glyph-name="ncaron" unicode="&#x148;" horiz-adv-x="585" 
d="M90 0v520h54l6 -95c30 62 77 105 170 105c122 0 180 -58 180 -200v-330h-60v310c0 123 -39 162 -135 162s-155 -59 -155 -162v-310h-60zM260 615l-110 130h56l89 -90l91 90h54l-110 -130h-70z" />
    <glyph glyph-name="Omacron" unicode="&#x14c;" horiz-adv-x="710" 
d="M355 -10c-190 0 -300 110 -300 360c0 252 108 360 300 360c197 0 300 -103 300 -360c0 -252 -108 -360 -300 -360zM355 50c151 0 234 83 234 300c0 218 -82 300 -234 300c-149 0 -234 -85 -234 -300c0 -213 87 -300 234 -300zM225 803v54h260v-54h-260z" />
    <glyph glyph-name="omacron" unicode="&#x14d;" horiz-adv-x="570" 
d="M285 -10c-145 0 -225 81 -225 270c0 182 88 270 225 270c148 0 225 -77 225 -270c0 -189 -82 -270 -225 -270zM285 472c-104 0 -163 -59 -163 -212c0 -158 54 -212 163 -212s163 54 163 212s-54 212 -163 212zM165 645v50h240v-50h-240z" />
    <glyph glyph-name="Ohungarumlaut" unicode="&#x150;" horiz-adv-x="710" 
d="M355 -10c-190 0 -300 110 -300 360c0 252 108 360 300 360c197 0 300 -103 300 -360c0 -252 -108 -360 -300 -360zM355 50c151 0 234 83 234 300c0 218 -82 300 -234 300c-149 0 -234 -85 -234 -300c0 -213 87 -300 234 -300zM258 775l60 130h76l-90 -130h-46zM390 775
l100 130h88l-136 -130h-52z" />
    <glyph glyph-name="ohungarumlaut" unicode="&#x151;" horiz-adv-x="570" 
d="M285 -10c-145 0 -225 81 -225 270c0 182 88 270 225 270c148 0 225 -77 225 -270c0 -189 -82 -270 -225 -270zM285 472c-104 0 -163 -59 -163 -212c0 -158 54 -212 163 -212s163 54 163 212s-54 212 -163 212zM193 615l50 130h76l-80 -130h-46zM315 615l90 130h88
l-126 -130h-52z" />
    <glyph glyph-name="OE" unicode="&#x152;" horiz-adv-x="935" 
d="M355 -10c-195 0 -300 105 -300 365c0 247 108 355 300 355c53 0 98 -6 124 -10h396v-58h-341v-253h301v-58h-301v-273h341v-58h-389c-29 -4 -77 -10 -131 -10zM355 50c44 0 85 4 115 8v583c-27 4 -67 9 -115 9c-153 0 -234 -81 -234 -295c0 -220 85 -305 234 -305z" />
    <glyph glyph-name="oe" unicode="&#x153;" horiz-adv-x="920" 
d="M675 -10c-101 0 -171 37 -205 119c-34 -82 -100 -119 -190 -119c-140 0 -220 81 -220 270c0 182 88 270 220 270c93 0 159 -35 191 -118c34 80 100 118 184 118c135 0 205 -68 205 -258v-27h-360c1 -134 58 -197 175 -197c60 0 114 24 150 55v-68
c-26 -20 -82 -45 -150 -45zM280 472c-99 0 -158 -59 -158 -212c0 -158 54 -212 158 -212s158 54 158 212s-54 212 -158 212zM655 472c-96 0 -152 -53 -155 -175h300c0 108 -34 175 -145 175z" />
    <glyph glyph-name="Racute" unicode="&#x154;" horiz-adv-x="640" 
d="M506 0l-166 289c-17 -2 -36 -3 -55 -3h-111v-286h-64v695s80 10 175 10c182 0 250 -68 250 -210c0 -96 -41 -163 -130 -193l175 -302h-74zM469 495c0 107 -43 150 -184 150c-55 0 -111 -3 -111 -3v-298h111c131 0 184 53 184 151zM268 775l86 130h84l-116 -130h-54z" />
    <glyph glyph-name="racute" unicode="&#x155;" horiz-adv-x="410" 
d="M90 0v520h49l6 -95c26 75 80 105 151 105c20 0 42 -3 54 -8v-68c-18 11 -40 18 -73 18c-78 0 -127 -49 -127 -162v-310h-60zM189 615l78 130h82l-108 -130h-52z" />
    <glyph glyph-name="Rcommaaccent" unicode="&#x156;" horiz-adv-x="640" 
d="M506 0l-166 289c-17 -2 -36 -3 -55 -3h-111v-286h-64v695s80 10 175 10c182 0 250 -68 250 -210c0 -96 -41 -163 -130 -193l175 -302h-74zM469 495c0 107 -43 150 -184 150c-55 0 -111 -3 -111 -3v-298h111c131 0 184 53 184 151zM298 -210l-10 42c26 4 56 13 60 36
c-47 0 -60 17 -60 42c0 24 16 40 57 40c39 0 57 -19 57 -50c0 -54 -34 -100 -104 -110z" />
    <glyph glyph-name="rcommaaccent" unicode="&#x157;" horiz-adv-x="410" 
d="M90 0v520h49l6 -95c26 75 80 105 151 105c20 0 42 -3 54 -8v-68c-18 11 -40 18 -73 18c-78 0 -127 -49 -127 -162v-310h-60zM75 -210l-10 41c33 5 57 16 61 39c-45 0 -61 15 -61 40c0 24 16 40 55 40c37 0 55 -19 55 -55c0 -43 -29 -95 -100 -105z" />
    <glyph glyph-name="Rcaron" unicode="&#x158;" horiz-adv-x="640" 
d="M506 0l-166 289c-17 -2 -36 -3 -55 -3h-111v-286h-64v695s80 10 175 10c182 0 250 -68 250 -210c0 -96 -41 -163 -130 -193l175 -302h-74zM469 495c0 107 -43 150 -184 150c-55 0 -111 -3 -111 -3v-298h111c131 0 184 53 184 151zM263 775l-113 130h58l93 -88l93 88h56
l-113 -130h-74z" />
    <glyph glyph-name="rcaron" unicode="&#x159;" horiz-adv-x="410" 
d="M90 0v520h49l6 -95c26 75 80 105 151 105c20 0 42 -3 54 -8v-68c-18 11 -40 18 -73 18c-78 0 -127 -49 -127 -162v-310h-60zM185 615l-110 130h56l89 -90l91 90h54l-110 -130h-70z" />
    <glyph glyph-name="Sacute" unicode="&#x15a;" horiz-adv-x="580" 
d="M280 -10c-81 0 -156 26 -195 55v80c44 -39 113 -75 195 -75c113 0 159 46 159 130c0 200 -349 100 -349 350c0 115 65 180 220 180c69 0 128 -16 165 -35v-80c-36 32 -102 55 -165 55c-116 0 -154 -38 -154 -120c0 -195 349 -85 349 -350c0 -120 -70 -190 -225 -190z
M263 775l86 130h84l-116 -130h-54z" />
    <glyph glyph-name="sacute" unicode="&#x15b;" horiz-adv-x="475" 
d="M230 -10c-65 0 -110 12 -150 30v78c40 -33 90 -50 150 -50c80 0 113 33 113 92c0 145 -268 50 -268 245c0 92 53 145 175 145c55 0 106 -14 130 -24v-73c-35 24 -80 39 -130 39c-83 0 -113 -30 -113 -82c0 -140 268 -40 268 -245c0 -103 -53 -155 -175 -155zM209 615
l78 130h82l-108 -130h-52z" />
    <glyph glyph-name="Scircumflex" unicode="&#x15c;" horiz-adv-x="580" 
d="M280 -10c-81 0 -156 26 -195 55v80c44 -39 113 -75 195 -75c113 0 159 46 159 130c0 200 -349 100 -349 350c0 115 65 180 220 180c69 0 128 -16 165 -35v-80c-36 32 -102 55 -165 55c-116 0 -154 -38 -154 -120c0 -195 349 -85 349 -350c0 -120 -70 -190 -225 -190z
M145 775l113 130h74l113 -130h-58l-93 88l-93 -88h-56z" />
    <glyph glyph-name="scircumflex" unicode="&#x15d;" horiz-adv-x="475" 
d="M230 -10c-65 0 -110 12 -150 30v78c40 -33 90 -50 150 -50c80 0 113 33 113 92c0 145 -268 50 -268 245c0 92 53 145 175 145c55 0 106 -14 130 -24v-73c-35 24 -80 39 -130 39c-83 0 -113 -30 -113 -82c0 -140 268 -40 268 -245c0 -103 -53 -155 -175 -155zM95 615
l110 130h70l110 -130h-56l-89 90l-91 -90h-54z" />
    <glyph glyph-name="Scedilla" unicode="&#x15e;" horiz-adv-x="580" 
d="M300 -210c-31 0 -52 7 -70 15l6 42c20 -9 35 -13 59 -13c34 0 51 17 51 43s-17 43 -56 43c-10 0 -24 -1 -31 -2l14 72c-79 2 -150 27 -188 55v80c44 -39 113 -75 195 -75c113 0 159 46 159 130c0 200 -349 100 -349 350c0 115 65 180 220 180c69 0 128 -16 165 -35v-80
c-36 32 -102 55 -165 55c-116 0 -154 -38 -154 -120c0 -195 349 -85 349 -350c0 -111 -60 -180 -192 -189l-8 -36c65 0 95 -30 95 -78c0 -52 -35 -87 -100 -87z" />
    <glyph glyph-name="scedilla" unicode="&#x15f;" horiz-adv-x="475" 
d="M245 -210c-31 0 -52 7 -70 15l6 42c20 -9 35 -13 59 -13c34 0 51 17 51 43s-17 43 -56 43c-10 0 -24 -1 -31 -2l14 72c-59 2 -101 13 -138 30v78c40 -33 90 -50 150 -50c80 0 113 33 113 92c0 145 -268 50 -268 245c0 92 53 145 175 145c55 0 106 -14 130 -24v-73
c-35 24 -80 39 -130 39c-83 0 -113 -30 -113 -82c0 -140 268 -40 268 -245c0 -95 -45 -146 -147 -154l-8 -36c65 0 95 -30 95 -78c0 -52 -35 -87 -100 -87z" />
    <glyph glyph-name="Scaron" unicode="&#x160;" horiz-adv-x="580" 
d="M280 -10c-81 0 -156 26 -195 55v80c44 -39 113 -75 195 -75c113 0 159 46 159 130c0 200 -349 100 -349 350c0 115 65 180 220 180c69 0 128 -16 165 -35v-80c-36 32 -102 55 -165 55c-116 0 -154 -38 -154 -120c0 -195 349 -85 349 -350c0 -120 -70 -190 -225 -190z
M258 775l-113 130h58l93 -88l93 88h56l-113 -130h-74z" />
    <glyph glyph-name="scaron" unicode="&#x161;" horiz-adv-x="475" 
d="M230 -10c-65 0 -110 12 -150 30v78c40 -33 90 -50 150 -50c80 0 113 33 113 92c0 145 -268 50 -268 245c0 92 53 145 175 145c55 0 106 -14 130 -24v-73c-35 24 -80 39 -130 39c-83 0 -113 -30 -113 -82c0 -140 268 -40 268 -245c0 -103 -53 -155 -175 -155zM205 615
l-110 130h56l89 -90l91 90h54l-110 -130h-70z" />
    <glyph glyph-name="Tcedilla" unicode="&#x162;" horiz-adv-x="580" 
d="M258 0v642h-218v58h500v-58h-218v-642h-11l-10 -45c69 0 99 -30 99 -78c0 -52 -35 -87 -105 -87c-31 0 -58 7 -75 15l6 44c20 -9 40 -13 64 -13c39 0 54 15 54 41s-15 41 -59 41c-15 0 -25 -1 -32 -2l16 84h-11z" />
    <glyph glyph-name="tcedilla" unicode="&#x163;" horiz-adv-x="435" 
d="M260 -210c-31 0 -52 7 -70 15l6 42c20 -9 35 -13 59 -13c34 0 51 17 51 43s-17 43 -56 43c-10 0 -24 -1 -31 -2l16 81c-65 13 -95 59 -95 146v319h-100v56h100v110l60 20v-130h180v-56h-180v-319c0 -69 23 -92 80 -92c47 0 76 15 100 33v-68c-18 -13 -58 -23 -100 -23h-7
l-8 -40c65 0 95 -30 95 -78c0 -52 -35 -87 -100 -87z" />
    <glyph glyph-name="Tcaron" unicode="&#x164;" horiz-adv-x="580" 
d="M258 0v642h-218v58h500v-58h-218v-642h-64zM253 775l-113 130h58l93 -88l93 88h56l-113 -130h-74z" />
    <glyph glyph-name="tcaron" unicode="&#x165;" horiz-adv-x="435" 
d="M290 610l40 170h60l-60 -170h-40zM280 -5c-95 0 -140 45 -140 150v319h-100v56h100v110l60 20v-130h180v-56h-180v-319c0 -69 23 -92 80 -92c47 0 76 15 100 33v-68c-18 -13 -58 -23 -100 -23z" />
    <glyph glyph-name="Umacron" unicode="&#x16a;" horiz-adv-x="670" 
d="M335 -10c-171 0 -250 79 -250 275v435h64v-435c0 -162 53 -215 186 -215c135 0 186 51 186 215v435h64v-435c0 -196 -79 -275 -250 -275zM205 803v54h260v-54h-260z" />
    <glyph glyph-name="umacron" unicode="&#x16b;" horiz-adv-x="580" 
d="M490 520v-520h-54l-6 95c-30 -58 -77 -105 -170 -105c-117 0 -175 58 -175 200v330h60v-310c0 -123 39 -162 130 -162c96 0 155 59 155 162v310h60zM167 645v50h240v-50h-240z" />
    <glyph glyph-name="Ubreve" unicode="&#x16c;" horiz-adv-x="670" 
d="M335 -10c-171 0 -250 79 -250 275v435h64v-435c0 -162 53 -215 186 -215c135 0 186 51 186 215v435h64v-435c0 -196 -79 -275 -250 -275zM185 892l48 13c13 -50 41 -78 102 -78s91 28 104 78l46 -13c-15 -76 -70 -117 -150 -117c-79 0 -135 42 -150 117z" />
    <glyph glyph-name="ubreve" unicode="&#x16d;" horiz-adv-x="580" 
d="M490 520v-520h-54l-6 95c-30 -58 -77 -105 -170 -105c-117 0 -175 58 -175 200v330h60v-310c0 -123 39 -162 130 -162c96 0 155 59 155 162v310h60zM142 733l46 12c13 -50 43 -80 99 -80s88 30 101 80l44 -13c-15 -76 -70 -117 -145 -117c-74 0 -130 42 -145 118z" />
    <glyph glyph-name="Uring" unicode="&#x16e;" horiz-adv-x="670" 
d="M335 -10c-171 0 -250 79 -250 275v435h64v-435c0 -162 53 -215 186 -215c135 0 186 51 186 215v435h64v-435c0 -196 -79 -275 -250 -275zM243 840c0 53 39 92 92 92s92 -39 92 -92s-39 -92 -92 -92s-92 39 -92 92zM283 840c0 -32 20 -52 52 -52s52 20 52 52
s-20 52 -52 52s-52 -20 -52 -52z" />
    <glyph glyph-name="uring" unicode="&#x16f;" horiz-adv-x="580" 
d="M490 520v-520h-54l-6 95c-30 -58 -77 -105 -170 -105c-117 0 -175 58 -175 200v330h60v-310c0 -123 39 -162 130 -162c96 0 155 59 155 162v310h60zM197 680c0 53 37 90 90 90s90 -37 90 -90s-37 -90 -90 -90s-90 37 -90 90zM237 680c0 -31 19 -50 50 -50
c30 0 50 20 50 50s-20 50 -50 50s-50 -20 -50 -50z" />
    <glyph glyph-name="Uhungarumlaut" unicode="&#x170;" horiz-adv-x="670" 
d="M335 -10c-171 0 -250 79 -250 275v435h64v-435c0 -162 53 -215 186 -215c135 0 186 51 186 215v435h64v-435c0 -196 -79 -275 -250 -275zM238 775l60 130h76l-90 -130h-46zM370 775l100 130h88l-136 -130h-52z" />
    <glyph glyph-name="uhungarumlaut" unicode="&#x171;" horiz-adv-x="580" 
d="M490 520v-520h-54l-6 95c-30 -58 -77 -105 -170 -105c-117 0 -175 58 -175 200v330h60v-310c0 -123 39 -162 130 -162c96 0 155 59 155 162v310h60zM195 615l50 130h76l-80 -130h-46zM317 615l90 130h88l-126 -130h-52z" />
    <glyph glyph-name="Uogonek" unicode="&#x172;" horiz-adv-x="670" 
d="M335 -10c-171 0 -250 79 -250 275v435h64v-435c0 -162 53 -215 186 -215c135 0 186 51 186 215v435h64v-435c0 -128 -34 -207 -105 -245c-63 -38 -117 -77 -117 -130c0 -22 12 -34 37 -34c19 0 36 5 55 16v-46c-19 -10 -41 -16 -70 -16c-55 0 -80 25 -80 70
c0 43 24 78 76 113c-14 -2 -30 -3 -46 -3z" />
    <glyph glyph-name="uogonek" unicode="&#x173;" horiz-adv-x="580" 
d="M420 -190c-55 0 -80 25 -80 70c0 42 29 84 95 127l-5 88c-30 -58 -77 -105 -170 -105c-117 0 -175 58 -175 200v330h60v-310c0 -123 39 -162 130 -162c96 0 155 59 155 162v310h60v-520c-66 -38 -94 -79 -94 -110c0 -22 14 -36 39 -36c19 0 36 5 55 16v-44
c-19 -10 -41 -16 -70 -16z" />
    <glyph glyph-name="Ydieresis" unicode="&#x178;" horiz-adv-x="610" 
d="M278 0v280l-253 420h72l214 -360l206 360h68l-243 -420v-280h-64zM209 796c-28 0 -44 16 -44 44s16 44 44 44s44 -16 44 -44s-16 -44 -44 -44zM401 796c-28 0 -44 16 -44 44s16 44 44 44s44 -16 44 -44s-16 -44 -44 -44z" />
    <glyph glyph-name="Zacute" unicode="&#x179;" horiz-adv-x="590" 
d="M55 0v48l390 594h-380v58h460v-48l-390 -594h400v-58h-480zM263 775l86 130h84l-116 -130h-54z" />
    <glyph glyph-name="zacute" unicode="&#x17a;" horiz-adv-x="490" 
d="M50 0v40l302 424h-292v56h370v-40l-302 -424h312v-56h-390zM214 615l78 130h82l-108 -130h-52z" />
    <glyph glyph-name="Zdotaccent" unicode="&#x17b;" horiz-adv-x="590" 
d="M55 0v48l390 594h-380v58h460v-48l-390 -594h400v-58h-480zM295 796c-28 0 -44 16 -44 44s16 44 44 44s44 -16 44 -44s-16 -44 -44 -44z" />
    <glyph glyph-name="zdotaccent" unicode="&#x17c;" horiz-adv-x="490" 
d="M50 0v40l302 424h-292v56h370v-40l-302 -424h312v-56h-390zM245 638c-27 0 -42 15 -42 42s15 42 42 42s42 -15 42 -42s-15 -42 -42 -42z" />
    <glyph glyph-name="Zcaron" unicode="&#x17d;" horiz-adv-x="590" 
d="M55 0v48l390 594h-380v58h460v-48l-390 -594h400v-58h-480zM258 775l-113 130h58l93 -88l93 88h56l-113 -130h-74z" />
    <glyph glyph-name="zcaron" unicode="&#x17e;" horiz-adv-x="490" 
d="M50 0v40l302 424h-292v56h370v-40l-302 -424h312v-56h-390zM210 615l-110 130h56l89 -90l91 90h54l-110 -130h-70z" />
    <glyph glyph-name="uni018F" unicode="&#x18f;" horiz-adv-x="690" 
d="M340 -10c-179 0 -285 104 -285 338v44h512c0 136 -40 280 -261 280c-68 0 -131 -10 -181 -29v60c52 16 111 27 187 27c225 0 323 -121 323 -358c0 -184 -75 -362 -295 -362zM340 48c124 0 221 79 227 265h-446c0 -181 70 -265 219 -265z" />
    <glyph glyph-name="florin" unicode="&#x192;" horiz-adv-x="600" 
d="M164 466l11 54h112l11 55c26 130 81 180 180 180c18 0 34 -2 57 -6l-12 -57c-10 3 -25 7 -47 7c-69 0 -97 -29 -116 -124l-11 -55h140l-11 -54h-140l-93 -466c-22 -113 -58 -185 -174 -185c-12 0 -24 1 -36 4l11 56c10 -3 20 -4 29 -4c54 0 89 34 108 129l93 466h-112z
" />
    <glyph glyph-name="uni01DD" unicode="&#x1dd;" horiz-adv-x="550" 
d="M270 -10c-140 0 -210 68 -210 258v27h370c-1 134 -58 197 -180 197c-65 0 -119 -24 -155 -55v68c26 20 82 45 155 45c159 0 240 -81 240 -270c0 -186 -84 -270 -220 -270zM270 48c101 0 157 53 160 175h-310c0 -108 34 -175 150 -175z" />
    <glyph glyph-name="Gcaron" unicode="&#x1e6;" horiz-adv-x="650" 
d="M380 -10c-217 0 -325 108 -325 365c0 241 114 355 325 355c95 0 155 -25 155 -25v-70c-35 18 -90 35 -155 35c-172 0 -259 -87 -259 -295c0 -222 83 -305 259 -305c46 0 96 7 131 20v216h-151v58h215v-314c-35 -17 -109 -40 -195 -40zM323 775l-113 130h58l93 -88l93 88
h56l-113 -130h-74z" />
    <glyph glyph-name="gcaron" unicode="&#x1e7;" horiz-adv-x="590" 
d="M280 -190c-83 0 -144 19 -180 39v78c27 -27 96 -59 175 -59c117 0 165 48 165 147v90c-25 -57 -73 -105 -170 -105c-136 0 -210 74 -210 270c0 177 77 260 200 260c93 0 158 -40 180 -105l6 95h54v-500c0 -140 -70 -210 -220 -210zM281 58c95 0 159 69 159 178v71
c0 92 -50 165 -165 165c-102 0 -153 -56 -153 -202c0 -158 54 -212 159 -212zM235 615l-110 130h56l89 -90l91 90h54l-110 -130h-70z" />
    <glyph glyph-name="Scommaaccent" unicode="&#x218;" horiz-adv-x="580" 
d="M280 -10c-81 0 -156 26 -195 55v80c44 -39 113 -75 195 -75c113 0 159 46 159 130c0 200 -349 100 -349 350c0 115 65 180 220 180c69 0 128 -16 165 -35v-80c-36 32 -102 55 -165 55c-116 0 -154 -38 -154 -120c0 -195 349 -85 349 -350c0 -120 -70 -190 -225 -190z
M248 -210l-10 42c26 4 56 13 60 36c-47 0 -60 17 -60 42c0 24 16 40 57 40c39 0 57 -19 57 -50c0 -54 -34 -100 -104 -110z" />
    <glyph glyph-name="scommaaccent" unicode="&#x219;" horiz-adv-x="475" 
d="M230 -10c-65 0 -110 12 -150 30v78c40 -33 90 -50 150 -50c80 0 113 33 113 92c0 145 -268 50 -268 245c0 92 53 145 175 145c55 0 106 -14 130 -24v-73c-35 24 -80 39 -130 39c-83 0 -113 -30 -113 -82c0 -140 268 -40 268 -245c0 -103 -53 -155 -175 -155zM195 -210
l-10 41c33 5 57 16 61 39c-45 0 -61 15 -61 40c0 24 16 40 55 40c37 0 55 -19 55 -55c0 -43 -29 -95 -100 -105z" />
    <glyph glyph-name="Tcommaaccent" unicode="&#x21a;" horiz-adv-x="580" 
d="M258 0v642h-218v58h500v-58h-218v-642h-64zM243 -210l-10 42c26 4 56 13 60 36c-47 0 -60 17 -60 42c0 24 16 40 57 40c39 0 57 -19 57 -50c0 -54 -34 -100 -104 -110z" />
    <glyph glyph-name="tcommaaccent" unicode="&#x21b;" horiz-adv-x="435" 
d="M280 -5c-95 0 -140 45 -140 150v319h-100v56h100v110l60 20v-130h180v-56h-180v-319c0 -69 23 -92 80 -92c47 0 76 15 100 33v-68c-18 -13 -58 -23 -100 -23zM210 -210l-10 41c33 5 57 16 61 39c-45 0 -61 15 -61 40c0 24 16 40 55 40c37 0 55 -19 55 -55
c0 -43 -29 -95 -100 -105z" />
    <glyph glyph-name="uni0237" unicode="&#x237;" horiz-adv-x="290" 
d="M46 -185c-31 0 -57 4 -70 10v68c17 -11 41 -20 70 -20c47 0 69 22 69 92v555h60v-555c0 -106 -44 -150 -129 -150z" />
    <glyph glyph-name="uni0259" unicode="&#x259;" horiz-adv-x="550" 
d="M270 -10c-140 0 -210 68 -210 258v27h370c-1 134 -58 197 -180 197c-65 0 -119 -24 -155 -55v68c26 20 82 45 155 45c159 0 240 -81 240 -270c0 -186 -84 -270 -220 -270zM270 48c101 0 157 53 160 175h-310c0 -108 34 -175 150 -175z" />
    <glyph glyph-name="afii57929" unicode="&#x2bc;" horiz-adv-x="240" 
d="M70 500l50 200h70l-70 -200h-50z" />
    <glyph glyph-name="circumflex" unicode="&#x2c6;" horiz-adv-x="400" 
d="M55 615l110 130h70l110 -130h-56l-89 90l-91 -90h-54z" />
    <glyph glyph-name="caron" unicode="&#x2c7;" horiz-adv-x="400" 
d="M165 615l-110 130h56l89 -90l91 90h54l-110 -130h-70z" />
    <glyph glyph-name="breve" unicode="&#x2d8;" horiz-adv-x="370" 
d="M40 733l46 12c13 -50 43 -80 99 -80s88 30 101 80l44 -13c-15 -76 -70 -117 -145 -117c-74 0 -130 42 -145 118z" />
    <glyph glyph-name="dotaccent" unicode="&#x2d9;" horiz-adv-x="210" 
d="M105 638c-27 0 -42 15 -42 42s15 42 42 42s42 -15 42 -42s-15 -42 -42 -42z" />
    <glyph glyph-name="ring" unicode="&#x2da;" horiz-adv-x="260" 
d="M40 680c0 53 37 90 90 90s90 -37 90 -90s-37 -90 -90 -90s-90 37 -90 90zM80 680c0 -31 19 -50 50 -50c30 0 50 20 50 50s-20 50 -50 50s-50 -20 -50 -50z" />
    <glyph glyph-name="ogonek" unicode="&#x2db;" horiz-adv-x="240" 
d="M125 -190c-55 0 -80 25 -80 70c0 44 33 89 109 136l41 -16c-66 -38 -94 -79 -94 -110c0 -22 14 -36 39 -36c19 0 36 5 55 16v-44c-19 -10 -41 -16 -70 -16z" />
    <glyph glyph-name="tilde" unicode="&#x2dc;" horiz-adv-x="400" 
d="M101 625l-41 11c5 49 33 80 76 80c24 0 43 -7 70 -19c24 -11 41 -22 59 -22c17 0 28 7 35 39l40 -11c-7 -52 -38 -79 -74 -79c-20 0 -33 0 -72 19c-23 11 -37 22 -56 22c-17 0 -29 -6 -37 -40z" />
    <glyph glyph-name="hungarumlaut" unicode="&#x2dd;" horiz-adv-x="460" 
d="M80 615l50 130h76l-80 -130h-46zM202 615l90 130h88l-126 -130h-52z" />
    <glyph glyph-name="acutecomb" unicode="&#x301;" horiz-adv-x="0" 
d="M-310 615l78 130h82l-108 -130h-52z" />
    <glyph glyph-name="uni0394" unicode="&#x394;" horiz-adv-x="640" 
d="M25 0l263 700h64l263 -700h-590zM113 60h410l-204 562h-2z" />
    <glyph glyph-name="uni0394" unicode="&#x2206;" horiz-adv-x="640" 
d="M25 0l263 700h64l263 -700h-590zM113 60h410l-204 562h-2z" />
    <glyph glyph-name="uni03A9" unicode="&#x3a9;" horiz-adv-x="740" 
d="M65 0v58h189v69c-112 33 -199 116 -199 278c0 187 118 305 315 305s315 -118 315 -305c0 -162 -91 -244 -198 -278v-69h188v-58h-252v171c132 22 196 127 196 234c0 150 -97 247 -249 247s-249 -97 -249 -247c0 -107 65 -212 197 -234v-171h-253z" />
    <glyph glyph-name="uni03A9" unicode="&#x2126;" horiz-adv-x="740" 
d="M65 0v58h189v69c-112 33 -199 116 -199 278c0 187 118 305 315 305s315 -118 315 -305c0 -162 -91 -244 -198 -278v-69h188v-58h-252v171c132 22 196 127 196 234c0 150 -97 247 -249 247s-249 -97 -249 -247c0 -107 65 -212 197 -234v-171h-253z" />
    <glyph glyph-name="pi" unicode="&#x3c0;" horiz-adv-x="710" 
d="M582 -5c-60 0 -92 38 -92 105v364h-270v-464h-60v462c-35 0 -75 -14 -97 -32l-23 54c35 23 73 36 150 36h450v-56h-90v-348c0 -49 14 -63 46 -63c23 0 37 4 44 6v-58c-14 -4 -34 -6 -58 -6z" />
    <glyph glyph-name="afii10023" unicode="&#x401;" horiz-adv-x="575" 
d="M110 0v700h405v-58h-341v-253h301v-58h-301v-273h341v-58h-405zM216 796c-28 0 -44 16 -44 44s16 44 44 44s44 -16 44 -44s-16 -44 -44 -44zM408 796c-28 0 -44 16 -44 44s16 44 44 44s44 -16 44 -44s-16 -44 -44 -44z" />
    <glyph glyph-name="afii10051" unicode="&#x402;" horiz-adv-x="770" 
d="M258 0v642h-218v58h500v-58h-218v-246c39 22 99 44 172 44c151 0 221 -70 221 -204v-41c0 -135 -70 -205 -190 -205c-28 0 -56 4 -75 10v64c18 -9 41 -14 70 -14c81 0 130 50 130 145v40c0 95 -50 145 -169 145c-59 0 -117 -20 -159 -45v-335h-64z" />
    <glyph glyph-name="afii10052" unicode="&#x403;" horiz-adv-x="535" 
d="M110 0v700h385v-58h-321v-642h-64zM270 775l86 130h84l-116 -130h-54z" />
    <glyph glyph-name="afii10053" unicode="&#x404;" horiz-adv-x="590" 
d="M365 -10c-197 0 -310 113 -310 365c0 250 105 355 315 355c100 0 155 -25 155 -25v-70c-37 23 -95 35 -155 35c-161 0 -241 -71 -249 -261h319v-58h-319c7 -198 96 -281 244 -281c74 0 133 24 170 46v-76s-65 -30 -170 -30z" />
    <glyph glyph-name="afii10054" unicode="&#x405;" horiz-adv-x="580" 
d="M280 -10c-81 0 -156 26 -195 55v80c44 -39 113 -75 195 -75c113 0 159 46 159 130c0 200 -349 100 -349 350c0 115 65 180 220 180c69 0 128 -16 165 -35v-80c-36 32 -102 55 -165 55c-116 0 -154 -38 -154 -120c0 -195 349 -85 349 -350c0 -120 -70 -190 -225 -190z" />
    <glyph glyph-name="afii10055" unicode="&#x406;" horiz-adv-x="330" 
d="M133 0v700h64v-700h-64z" />
    <glyph glyph-name="afii10056" unicode="&#x407;" horiz-adv-x="330" 
d="M133 0v700h64v-700h-64zM69 796c-28 0 -44 16 -44 44s16 44 44 44s44 -16 44 -44s-16 -44 -44 -44zM261 796c-28 0 -44 16 -44 44s16 44 44 44s44 -16 44 -44s-16 -44 -44 -44z" />
    <glyph glyph-name="afii10057" unicode="&#x408;" horiz-adv-x="420" 
d="M140 -10c-60 0 -100 20 -100 20v70s35 -30 100 -30c63 0 96 33 96 110v540h64v-540c0 -117 -53 -170 -160 -170z" />
    <glyph glyph-name="afii10058" unicode="&#x409;" horiz-adv-x="985" 
d="M670 -5c-70 0 -170 12 -170 12v635h-248l-3 -61c-25 -524 -77 -591 -174 -591c-13 0 -24 2 -35 5v60c9 -3 17 -5 30 -5c61 0 99 84 115 516l5 134h374v-270s66 5 126 5c174 0 240 -66 240 -215c0 -154 -71 -225 -260 -225zM864 220c0 116 -39 155 -184 155
c-60 0 -116 -5 -116 -5v-306s56 -9 116 -9c134 0 184 50 184 165z" />
    <glyph glyph-name="afii10059" unicode="&#x40a;" horiz-adv-x="1010" 
d="M695 -5c-70 0 -170 12 -170 12v324h-351v-331h-64v700h64v-311h351v311h64v-270s66 5 126 5c174 0 240 -66 240 -215c0 -154 -71 -225 -260 -225zM889 220c0 116 -39 155 -184 155c-60 0 -116 -5 -116 -5v-306s56 -9 116 -9c134 0 184 50 184 165z" />
    <glyph glyph-name="afii10060" unicode="&#x40b;" horiz-adv-x="795" 
d="M258 0v642h-218v58h500v-58h-218v-246c33 19 89 44 168 44c164 0 230 -66 230 -205v-235h-64v235c0 97 -48 145 -166 145c-79 0 -136 -25 -168 -45v-335h-64z" />
    <glyph glyph-name="afii10061" unicode="&#x40c;" horiz-adv-x="655" 
d="M541 0l-287 331h-80v-331h-64v700h64v-311h80l269 311h82l-295 -339l315 -361h-84zM325 775l86 130h84l-116 -130h-54z" />
    <glyph glyph-name="afii10062" unicode="&#x40e;" horiz-adv-x="630" 
d="M210 -10c-24 0 -47 3 -65 12v70c15 -11 37 -22 65 -22c42 0 63 28 92 96l-277 554h74l236 -480l200 480h70l-244 -572c-44 -103 -88 -138 -151 -138zM315 775c-90 0 -144 37 -150 130h59c5 -59 32 -82 91 -82s87 23 94 82h56c-8 -93 -60 -130 -150 -130z" />
    <glyph glyph-name="afii10145" unicode="&#x40f;" horiz-adv-x="690" 
d="M110 0v700h64v-642h342v642h64v-700h-205v-130h-60v130h-205z" />
    <glyph glyph-name="afii10017" unicode="&#x410;" horiz-adv-x="640" 
d="M25 0l263 700h64l263 -700h-70l-73 201h-308l-73 -201h-66zM318 625l-133 -366h266z" />
    <glyph glyph-name="afii10018" unicode="&#x411;" horiz-adv-x="630" 
d="M300 -5c-95 0 -190 12 -190 12v693h410v-58h-346v-230s56 5 126 5c206 0 265 -59 265 -205c0 -143 -74 -217 -265 -217zM499 212c0 104 -43 147 -199 147c-70 0 -126 -5 -126 -5v-290c0 -1 56 -9 126 -9c146 0 199 53 199 157z" />
    <glyph glyph-name="afii10019" unicode="&#x412;" horiz-adv-x="625" 
d="M310 -5c-90 0 -200 10 -200 10v690s112 10 195 10c177 0 230 -53 230 -183c0 -83 -36 -136 -118 -158c98 -14 143 -69 143 -166c0 -132 -71 -203 -250 -203zM494 198c0 88 -45 133 -174 133h-146v-271s56 -5 136 -5c142 0 184 42 184 143zM469 522c0 90 -33 123 -164 123
c-75 0 -131 -3 -131 -3v-253h136c115 0 159 44 159 133z" />
    <glyph glyph-name="afii10020" unicode="&#x413;" horiz-adv-x="535" 
d="M110 0v700h385v-58h-321v-642h-64z" />
    <glyph glyph-name="afii10021" unicode="&#x414;" horiz-adv-x="695" 
d="M30 -130v188h67c60 121 85 322 89 539l2 104h377v-643h85v-188h-60v130h-500v-130h-60zM163 58h339v585h-252c0 -204 -25 -450 -87 -585z" />
    <glyph glyph-name="afii10022" unicode="&#x415;" horiz-adv-x="575" 
d="M110 0v700h405v-58h-341v-253h301v-58h-301v-273h341v-58h-405z" />
    <glyph glyph-name="afii10024" unicode="&#x416;" horiz-adv-x="900" 
d="M45 0l239 360l-219 340h76l197 -311h80v311h64v-311h80l199 311h74l-219 -337l239 -363h-78l-215 331h-80v-331h-64v331h-80l-217 -331h-76z" />
    <glyph glyph-name="afii10025" unicode="&#x417;" horiz-adv-x="545" 
d="M240 -10c-86 0 -146 19 -185 40v80c39 -37 104 -60 185 -60c124 0 174 50 174 146c0 87 -48 135 -174 135h-90v58h90c98 0 145 47 145 136c0 83 -42 125 -145 125c-61 0 -120 -20 -170 -55v80c45 20 100 35 170 35c147 0 211 -64 211 -180c0 -85 -41 -145 -121 -166
c100 -9 150 -74 150 -173c0 -126 -75 -201 -240 -201z" />
    <glyph glyph-name="afii10026" unicode="&#x418;" horiz-adv-x="740" 
d="M110 0v700h64v-500c0 -50 -3 -100 -3 -100h2s30 50 63 100l330 500h64v-700h-64v500c0 60 3 100 3 100h-2s-24 -40 -63 -100l-330 -500h-64z" />
    <glyph glyph-name="afii10027" unicode="&#x419;" horiz-adv-x="740" 
d="M110 0v700h64v-500c0 -50 -3 -100 -3 -100h2s30 50 63 100l330 500h64v-700h-64v500c0 60 3 100 3 100h-2s-24 -40 -63 -100l-330 -500h-64zM370 775c-90 0 -144 37 -150 130h59c5 -59 32 -82 91 -82s87 23 94 82h56c-8 -93 -60 -130 -150 -130z" />
    <glyph glyph-name="afii10028" unicode="&#x41a;" horiz-adv-x="655" 
d="M541 0l-287 331h-80v-331h-64v700h64v-311h80l269 311h82l-295 -339l315 -361h-84z" />
    <glyph glyph-name="afii10029" unicode="&#x41b;" horiz-adv-x="695" 
d="M75 -10c-13 0 -24 2 -35 5v60c9 -3 17 -5 30 -5c61 0 99 84 115 516l5 134h395v-700h-64v642h-269l-3 -61c-25 -524 -77 -591 -174 -591z" />
    <glyph glyph-name="afii10030" unicode="&#x41c;" horiz-adv-x="850" 
d="M110 0v700h78l239 -450l239 450h74v-700h-64v490c0 50 0 70 4 120h-2c-19 -50 -30 -68 -58 -120l-168 -315h-54l-168 315c-28 52 -36 70 -58 120h-2c3 -50 4 -70 4 -120v-490h-64z" />
    <glyph glyph-name="afii10031" unicode="&#x41d;" horiz-adv-x="720" 
d="M110 0v700h64v-311h372v311h64v-700h-64v331h-372v-331h-64z" />
    <glyph glyph-name="afii10032" unicode="&#x41e;" horiz-adv-x="710" 
d="M355 -10c-190 0 -300 110 -300 360c0 252 108 360 300 360c197 0 300 -103 300 -360c0 -252 -108 -360 -300 -360zM355 50c151 0 234 83 234 300c0 218 -82 300 -234 300c-149 0 -234 -85 -234 -300c0 -213 87 -300 234 -300z" />
    <glyph glyph-name="afii10033" unicode="&#x41f;" horiz-adv-x="700" 
d="M110 0v700h480v-700h-64v642h-352v-642h-64z" />
    <glyph glyph-name="afii10034" unicode="&#x420;" horiz-adv-x="620" 
d="M110 0v695s90 10 185 10c197 0 270 -73 270 -230s-83 -240 -270 -240c-75 0 -121 6 -121 6v-241h-64zM499 475c0 122 -48 170 -204 170c-75 0 -121 -5 -121 -5v-339s46 -6 121 -6c148 0 204 56 204 180z" />
    <glyph glyph-name="afii10035" unicode="&#x421;" horiz-adv-x="575" 
d="M355 -10c-195 0 -300 105 -300 365c0 247 108 355 295 355c100 0 164 -25 164 -25v-70c-38 22 -94 35 -164 35c-148 0 -229 -81 -229 -295c0 -220 85 -305 234 -305c74 0 136 27 170 45v-70s-75 -35 -170 -35z" />
    <glyph glyph-name="afii10036" unicode="&#x422;" horiz-adv-x="580" 
d="M258 0v642h-218v58h500v-58h-218v-642h-64z" />
    <glyph glyph-name="afii10037" unicode="&#x423;" horiz-adv-x="630" 
d="M210 -10c-24 0 -47 3 -65 12v70c15 -11 37 -22 65 -22c42 0 63 28 92 96l-277 554h74l236 -480l200 480h70l-244 -572c-44 -103 -88 -138 -151 -138z" />
    <glyph glyph-name="afii10038" unicode="&#x424;" horiz-adv-x="830" 
d="M383 -20v80h-25c-209 0 -308 99 -308 295c0 200 95 295 308 295h25v70h64v-70h25c213 0 308 -95 308 -295c0 -196 -99 -295 -308 -295h-25v-80h-64zM116 355c0 -167 70 -237 242 -237h25v474h-25c-176 0 -242 -66 -242 -237zM714 355c0 171 -66 237 -242 237h-25v-474h25
c172 0 242 70 242 237z" />
    <glyph glyph-name="afii10039" unicode="&#x425;" horiz-adv-x="630" 
d="M102 0h-72l248 360l-233 340h74l197 -287l197 287h72l-233 -338l248 -362h-74l-212 308z" />
    <glyph glyph-name="afii10040" unicode="&#x426;" horiz-adv-x="730" 
d="M625 -130v130h-515v700h64v-642h367v642h64v-642h80v-188h-60z" />
    <glyph glyph-name="afii10041" unicode="&#x427;" horiz-adv-x="650" 
d="M476 0v305s-61 -45 -176 -45c-159 0 -225 66 -225 205v235h64v-235c0 -97 48 -145 161 -145c120 0 176 43 176 43v337h64v-700h-64z" />
    <glyph glyph-name="afii10042" unicode="&#x428;" horiz-adv-x="930" 
d="M110 0v700h64v-642h259v642h64v-642h259v642h64v-700h-710z" />
    <glyph glyph-name="afii10043" unicode="&#x429;" horiz-adv-x="950" 
d="M845 -130v130h-735v700h64v-642h259v642h64v-642h259v642h64v-642h85v-188h-60z" />
    <glyph glyph-name="afii10044" unicode="&#x42a;" horiz-adv-x="690" 
d="M360 -5c-70 0 -170 12 -170 12v635h-150v58h212v-270s68 5 128 5c189 0 255 -66 255 -215c0 -154 -71 -225 -275 -225zM569 220c0 116 -39 155 -199 155c-60 0 -118 -5 -118 -5v-306s58 -9 118 -9c149 0 199 50 199 165z" />
    <glyph glyph-name="afii10045" unicode="&#x42b;" horiz-adv-x="850" 
d="M280 -5c-70 0 -170 12 -170 12v693h62v-270s68 5 128 5c189 0 255 -66 255 -215c0 -154 -71 -225 -275 -225zM489 220c0 116 -39 155 -199 155c-60 0 -118 -5 -118 -5v-306s58 -9 118 -9c149 0 199 50 199 165zM676 0v700h64v-700h-64z" />
    <glyph glyph-name="afii10046" unicode="&#x42c;" horiz-adv-x="610" 
d="M280 -5c-70 0 -170 12 -170 12v693h64v-270s66 5 126 5c189 0 255 -66 255 -215c0 -154 -71 -225 -275 -225zM489 220c0 116 -39 155 -199 155c-60 0 -116 -5 -116 -5v-306s56 -9 116 -9c149 0 199 50 199 165z" />
    <glyph glyph-name="afii10047" unicode="&#x42d;" horiz-adv-x="590" 
d="M150 331v58h318c-8 190 -87 261 -248 261c-60 0 -118 -12 -155 -35v70s55 25 155 25c210 0 315 -105 315 -355c0 -252 -113 -365 -310 -365c-105 0 -170 30 -170 30v76c37 -22 96 -46 170 -46c148 0 237 83 243 281h-318z" />
    <glyph glyph-name="afii10048" unicode="&#x42e;" horiz-adv-x="960" 
d="M615 -10c-183 0 -284 95 -290 336h-151v-326h-64v700h64v-316h151c9 231 112 326 290 326c189 0 290 -101 290 -360c0 -254 -106 -360 -290 -360zM615 48c143 0 224 81 224 302s-81 302 -224 302s-224 -81 -224 -302s81 -302 224 -302z" />
    <glyph glyph-name="afii10049" unicode="&#x42f;" horiz-adv-x="640" 
d="M60 0l183 290c-94 29 -138 98 -138 200c0 147 68 215 250 215c95 0 175 -10 175 -10v-695h-64v276h-111c-17 0 -33 1 -48 2l-173 -278h-74zM171 490c0 -103 53 -156 184 -156h111v308s-56 3 -111 3c-141 0 -184 -43 -184 -155z" />
    <glyph glyph-name="afii10065" unicode="&#x430;" horiz-adv-x="535" 
d="M230 -10c-112 0 -170 58 -170 155c0 102 53 155 210 155h120v55c0 85 -32 117 -135 117c-62 0 -117 -21 -155 -47v68c35 20 100 37 160 37c136 0 190 -54 190 -180v-350h-54l-6 95c-27 -58 -77 -105 -160 -105zM235 48c96 0 155 59 155 162v40h-120
c-114 0 -148 -34 -148 -105c0 -64 33 -97 113 -97z" />
    <glyph glyph-name="afii10066" unicode="&#x431;" horiz-adv-x="590" 
d="M300 -10c-146 0 -230 84 -230 314c0 321 57 397 233 423c61 9 147 16 187 33v-68c-25 -10 -61 -14 -168 -25c-134 -14 -188 -47 -195 -267h2c31 70 92 120 196 120c137 0 205 -68 205 -252c0 -192 -86 -278 -230 -278zM300 48c106 0 168 62 168 215
c0 150 -49 199 -158 199c-114 0 -178 -69 -178 -192c0 -162 60 -222 168 -222z" />
    <glyph glyph-name="afii10067" unicode="&#x432;" horiz-adv-x="540" 
d="M270 -5c-100 0 -180 5 -180 5v520s80 5 170 5c154 0 200 -53 200 -137c0 -56 -28 -96 -100 -113c83 -7 120 -53 120 -132c0 -93 -55 -148 -210 -148zM418 148c0 61 -33 94 -138 94h-131v-186s51 -3 121 -3c122 0 148 26 148 95zM398 383c0 57 -27 84 -138 84
c-70 0 -111 -2 -111 -2v-167h131c85 0 118 33 118 85z" />
    <glyph glyph-name="afii10068" unicode="&#x433;" horiz-adv-x="435" 
d="M90 0v520h310v-56h-250v-464h-60z" />
    <glyph glyph-name="afii10069" unicode="&#x434;" horiz-adv-x="595" 
d="M35 -130v186h60c43 84 68 242 68 464h318v-464h74v-186h-56v130h-408v-130h-56zM155 56h266v408h-202c0 -149 -21 -318 -64 -408z" />
    <glyph glyph-name="afii10070" unicode="&#x435;" horiz-adv-x="550" 
d="M300 -10c-159 0 -240 81 -240 270c0 186 84 270 220 270c140 0 210 -68 210 -258v-27h-370c1 -134 58 -197 180 -197c65 0 119 24 155 55v-68c-27 -19 -82 -45 -155 -45zM280 472c-101 0 -157 -53 -160 -175h310c0 108 -34 175 -150 175z" />
    <glyph glyph-name="afii10072" unicode="&#x436;" horiz-adv-x="770" 
d="M45 0l194 266l-179 254h70l155 -222h70v222h60v-222h70l157 222h68l-178 -248l193 -272h-70l-170 242h-70v-242h-60v242h-67l-175 -242h-68z" />
    <glyph glyph-name="afii10073" unicode="&#x437;" horiz-adv-x="475" 
d="M215 -10c-55 0 -128 12 -170 34v78c33 -28 87 -54 170 -54c103 0 140 37 140 100c0 59 -30 89 -140 89h-75v56h75c85 0 120 35 120 90c0 61 -28 89 -120 89c-65 0 -120 -21 -159 -52v78c39 17 85 32 159 32c134 0 180 -46 180 -146c0 -55 -30 -99 -95 -114
c75 -5 115 -47 115 -122c0 -99 -59 -158 -200 -158z" />
    <glyph glyph-name="afii10074" unicode="&#x438;" horiz-adv-x="590" 
d="M90 0v520h60v-360c0 -40 -3 -80 -3 -80h2s22 40 49 80l242 360h60v-520h-60v360c0 40 3 80 3 80h-2s-22 -40 -49 -80l-242 -360h-60z" />
    <glyph glyph-name="afii10075" unicode="&#x439;" horiz-adv-x="590" 
d="M90 0v520h60v-360c0 -40 -3 -80 -3 -80h2s22 40 49 80l242 360h60v-520h-60v360c0 40 3 80 3 80h-2s-22 -40 -49 -80l-242 -360h-60zM295 615c-85 0 -139 37 -145 130h58c5 -60 32 -84 87 -84s84 24 91 84h54c-8 -93 -60 -130 -145 -130z" />
    <glyph glyph-name="afii10076" unicode="&#x43a;" horiz-adv-x="555" 
d="M90 0v520h60v-222h70l192 222h76l-217 -249l239 -271h-78l-212 242h-70v-242h-60z" />
    <glyph glyph-name="afii10077" unicode="&#x43b;" horiz-adv-x="575" 
d="M66 -10c-12 0 -20 1 -31 4v68c8 -3 16 -4 25 -4c57 0 88 66 94 404l1 58h330v-520h-60v464h-214l-1 -38c-9 -344 -55 -436 -144 -436z" />
    <glyph glyph-name="afii10078" unicode="&#x43c;" horiz-adv-x="680" 
d="M90 0v520h82l170 -325l172 325h76v-520h-60v350c0 34 4 100 4 100h-2s-37 -77 -50 -100l-117 -220h-50l-116 220c-13 25 -50 100 -50 100h-2s3 -65 3 -100v-350h-60z" />
    <glyph glyph-name="afii10079" unicode="&#x43d;" horiz-adv-x="580" 
d="M90 0v520h60v-227h280v227h60v-520h-60v237h-280v-237h-60z" />
    <glyph glyph-name="afii10080" unicode="&#x43e;" horiz-adv-x="570" 
d="M285 -10c-145 0 -225 81 -225 270c0 182 88 270 225 270c148 0 225 -77 225 -270c0 -189 -82 -270 -225 -270zM285 472c-104 0 -163 -59 -163 -212c0 -158 54 -212 163 -212s163 54 163 212s-54 212 -163 212z" />
    <glyph glyph-name="afii10081" unicode="&#x43f;" horiz-adv-x="570" 
d="M90 0v520h390v-520h-60v464h-270v-464h-60z" />
    <glyph glyph-name="afii10082" unicode="&#x440;" horiz-adv-x="590" 
d="M90 -180v700h54l6 -90c32 54 78 100 180 100c129 0 200 -71 200 -265c0 -201 -74 -275 -210 -275c-97 0 -145 48 -170 105v-275h-60zM468 265c0 155 -52 207 -153 207c-106 0 -165 -59 -165 -174v-76c0 -110 64 -174 160 -174c106 0 158 52 158 217z" />
    <glyph glyph-name="afii10083" unicode="&#x441;" horiz-adv-x="475" 
d="M305 -10c-162 0 -245 83 -245 275c0 180 85 265 235 265c59 0 104 -12 130 -24v-68c-29 19 -77 34 -130 34c-110 0 -173 -63 -173 -207c0 -153 64 -217 183 -217c48 0 101 18 130 40v-68c-27 -16 -68 -30 -130 -30z" />
    <glyph glyph-name="afii10084" unicode="&#x442;" horiz-adv-x="480" 
d="M210 0v464h-175v56h410v-56h-175v-464h-60z" />
    <glyph glyph-name="afii10085" unicode="&#x443;" horiz-adv-x="520" 
d="M150 -190c-21 0 -39 4 -50 10v64c12 -9 27 -16 50 -16c34 0 55 15 94 132l-219 520h66l183 -445l157 445h64l-194 -530c-58 -158 -91 -180 -151 -180z" />
    <glyph glyph-name="afii10086" unicode="&#x444;" horiz-adv-x="720" 
d="M330 -180v173s-20 -3 -45 -3c-155 0 -225 70 -225 270c0 195 75 270 225 270c25 0 45 -4 45 -4v224h60v-225s20 5 45 5c160 0 225 -65 225 -270c0 -195 -75 -270 -225 -270c-25 0 -45 3 -45 3v-173h-60zM122 260c0 -162 50 -212 173 -212c20 0 35 2 35 2v418s-20 3 -35 3
c-121 0 -173 -52 -173 -211zM598 260c0 161 -50 211 -173 211c-19 0 -35 -3 -35 -3v-418s15 -2 35 -2c118 0 173 55 173 212z" />
    <glyph glyph-name="afii10087" unicode="&#x445;" horiz-adv-x="540" 
d="M45 0l191 270l-176 250h70l141 -201l141 201h68l-176 -249l191 -271h-70l-156 223l-156 -223h-68z" />
    <glyph glyph-name="afii10088" unicode="&#x446;" horiz-adv-x="590" 
d="M494 -130v130h-404v520h60v-464h260v464h60v-464h80v-186h-56z" />
    <glyph glyph-name="afii10089" unicode="&#x447;" horiz-adv-x="530" 
d="M380 0v213s-60 -26 -140 -26c-127 0 -185 58 -185 158v175h60v-175c0 -68 34 -102 125 -102c90 0 140 24 140 24v253h60v-520h-60z" />
    <glyph glyph-name="afii10090" unicode="&#x448;" horiz-adv-x="780" 
d="M90 0v520h60v-464h210v464h60v-464h210v464h60v-520h-600z" />
    <glyph glyph-name="afii10091" unicode="&#x449;" horiz-adv-x="810" 
d="M714 -130v130h-624v520h60v-464h210v464h60v-464h210v464h60v-464h80v-186h-56z" />
    <glyph glyph-name="afii10092" unicode="&#x44a;" horiz-adv-x="600" 
d="M340 -5c-80 0 -170 10 -170 10v459h-135v56h195v-185s50 6 110 6c159 0 215 -56 215 -168c0 -115 -63 -178 -215 -178zM493 173c0 81 -29 110 -153 110c-60 0 -110 -5 -110 -5v-221s50 -4 110 -4c121 0 153 32 153 120z" />
    <glyph glyph-name="afii10093" unicode="&#x44b;" horiz-adv-x="730" 
d="M260 -5c-80 0 -170 10 -170 10v515h60v-185s50 6 110 6c159 0 215 -56 215 -168c0 -115 -63 -178 -215 -178zM413 173c0 81 -29 110 -153 110c-60 0 -110 -5 -110 -5v-221s50 -4 110 -4c121 0 153 32 153 120zM580 0v520h60v-520h-60z" />
    <glyph glyph-name="afii10094" unicode="&#x44c;" horiz-adv-x="520" 
d="M260 -5c-80 0 -170 10 -170 10v515h60v-185s50 6 110 6c159 0 215 -56 215 -168c0 -115 -63 -178 -215 -178zM413 173c0 81 -29 110 -153 110c-60 0 -110 -5 -110 -5v-221s50 -4 110 -4c121 0 153 32 153 120z" />
    <glyph glyph-name="afii10095" unicode="&#x44d;" horiz-adv-x="495" 
d="M130 245v50h242c-7 131 -61 177 -182 177c-68 0 -111 -20 -140 -39v68c26 12 66 29 140 29c165 0 245 -80 245 -265c0 -187 -88 -275 -255 -275c-72 0 -108 14 -135 30v68c29 -22 77 -40 135 -40c128 0 187 54 192 197h-242z" />
    <glyph glyph-name="afii10096" unicode="&#x44e;" horiz-adv-x="770" 
d="M485 -10c-141 0 -219 72 -225 247h-110v-237h-60v520h60v-227h111c8 168 85 237 224 237c147 0 225 -78 225 -270s-78 -270 -225 -270zM485 48c109 0 163 54 163 212s-54 212 -163 212s-163 -54 -163 -212s54 -212 163 -212z" />
    <glyph glyph-name="afii10097" unicode="&#x44f;" horiz-adv-x="550" 
d="M60 0l131 195c-81 22 -111 75 -111 162c0 100 68 168 215 168c100 0 165 -10 165 -10v-515h-60v184h-105c-16 0 -31 0 -44 1l-123 -185h-68zM142 357c0 -81 34 -115 153 -115h105v221s-45 4 -105 4c-116 0 -153 -37 -153 -110z" />
    <glyph glyph-name="afii10071" unicode="&#x451;" horiz-adv-x="550" 
d="M300 -10c-159 0 -240 81 -240 270c0 186 84 270 220 270c140 0 210 -68 210 -258v-27h-370c1 -134 58 -197 180 -197c65 0 119 24 155 55v-68c-27 -19 -82 -45 -155 -45zM280 472c-101 0 -157 -53 -160 -175h310c0 108 -34 175 -150 175zM192 638c-27 0 -42 15 -42 42
s15 42 42 42s42 -15 42 -42s-15 -42 -42 -42zM368 638c-27 0 -42 15 -42 42s15 42 42 42s42 -15 42 -42s-15 -42 -42 -42z" />
    <glyph glyph-name="afii10099" unicode="&#x452;" horiz-adv-x="605" 
d="M10 468v52h100v230h60v-230h200v-52h-200v-203c30 63 77 105 170 105c122 0 180 -58 180 -200v-60c0 -131 -60 -238 -195 -300l-25 35c125 71 160 144 160 275v30c0 123 -39 162 -135 162s-155 -59 -155 -162v-150h-60v468h-100z" />
    <glyph glyph-name="afii10100" unicode="&#x453;" horiz-adv-x="435" 
d="M90 0v520h310v-56h-250v-464h-60zM214 615l78 130h82l-108 -130h-52z" />
    <glyph glyph-name="afii10101" unicode="&#x454;" horiz-adv-x="495" 
d="M315 -10c-167 0 -255 88 -255 275c0 185 80 265 245 265c74 0 114 -17 140 -29v-68c-29 19 -72 39 -140 39c-121 0 -175 -46 -182 -177h242v-50h-243c5 -143 65 -197 193 -197c58 0 106 18 135 40v-68c-27 -16 -63 -30 -135 -30z" />
    <glyph glyph-name="afii10102" unicode="&#x455;" horiz-adv-x="475" 
d="M230 -10c-65 0 -110 12 -150 30v78c40 -33 90 -50 150 -50c80 0 113 33 113 92c0 145 -268 50 -268 245c0 92 53 145 175 145c55 0 106 -14 130 -24v-73c-35 24 -80 39 -130 39c-83 0 -113 -30 -113 -82c0 -140 268 -40 268 -245c0 -103 -53 -155 -175 -155z" />
    <glyph glyph-name="afii10103" unicode="&#x456;" horiz-adv-x="290" 
d="M115 0v520h60v-520h-60zM145 638c-27 0 -42 15 -42 42s15 42 42 42s42 -15 42 -42s-15 -42 -42 -42z" />
    <glyph glyph-name="afii10104" unicode="&#x457;" horiz-adv-x="290" 
d="M115 0v520h60v-520h-60zM62 638c-27 0 -42 15 -42 42s15 42 42 42s42 -15 42 -42s-15 -42 -42 -42zM238 638c-27 0 -42 15 -42 42s15 42 42 42s42 -15 42 -42s-15 -42 -42 -42z" />
    <glyph glyph-name="afii10105" unicode="&#x458;" horiz-adv-x="290" 
d="M46 -185c-31 0 -57 4 -70 10v68c17 -11 41 -20 70 -20c47 0 69 22 69 92v555h60v-555c0 -106 -44 -150 -129 -150zM145 638c-27 0 -42 15 -42 42s15 42 42 42s42 -15 42 -42s-15 -42 -42 -42z" />
    <glyph glyph-name="afii10106" unicode="&#x459;" horiz-adv-x="820" 
d="M575 -5c-75 0 -165 10 -165 10v459h-199l-1 -38c-9 -344 -55 -436 -144 -436c-12 0 -20 1 -31 4v68c8 -3 16 -4 25 -4c57 0 88 66 94 404l1 58h315v-185s50 6 105 6c144 0 200 -56 200 -168c0 -115 -63 -178 -200 -178zM713 173c0 81 -29 110 -138 110
c-55 0 -105 -5 -105 -5v-221s50 -4 105 -4c106 0 138 32 138 120z" />
    <glyph glyph-name="afii10107" unicode="&#x45a;" horiz-adv-x="830" 
d="M585 -5c-75 0 -165 10 -165 10v232h-270v-237h-60v520h60v-227h270v227h60v-185s50 6 105 6c144 0 200 -56 200 -168c0 -115 -63 -178 -200 -178zM723 173c0 81 -29 110 -138 110c-55 0 -105 -5 -105 -5v-221s50 -4 105 -4c106 0 138 32 138 120z" />
    <glyph glyph-name="afii10108" unicode="&#x45b;" horiz-adv-x="605" 
d="M10 468v52h100v230h60v-230h200v-52h-200v-203c30 63 77 105 170 105c122 0 180 -58 180 -200v-170h-60v150c0 123 -39 162 -135 162s-155 -59 -155 -162v-150h-60v468h-100z" />
    <glyph glyph-name="afii10109" unicode="&#x45c;" horiz-adv-x="555" 
d="M90 0v520h60v-222h70l192 222h76l-217 -249l239 -271h-78l-212 242h-70v-242h-60zM258 615l78 130h82l-108 -130h-52z" />
    <glyph glyph-name="afii10110" unicode="&#x45e;" horiz-adv-x="520" 
d="M150 -190c-21 0 -39 4 -50 10v64c12 -9 27 -16 50 -16c34 0 55 15 94 132l-219 520h66l183 -445l157 445h64l-194 -530c-58 -158 -91 -180 -151 -180zM260 615c-85 0 -139 37 -145 130h58c5 -60 32 -84 87 -84s84 24 91 84h54c-8 -93 -60 -130 -145 -130z" />
    <glyph glyph-name="afii10193" unicode="&#x45f;" horiz-adv-x="560" 
d="M90 0v520h60v-464h260v464h60v-520h-162v-130h-56v130h-162z" />
    <glyph glyph-name="afii10050" unicode="&#x490;" horiz-adv-x="535" 
d="M110 0v700h325v110h60v-168h-321v-642h-64z" />
    <glyph glyph-name="afii10098" unicode="&#x491;" horiz-adv-x="435" 
d="M90 0v520h254v110h56v-166h-250v-464h-60z" />
    <glyph glyph-name="uni0492" unicode="&#x492;" horiz-adv-x="545" 
d="M20 323v54h100v323h385v-58h-321v-265h216v-54h-216v-323h-64v323h-100z" />
    <glyph glyph-name="uni0493" unicode="&#x493;" horiz-adv-x="465" 
d="M20 234v52h100v234h310v-56h-250v-178h170v-52h-170v-234h-60v234h-100z" />
    <glyph glyph-name="uni049A" unicode="&#x49a;" horiz-adv-x="655" 
d="M541 0l-287 331h-80v-331h-64v700h64v-311h80l269 311h82l-295 -339l264 -303h66v-188h-60v130h-39z" />
    <glyph glyph-name="uni049B" unicode="&#x49b;" horiz-adv-x="555" 
d="M90 0v520h60v-222h70l192 222h76l-217 -249l189 -215h70v-186h-56v130h-42l-212 242h-70v-242h-60z" />
    <glyph glyph-name="uni04A2" unicode="&#x4a2;" horiz-adv-x="745" 
d="M640 -130v130h-84v331h-382v-331h-64v700h64v-311h382v311h64v-642h80v-188h-60z" />
    <glyph glyph-name="uni04A3" unicode="&#x4a3;" horiz-adv-x="610" 
d="M514 -130v130h-84v237h-280v-237h-60v520h60v-227h280v227h60v-464h80v-186h-56z" />
    <glyph glyph-name="uni04AE" unicode="&#x4ae;" horiz-adv-x="610" 
d="M278 0v280l-253 420h72l214 -360l206 360h68l-243 -420v-280h-64z" />
    <glyph glyph-name="uni04AF" unicode="&#x4af;" horiz-adv-x="520" 
d="M230 -180v180l-205 520h66l170 -445l170 445h64l-205 -520v-180h-60z" />
    <glyph glyph-name="uni04B0" unicode="&#x4b0;" horiz-adv-x="610" 
d="M110 248v54h154l-239 398h72l214 -360l206 360h68l-231 -398h156v-54h-168v-248h-64v248h-168z" />
    <glyph glyph-name="uni04B1" unicode="&#x4b1;" horiz-adv-x="520" 
d="M95 -52v52h135l-205 520h66l170 -445l170 445h64l-205 -520h135v-52h-135v-128h-60v128h-135z" />
    <glyph glyph-name="uni04BA" unicode="&#x4ba;" horiz-adv-x="650" 
d="M110 0v700h64v-305s61 45 176 45c159 0 225 -66 225 -205v-235h-64v235c0 97 -48 145 -161 145c-120 0 -176 -43 -176 -43v-337h-64z" />
    <glyph glyph-name="uni04BB" unicode="&#x4bb;" horiz-adv-x="585" 
d="M90 0v750h60v-325c30 63 77 105 170 105c122 0 180 -58 180 -200v-330h-60v310c0 123 -39 162 -135 162s-155 -59 -155 -162v-310h-60z" />
    <glyph glyph-name="uni04C0" unicode="&#x4c0;" horiz-adv-x="330" 
d="M133 0v700h64v-700h-64z" />
    <glyph glyph-name="uni04CF" unicode="&#x4cf;" horiz-adv-x="290" 
d="M115 0v750h60v-750h-60z" />
    <glyph glyph-name="uni04D8" unicode="&#x4d8;" horiz-adv-x="690" 
d="M340 -10c-179 0 -285 104 -285 338v44h512c0 136 -40 280 -261 280c-68 0 -131 -10 -181 -29v60c52 16 111 27 187 27c225 0 323 -121 323 -358c0 -184 -75 -362 -295 -362zM340 48c124 0 221 79 227 265h-446c0 -181 70 -265 219 -265z" />
    <glyph glyph-name="afii10846" unicode="&#x4d9;" horiz-adv-x="550" 
d="M270 -10c-140 0 -210 68 -210 258v27h370c-1 134 -58 197 -180 197c-65 0 -119 -24 -155 -55v68c26 20 82 45 155 45c159 0 240 -81 240 -270c0 -186 -84 -270 -220 -270zM270 48c101 0 157 53 160 175h-310c0 -108 34 -175 150 -175z" />
    <glyph glyph-name="uni04E8" unicode="&#x4e8;" horiz-adv-x="710" 
d="M355 -10c-190 0 -300 110 -300 360c0 252 108 360 300 360c197 0 300 -103 300 -360c0 -252 -108 -360 -300 -360zM355 650c-142 0 -226 -77 -234 -271h467c-7 196 -88 271 -233 271zM355 50c144 0 226 75 233 271h-467c8 -192 94 -271 234 -271z" />
    <glyph glyph-name="uni04E9" unicode="&#x4e9;" horiz-adv-x="570" 
d="M285 -10c-145 0 -225 81 -225 270c0 182 88 270 225 270c148 0 225 -77 225 -270c0 -189 -82 -270 -225 -270zM285 48c103 0 157 48 162 189h-325c5 -141 59 -189 163 -189zM285 472c-96 0 -154 -51 -162 -179h324c-8 132 -61 179 -162 179z" />
    <glyph glyph-name="uni1E9E" unicode="&#x1e9e;" horiz-adv-x="675" 
d="M100 0v476c0 149 85 234 235 234c81 0 167 -29 227 -107l-161 -194v-1c165 -13 209 -123 209 -205c0 -128 -85 -213 -240 -213c-46 0 -66 7 -90 12v60c28 -7 50 -14 90 -14c119 0 174 55 174 155c0 95 -59 155 -189 155h-25v38l158 199c-37 39 -89 57 -153 57
c-111 0 -171 -60 -171 -181v-471h-64z" />
    <glyph glyph-name="figuredash" unicode="&#x2012;" horiz-adv-x="650" 
d="M90 326v58h470v-58h-470z" />
    <glyph glyph-name="endash" unicode="&#x2013;" horiz-adv-x="650" 
d="M90 241v58h470v-58h-470z" />
    <glyph glyph-name="emdash" unicode="&#x2014;" horiz-adv-x="830" 
d="M90 241v58h650v-58h-650z" />
    <glyph glyph-name="quoteleft" unicode="&#x2018;" horiz-adv-x="320" 
d="M207 710l28 -40c-56 -23 -86 -66 -89 -105c36 0 54 -18 54 -50s-18 -50 -50 -50c-37 0 -55 22 -55 70c0 78 46 147 112 175z" />
    <glyph glyph-name="quoteright" unicode="&#x2019;" horiz-adv-x="320" 
d="M113 460l-28 40c56 23 86 66 89 105c-36 0 -54 18 -54 50s18 50 50 50c37 0 55 -22 55 -70c0 -78 -46 -147 -112 -175z" />
    <glyph glyph-name="quotesinglbase" unicode="&#x201a;" horiz-adv-x="330" 
d="M108 -150l-28 40c56 23 86 66 89 105c-36 0 -54 18 -54 50s18 50 50 50c37 0 55 -22 55 -70c0 -78 -46 -147 -112 -175z" />
    <glyph glyph-name="quotedblleft" unicode="&#x201c;" horiz-adv-x="560" 
d="M217 710l28 -40c-56 -23 -86 -66 -89 -105c36 0 54 -18 54 -50s-18 -50 -50 -50c-37 0 -55 22 -55 70c0 78 46 147 112 175zM437 710l28 -40c-56 -23 -86 -66 -89 -105c36 0 54 -18 54 -50s-18 -50 -50 -50c-37 0 -55 22 -55 70c0 78 46 147 112 175z" />
    <glyph glyph-name="quotedblright" unicode="&#x201d;" horiz-adv-x="560" 
d="M123 460l-28 40c56 23 86 66 89 105c-36 0 -54 18 -54 50s18 50 50 50c37 0 55 -22 55 -70c0 -78 -46 -147 -112 -175zM343 461l-28 40c56 23 86 66 89 105c-36 0 -54 18 -54 50s18 50 50 50c37 0 55 -22 55 -70c0 -78 -46 -147 -112 -175z" />
    <glyph glyph-name="quotedblbase" unicode="&#x201e;" horiz-adv-x="570" 
d="M118 -150l-28 40c56 23 86 66 89 105c-36 0 -54 18 -54 50s18 50 50 50c37 0 55 -22 55 -70c0 -78 -46 -147 -112 -175zM338 -150l-28 40c56 23 86 66 89 105c-36 0 -54 18 -54 50s18 50 50 50c37 0 55 -22 55 -70c0 -78 -46 -147 -112 -175z" />
    <glyph glyph-name="dagger" unicode="&#x2020;" horiz-adv-x="500" 
d="M220 0v464h-180v56h180v180h60v-180h180v-56h-180v-464h-60z" />
    <glyph glyph-name="daggerdbl" unicode="&#x2021;" horiz-adv-x="500" 
d="M40 180v56h180v228h-180v56h180v180h60v-180h180v-56h-180v-228h180v-56h-180v-180h-60v180h-180z" />
    <glyph glyph-name="bullet" unicode="&#x2022;" horiz-adv-x="400" 
d="M200 260c-55 0 -90 35 -90 90s35 90 90 90s90 -35 90 -90s-35 -90 -90 -90z" />
    <glyph glyph-name="ellipsis" unicode="&#x2026;" horiz-adv-x="990" 
d="M165 -5c-32 0 -50 18 -50 50s18 50 50 50s50 -18 50 -50s-18 -50 -50 -50zM495 -5c-32 0 -50 18 -50 50s18 50 50 50s50 -18 50 -50s-18 -50 -50 -50zM825 -5c-32 0 -50 18 -50 50s18 50 50 50s50 -18 50 -50s-18 -50 -50 -50z" />
    <glyph glyph-name="perthousand" unicode="&#x2030;" horiz-adv-x="1260" 
d="M160 0l476 700h64l-476 -700h-64zM235 375c-99 0 -160 61 -160 165s61 165 160 165s160 -61 160 -165s-61 -165 -160 -165zM235 427c67 0 104 37 104 113s-37 113 -104 113s-104 -37 -104 -113s37 -113 104 -113zM625 -5c-99 0 -160 61 -160 165s61 165 160 165
s160 -61 160 -165s-61 -165 -160 -165zM625 47c67 0 104 37 104 113s-37 113 -104 113s-104 -37 -104 -113s37 -113 104 -113zM1025 -5c-99 0 -160 61 -160 165s61 165 160 165s160 -61 160 -165s-61 -165 -160 -165zM1025 47c67 0 104 37 104 113s-37 113 -104 113
s-104 -37 -104 -113s37 -113 104 -113z" />
    <glyph glyph-name="guilsinglleft" unicode="&#x2039;" horiz-adv-x="340" 
d="M60 269l136 206h64l-135 -204l135 -206h-66z" />
    <glyph glyph-name="guilsinglright" unicode="&#x203a;" horiz-adv-x="340" 
d="M80 65l135 204l-135 206h66l134 -204l-136 -206h-64z" />
    <glyph glyph-name="fraction" unicode="&#x2044;" horiz-adv-x="180" 
d="M-180 0l476 700h64l-476 -700h-64z" />
    <glyph glyph-name="uni2070" unicode="&#x2070;" 
d="M40 590c0 156 72 215 184 215c124 0 186 -59 186 -215c0 -160 -70 -215 -185 -215c-118 0 -185 61 -185 215zM99 590c0 -124 49 -167 129 -167c76 0 122 44 122 167c0 125 -45 167 -126 167c-74 0 -125 -43 -125 -167z" />
    <glyph glyph-name="uni2074" unicode="&#x2074;" 
d="M30 480v46l259 274h71v-271h55v-49h-55v-100h-55v100h-275zM305 529v216h-1l-205 -216h206z" />
    <glyph glyph-name="uni2075" unicode="&#x2075;" 
d="M79 594l12 206h285v-50h-241l-6 -108c29 2 59 4 106 4c100 0 157 -42 157 -127c0 -89 -60 -144 -169 -144c-46 0 -103 4 -146 17v52c58 -18 94 -19 145 -19c68 0 111 30 111 90c0 56 -32 84 -118 84c-50 0 -93 -2 -136 -5z" />
    <glyph glyph-name="uni2076" unicode="&#x2076;" 
d="M227 375c-130 0 -177 81 -177 200c0 131 52 230 200 230c37 0 72 -4 109 -13v-51c-37 13 -77 14 -108 14c-86 0 -147 -46 -151 -160c32 30 82 56 144 56c88 0 156 -34 156 -130c0 -95 -72 -146 -173 -146zM104 550c0 -72 40 -129 124 -129c61 0 113 29 113 99
c0 62 -49 84 -106 84c-49 0 -97 -21 -131 -54z" />
    <glyph glyph-name="uni2077" unicode="&#x2077;" 
d="M134 380l198 370h-282v50h345v-39l-201 -381h-60z" />
    <glyph glyph-name="uni2078" unicode="&#x2078;" 
d="M225 375c-116 0 -180 39 -180 120c0 56 39 95 103 104c-56 12 -91 48 -91 95c0 71 58 111 168 111s168 -40 168 -111c0 -47 -35 -83 -91 -95c64 -9 103 -48 103 -104c0 -81 -64 -120 -180 -120zM225 423c99 0 124 39 124 77c0 43 -34 75 -124 75s-124 -32 -124 -75
c0 -38 25 -77 124 -77zM225 756c-89 0 -114 -28 -114 -67c0 -43 40 -67 114 -67s114 24 114 67c0 39 -25 67 -114 67z" />
    <glyph glyph-name="uni2079" unicode="&#x2079;" 
d="M215 805c136 0 185 -76 185 -192c0 -133 -51 -238 -189 -238c-54 0 -90 7 -133 16v52c44 -13 84 -18 132 -18c78 0 136 51 140 168c-31 -35 -87 -64 -148 -64c-80 0 -152 38 -152 135c0 91 69 141 165 141zM347 640c-2 62 -42 118 -133 118c-55 0 -106 -27 -106 -92
c0 -66 48 -91 102 -91c57 0 106 32 137 65z" />
    <glyph glyph-name="uni2080" unicode="&#x2080;" 
d="M40 110c0 156 72 215 184 215c124 0 186 -59 186 -215c0 -160 -70 -215 -185 -215c-118 0 -185 61 -185 215zM99 110c0 -124 49 -167 129 -167c76 0 122 44 122 167c0 125 -45 167 -126 167c-74 0 -125 -43 -125 -167z" />
    <glyph glyph-name="uni2081" unicode="&#x2081;" 
d="M237 -100v354l-126 -66l-24 45l164 87h46v-420h-60z" />
    <glyph glyph-name="uni2082" unicode="&#x2082;" 
d="M56 -100v54l118 85c91 66 136 105 136 159c0 55 -43 77 -105 77c-48 0 -96 -10 -129 -27v53c43 17 87 24 136 24c91 0 159 -32 159 -116c0 -72 -52 -127 -163 -202l-80 -55v-1h248v-51h-320z" />
    <glyph glyph-name="uni2083" unicode="&#x2083;" 
d="M140 96v43h73c71 0 109 23 109 68c0 51 -38 68 -112 68c-47 0 -99 -6 -132 -21v51c39 16 98 20 149 20c101 0 153 -40 153 -106c0 -58 -42 -84 -105 -98v-2c90 -12 116 -56 116 -99c0 -93 -92 -125 -178 -125c-47 0 -99 3 -142 20v52c36 -17 86 -22 136 -22
c90 0 124 33 124 75c0 55 -40 76 -114 76h-77z" />
    <glyph glyph-name="uni2084" unicode="&#x2084;" 
d="M31 0v46l259 274h71v-271h55v-49h-55v-100h-55v100h-275zM306 49v216h-1l-205 -216h206z" />
    <glyph glyph-name="uni2085" unicode="&#x2085;" 
d="M78 114l12 206h285v-50h-241l-6 -108c29 2 59 4 106 4c100 0 157 -42 157 -127c0 -89 -60 -144 -169 -144c-46 0 -103 4 -146 17v52c58 -18 94 -19 145 -19c68 0 111 30 111 90c0 56 -32 84 -118 84c-50 0 -93 -2 -136 -5z" />
    <glyph glyph-name="uni2086" unicode="&#x2086;" 
d="M229 -105c-130 0 -177 81 -177 200c0 131 52 230 200 230c37 0 72 -4 109 -13v-51c-37 13 -77 14 -108 14c-86 0 -147 -46 -151 -160c32 30 82 56 144 56c88 0 156 -34 156 -130c0 -95 -72 -146 -173 -146zM106 70c0 -72 40 -129 124 -129c61 0 113 29 113 99
c0 62 -49 84 -106 84c-49 0 -97 -21 -131 -54z" />
    <glyph glyph-name="uni2087" unicode="&#x2087;" 
d="M137 -100l198 370h-282v50h345v-39l-201 -381h-60z" />
    <glyph glyph-name="uni2088" unicode="&#x2088;" 
d="M225 -105c-116 0 -180 39 -180 120c0 56 39 95 103 104c-56 12 -91 48 -91 95c0 71 58 111 168 111s168 -40 168 -111c0 -47 -35 -83 -91 -95c64 -9 103 -48 103 -104c0 -81 -64 -120 -180 -120zM225 -57c99 0 124 39 124 77c0 43 -34 75 -124 75s-124 -32 -124 -75
c0 -38 25 -77 124 -77zM225 276c-89 0 -114 -28 -114 -67c0 -43 40 -67 114 -67s114 24 114 67c0 39 -25 67 -114 67z" />
    <glyph glyph-name="uni2089" unicode="&#x2089;" 
d="M218 325c136 0 185 -76 185 -192c0 -133 -51 -238 -189 -238c-54 0 -90 7 -133 16v52c44 -13 84 -18 132 -18c78 0 136 51 140 168c-31 -35 -87 -64 -148 -64c-80 0 -152 38 -152 135c0 91 69 141 165 141zM350 160c-2 62 -42 118 -133 118c-55 0 -106 -27 -106 -92
c0 -66 48 -91 102 -91c57 0 106 32 137 65z" />
    <glyph glyph-name="Euro" unicode="&#x20ac;" horiz-adv-x="600" 
d="M35 402l14 56h73c27 174 129 252 288 252c100 0 144 -20 144 -20l-18 -66c-33 15 -66 26 -126 26c-122 0 -198 -55 -221 -192h306l-14 -56h-299c-1 -15 -1 -31 -1 -47c0 -20 0 -39 2 -57h272l-14 -56h-251c26 -137 105 -192 225 -192c74 0 116 17 150 40v-70
s-55 -30 -150 -30c-164 0 -264 74 -292 252h-88l14 56h68c-1 18 -2 37 -2 57c0 16 0 32 1 47h-81z" />
    <glyph glyph-name="uni20B4" unicode="&#x20b4;" horiz-adv-x="600" 
d="M95 392v54h263c48 42 76 71 76 122c0 67 -59 84 -113 84c-61 0 -95 -8 -156 -28v61c54 17 120 25 156 25c152 0 179 -71 179 -134c0 -47 -23 -87 -64 -130h79v-54h-135l-41 -37c-14 -13 -29 -25 -44 -37h220v-54h-278c-30 -33 -51 -68 -51 -110c0 -56 42 -106 153 -106
c40 0 99 6 146 28v-61c-55 -19 -116 -25 -154 -25c-154 0 -211 79 -211 157c0 47 16 84 41 117h-66v54h118c24 22 50 43 75 66c3 2 5 5 8 8h-201z" />
    <glyph glyph-name="uni20B8" unicode="&#x20b8;" horiz-adv-x="600" 
d="M268 0v518h-218v54h500v-54h-218v-518h-64zM50 646v54h500v-54h-500z" />
    <glyph glyph-name="uni20BD" unicode="&#x20bd;" horiz-adv-x="600" 
d="M145 0v144h-95v54h95v74h-95v54h95v372s105 7 185 7c153 0 220 -67 220 -220c0 -137 -77 -213 -235 -213h-106v-74h211v-54h-211v-144h-64zM488 485c0 113 -47 160 -158 160c-60 0 -121 -4 -121 -4v-315h106c116 0 173 56 173 159z" />
    <glyph glyph-name="afii61352" unicode="&#x2116;" horiz-adv-x="1080" 
d="M740 244v52h280v-52h-280zM110 0v700h66l331 -500c33 -50 60 -100 60 -100h2s-3 50 -3 100v500h64v-700h-66l-331 500c-39 60 -60 100 -60 100h-2s3 -40 3 -100v-500h-64zM880 375c-109 0 -150 61 -150 165s41 165 150 165s150 -61 150 -165s-41 -165 -150 -165zM880 423
c62 0 94 32 94 117s-32 117 -94 117s-94 -32 -94 -117s32 -117 94 -117z" />
    <glyph glyph-name="uni2120" unicode="&#x2120;" horiz-adv-x="780" 
d="M390 380v320h59l106 -184h1l105 184h59v-320h-52v243l-98 -168h-30l-97 168h-1v-243h-52zM170 375c-39 0 -83 6 -110 19v58c24 -19 69 -29 111 -29c63 0 83 14 83 50c0 77 -194 22 -194 147c0 49 27 85 136 85c40 0 77 -9 94 -16v-54c-23 15 -63 25 -95 25
c-65 0 -79 -13 -79 -39c0 -76 194 -22 194 -145c0 -68 -41 -101 -140 -101z" />
    <glyph glyph-name="trademark" unicode="&#x2122;" horiz-adv-x="780" 
d="M390 380v320h59l106 -184h1l105 184h59v-320h-52v243l-98 -168h-30l-97 168h-1v-243h-52zM173 380v272h-113v48h280v-48h-113v-272h-54z" />
    <glyph glyph-name="onethird" unicode="&#x2153;" horiz-adv-x="950" 
d="M150 0l476 700h64l-476 -700h-64zM204 280v354l-126 -66l-24 45l164 87h46v-420h-60zM634 195v43h73c71 0 109 23 109 68c0 51 -38 68 -112 68c-47 0 -99 -6 -132 -21v51c39 16 98 20 149 20c101 0 153 -40 153 -106c0 -58 -42 -84 -105 -98v-2c90 -12 116 -56 116 -99
c0 -93 -92 -125 -178 -125c-47 0 -99 3 -142 20v52c36 -17 86 -22 136 -22c90 0 124 33 124 75c0 55 -40 76 -114 76h-77z" />
    <glyph glyph-name="twothirds" unicode="&#x2154;" horiz-adv-x="950" 
d="M220 0l476 700h64l-476 -700h-64zM39 280v54l118 85c91 66 136 105 136 159c0 55 -43 77 -105 77c-48 0 -96 -10 -129 -27v53c43 17 87 24 136 24c91 0 159 -32 159 -116c0 -72 -52 -127 -163 -202l-80 -55v-1h248v-51h-320zM653 195v43h73c71 0 109 23 109 68
c0 51 -38 68 -112 68c-47 0 -99 -6 -132 -21v51c39 16 98 20 149 20c101 0 153 -40 153 -106c0 -58 -42 -84 -105 -98v-2c90 -12 116 -56 116 -99c0 -93 -92 -125 -178 -125c-47 0 -99 3 -142 20v52c36 -17 86 -22 136 -22c90 0 124 33 124 75c0 55 -40 76 -114 76h-77z" />
    <glyph glyph-name="oneeighth" unicode="&#x215b;" horiz-adv-x="950" 
d="M170 0l476 700h64l-476 -700h-64zM202 280v354l-126 -66l-24 45l164 87h46v-420h-60zM724 -6c-116 0 -180 39 -180 120c0 56 39 95 103 104c-56 12 -91 48 -91 95c0 71 58 111 168 111s168 -40 168 -111c0 -47 -35 -83 -91 -95c64 -9 103 -48 103 -104
c0 -81 -64 -120 -180 -120zM724 42c99 0 124 39 124 77c0 43 -34 75 -124 75s-124 -32 -124 -75c0 -38 25 -77 124 -77zM724 375c-89 0 -114 -28 -114 -67c0 -43 40 -67 114 -67s114 24 114 67c0 39 -25 67 -114 67z" />
    <glyph glyph-name="threeeighths" unicode="&#x215c;" horiz-adv-x="950" 
d="M190 0l476 700h64l-476 -700h-64zM731 -6c-116 0 -180 39 -180 120c0 56 39 95 103 104c-56 12 -91 48 -91 95c0 71 58 111 168 111s168 -40 168 -111c0 -47 -35 -83 -91 -95c64 -9 103 -48 103 -104c0 -81 -64 -120 -180 -120zM731 42c99 0 124 39 124 77
c0 43 -34 75 -124 75s-124 -32 -124 -75c0 -38 25 -77 124 -77zM731 375c-89 0 -114 -28 -114 -67c0 -43 40 -67 114 -67s114 24 114 67c0 39 -25 67 -114 67zM114 476v43h73c71 0 109 23 109 68c0 51 -38 68 -112 68c-47 0 -99 -6 -132 -21v51c39 16 98 20 149 20
c101 0 153 -40 153 -106c0 -58 -42 -84 -105 -98v-2c90 -12 116 -56 116 -99c0 -93 -92 -125 -178 -125c-47 0 -99 3 -142 20v52c36 -17 86 -22 136 -22c90 0 124 33 124 75c0 55 -40 76 -114 76h-77z" />
    <glyph glyph-name="fiveeighths" unicode="&#x215d;" horiz-adv-x="950" 
d="M200 0l476 700h64l-476 -700h-64zM68 494l12 206h285v-50h-241l-6 -108c29 2 59 4 106 4c100 0 157 -42 157 -127c0 -89 -60 -144 -169 -144c-46 0 -103 4 -146 17v52c58 -18 94 -19 145 -19c68 0 111 30 111 90c0 56 -32 84 -118 84c-50 0 -93 -2 -136 -5zM734 -6
c-116 0 -180 39 -180 120c0 56 39 95 103 104c-56 12 -91 48 -91 95c0 71 58 111 168 111s168 -40 168 -111c0 -47 -35 -83 -91 -95c64 -9 103 -48 103 -104c0 -81 -64 -120 -180 -120zM734 42c99 0 124 39 124 77c0 43 -34 75 -124 75s-124 -32 -124 -75
c0 -38 25 -77 124 -77zM734 375c-89 0 -114 -28 -114 -67c0 -43 40 -67 114 -67s114 24 114 67c0 39 -25 67 -114 67z" />
    <glyph glyph-name="seveneighths" unicode="&#x215e;" horiz-adv-x="950" 
d="M160 0l476 700h64l-476 -700h-64zM723 -6c-116 0 -180 39 -180 120c0 56 39 95 103 104c-56 12 -91 48 -91 95c0 71 58 111 168 111s168 -40 168 -111c0 -47 -35 -83 -91 -95c64 -9 103 -48 103 -104c0 -81 -64 -120 -180 -120zM723 42c99 0 124 39 124 77
c0 43 -34 75 -124 75s-124 -32 -124 -75c0 -38 25 -77 124 -77zM723 375c-89 0 -114 -28 -114 -67c0 -43 40 -67 114 -67s114 24 114 67c0 39 -25 67 -114 67zM146 280l198 370h-282v50h345v-39l-201 -381h-60z" />
    <glyph glyph-name="minus" unicode="&#x2212;" horiz-adv-x="600" 
d="M100 331v58h400v-58h-400z" />
    <glyph glyph-name="infinity" unicode="&#x221e;" horiz-adv-x="720" 
d="M415 259l-55 55l-56 -56c-38 -38 -77 -48 -112 -48c-95 0 -132 75 -132 140c0 63 37 140 132 140c33 0 73 -9 112 -48l56 -56l57 59c35 36 76 45 112 45c93 0 131 -72 131 -140c0 -62 -37 -140 -131 -140c-34 0 -75 10 -114 49zM392 350l54 -54c22 -22 47 -34 79 -34
c61 0 85 44 85 88c0 49 -31 89 -84 89c-32 0 -61 -12 -87 -40zM328 350l-56 55c-22 21 -44 34 -76 34c-62 0 -84 -48 -84 -89c0 -50 30 -88 82 -88c31 0 59 13 85 39z" />
    <glyph glyph-name="approxequal" unicode="&#x2248;" horiz-adv-x="600" 
d="M100 212v72c25 28 55 47 100 47c85 0 135 -80 200 -80c45 0 75 30 100 57v-72c-25 -28 -55 -47 -100 -47c-85 0 -135 80 -200 80c-45 0 -75 -30 -100 -57zM100 412v72c25 28 55 47 100 47c85 0 135 -80 200 -80c45 0 75 30 100 57v-72c-25 -28 -55 -47 -100 -47
c-85 0 -135 80 -200 80c-45 0 -75 -30 -100 -57z" />
    <glyph glyph-name="notequal" unicode="&#x2260;" horiz-adv-x="600" 
d="M100 431v58h237l53 101h60l-53 -101h103v-58h-133l-74 -142h207v-58h-238l-52 -101h-60l52 101h-102v58h133l74 142h-207z" />
    <glyph glyph-name="lessequal" unicode="&#x2264;" horiz-adv-x="600" 
d="M500 190l-400 197v46l400 197v-66l-320 -153l320 -153v-68zM100 71v58h400v-58h-400z" />
    <glyph glyph-name="greaterequal" unicode="&#x2265;" horiz-adv-x="600" 
d="M100 190v66l320 153l-320 153v68l400 -197v-46zM100 71v58h400v-58h-400z" />
    <glyph glyph-name="lozenge" unicode="&#x25ca;" horiz-adv-x="600" 
d="M300 -10l-245 360l245 360l245 -360zM300 95l174 255l-174 254l-174 -254z" />
    <glyph glyph-name="uniF406" unicode="&#xf406;" horiz-adv-x="380" 
d="M40 892l48 13c13 -50 41 -78 102 -78s91 28 104 78l46 -13c-15 -76 -70 -117 -150 -117c-79 0 -135 42 -150 117z" />
    <glyph glyph-name="uniF407" unicode="&#xf407;" horiz-adv-x="260" 
d="M115 -210c-31 0 -58 7 -75 15l6 44c20 -9 40 -13 64 -13c39 0 54 15 54 41s-15 41 -59 41c-15 0 -25 -1 -32 -2l18 94h42l-12 -55c69 0 99 -30 99 -78c0 -52 -35 -87 -105 -87z" />
    <glyph glyph-name="uniF408" unicode="&#xf408;" horiz-adv-x="420" 
d="M60 775l113 130h74l113 -130h-58l-93 88l-93 -88h-56z" />
    <glyph glyph-name="uniF409" unicode="&#xf409;" horiz-adv-x="210" 
d="M58 -210l-10 42c26 4 56 13 60 36c-47 0 -60 17 -60 42c0 24 16 40 57 40c39 0 57 -19 57 -50c0 -54 -34 -100 -104 -110z" />
    <glyph glyph-name="uniF40A" unicode="&#xf40a;" horiz-adv-x="240" 
d="M70 500l50 200h70l-70 -200h-50z" />
    <glyph glyph-name="uniF40B" unicode="&#xf40b;" horiz-adv-x="200" 
d="M100 796c-28 0 -44 16 -44 44s16 44 44 44s44 -16 44 -44s-16 -44 -44 -44z" />
    <glyph glyph-name="uniF40C" unicode="&#xf40c;" horiz-adv-x="260" 
d="M38 840c0 53 39 92 92 92s92 -39 92 -92s-39 -92 -92 -92s-92 39 -92 92zM78 840c0 -32 20 -52 52 -52s52 20 52 52s-20 52 -52 52s-52 -20 -52 -52z" />
    <glyph glyph-name="uniF40D" unicode="&#xf40d;" horiz-adv-x="420" 
d="M106 785l-41 11c5 49 38 80 81 80c24 0 43 -7 70 -19c24 -11 42 -22 59 -22s33 7 40 39l40 -11c-7 -52 -43 -79 -79 -79c-20 0 -33 0 -72 19c-23 11 -39 22 -56 22s-34 -6 -42 -40z" />
    <glyph glyph-name="uniF40E" unicode="&#xf40e;" horiz-adv-x="250" 
d="M130 -190c-55 0 -80 25 -80 70c0 44 33 90 107 132l43 -12c-65 -38 -92 -79 -92 -110c0 -22 12 -34 37 -34c19 0 36 5 55 16v-46c-19 -10 -41 -16 -70 -16z" />
    <glyph glyph-name="zero.tab" unicode="&#xf4e0;" horiz-adv-x="650" 
d="M325 -10c-146 0 -230 84 -230 360c0 275 85 360 230 360c154 0 230 -76 230 -360c0 -280 -80 -360 -230 -360zM325 50c110 0 164 54 164 300c0 248 -52 300 -164 300c-109 0 -164 -55 -164 -300c0 -239 61 -300 164 -300z" />
    <glyph glyph-name="one.tab" unicode="&#xf4e1;" horiz-adv-x="650" 
d="M150 0v58h199v566l-199 -125v64l218 137h45v-642h137v-58h-400z" />
    <glyph glyph-name="two.tab" unicode="&#xf4e2;" horiz-adv-x="650" 
d="M95 0v47c291 273 376 320 376 454c0 103 -55 149 -170 149c-72 0 -137 -30 -186 -65v79c55 29 127 46 197 46c150 0 223 -67 223 -202c0 -152 -92 -223 -347 -450h357v-58h-450z" />
    <glyph glyph-name="three.tab" unicode="&#xf4e3;" horiz-adv-x="650" 
d="M313 -10c-88 0 -170 19 -213 44v82c41 -31 112 -64 207 -64c146 0 181 59 181 148c0 85 -59 130 -199 130h-78v58h76c117 0 176 52 176 137c0 89 -43 126 -159 126c-93 0 -158 -34 -196 -57v73c44 23 123 43 208 43c150 0 209 -59 209 -173c0 -99 -51 -150 -141 -170
c109 -9 166 -65 166 -174c0 -137 -85 -203 -237 -203z" />
    <glyph glyph-name="four.tab" unicode="&#xf4e4;" horiz-adv-x="650" 
d="M406 0v192h-341v45l331 463h74v-450h100v-58h-100v-192h-64zM143 250h263v373z" />
    <glyph glyph-name="five.tab" unicode="&#xf4e5;" horiz-adv-x="650" 
d="M115 23v74c48 -34 116 -47 174 -47c137 0 194 54 194 168c0 110 -51 150 -192 150c-66 0 -128 -5 -167 -12l26 344h373v-58h-322l-18 -219c24 3 74 5 132 5c163 0 230 -67 230 -203c0 -145 -66 -235 -251 -235c-67 0 -136 13 -179 33z" />
    <glyph glyph-name="six.tab" unicode="&#xf4e6;" horiz-adv-x="650" 
d="M340 -10c-172 0 -245 108 -245 329c0 280 109 391 291 391c50 0 94 -8 126 -22v-73c-30 19 -68 34 -134 34c-132 0 -226 -81 -226 -301c0 -5 1 -18 1 -33c34 85 102 133 209 133c134 0 203 -81 203 -215c0 -170 -105 -243 -225 -243zM166 265c1 -138 60 -214 178 -214
c92 0 159 54 159 172c0 119 -54 167 -158 167c-115 0 -162 -73 -179 -125z" />
    <glyph glyph-name="seven.tab" unicode="&#xf4e7;" horiz-adv-x="650" 
d="M193 0l284 642h-387v58h460v-46l-289 -654h-68z" />
    <glyph glyph-name="eight.tab" unicode="&#xf4e8;" horiz-adv-x="650" 
d="M328 -10c-158 0 -233 75 -233 201c0 84 25 156 142 180c-96 17 -125 73 -125 162c0 109 68 177 215 177c148 0 206 -61 206 -162c0 -89 -21 -152 -122 -175c112 -18 144 -82 144 -179c0 -119 -67 -204 -227 -204zM329 50c112 0 160 53 160 147c0 101 -55 148 -161 146
c-130 -3 -167 -60 -167 -144c0 -97 56 -149 168 -149zM325 650c-109 0 -147 -50 -147 -128c0 -79 41 -133 151 -130c113 3 138 60 138 134c0 86 -39 124 -142 124z" />
    <glyph glyph-name="nine.tab" unicode="&#xf4e9;" horiz-adv-x="650" 
d="M269 -10c-52 0 -95 9 -127 23v74c31 -20 69 -36 135 -36c132 0 225 81 226 302c0 9 -1 22 -2 33c-31 -83 -99 -133 -206 -133c-134 0 -205 81 -205 214c0 170 105 243 225 243c177 0 245 -107 245 -335c0 -273 -109 -385 -291 -385zM311 311c119 0 167 73 179 135
c-3 124 -55 203 -179 203c-93 0 -160 -54 -160 -172s57 -166 160 -166z" />
    <glyph glyph-name="dollar.tab" unicode="&#xf4ec;" horiz-adv-x="650" 
d="M303 -120v110c-77 3 -146 27 -183 55v80c44 -39 113 -75 195 -75c113 0 159 46 159 130c0 200 -349 100 -349 350c0 104 53 167 178 178v92h54v-90c64 -2 118 -17 153 -35v-80c-36 32 -102 55 -165 55c-116 0 -154 -38 -154 -120c0 -195 349 -85 349 -350
c0 -109 -58 -176 -183 -188v-112h-54z" />
    <glyph glyph-name="Euro.tab" unicode="&#xf4ed;" horiz-adv-x="650" 
d="M60 402l14 56h73c27 174 129 252 288 252c100 0 144 -20 144 -20l-18 -66c-33 15 -66 26 -126 26c-122 0 -198 -55 -221 -192h306l-14 -56h-299c-1 -15 -1 -31 -1 -47c0 -20 0 -39 2 -57h272l-14 -56h-251c26 -137 105 -192 225 -192c74 0 116 17 150 40v-70
s-55 -30 -150 -30c-164 0 -264 74 -292 252h-88l14 56h68c-1 18 -2 37 -2 57c0 16 0 32 1 47h-81z" />
    <glyph glyph-name="cent.tab" unicode="&#xf4ee;" horiz-adv-x="650" 
d="M340 -120v114c-132 18 -195 103 -195 271c0 160 67 245 195 262v93h60v-90c72 -2 105 -18 130 -29v-68c-29 19 -67 39 -140 39c-120 0 -183 -63 -183 -207c0 -153 64 -217 193 -217c68 0 111 23 140 45v-68c-27 -16 -58 -35 -140 -35v-110h-60z" />
    <glyph glyph-name="sterling.tab" unicode="&#xf4ef;" horiz-adv-x="650" 
d="M70 0v58h120v275h-120v54h120v90c0 80 22 233 219 233c68 0 116 -18 141 -27v-63c-34 15 -74 32 -143 32c-112 0 -153 -78 -153 -176v-89h191v-54h-191v-275h296v-58h-480z" />
    <glyph glyph-name="yen.tab" unicode="&#xf4fa;" horiz-adv-x="650" 
d="M120 272v54h146l-216 374h72l209 -368l201 368h68l-208 -374h148v-54h-178v-74h178v-54h-178v-144h-64v144h-178v54h178v74h-178z" />
    <glyph glyph-name="florin.tab" unicode="&#xf4fb;" horiz-adv-x="650" 
d="M189 466l11 54h112l11 55c26 130 81 180 180 180c18 0 34 -2 57 -6l-12 -57c-10 3 -25 7 -47 7c-69 0 -97 -29 -116 -124l-11 -55h140l-11 -54h-140l-93 -466c-22 -113 -58 -185 -174 -185c-12 0 -24 1 -36 4l11 56c10 -3 20 -4 29 -4c54 0 89 34 108 129l93 466h-112z
" />
    <glyph glyph-name="uni20B4.tab" unicode="&#xf4fc;" horiz-adv-x="650" 
d="M120 392v54h263c48 42 76 71 76 122c0 67 -59 84 -113 84c-61 0 -95 -8 -156 -28v61c54 17 120 25 156 25c152 0 179 -71 179 -134c0 -47 -23 -87 -64 -130h79v-54h-135l-41 -37c-14 -13 -29 -25 -44 -37h220v-54h-278c-30 -33 -51 -68 -51 -110c0 -56 42 -106 153 -106
c40 0 99 6 146 28v-61c-55 -19 -116 -25 -154 -25c-154 0 -211 79 -211 157c0 47 16 84 41 117h-66v54h118c24 22 50 43 75 66c3 2 5 5 8 8h-201z" />
    <glyph glyph-name="uni20BD.tab" unicode="&#xf4fd;" horiz-adv-x="650" 
d="M170 0v144h-95v54h95v74h-95v54h95v372s105 7 185 7c153 0 220 -67 220 -220c0 -137 -77 -213 -235 -213h-106v-74h211v-54h-211v-144h-64zM513 485c0 113 -47 160 -158 160c-60 0 -121 -4 -121 -4v-315h106c116 0 173 56 173 159z" />
    <glyph glyph-name="uni20B8.tab" unicode="&#xf5f3;" horiz-adv-x="650" 
d="M293 0v518h-218v54h500v-54h-218v-518h-64zM75 646v54h500v-54h-500z" />
    <glyph glyph-name="zero.denominator" unicode="&#xf655;" 
d="M40 210c0 156 72 215 184 215c124 0 186 -59 186 -215c0 -160 -70 -215 -185 -215c-118 0 -185 61 -185 215zM99 210c0 -124 49 -167 129 -167c76 0 122 44 122 167c0 125 -45 167 -126 167c-74 0 -125 -43 -125 -167z" />
    <glyph glyph-name="one.denominator" unicode="&#xf656;" 
d="M237 0v354l-126 -66l-24 45l164 87h46v-420h-60z" />
    <glyph glyph-name="two.denominator" unicode="&#xf657;" 
d="M56 0v54l118 85c91 66 136 105 136 159c0 55 -43 77 -105 77c-48 0 -96 -10 -129 -27v53c43 17 87 24 136 24c91 0 159 -32 159 -116c0 -72 -52 -127 -163 -202l-80 -55v-1h248v-51h-320z" />
    <glyph glyph-name="three.denominator" unicode="&#xf658;" 
d="M140 196v43h73c71 0 109 23 109 68c0 51 -38 68 -112 68c-47 0 -99 -6 -132 -21v51c39 16 98 20 149 20c101 0 153 -40 153 -106c0 -58 -42 -84 -105 -98v-2c90 -12 116 -56 116 -99c0 -93 -92 -125 -178 -125c-47 0 -99 3 -142 20v52c36 -17 86 -22 136 -22
c90 0 124 33 124 75c0 55 -40 76 -114 76h-77z" />
    <glyph glyph-name="four.denominator" unicode="&#xf659;" 
d="M31 100v46l259 274h71v-271h55v-49h-55v-100h-55v100h-275zM306 149v216h-1l-205 -216h206z" />
    <glyph glyph-name="five.denominator" unicode="&#xf65a;" 
d="M78 214l12 206h285v-50h-241l-6 -108c29 2 59 4 106 4c100 0 157 -42 157 -127c0 -89 -60 -144 -169 -144c-46 0 -103 4 -146 17v52c58 -18 94 -19 145 -19c68 0 111 30 111 90c0 56 -32 84 -118 84c-50 0 -93 -2 -136 -5z" />
    <glyph glyph-name="six.denominator" unicode="&#xf65b;" 
d="M229 -5c-130 0 -177 81 -177 200c0 131 52 230 200 230c37 0 72 -4 109 -13v-51c-37 13 -77 14 -108 14c-86 0 -147 -46 -151 -160c32 30 82 56 144 56c88 0 156 -34 156 -130c0 -95 -72 -146 -173 -146zM106 170c0 -72 40 -129 124 -129c61 0 113 29 113 99
c0 62 -49 84 -106 84c-49 0 -97 -21 -131 -54z" />
    <glyph glyph-name="seven.denominator" unicode="&#xf65c;" 
d="M137 0l198 370h-282v50h345v-39l-201 -381h-60z" />
    <glyph glyph-name="eight.denominator" unicode="&#xf65d;" 
d="M225 -5c-116 0 -180 39 -180 120c0 56 39 95 103 104c-56 12 -91 48 -91 95c0 71 58 111 168 111s168 -40 168 -111c0 -47 -35 -83 -91 -95c64 -9 103 -48 103 -104c0 -81 -64 -120 -180 -120zM225 43c99 0 124 39 124 77c0 43 -34 75 -124 75s-124 -32 -124 -75
c0 -38 25 -77 124 -77zM225 376c-89 0 -114 -28 -114 -67c0 -43 40 -67 114 -67s114 24 114 67c0 39 -25 67 -114 67z" />
    <glyph glyph-name="nine.denominator" unicode="&#xf65e;" 
d="M218 425c136 0 185 -76 185 -192c0 -133 -51 -238 -189 -238c-54 0 -90 7 -133 16v52c44 -13 84 -18 132 -18c78 0 136 51 140 168c-31 -35 -87 -64 -148 -64c-80 0 -152 38 -152 135c0 91 69 141 165 141zM350 260c-2 62 -42 118 -133 118c-55 0 -106 -27 -106 -92
c0 -66 48 -91 102 -91c57 0 106 32 137 65z" />
    <glyph glyph-name="zero.numerator" unicode="&#xf661;" 
d="M40 490c0 156 72 215 184 215c124 0 186 -59 186 -215c0 -160 -70 -215 -185 -215c-118 0 -185 61 -185 215zM99 490c0 -124 49 -167 129 -167c76 0 122 44 122 167c0 125 -45 167 -126 167c-74 0 -125 -43 -125 -167z" />
    <glyph glyph-name="one.numerator" unicode="&#xf662;" 
d="M237 280v354l-126 -66l-24 45l164 87h46v-420h-60z" />
    <glyph glyph-name="two.numerator" unicode="&#xf663;" 
d="M56 280v54l118 85c91 66 136 105 136 159c0 55 -43 77 -105 77c-48 0 -96 -10 -129 -27v53c43 17 87 24 136 24c91 0 159 -32 159 -116c0 -72 -52 -127 -163 -202l-80 -55v-1h248v-51h-320z" />
    <glyph glyph-name="three.numerator" unicode="&#xf664;" 
d="M140 476v43h73c71 0 109 23 109 68c0 51 -38 68 -112 68c-47 0 -99 -6 -132 -21v51c39 16 98 20 149 20c101 0 153 -40 153 -106c0 -58 -42 -84 -105 -98v-2c90 -12 116 -56 116 -99c0 -93 -92 -125 -178 -125c-47 0 -99 3 -142 20v52c36 -17 86 -22 136 -22
c90 0 124 33 124 75c0 55 -40 76 -114 76h-77z" />
    <glyph glyph-name="four.numerator" unicode="&#xf665;" 
d="M31 380v46l259 274h71v-271h55v-49h-55v-100h-55v100h-275zM306 429v216h-1l-205 -216h206z" />
    <glyph glyph-name="five.numerator" unicode="&#xf666;" 
d="M78 494l12 206h285v-50h-241l-6 -108c29 2 59 4 106 4c100 0 157 -42 157 -127c0 -89 -60 -144 -169 -144c-46 0 -103 4 -146 17v52c58 -18 94 -19 145 -19c68 0 111 30 111 90c0 56 -32 84 -118 84c-50 0 -93 -2 -136 -5z" />
    <glyph glyph-name="six.numerator" unicode="&#xf667;" 
d="M229 275c-130 0 -177 81 -177 200c0 131 52 230 200 230c37 0 72 -4 109 -13v-51c-37 13 -77 14 -108 14c-86 0 -147 -46 -151 -160c32 30 82 56 144 56c88 0 156 -34 156 -130c0 -95 -72 -146 -173 -146zM106 450c0 -72 40 -129 124 -129c61 0 113 29 113 99
c0 62 -49 84 -106 84c-49 0 -97 -21 -131 -54z" />
    <glyph glyph-name="seven.numerator" unicode="&#xf668;" 
d="M137 280l198 370h-282v50h345v-39l-201 -381h-60z" />
    <glyph glyph-name="eight.numerator" unicode="&#xf669;" 
d="M225 275c-116 0 -180 39 -180 120c0 56 39 95 103 104c-56 12 -91 48 -91 95c0 71 58 111 168 111s168 -40 168 -111c0 -47 -35 -83 -91 -95c64 -9 103 -48 103 -104c0 -81 -64 -120 -180 -120zM225 323c99 0 124 39 124 77c0 43 -34 75 -124 75s-124 -32 -124 -75
c0 -38 25 -77 124 -77zM225 656c-89 0 -114 -28 -114 -67c0 -43 40 -67 114 -67s114 24 114 67c0 39 -25 67 -114 67z" />
    <glyph glyph-name="nine.numerator" unicode="&#xf66a;" 
d="M218 705c136 0 185 -76 185 -192c0 -133 -51 -238 -189 -238c-54 0 -90 7 -133 16v52c44 -13 84 -18 132 -18c78 0 136 51 140 168c-31 -35 -87 -64 -148 -64c-80 0 -152 38 -152 135c0 91 69 141 165 141zM350 540c-2 62 -42 118 -133 118c-55 0 -106 -27 -106 -92
c0 -66 48 -91 102 -91c57 0 106 32 137 65z" />
    <glyph glyph-name="uniF6BA" unicode="&#xf6ba;" horiz-adv-x="400" 
d="M50 326v58h300v-58h-300z" />
    <glyph glyph-name="uniF6BB" unicode="&#xf6bb;" horiz-adv-x="650" 
d="M90 326v58h470v-58h-470z" />
    <glyph glyph-name="uniF6BC" unicode="&#xf6bc;" horiz-adv-x="830" 
d="M90 326v58h650v-58h-650z" />
    <glyph glyph-name="uniF6C3" unicode="&#xf6c3;" horiz-adv-x="200" 
d="M55 -210l-10 41c33 5 57 16 61 39c-45 0 -61 15 -61 40c0 24 16 40 55 40c37 0 55 -19 55 -55c0 -43 -29 -95 -100 -105z" />
    <glyph glyph-name="uniF6C9" unicode="&#xf6c9;" horiz-adv-x="310" 
d="M70 775l86 130h84l-116 -130h-54z" />
    <glyph glyph-name="uniF6CA" unicode="&#xf6ca;" horiz-adv-x="420" 
d="M173 775l-113 130h58l93 -88l93 88h56l-113 -130h-74z" />
    <glyph glyph-name="uniF6CB" unicode="&#xf6cb;" horiz-adv-x="420" 
d="M114 796c-28 0 -44 16 -44 44s16 44 44 44s44 -16 44 -44s-16 -44 -44 -44zM306 796c-28 0 -44 16 -44 44s16 44 44 44s44 -16 44 -44s-16 -44 -44 -44z" />
    <glyph glyph-name="uniF6CE" unicode="&#xf6ce;" horiz-adv-x="310" 
d="M184 775l-114 130h86l84 -130h-56z" />
    <glyph glyph-name="uniF6CF" unicode="&#xf6cf;" horiz-adv-x="480" 
d="M80 775l60 130h76l-90 -130h-46zM212 775l100 130h88l-136 -130h-52z" />
    <glyph glyph-name="uniF6D0" unicode="&#xf6d0;" horiz-adv-x="360" 
d="M50 803v54h260v-54h-260z" />
    <glyph glyph-name="uniF6D1" unicode="&#xf6d1;" horiz-adv-x="400" 
d="M200 775c-90 0 -144 37 -150 130h59c5 -59 32 -82 91 -82s87 23 94 82h56c-8 -93 -60 -130 -150 -130z" />
    <glyph glyph-name="uniF6D4" unicode="&#xf6d4;" horiz-adv-x="380" 
d="M190 615c-85 0 -139 37 -145 130h58c5 -60 32 -84 87 -84s84 24 91 84h54c-8 -93 -60 -130 -145 -130z" />
    <glyph glyph-name="uniFEFF" unicode="&#xfeff;" horiz-adv-x="0" 
 />
    <glyph glyph-name="percent.tab" horiz-adv-x="650" 
d="M50 0l486 700h64l-486 -700h-64zM165 375c-81 0 -130 49 -130 165c0 114 51 165 130 165c81 0 130 -49 130 -165c0 -114 -51 -165 -130 -165zM165 427c47 0 74 27 74 113c0 88 -25 113 -74 113c-47 0 -74 -27 -74 -113c0 -88 25 -113 74 -113zM485 -5
c-81 0 -130 49 -130 165c0 114 51 165 130 165c81 0 130 -49 130 -165c0 -114 -51 -165 -130 -165zM485 47c47 0 74 27 74 113c0 88 -25 113 -74 113c-47 0 -74 -27 -74 -113c0 -88 25 -113 74 -113z" />
    <glyph glyph-name="plus.tab" horiz-adv-x="650" 
d="M296 160v171h-171v58h171v171h58v-171h171v-58h-171v-171h-58z" />
    <glyph glyph-name="less.tab" horiz-adv-x="650" 
d="M525 140l-400 197v46l400 197v-66l-320 -153l320 -153v-68z" />
    <glyph glyph-name="equal.tab" horiz-adv-x="650" 
d="M125 231v58h400v-58h-400zM125 431v58h400v-58h-400z" />
    <glyph glyph-name="greater.tab" horiz-adv-x="650" 
d="M125 580l400 -197v-46l-400 -197v66l320 153l-320 153v68z" />
    <glyph glyph-name="multiply.tab" horiz-adv-x="650" 
d="M190 185l-40 40l135 135l-135 135l40 40l135 -135l135 135l40 -40l-135 -135l135 -135l-40 -40l-135 135z" />
    <glyph glyph-name="divide.tab" horiz-adv-x="650" 
d="M125 331v58h400v-58h-400zM325 140c-32 0 -50 18 -50 50s18 50 50 50s50 -18 50 -50s-18 -50 -50 -50zM325 480c-32 0 -50 18 -50 50s18 50 50 50s50 -18 50 -50s-18 -50 -50 -50z" />
    <glyph glyph-name="perthousand.tab" horiz-adv-x="650" 
d="M517 481l-465 -218l-19 38l466 218zM20 567c0 94 41 143 116 143c76 0 120 -45 120 -143s-42 -144 -116 -144c-78 0 -120 46 -120 144zM74 567c0 -67 22 -91 65 -91c42 0 62 22 63 91c0 65 -19 90 -64 90c-43 0 -64 -25 -64 -90zM123 134c0 94 42 143 117 143
c76 0 120 -45 120 -143s-43 -144 -117 -144c-78 0 -120 46 -120 144zM178 134c0 -67 22 -91 65 -91c42 0 62 22 62 91c0 65 -19 90 -63 90s-64 -25 -64 -90zM393 134c0 94 41 143 117 143s120 -45 120 -143s-43 -144 -117 -144c-78 0 -120 46 -120 144zM448 134
c0 -67 22 -91 64 -91c43 0 63 22 63 91c0 65 -19 90 -64 90c-43 0 -63 -25 -63 -90z" />
    <glyph glyph-name="minus.tab" horiz-adv-x="650" 
d="M125 331v58h400v-58h-400z" />
    <glyph glyph-name="f_b" horiz-adv-x="965" 
d="M695 -10c-97 0 -145 48 -170 105l-6 -95h-54v693c-68 0 -119 4 -175 4c-65 0 -90 -25 -90 -102v-75h132v-56h-132v-464h-60v464h-100v56h100v85c0 99 51 150 155 150c65 0 115 -4 230 -5v-320c32 54 78 100 180 100c129 0 200 -71 200 -265c0 -201 -74 -275 -210 -275z
M685 48c106 0 158 52 158 217c0 155 -52 207 -153 207c-106 0 -165 -59 -165 -174v-76c0 -110 64 -174 160 -174z" />
    <glyph glyph-name="f_f_b" horiz-adv-x="1295" 
d="M470 0v464h-270v-464h-60v464h-100v56h100v85c0 104 46 150 145 150c32 0 59 -5 75 -11v-68c-18 12 -47 21 -80 21c-60 0 -80 -20 -80 -102v-75h270v85c0 99 51 150 155 150c65 0 115 -4 230 -5v-320c32 54 78 100 180 100c129 0 200 -71 200 -265
c0 -201 -74 -275 -210 -275c-97 0 -145 48 -170 105l-6 -95h-54v693c-68 0 -119 4 -175 4c-65 0 -90 -25 -90 -102v-75h132v-56h-132v-464h-60zM1015 48c106 0 158 52 158 217c0 155 -52 207 -153 207c-106 0 -165 -59 -165 -174v-76c0 -110 64 -174 160 -174z" />
    <glyph glyph-name="f_f_h" horiz-adv-x="1290" 
d="M470 0v464h-270v-464h-60v464h-100v56h100v85c0 104 46 150 145 150c32 0 59 -5 75 -11v-68c-18 12 -47 21 -80 21c-60 0 -80 -20 -80 -102v-75h270v85c0 99 51 150 155 150c61 0 109 -4 213 -5h17v-325c30 63 77 105 170 105c122 0 180 -58 180 -200v-330h-60v310
c0 123 -39 162 -135 162s-155 -59 -155 -162v-310h-60v693c-68 0 -119 4 -175 4c-65 0 -90 -25 -90 -102v-75h132v-56h-132v-464h-60z" />
    <glyph glyph-name="f_f_j" horiz-adv-x="955" 
d="M470 0v464h-270v-464h-60v464h-100v56h100v85c0 104 46 150 145 150c32 0 59 -5 75 -11v-68c-18 12 -47 21 -80 21c-60 0 -80 -20 -80 -102v-75h270v85c0 104 46 150 145 150c32 0 59 -5 75 -11v-68c-18 12 -47 21 -80 21c-60 0 -80 -20 -80 -102v-75h335v-555
c0 -106 -44 -150 -129 -150c-31 0 -57 4 -70 10v68c17 -11 41 -20 70 -20c47 0 69 22 69 92v499h-275v-464h-60zM835 638c-27 0 -42 15 -42 42s15 42 42 42s42 -15 42 -42s-15 -42 -42 -42z" />
    <glyph glyph-name="f_f_k" horiz-adv-x="1250" 
d="M455 0v464h-255v-464h-60v464h-100v56h100v85c0 104 46 150 145 150c32 0 59 -5 75 -11v-68c-18 12 -47 21 -80 21c-60 0 -80 -20 -80 -102v-75h255v85c0 99 51 150 155 150c65 0 120 -4 235 -5v-452h70l192 222h76l-217 -249l239 -271h-78l-212 242h-70v-242h-60v693
c-69 0 -124 4 -180 4c-65 0 -90 -25 -90 -102v-75h132v-56h-132v-464h-60z" />
    <glyph glyph-name="f_h" horiz-adv-x="960" 
d="M465 0v693c-68 0 -119 4 -175 4c-65 0 -90 -25 -90 -102v-75h132v-56h-132v-464h-60v464h-100v56h100v85c0 99 51 150 155 150c65 0 115 -4 230 -5v-325c30 63 77 105 170 105c122 0 180 -58 180 -200v-330h-60v310c0 123 -39 162 -135 162s-155 -59 -155 -162v-310h-60z
" />
    <glyph glyph-name="f_j" horiz-adv-x="635" 
d="M416 -185c-31 0 -57 4 -70 10v68c17 -11 41 -20 70 -20c47 0 69 22 69 92v499h-285v-464h-60v464h-100v56h100v85c0 104 46 150 145 150c32 0 59 -5 75 -11v-68c-18 12 -47 21 -80 21c-60 0 -80 -20 -80 -102v-75h345v-555c0 -106 -44 -150 -129 -150zM515 638
c-27 0 -42 15 -42 42s15 42 42 42s42 -15 42 -42s-15 -42 -42 -42z" />
    <glyph glyph-name="f_k" horiz-adv-x="930" 
d="M465 0v693c-68 0 -119 4 -175 4c-65 0 -90 -25 -90 -102v-75h132v-56h-132v-464h-60v464h-100v56h100v85c0 99 51 150 155 150c65 0 115 -4 230 -5v-452h70l192 222h76l-217 -249l239 -271h-78l-212 242h-70v-242h-60z" />
    </font>
</defs>
</svg>
