<svg width="36" height="36" viewBox="0 0 36 36" xmlns="http://www.w3.org/2000/svg" focusable="false"><path fill-rule="evenodd" clip-rule="evenodd" d="M28.995 7.824A3.001 3.001 0 0 0 26 5H14l-.176.005A3 3 0 0 0 11 8v1h-1a3 3 0 0 0-3 3v16a3 3 0 0 0 3 3h12a3 3 0 0 0 3-3v-1h1.168l.287.002c.712.001 1.014-.03 1.412-.188C28.603 26.521 29 25.87 29 25V8l-.005-.176ZM25 25h1.683a5.43 5.43 0 0 0 .19-.006l.127-.011V8c0-.512-.387-.935-.884-.993L26 7H14c-.512 0-.935.387-.993.883L13 8v1h9a3 3 0 0 1 3 3v13ZM10 11h12a1 1 0 0 1 1 1v16a1 1 0 0 1-1 1H10a1 1 0 0 1-1-1V12a1 1 0 0 1 1-1Zm11 5v-2H11v2h10Zm0 8v2H11v-2h10Zm0-3v-2H11v2h10Z"/></svg>