<svg width="12" height="12" viewBox="0 0 12 12" fill="none" xmlns="http://www.w3.org/2000/svg">
  <path fill-rule="evenodd" clip-rule="evenodd" d="M0.6 5.64746C0.931371 5.64746 1.2 5.90603 1.2 6.225V10.2678C1.2 10.421 1.26321 10.5679 1.37574 10.6762C1.48826 10.7845 1.64087 10.8453 1.8 10.8453H10.2C10.3591 10.8453 10.5117 10.7845 10.6243 10.6762C10.7368 10.5679 10.8 10.421 10.8 10.2678V6.225C10.8 5.90603 11.0686 5.64746 11.4 5.64746C11.7314 5.64746 12 5.90603 12 6.225V10.2678C12 10.7273 11.8104 11.168 11.4728 11.4929C11.1352 11.8179 10.6774 12.0004 10.2 12.0004H1.8C1.32261 12.0004 0.864774 11.8179 0.527208 11.4929C0.189642 11.168 0 10.7273 0 10.2678V6.225C0 5.90603 0.268629 5.64746 0.6 5.64746Z" />
  <path fill-rule="evenodd" clip-rule="evenodd" d="M3.08143 5.82492C3.31517 5.59238 3.69888 5.58778 3.93847 5.81465L6.00009 7.76683L8.06171 5.81465C8.3013 5.58778 8.685 5.59238 8.91874 5.82492C9.15249 6.05746 9.14775 6.42988 8.90816 6.65674L6.42331 9.00969C6.1879 9.2326 5.81227 9.2326 5.57686 9.00969L3.09201 6.65674C2.85243 6.42988 2.84769 6.05746 3.08143 5.82492Z" />
  <path fill-rule="evenodd" clip-rule="evenodd" d="M5.99956 0C6.3008 0 6.54501 0.257509 6.54501 0.575163V7.18954C6.54501 7.5072 6.3008 7.76471 5.99956 7.76471C5.69831 7.76471 5.4541 7.5072 5.4541 7.18954V0.575163C5.4541 0.257509 5.69831 0 5.99956 0Z" />
</svg>
