<svg width="14" height="18" viewBox="0 0 14 18" fill="none" xmlns="http://www.w3.org/2000/svg">
  <path d="M11.1663 2.33366H10.1663C9.83301 1.33366 8.91634 0.666992 7.83301 0.666992H6.16634C5.08301 0.666992 4.16634 1.33366 3.83301 2.33366H2.83301C1.41634 2.33366 0.333008 3.41699 0.333008 4.83366V14.8337C0.333008 16.2503 1.41634 17.3337 2.83301 17.3337H11.1663C12.583 17.3337 13.6663 16.2503 13.6663 14.8337V4.83366C13.6663 3.41699 12.583 2.33366 11.1663 2.33366ZM5.33301 3.16699C5.33301 2.66699 5.66634 2.33366 6.16634 2.33366H7.83301C8.33301 2.33366 8.66634 2.66699 8.66634 3.16699V4.00033H5.33301V3.16699ZM7.83301 12.3337H4.49967C3.99967 12.3337 3.66634 12.0003 3.66634 11.5003C3.66634 11.0003 3.99967 10.667 4.49967 10.667H7.83301C8.33301 10.667 8.66634 11.0003 8.66634 11.5003C8.66634 12.0003 8.33301 12.3337 7.83301 12.3337ZM9.49967 9.00033H4.49967C3.99967 9.00033 3.66634 8.66699 3.66634 8.16699C3.66634 7.66699 3.99967 7.33366 4.49967 7.33366H9.49967C9.99967 7.33366 10.333 7.66699 10.333 8.16699C10.333 8.66699 9.99967 9.00033 9.49967 9.00033Z" />
</svg>
