<svg width="24.000000" height="24.000000" viewBox="0 0 24 24" fill="none" xmlns="http://www.w3.org/2000/svg" xmlns:xlink="http://www.w3.org/1999/xlink">
	<rect id="Электронные документы" width="24.000000" height="24.000000" fill="#FFFFFF" fill-opacity="0"/>
	<g clip-path="url(#clip240_151125)">
		<path id="Vector 59" d="M14.5 2L18 2C19.1 2 20 2.89 20 4L20 19C20 20.1 19.1 21 18 21L9 21L6 21C4.89 21 4 20.1 4 19L4 4C4 2.89 4.89 2 6 2L14.5 2Z" stroke="#262626" stroke-opacity="1.000000" stroke-width="2.000000"/>
		<path id="Subtract" d="" fill="#262626" fill-opacity="1.000000" fill-rule="nonzero"/>
		<path id="Subtract" d="" fill="#262626" fill-opacity="1.000000" fill-rule="nonzero"/>
		<path id="Subtract" d="" fill="#262626" fill-opacity="1.000000" fill-rule="nonzero"/>
		<circle id="Oval 5" cx="15.000000" cy="16.000000" r="2.000000" stroke="#262626" stroke-opacity="1.000000" stroke-width="2.000000"/>
		<path id="Union" d="M8.67773 13.2812C10.334 13.2812 11.6777 11.9375 11.6777 10.2812C11.6777 8.97656 10.8457 7.86914 9.68555 7.45312L9.68164 2.28516C9.68164 1.72461 9.24219 1.28516 8.68164 1.28516C8.12109 1.28516 7.68164 1.72656 7.68164 2.28516L7.68555 7.44922C6.51562 7.85742 5.67773 8.9707 5.67773 10.2812C5.67773 11.9375 7.01953 13.2812 8.67773 13.2812ZM8.60156 9.2832C8.08398 9.32227 7.67773 9.75391 7.67773 10.2812C7.67773 10.832 8.125 11.2812 8.67773 11.2812C9.22852 11.2812 9.67773 10.832 9.67773 10.2812C9.67773 9.75586 9.27344 9.32617 8.75977 9.2832C8.73633 9.28516 8.71094 9.28711 8.68555 9.28711C8.6582 9.28711 8.63086 9.28516 8.60156 9.2832Z" clip-rule="evenodd" fill="#262626" fill-opacity="1.000000" fill-rule="evenodd"/>
		<path id="Vector 65" d="M12 6L17 6" stroke="#262626" stroke-opacity="1.000000" stroke-width="2.000000" stroke-linecap="round"/>
		<path id="Vector 66" d="M15 9L17 9" stroke="#262626" stroke-opacity="1.000000" stroke-width="2.000000" stroke-linecap="round"/>
		<path id="Vector 67" d="M6 21L9.69 16.37C9.88 16.13 10.17 16 10.48 16L14 16" stroke="#262626" stroke-opacity="1.000000" stroke-width="2.000000"/>
	</g>
</svg>
