<svg width="22.000000" height="22.000000" viewBox="0 0 22 22" fill="none" xmlns="http://www.w3.org/2000/svg" xmlns:xlink="http://www.w3.org/1999/xlink">
	<desc>
			Created with Pixso.
	</desc>
	<defs/>
	<path id="Union" d="M5.19 0.53C5.43 0.05 6 -0.14 6.47 0.1C7.62 0.7 10.14 2.1 12.63 3.55C15.09 4.99 17.62 6.53 18.72 7.42C20.01 8.47 20.56 10.06 20.79 11.25C20.91 11.86 20.96 12.41 20.98 12.81C20.99 13.01 21 13.18 21 13.29C21 13.35 21 13.4 20.99 13.43L20.99 13.45L20.99 13.47L20.99 19.35C20.99 20.26 20.28 21 19.4 21L1.58 21C0.71 21 0 20.26 0 19.35L0 15.42C0 13.79 1.28 12.46 2.86 12.46L19.04 12.46C19.02 12.22 18.98 11.94 18.92 11.65C18.72 10.63 18.31 9.59 17.54 8.97C16.58 8.19 14.19 6.72 11.69 5.26C9.21 3.82 6.72 2.44 5.61 1.86C5.14 1.61 4.95 1.02 5.19 0.53ZM2.86 9.51C2.33 9.51 1.9 9.95 1.9 10.5C1.9 11.04 2.33 11.48 2.86 11.48L14.95 11.48C15.48 11.48 15.9 11.04 15.9 10.5C15.9 9.95 15.48 9.51 14.95 9.51L2.86 9.51ZM19.08 14.43L2.86 14.43C2.33 14.43 1.9 14.87 1.9 15.42L1.9 19.03L19.08 19.03L19.08 14.43ZM3.5 16.73C3.5 17.27 3.92 17.71 4.45 17.71C4.98 17.71 5.4 17.27 5.4 16.73C5.4 16.19 4.98 15.75 4.45 15.75C3.92 15.75 3.5 16.19 3.5 16.73Z" fill="#262626" fill-opacity="1.000000" fill-rule="evenodd"/>
	<path id="Union" d="M5.19 0.53C4.95 1.02 5.14 1.61 5.61 1.86C6.72 2.44 9.21 3.82 11.69 5.26C14.19 6.72 16.58 8.19 17.54 8.97C18.31 9.59 18.72 10.63 18.92 11.65C18.98 11.94 19.02 12.22 19.04 12.46L2.86 12.46C1.28 12.46 0 13.79 0 15.42L0 19.35C0 20.26 0.71 21 1.58 21L19.4 21C20.28 21 20.99 20.26 20.99 19.35L20.99 13.47L20.99 13.45L20.99 13.43C21 13.4 21 13.35 21 13.29C21 13.18 20.99 13.01 20.98 12.81C20.96 12.41 20.91 11.86 20.79 11.25C20.56 10.06 20.01 8.47 18.72 7.42C17.62 6.53 15.09 4.99 12.63 3.55C10.14 2.1 7.62 0.7 6.47 0.1C6 -0.14 5.43 0.05 5.19 0.53ZM19.08 14.43L19.08 19.03L1.9 19.03L1.9 15.42C1.9 14.87 2.33 14.43 2.86 14.43L19.08 14.43ZM1.9 10.5C1.9 11.04 2.33 11.48 2.86 11.48L14.95 11.48C15.48 11.48 15.9 11.04 15.9 10.5C15.9 9.95 15.48 9.51 14.95 9.51L2.86 9.51C2.33 9.51 1.9 9.95 1.9 10.5ZM3.5 16.73C3.5 16.19 3.92 15.75 4.45 15.75C4.98 15.75 5.4 16.19 5.4 16.73C5.4 17.27 4.98 17.71 4.45 17.71C3.92 17.71 3.5 17.27 3.5 16.73Z" stroke="#262626" stroke-opacity="1.000000" stroke-width="0.013125"/>
</svg>
