<svg width="24.000000" height="24.000000" viewBox="0 0 24 24" fill="none" xmlns="http://www.w3.org/2000/svg" xmlns:xlink="http://www.w3.org/1999/xlink">
	<defs>
		<clipPath id="clip240_151009">
			<rect id="Linear / Document – double" width="24.000000" height="24.000000" fill="white" fill-opacity="0"/>
		</clipPath>
	</defs>
	<g clip-path="url(#clip240_151009)">
		<path id="Union" d="M5.66797 3.22266L5.66797 4.05469L4.22266 4.05469C4.0625 4.05469 3.90625 4.07031 3.75391 4.10352L3.75391 4.10352C3.61914 4.13281 3.48633 4.17578 3.35742 4.23047C3.22852 4.2832 3.10742 4.34961 2.99219 4.42578L2.99219 4.42578C2.87109 4.50586 2.75586 4.59961 2.65039 4.70508C2.54492 4.81055 2.45117 4.92578 2.37109 5.04688L2.37109 5.04688C2.29492 5.16211 2.22852 5.2832 2.17578 5.41211C2.12109 5.54102 2.07812 5.67383 2.04883 5.80859L2.04883 5.80859C2.01562 5.96094 2 6.11719 2 6.27734L2 20.9434C2 21.1035 2.01562 21.2578 2.04883 21.4102L2.04883 21.4102C2.07812 21.5469 2.12109 21.6797 2.17578 21.8086C2.22852 21.9375 2.29492 22.0586 2.37109 22.1719L2.37109 22.1719L2.37109 22.1719L2.37109 22.1719C2.45117 22.2949 2.54492 22.4082 2.65039 22.5156C2.75586 22.6211 2.87109 22.7148 2.99219 22.7949L2.99219 22.7949L2.99219 22.7949L2.99414 22.7949C3.10742 22.8711 3.22852 22.9355 3.35742 22.9902C3.48633 23.0449 3.61914 23.0879 3.75391 23.1172C3.90625 23.1484 4.0625 23.166 4.22266 23.166L15.834 23.166C15.9922 23.166 16.1484 23.1484 16.3008 23.1172C16.4355 23.0879 16.5684 23.0449 16.6992 22.9902C16.8262 22.9355 16.9473 22.8711 17.0625 22.7949L17.0625 22.7949C17.1855 22.7148 17.2988 22.6211 17.4043 22.5156C17.5098 22.4082 17.6035 22.2949 17.6855 22.1719L17.6855 22.1719C17.7617 22.0586 17.8262 21.9375 17.8809 21.8086C17.9355 21.6797 17.9766 21.5469 18.0059 21.4102L18.0059 21.4102C18.0391 21.2578 18.0547 21.1035 18.0547 20.9434L18.0547 20.1113L19.502 20.1113C19.6602 20.1113 19.8164 20.0938 19.9688 20.0625L19.9688 20.0625C20.1035 20.0332 20.2363 19.9902 20.3672 19.9355C20.4941 19.8809 20.6152 19.8164 20.7305 19.7402L20.7305 19.7402C20.8535 19.6602 20.9668 19.5664 21.0723 19.4609C21.1777 19.3535 21.2715 19.2402 21.3535 19.1172L21.3535 19.1172L21.3535 19.1172L21.3535 19.1172L21.3535 19.1172C21.4297 19.002 21.4941 18.8828 21.5488 18.7539C21.6035 18.625 21.6445 18.4922 21.6738 18.3555C21.707 18.2031 21.7227 18.0488 21.7227 17.8887L21.7227 3.22266C21.7227 3.0625 21.707 2.90625 21.6738 2.75391L21.6738 2.75391C21.6445 2.61914 21.6035 2.48633 21.5488 2.35742C21.4941 2.22852 21.4297 2.10742 21.3535 1.99219C21.2715 1.87109 21.1777 1.75586 21.0723 1.65039C20.9668 1.54492 20.8535 1.45117 20.7305 1.37109C20.6152 1.29492 20.4941 1.22852 20.3672 1.17578C20.2363 1.12109 20.1035 1.07812 19.9688 1.04883L19.9688 1.04883C19.8164 1.01562 19.6602 1 19.502 1L7.89062 1C7.73047 1 7.57422 1.01562 7.42188 1.04883L7.42188 1.04883L7.42188 1.04883L7.42188 1.04883L7.42188 1.04883C7.28711 1.07812 7.1543 1.12109 7.02539 1.17578C6.89648 1.22852 6.77539 1.29492 6.66016 1.37109L6.66016 1.37109L6.66016 1.37109L6.66016 1.37109L6.66016 1.37109C6.53906 1.45117 6.42383 1.54492 6.31836 1.65039C6.21289 1.75586 6.11914 1.87109 6.03906 1.99219L6.03906 1.99219C5.96289 2.10742 5.89648 2.22852 5.84375 2.35742C5.78906 2.48633 5.74609 2.61914 5.7168 2.75391L5.7168 2.75391L5.7168 2.75391C5.68359 2.90625 5.66797 3.0625 5.66797 3.22266ZM15.834 4.05469L7.66797 4.05469L7.66797 3.22266C7.66797 3.19141 7.67383 3.16406 7.68359 3.13672C7.69531 3.11133 7.71094 3.08594 7.73242 3.06445C7.75391 3.04297 7.7793 3.02734 7.80469 3.01562C7.83203 3.00586 7.85938 3 7.89062 3L19.502 3C19.5312 3 19.5605 3.00586 19.5859 3.01562C19.6133 3.02734 19.6367 3.04297 19.6582 3.06445C19.6797 3.08594 19.6953 3.11133 19.707 3.13672L19.707 3.13672L19.707 3.13672C19.7188 3.16406 19.7227 3.19141 19.7227 3.22266L19.7227 17.8887C19.7227 17.9199 19.7188 17.9473 19.707 17.9746L19.707 17.9746L19.707 17.9746L19.707 17.9746L19.707 17.9746C19.6953 18 19.6797 18.0234 19.6582 18.0449C19.6367 18.0684 19.6133 18.084 19.5859 18.0938L19.5859 18.0938C19.5605 18.1055 19.5312 18.1113 19.502 18.1113L18.0547 18.1113L18.0547 6.27734C18.0547 6.11719 18.0391 5.96289 18.0059 5.81055L18.0059 5.80859C17.9766 5.67383 17.9355 5.54102 17.8809 5.41211C17.8262 5.2832 17.7617 5.16211 17.6855 5.04883L17.6855 5.04688C17.6035 4.92578 17.5098 4.81055 17.4043 4.70508C17.2988 4.59961 17.1855 4.50586 17.0625 4.42578C16.9473 4.34961 16.8262 4.2832 16.6992 4.23047C16.5684 4.17578 16.4355 4.13281 16.3008 4.10352L16.3008 4.10352L16.3008 4.10352L16.3008 4.10352C16.1484 4.07031 15.9922 4.05469 15.834 4.05469ZM15.834 6.05469L4.22266 6.05469C4.19141 6.05469 4.16406 6.06055 4.13672 6.07031C4.11133 6.08203 4.08594 6.09766 4.06445 6.11914C4.04297 6.14062 4.02734 6.16602 4.01562 6.19141L4.01562 6.19141C4.00586 6.21875 4 6.24609 4 6.27734L4 20.9434C4 20.9746 4.00586 21.002 4.01562 21.0293C4.02734 21.0547 4.04297 21.0781 4.06445 21.0996C4.08594 21.123 4.11133 21.1387 4.13672 21.1484L4.13672 21.1484L4.13672 21.1484C4.16406 21.1602 4.19141 21.166 4.22266 21.166L15.834 21.166C15.8633 21.166 15.8926 21.1602 15.918 21.1484L15.918 21.1484C15.9453 21.1387 15.9688 21.123 15.9902 21.0996C16.0117 21.0781 16.0273 21.0547 16.0391 21.0293L16.0391 21.0293C16.0508 21.002 16.0547 20.9746 16.0547 20.9434L16.0547 6.27734C16.0547 6.24609 16.0508 6.21875 16.0391 6.19141L16.0391 6.19141C16.0273 6.16602 16.0117 6.14062 15.9902 6.11914C15.9688 6.09766 15.9453 6.08203 15.918 6.07031C15.8926 6.06055 15.8633 6.05469 15.834 6.05469ZM6.38867 9.08008L13.7266 9.08008C13.8633 9.08008 13.9922 9.10547 14.1094 9.1543C14.2285 9.20312 14.3359 9.27539 14.4336 9.37305C14.5312 9.4707 14.6035 9.57812 14.6523 9.69727C14.7012 9.81445 14.7266 9.94336 14.7266 10.0801C14.7266 10.2188 14.7012 10.3477 14.6523 10.4648C14.6035 10.582 14.5312 10.6895 14.4336 10.7871C14.3359 10.8848 14.2285 10.959 14.1094 11.0078C13.9922 11.0566 13.8633 11.0801 13.7266 11.0801L6.38867 11.0801C5.82812 11.0801 5.38867 10.6406 5.38867 10.0801C5.38867 9.52148 5.82812 9.08008 6.38867 9.08008ZM13.7266 13.0801L6.38867 13.0801C5.82812 13.0801 5.38867 13.5215 5.38867 14.0801C5.38867 14.6406 5.82812 15.0801 6.38867 15.0801L13.7266 15.0801C13.8633 15.0801 13.9922 15.0566 14.1094 15.0078C14.2285 14.959 14.3359 14.8848 14.4336 14.7871C14.5312 14.6895 14.6035 14.582 14.6523 14.4648C14.7012 14.3477 14.7266 14.2188 14.7266 14.0801C14.7266 13.9434 14.7012 13.8145 14.6523 13.6973C14.6035 13.5781 14.5312 13.4707 14.4336 13.373C14.3359 13.2754 14.2285 13.2031 14.1094 13.1543C13.9922 13.1055 13.8633 13.0801 13.7266 13.0801ZM6.38867 17.0801L13.7266 17.0801C14.002 17.0801 14.2383 17.1777 14.4336 17.373C14.6289 17.5684 14.7266 17.8047 14.7266 18.0801C14.7266 18.3574 14.6289 18.5918 14.4336 18.7871C14.2383 18.9824 14.002 19.0801 13.7266 19.0801L6.38867 19.0801C5.82812 19.0801 5.38867 18.6406 5.38867 18.0801C5.38867 17.5215 5.82812 17.0801 6.38867 17.0801Z" clip-rule="evenodd" fill-opacity="1.000000" fill-rule="evenodd"/>
	</g>
</svg>
