<svg width="32" height="32" viewBox="0 0 32 32" fill="none" xmlns="http://www.w3.org/2000/svg">
<path d="M24 10H20V9C20 8.20435 19.6839 7.44129 19.1213 6.87868C18.5587 6.31607 17.7956 6 17 6H15C14.2044 6 13.4413 6.31607 12.8787 6.87868C12.3161 7.44129 12 8.20435 12 9V10H8C7.73478 10 7.48043 10.1054 7.29289 10.2929C7.10536 10.4804 7 10.7348 7 11C7 11.2652 7.10536 11.5196 7.29289 11.7071C7.48043 11.8946 7.73478 12 8 12H9V23C9 23.7956 9.31607 24.5587 9.87868 25.1213C10.4413 25.6839 11.2044 26 12 26H20C20.7956 26 21.5587 25.6839 22.1213 25.1213C22.6839 24.5587 23 23.7956 23 23V12H24C24.2652 12 24.5196 11.8946 24.7071 11.7071C24.8946 11.5196 25 11.2652 25 11C25 10.7348 24.8946 10.4804 24.7071 10.2929C24.5196 10.1054 24.2652 10 24 10ZM14 9C14 8.73478 14.1054 8.48043 14.2929 8.29289C14.4804 8.10536 14.7348 8 15 8H17C17.2652 8 17.5196 8.10536 17.7071 8.29289C17.8946 8.48043 18 8.73478 18 9V10H14V9ZM21 23C21 23.2652 20.8946 23.5196 20.7071 23.7071C20.5196 23.8946 20.2652 24 20 24H12C11.7348 24 11.4804 23.8946 11.2929 23.7071C11.1054 23.5196 11 23.2652 11 23V12H21V23Z" />
</svg>
