<svg width="20" height="20" viewBox="0 0 20 20" fill="none" xmlns="http://www.w3.org/2000/svg">
  <path d="M9.99967 10.0003C12.333 10.0003 14.1663 8.16699 14.1663 5.83366C14.1663 3.50033 12.333 1.66699 9.99967 1.66699C7.66634 1.66699 5.83301 3.50033 5.83301 5.83366C5.83301 8.16699 7.66634 10.0003 9.99967 10.0003Z" />
  <path d="M14.5 18.333C16.1569 18.333 17.5532 16.9384 16.9079 15.4123C16.5351 14.5305 15.9934 13.7198 15.3033 13.0297C13.8968 11.6232 11.9891 10.833 10 10.833C8.01088 10.833 6.10322 11.6232 4.6967 13.0297C4.00661 13.7198 3.46489 14.5305 3.09207 15.4123C2.44685 16.9384 3.84315 18.333 5.5 18.333L10 18.333H14.5Z" />
</svg>
